G04 #@! TF.GenerationSoftware,KiCad,Pcbnew,5.1.5+dfsg1-2build2*
G04 #@! TF.CreationDate,2022-01-25T23:10:58-07:00*
G04 #@! TF.ProjectId,fcch-laser-controller,66636368-2d6c-4617-9365-722d636f6e74,rev?*
G04 #@! TF.SameCoordinates,Original*
G04 #@! TF.FileFunction,Legend,Top*
G04 #@! TF.FilePolarity,Positive*
%FSLAX46Y46*%
G04 Gerber Fmt 4.6, Leading zero omitted, Abs format (unit mm)*
G04 Created by KiCad (PCBNEW 5.1.5+dfsg1-2build2) date 2022-01-25 23:10:58*
%MOMM*%
%LPD*%
G04 APERTURE LIST*
%ADD10C,0.150000*%
%ADD11C,0.125000*%
%ADD12C,0.500000*%
%ADD13C,0.120000*%
G04 APERTURE END LIST*
D10*
X181332380Y-89862380D02*
X180760952Y-89862380D01*
X181046666Y-89862380D02*
X181046666Y-88862380D01*
X180951428Y-89005238D01*
X180856190Y-89100476D01*
X180760952Y-89148095D01*
X181665714Y-88862380D02*
X182284761Y-88862380D01*
X181951428Y-89243333D01*
X182094285Y-89243333D01*
X182189523Y-89290952D01*
X182237142Y-89338571D01*
X182284761Y-89433809D01*
X182284761Y-89671904D01*
X182237142Y-89767142D01*
X182189523Y-89814761D01*
X182094285Y-89862380D01*
X181808571Y-89862380D01*
X181713333Y-89814761D01*
X181665714Y-89767142D01*
X183475238Y-89338571D02*
X183808571Y-89338571D01*
X183951428Y-89862380D02*
X183475238Y-89862380D01*
X183475238Y-88862380D01*
X183951428Y-88862380D01*
X184380000Y-89862380D02*
X184380000Y-88862380D01*
X184951428Y-89862380D01*
X184951428Y-88862380D01*
X177380000Y-91512380D02*
X177380000Y-90512380D01*
X177618095Y-90512380D01*
X177760952Y-90560000D01*
X177856190Y-90655238D01*
X177903809Y-90750476D01*
X177951428Y-90940952D01*
X177951428Y-91083809D01*
X177903809Y-91274285D01*
X177856190Y-91369523D01*
X177760952Y-91464761D01*
X177618095Y-91512380D01*
X177380000Y-91512380D01*
X178380000Y-91512380D02*
X178380000Y-90512380D01*
X179427619Y-91512380D02*
X179094285Y-91036190D01*
X178856190Y-91512380D02*
X178856190Y-90512380D01*
X179237142Y-90512380D01*
X179332380Y-90560000D01*
X179380000Y-90607619D01*
X179427619Y-90702857D01*
X179427619Y-90845714D01*
X179380000Y-90940952D01*
X179332380Y-90988571D01*
X179237142Y-91036190D01*
X178856190Y-91036190D01*
X179903809Y-91464761D02*
X179903809Y-91512380D01*
X179856190Y-91607619D01*
X179808571Y-91655238D01*
X181046666Y-91464761D02*
X181189523Y-91512380D01*
X181427619Y-91512380D01*
X181522857Y-91464761D01*
X181570476Y-91417142D01*
X181618095Y-91321904D01*
X181618095Y-91226666D01*
X181570476Y-91131428D01*
X181522857Y-91083809D01*
X181427619Y-91036190D01*
X181237142Y-90988571D01*
X181141904Y-90940952D01*
X181094285Y-90893333D01*
X181046666Y-90798095D01*
X181046666Y-90702857D01*
X181094285Y-90607619D01*
X181141904Y-90560000D01*
X181237142Y-90512380D01*
X181475238Y-90512380D01*
X181618095Y-90560000D01*
X181903809Y-90512380D02*
X182475238Y-90512380D01*
X182189523Y-91512380D02*
X182189523Y-90512380D01*
X182808571Y-90988571D02*
X183141904Y-90988571D01*
X183284761Y-91512380D02*
X182808571Y-91512380D01*
X182808571Y-90512380D01*
X183284761Y-90512380D01*
X183713333Y-91512380D02*
X183713333Y-90512380D01*
X184094285Y-90512380D01*
X184189523Y-90560000D01*
X184237142Y-90607619D01*
X184284761Y-90702857D01*
X184284761Y-90845714D01*
X184237142Y-90940952D01*
X184189523Y-90988571D01*
X184094285Y-91036190D01*
X183713333Y-91036190D01*
X184760952Y-91464761D02*
X184760952Y-91512380D01*
X184713333Y-91607619D01*
X184665714Y-91655238D01*
X186427619Y-91512380D02*
X185951428Y-91512380D01*
X185951428Y-90512380D01*
X186760952Y-91512380D02*
X186760952Y-90512380D01*
X187237142Y-91512380D02*
X187237142Y-90512380D01*
X187570476Y-91226666D01*
X187903809Y-90512380D01*
X187903809Y-91512380D01*
X188380000Y-91417142D02*
X188427619Y-91464761D01*
X188380000Y-91512380D01*
X188332380Y-91464761D01*
X188380000Y-91417142D01*
X188380000Y-91512380D01*
X188380000Y-90893333D02*
X188427619Y-90940952D01*
X188380000Y-90988571D01*
X188332380Y-90940952D01*
X188380000Y-90893333D01*
X188380000Y-90988571D01*
X178070476Y-92162380D02*
X178737142Y-93162380D01*
X178737142Y-92162380D02*
X178070476Y-93162380D01*
X180403809Y-93162380D02*
X179832380Y-93162380D01*
X180118095Y-93162380D02*
X180118095Y-92162380D01*
X180022857Y-92305238D01*
X179927619Y-92400476D01*
X179832380Y-92448095D01*
X180784761Y-92257619D02*
X180832380Y-92210000D01*
X180927619Y-92162380D01*
X181165714Y-92162380D01*
X181260952Y-92210000D01*
X181308571Y-92257619D01*
X181356190Y-92352857D01*
X181356190Y-92448095D01*
X181308571Y-92590952D01*
X180737142Y-93162380D01*
X181356190Y-93162380D01*
X181832380Y-93114761D02*
X181832380Y-93162380D01*
X181784761Y-93257619D01*
X181737142Y-93305238D01*
X183546666Y-93162380D02*
X182975238Y-93162380D01*
X183260952Y-93162380D02*
X183260952Y-92162380D01*
X183165714Y-92305238D01*
X183070476Y-92400476D01*
X182975238Y-92448095D01*
X184403809Y-92495714D02*
X184403809Y-93162380D01*
X184165714Y-92114761D02*
X183927619Y-92829047D01*
X184546666Y-92829047D01*
X184975238Y-93114761D02*
X184975238Y-93162380D01*
X184927619Y-93257619D01*
X184880000Y-93305238D01*
X186118095Y-92257619D02*
X186165714Y-92210000D01*
X186260952Y-92162380D01*
X186499047Y-92162380D01*
X186594285Y-92210000D01*
X186641904Y-92257619D01*
X186689523Y-92352857D01*
X186689523Y-92448095D01*
X186641904Y-92590952D01*
X186070476Y-93162380D01*
X186689523Y-93162380D01*
X187641904Y-93162380D02*
X187070476Y-93162380D01*
X187356190Y-93162380D02*
X187356190Y-92162380D01*
X187260952Y-92305238D01*
X187165714Y-92400476D01*
X187070476Y-92448095D01*
X178403809Y-94336190D02*
X178403809Y-94812380D01*
X178070476Y-93812380D02*
X178403809Y-94336190D01*
X178737142Y-93812380D01*
X179784761Y-93907619D02*
X179832380Y-93860000D01*
X179927619Y-93812380D01*
X180165714Y-93812380D01*
X180260952Y-93860000D01*
X180308571Y-93907619D01*
X180356190Y-94002857D01*
X180356190Y-94098095D01*
X180308571Y-94240952D01*
X179737142Y-94812380D01*
X180356190Y-94812380D01*
X180689523Y-93812380D02*
X181356190Y-93812380D01*
X180927619Y-94812380D01*
X181784761Y-94764761D02*
X181784761Y-94812380D01*
X181737142Y-94907619D01*
X181689523Y-94955238D01*
X182927619Y-93907619D02*
X182975238Y-93860000D01*
X183070476Y-93812380D01*
X183308571Y-93812380D01*
X183403809Y-93860000D01*
X183451428Y-93907619D01*
X183499047Y-94002857D01*
X183499047Y-94098095D01*
X183451428Y-94240952D01*
X182880000Y-94812380D01*
X183499047Y-94812380D01*
X184356190Y-93812380D02*
X184165714Y-93812380D01*
X184070476Y-93860000D01*
X184022857Y-93907619D01*
X183927619Y-94050476D01*
X183880000Y-94240952D01*
X183880000Y-94621904D01*
X183927619Y-94717142D01*
X183975238Y-94764761D01*
X184070476Y-94812380D01*
X184260952Y-94812380D01*
X184356190Y-94764761D01*
X184403809Y-94717142D01*
X184451428Y-94621904D01*
X184451428Y-94383809D01*
X184403809Y-94288571D01*
X184356190Y-94240952D01*
X184260952Y-94193333D01*
X184070476Y-94193333D01*
X183975238Y-94240952D01*
X183927619Y-94288571D01*
X183880000Y-94383809D01*
X184927619Y-94764761D02*
X184927619Y-94812380D01*
X184880000Y-94907619D01*
X184832380Y-94955238D01*
X186070476Y-93907619D02*
X186118095Y-93860000D01*
X186213333Y-93812380D01*
X186451428Y-93812380D01*
X186546666Y-93860000D01*
X186594285Y-93907619D01*
X186641904Y-94002857D01*
X186641904Y-94098095D01*
X186594285Y-94240952D01*
X186022857Y-94812380D01*
X186641904Y-94812380D01*
X187022857Y-93907619D02*
X187070476Y-93860000D01*
X187165714Y-93812380D01*
X187403809Y-93812380D01*
X187499047Y-93860000D01*
X187546666Y-93907619D01*
X187594285Y-94002857D01*
X187594285Y-94098095D01*
X187546666Y-94240952D01*
X186975238Y-94812380D01*
X187594285Y-94812380D01*
X178070476Y-95462380D02*
X178737142Y-95462380D01*
X178070476Y-96462380D01*
X178737142Y-96462380D01*
X179832380Y-95557619D02*
X179880000Y-95510000D01*
X179975238Y-95462380D01*
X180213333Y-95462380D01*
X180308571Y-95510000D01*
X180356190Y-95557619D01*
X180403809Y-95652857D01*
X180403809Y-95748095D01*
X180356190Y-95890952D01*
X179784761Y-96462380D01*
X180403809Y-96462380D01*
X181308571Y-95462380D02*
X180832380Y-95462380D01*
X180784761Y-95938571D01*
X180832380Y-95890952D01*
X180927619Y-95843333D01*
X181165714Y-95843333D01*
X181260952Y-95890952D01*
X181308571Y-95938571D01*
X181356190Y-96033809D01*
X181356190Y-96271904D01*
X181308571Y-96367142D01*
X181260952Y-96414761D01*
X181165714Y-96462380D01*
X180927619Y-96462380D01*
X180832380Y-96414761D01*
X180784761Y-96367142D01*
X181832380Y-96414761D02*
X181832380Y-96462380D01*
X181784761Y-96557619D01*
X181737142Y-96605238D01*
X182927619Y-95462380D02*
X183546666Y-95462380D01*
X183213333Y-95843333D01*
X183356190Y-95843333D01*
X183451428Y-95890952D01*
X183499047Y-95938571D01*
X183546666Y-96033809D01*
X183546666Y-96271904D01*
X183499047Y-96367142D01*
X183451428Y-96414761D01*
X183356190Y-96462380D01*
X183070476Y-96462380D01*
X182975238Y-96414761D01*
X182927619Y-96367142D01*
X183880000Y-95462380D02*
X184499047Y-95462380D01*
X184165714Y-95843333D01*
X184308571Y-95843333D01*
X184403809Y-95890952D01*
X184451428Y-95938571D01*
X184499047Y-96033809D01*
X184499047Y-96271904D01*
X184451428Y-96367142D01*
X184403809Y-96414761D01*
X184308571Y-96462380D01*
X184022857Y-96462380D01*
X183927619Y-96414761D01*
X183880000Y-96367142D01*
X184975238Y-96414761D02*
X184975238Y-96462380D01*
X184927619Y-96557619D01*
X184880000Y-96605238D01*
X186118095Y-95557619D02*
X186165714Y-95510000D01*
X186260952Y-95462380D01*
X186499047Y-95462380D01*
X186594285Y-95510000D01*
X186641904Y-95557619D01*
X186689523Y-95652857D01*
X186689523Y-95748095D01*
X186641904Y-95890952D01*
X186070476Y-96462380D01*
X186689523Y-96462380D01*
X187022857Y-95462380D02*
X187641904Y-95462380D01*
X187308571Y-95843333D01*
X187451428Y-95843333D01*
X187546666Y-95890952D01*
X187594285Y-95938571D01*
X187641904Y-96033809D01*
X187641904Y-96271904D01*
X187594285Y-96367142D01*
X187546666Y-96414761D01*
X187451428Y-96462380D01*
X187165714Y-96462380D01*
X187070476Y-96414761D01*
X187022857Y-96367142D01*
X140256190Y-146899761D02*
X140399047Y-146947380D01*
X140637142Y-146947380D01*
X140732380Y-146899761D01*
X140780000Y-146852142D01*
X140827619Y-146756904D01*
X140827619Y-146661666D01*
X140780000Y-146566428D01*
X140732380Y-146518809D01*
X140637142Y-146471190D01*
X140446666Y-146423571D01*
X140351428Y-146375952D01*
X140303809Y-146328333D01*
X140256190Y-146233095D01*
X140256190Y-146137857D01*
X140303809Y-146042619D01*
X140351428Y-145995000D01*
X140446666Y-145947380D01*
X140684761Y-145947380D01*
X140827619Y-145995000D01*
X141113333Y-145947380D02*
X141684761Y-145947380D01*
X141399047Y-146947380D02*
X141399047Y-145947380D01*
X142018095Y-146947380D02*
X142018095Y-145947380D01*
X142399047Y-145947380D01*
X142494285Y-145995000D01*
X142541904Y-146042619D01*
X142589523Y-146137857D01*
X142589523Y-146280714D01*
X142541904Y-146375952D01*
X142494285Y-146423571D01*
X142399047Y-146471190D01*
X142018095Y-146471190D01*
X143780000Y-146947380D02*
X143780000Y-145947380D01*
X144018095Y-145947380D01*
X144160952Y-145995000D01*
X144256190Y-146090238D01*
X144303809Y-146185476D01*
X144351428Y-146375952D01*
X144351428Y-146518809D01*
X144303809Y-146709285D01*
X144256190Y-146804523D01*
X144160952Y-146899761D01*
X144018095Y-146947380D01*
X143780000Y-146947380D01*
X144780000Y-146947380D02*
X144780000Y-145947380D01*
X145827619Y-146947380D02*
X145494285Y-146471190D01*
X145256190Y-146947380D02*
X145256190Y-145947380D01*
X145637142Y-145947380D01*
X145732380Y-145995000D01*
X145780000Y-146042619D01*
X145827619Y-146137857D01*
X145827619Y-146280714D01*
X145780000Y-146375952D01*
X145732380Y-146423571D01*
X145637142Y-146471190D01*
X145256190Y-146471190D01*
X147780000Y-146423571D02*
X148113333Y-146423571D01*
X148256190Y-146947380D02*
X147780000Y-146947380D01*
X147780000Y-145947380D01*
X148256190Y-145947380D01*
X148684761Y-146947380D02*
X148684761Y-145947380D01*
X149256190Y-146947380D01*
X149256190Y-145947380D01*
X140208571Y-147645000D02*
X140113333Y-147597380D01*
X139970476Y-147597380D01*
X139827619Y-147645000D01*
X139732380Y-147740238D01*
X139684761Y-147835476D01*
X139637142Y-148025952D01*
X139637142Y-148168809D01*
X139684761Y-148359285D01*
X139732380Y-148454523D01*
X139827619Y-148549761D01*
X139970476Y-148597380D01*
X140065714Y-148597380D01*
X140208571Y-148549761D01*
X140256190Y-148502142D01*
X140256190Y-148168809D01*
X140065714Y-148168809D01*
X140684761Y-148597380D02*
X140684761Y-147597380D01*
X141256190Y-148597380D01*
X141256190Y-147597380D01*
X141732380Y-148597380D02*
X141732380Y-147597380D01*
X141970476Y-147597380D01*
X142113333Y-147645000D01*
X142208571Y-147740238D01*
X142256190Y-147835476D01*
X142303809Y-148025952D01*
X142303809Y-148168809D01*
X142256190Y-148359285D01*
X142208571Y-148454523D01*
X142113333Y-148549761D01*
X141970476Y-148597380D01*
X141732380Y-148597380D01*
X144018095Y-147645000D02*
X143922857Y-147597380D01*
X143780000Y-147597380D01*
X143637142Y-147645000D01*
X143541904Y-147740238D01*
X143494285Y-147835476D01*
X143446666Y-148025952D01*
X143446666Y-148168809D01*
X143494285Y-148359285D01*
X143541904Y-148454523D01*
X143637142Y-148549761D01*
X143780000Y-148597380D01*
X143875238Y-148597380D01*
X144018095Y-148549761D01*
X144065714Y-148502142D01*
X144065714Y-148168809D01*
X143875238Y-148168809D01*
X144494285Y-148597380D02*
X144494285Y-147597380D01*
X145065714Y-148597380D01*
X145065714Y-147597380D01*
X145541904Y-148597380D02*
X145541904Y-147597380D01*
X145780000Y-147597380D01*
X145922857Y-147645000D01*
X146018095Y-147740238D01*
X146065714Y-147835476D01*
X146113333Y-148025952D01*
X146113333Y-148168809D01*
X146065714Y-148359285D01*
X146018095Y-148454523D01*
X145922857Y-148549761D01*
X145780000Y-148597380D01*
X145541904Y-148597380D01*
X147827619Y-147645000D02*
X147732380Y-147597380D01*
X147589523Y-147597380D01*
X147446666Y-147645000D01*
X147351428Y-147740238D01*
X147303809Y-147835476D01*
X147256190Y-148025952D01*
X147256190Y-148168809D01*
X147303809Y-148359285D01*
X147351428Y-148454523D01*
X147446666Y-148549761D01*
X147589523Y-148597380D01*
X147684761Y-148597380D01*
X147827619Y-148549761D01*
X147875238Y-148502142D01*
X147875238Y-148168809D01*
X147684761Y-148168809D01*
X148303809Y-148597380D02*
X148303809Y-147597380D01*
X148875238Y-148597380D01*
X148875238Y-147597380D01*
X149351428Y-148597380D02*
X149351428Y-147597380D01*
X149589523Y-147597380D01*
X149732380Y-147645000D01*
X149827619Y-147740238D01*
X149875238Y-147835476D01*
X149922857Y-148025952D01*
X149922857Y-148168809D01*
X149875238Y-148359285D01*
X149827619Y-148454523D01*
X149732380Y-148549761D01*
X149589523Y-148597380D01*
X149351428Y-148597380D01*
X154226190Y-146899761D02*
X154369047Y-146947380D01*
X154607142Y-146947380D01*
X154702380Y-146899761D01*
X154750000Y-146852142D01*
X154797619Y-146756904D01*
X154797619Y-146661666D01*
X154750000Y-146566428D01*
X154702380Y-146518809D01*
X154607142Y-146471190D01*
X154416666Y-146423571D01*
X154321428Y-146375952D01*
X154273809Y-146328333D01*
X154226190Y-146233095D01*
X154226190Y-146137857D01*
X154273809Y-146042619D01*
X154321428Y-145995000D01*
X154416666Y-145947380D01*
X154654761Y-145947380D01*
X154797619Y-145995000D01*
X155083333Y-145947380D02*
X155654761Y-145947380D01*
X155369047Y-146947380D02*
X155369047Y-145947380D01*
X155988095Y-146947380D02*
X155988095Y-145947380D01*
X156369047Y-145947380D01*
X156464285Y-145995000D01*
X156511904Y-146042619D01*
X156559523Y-146137857D01*
X156559523Y-146280714D01*
X156511904Y-146375952D01*
X156464285Y-146423571D01*
X156369047Y-146471190D01*
X155988095Y-146471190D01*
X157750000Y-146947380D02*
X157750000Y-145947380D01*
X157988095Y-145947380D01*
X158130952Y-145995000D01*
X158226190Y-146090238D01*
X158273809Y-146185476D01*
X158321428Y-146375952D01*
X158321428Y-146518809D01*
X158273809Y-146709285D01*
X158226190Y-146804523D01*
X158130952Y-146899761D01*
X157988095Y-146947380D01*
X157750000Y-146947380D01*
X158750000Y-146947380D02*
X158750000Y-145947380D01*
X159797619Y-146947380D02*
X159464285Y-146471190D01*
X159226190Y-146947380D02*
X159226190Y-145947380D01*
X159607142Y-145947380D01*
X159702380Y-145995000D01*
X159750000Y-146042619D01*
X159797619Y-146137857D01*
X159797619Y-146280714D01*
X159750000Y-146375952D01*
X159702380Y-146423571D01*
X159607142Y-146471190D01*
X159226190Y-146471190D01*
X161750000Y-146423571D02*
X162083333Y-146423571D01*
X162226190Y-146947380D02*
X161750000Y-146947380D01*
X161750000Y-145947380D01*
X162226190Y-145947380D01*
X162654761Y-146947380D02*
X162654761Y-145947380D01*
X163226190Y-146947380D01*
X163226190Y-145947380D01*
X154178571Y-147645000D02*
X154083333Y-147597380D01*
X153940476Y-147597380D01*
X153797619Y-147645000D01*
X153702380Y-147740238D01*
X153654761Y-147835476D01*
X153607142Y-148025952D01*
X153607142Y-148168809D01*
X153654761Y-148359285D01*
X153702380Y-148454523D01*
X153797619Y-148549761D01*
X153940476Y-148597380D01*
X154035714Y-148597380D01*
X154178571Y-148549761D01*
X154226190Y-148502142D01*
X154226190Y-148168809D01*
X154035714Y-148168809D01*
X154654761Y-148597380D02*
X154654761Y-147597380D01*
X155226190Y-148597380D01*
X155226190Y-147597380D01*
X155702380Y-148597380D02*
X155702380Y-147597380D01*
X155940476Y-147597380D01*
X156083333Y-147645000D01*
X156178571Y-147740238D01*
X156226190Y-147835476D01*
X156273809Y-148025952D01*
X156273809Y-148168809D01*
X156226190Y-148359285D01*
X156178571Y-148454523D01*
X156083333Y-148549761D01*
X155940476Y-148597380D01*
X155702380Y-148597380D01*
X157988095Y-147645000D02*
X157892857Y-147597380D01*
X157750000Y-147597380D01*
X157607142Y-147645000D01*
X157511904Y-147740238D01*
X157464285Y-147835476D01*
X157416666Y-148025952D01*
X157416666Y-148168809D01*
X157464285Y-148359285D01*
X157511904Y-148454523D01*
X157607142Y-148549761D01*
X157750000Y-148597380D01*
X157845238Y-148597380D01*
X157988095Y-148549761D01*
X158035714Y-148502142D01*
X158035714Y-148168809D01*
X157845238Y-148168809D01*
X158464285Y-148597380D02*
X158464285Y-147597380D01*
X159035714Y-148597380D01*
X159035714Y-147597380D01*
X159511904Y-148597380D02*
X159511904Y-147597380D01*
X159750000Y-147597380D01*
X159892857Y-147645000D01*
X159988095Y-147740238D01*
X160035714Y-147835476D01*
X160083333Y-148025952D01*
X160083333Y-148168809D01*
X160035714Y-148359285D01*
X159988095Y-148454523D01*
X159892857Y-148549761D01*
X159750000Y-148597380D01*
X159511904Y-148597380D01*
X161797619Y-147645000D02*
X161702380Y-147597380D01*
X161559523Y-147597380D01*
X161416666Y-147645000D01*
X161321428Y-147740238D01*
X161273809Y-147835476D01*
X161226190Y-148025952D01*
X161226190Y-148168809D01*
X161273809Y-148359285D01*
X161321428Y-148454523D01*
X161416666Y-148549761D01*
X161559523Y-148597380D01*
X161654761Y-148597380D01*
X161797619Y-148549761D01*
X161845238Y-148502142D01*
X161845238Y-148168809D01*
X161654761Y-148168809D01*
X162273809Y-148597380D02*
X162273809Y-147597380D01*
X162845238Y-148597380D01*
X162845238Y-147597380D01*
X163321428Y-148597380D02*
X163321428Y-147597380D01*
X163559523Y-147597380D01*
X163702380Y-147645000D01*
X163797619Y-147740238D01*
X163845238Y-147835476D01*
X163892857Y-148025952D01*
X163892857Y-148168809D01*
X163845238Y-148359285D01*
X163797619Y-148454523D01*
X163702380Y-148549761D01*
X163559523Y-148597380D01*
X163321428Y-148597380D01*
X103548571Y-92209761D02*
X102048571Y-92209761D01*
X102048571Y-91828809D01*
X102120000Y-91733571D01*
X102191428Y-91685952D01*
X102334285Y-91638333D01*
X102548571Y-91638333D01*
X102691428Y-91685952D01*
X102762857Y-91733571D01*
X102834285Y-91828809D01*
X102834285Y-92209761D01*
X102048571Y-91305000D02*
X103548571Y-91066904D01*
X102477142Y-90876428D01*
X103548571Y-90685952D01*
X102048571Y-90447857D01*
X103548571Y-90066904D02*
X102048571Y-90066904D01*
X103120000Y-89733571D01*
X102048571Y-89400238D01*
X103548571Y-89400238D01*
X103120000Y-100036190D02*
X103120000Y-99560000D01*
X103548571Y-100131428D02*
X102048571Y-99798095D01*
X103548571Y-99464761D01*
X103548571Y-99131428D02*
X102048571Y-99131428D01*
X103548571Y-98083809D02*
X102834285Y-98417142D01*
X103548571Y-98655238D02*
X102048571Y-98655238D01*
X102048571Y-98274285D01*
X102120000Y-98179047D01*
X102191428Y-98131428D01*
X102334285Y-98083809D01*
X102548571Y-98083809D01*
X102691428Y-98131428D01*
X102762857Y-98179047D01*
X102834285Y-98274285D01*
X102834285Y-98655238D01*
X181678571Y-84476190D02*
X180178571Y-84476190D01*
X180178571Y-84095238D01*
X180250000Y-84000000D01*
X180321428Y-83952380D01*
X180464285Y-83904761D01*
X180678571Y-83904761D01*
X180821428Y-83952380D01*
X180892857Y-84000000D01*
X180964285Y-84095238D01*
X180964285Y-84476190D01*
X180178571Y-83571428D02*
X181678571Y-83333333D01*
X180607142Y-83142857D01*
X181678571Y-82952380D01*
X180178571Y-82714285D01*
X181678571Y-81761904D02*
X180964285Y-82095238D01*
X181678571Y-82333333D02*
X180178571Y-82333333D01*
X180178571Y-81952380D01*
X180250000Y-81857142D01*
X180321428Y-81809523D01*
X180464285Y-81761904D01*
X180678571Y-81761904D01*
X180821428Y-81809523D01*
X180892857Y-81857142D01*
X180964285Y-81952380D01*
X180964285Y-82333333D01*
X181678571Y-80571428D02*
X180178571Y-80571428D01*
X181678571Y-80095238D02*
X180178571Y-80095238D01*
X181678571Y-79523809D01*
X180178571Y-79523809D01*
X160178571Y-84285714D02*
X161678571Y-83619047D01*
X160178571Y-83619047D02*
X161678571Y-84285714D01*
X161678571Y-82476190D02*
X160178571Y-82476190D01*
X160178571Y-82095238D01*
X160250000Y-82000000D01*
X160321428Y-81952380D01*
X160464285Y-81904761D01*
X160678571Y-81904761D01*
X160821428Y-81952380D01*
X160892857Y-82000000D01*
X160964285Y-82095238D01*
X160964285Y-82476190D01*
X160178571Y-81571428D02*
X161678571Y-81333333D01*
X160607142Y-81142857D01*
X161678571Y-80952380D01*
X160178571Y-80714285D01*
X161678571Y-79761904D02*
X160964285Y-80095238D01*
X161678571Y-80333333D02*
X160178571Y-80333333D01*
X160178571Y-79952380D01*
X160250000Y-79857142D01*
X160321428Y-79809523D01*
X160464285Y-79761904D01*
X160678571Y-79761904D01*
X160821428Y-79809523D01*
X160892857Y-79857142D01*
X160964285Y-79952380D01*
X160964285Y-80333333D01*
X140964285Y-83952380D02*
X141678571Y-83952380D01*
X140178571Y-84285714D02*
X140964285Y-83952380D01*
X140178571Y-83619047D01*
X141678571Y-82523809D02*
X140178571Y-82523809D01*
X140178571Y-82142857D01*
X140250000Y-82047619D01*
X140321428Y-82000000D01*
X140464285Y-81952380D01*
X140678571Y-81952380D01*
X140821428Y-82000000D01*
X140892857Y-82047619D01*
X140964285Y-82142857D01*
X140964285Y-82523809D01*
X140178571Y-81619047D02*
X141678571Y-81380952D01*
X140607142Y-81190476D01*
X141678571Y-81000000D01*
X140178571Y-80761904D01*
X141678571Y-79809523D02*
X140964285Y-80142857D01*
X141678571Y-80380952D02*
X140178571Y-80380952D01*
X140178571Y-80000000D01*
X140250000Y-79904761D01*
X140321428Y-79857142D01*
X140464285Y-79809523D01*
X140678571Y-79809523D01*
X140821428Y-79857142D01*
X140892857Y-79904761D01*
X140964285Y-80000000D01*
X140964285Y-80380952D01*
X120178571Y-84285714D02*
X120178571Y-83619047D01*
X121678571Y-84285714D01*
X121678571Y-83619047D01*
X121678571Y-82476190D02*
X120178571Y-82476190D01*
X120178571Y-82095238D01*
X120250000Y-82000000D01*
X120321428Y-81952380D01*
X120464285Y-81904761D01*
X120678571Y-81904761D01*
X120821428Y-81952380D01*
X120892857Y-82000000D01*
X120964285Y-82095238D01*
X120964285Y-82476190D01*
X120178571Y-81571428D02*
X121678571Y-81333333D01*
X120607142Y-81142857D01*
X121678571Y-80952380D01*
X120178571Y-80714285D01*
X121678571Y-79761904D02*
X120964285Y-80095238D01*
X121678571Y-80333333D02*
X120178571Y-80333333D01*
X120178571Y-79952380D01*
X120250000Y-79857142D01*
X120321428Y-79809523D01*
X120464285Y-79761904D01*
X120678571Y-79761904D01*
X120821428Y-79809523D01*
X120892857Y-79857142D01*
X120964285Y-79952380D01*
X120964285Y-80333333D01*
D11*
X115332857Y-144353571D02*
X114999523Y-144353571D01*
X114999523Y-144877380D02*
X114999523Y-143877380D01*
X115475714Y-143877380D01*
X116428095Y-144782142D02*
X116380476Y-144829761D01*
X116237619Y-144877380D01*
X116142380Y-144877380D01*
X115999523Y-144829761D01*
X115904285Y-144734523D01*
X115856666Y-144639285D01*
X115809047Y-144448809D01*
X115809047Y-144305952D01*
X115856666Y-144115476D01*
X115904285Y-144020238D01*
X115999523Y-143925000D01*
X116142380Y-143877380D01*
X116237619Y-143877380D01*
X116380476Y-143925000D01*
X116428095Y-143972619D01*
X117428095Y-144782142D02*
X117380476Y-144829761D01*
X117237619Y-144877380D01*
X117142380Y-144877380D01*
X116999523Y-144829761D01*
X116904285Y-144734523D01*
X116856666Y-144639285D01*
X116809047Y-144448809D01*
X116809047Y-144305952D01*
X116856666Y-144115476D01*
X116904285Y-144020238D01*
X116999523Y-143925000D01*
X117142380Y-143877380D01*
X117237619Y-143877380D01*
X117380476Y-143925000D01*
X117428095Y-143972619D01*
X117856666Y-144877380D02*
X117856666Y-143877380D01*
X117856666Y-144353571D02*
X118428095Y-144353571D01*
X118428095Y-144877380D02*
X118428095Y-143877380D01*
X120142380Y-144877380D02*
X119666190Y-144877380D01*
X119666190Y-143877380D01*
X120904285Y-144877380D02*
X120904285Y-144353571D01*
X120856666Y-144258333D01*
X120761428Y-144210714D01*
X120570952Y-144210714D01*
X120475714Y-144258333D01*
X120904285Y-144829761D02*
X120809047Y-144877380D01*
X120570952Y-144877380D01*
X120475714Y-144829761D01*
X120428095Y-144734523D01*
X120428095Y-144639285D01*
X120475714Y-144544047D01*
X120570952Y-144496428D01*
X120809047Y-144496428D01*
X120904285Y-144448809D01*
X121332857Y-144829761D02*
X121428095Y-144877380D01*
X121618571Y-144877380D01*
X121713809Y-144829761D01*
X121761428Y-144734523D01*
X121761428Y-144686904D01*
X121713809Y-144591666D01*
X121618571Y-144544047D01*
X121475714Y-144544047D01*
X121380476Y-144496428D01*
X121332857Y-144401190D01*
X121332857Y-144353571D01*
X121380476Y-144258333D01*
X121475714Y-144210714D01*
X121618571Y-144210714D01*
X121713809Y-144258333D01*
X122570952Y-144829761D02*
X122475714Y-144877380D01*
X122285238Y-144877380D01*
X122190000Y-144829761D01*
X122142380Y-144734523D01*
X122142380Y-144353571D01*
X122190000Y-144258333D01*
X122285238Y-144210714D01*
X122475714Y-144210714D01*
X122570952Y-144258333D01*
X122618571Y-144353571D01*
X122618571Y-144448809D01*
X122142380Y-144544047D01*
X123047142Y-144877380D02*
X123047142Y-144210714D01*
X123047142Y-144401190D02*
X123094761Y-144305952D01*
X123142380Y-144258333D01*
X123237619Y-144210714D01*
X123332857Y-144210714D01*
X124999523Y-144782142D02*
X124951904Y-144829761D01*
X124809047Y-144877380D01*
X124713809Y-144877380D01*
X124570952Y-144829761D01*
X124475714Y-144734523D01*
X124428095Y-144639285D01*
X124380476Y-144448809D01*
X124380476Y-144305952D01*
X124428095Y-144115476D01*
X124475714Y-144020238D01*
X124570952Y-143925000D01*
X124713809Y-143877380D01*
X124809047Y-143877380D01*
X124951904Y-143925000D01*
X124999523Y-143972619D01*
X125570952Y-144877380D02*
X125475714Y-144829761D01*
X125428095Y-144782142D01*
X125380476Y-144686904D01*
X125380476Y-144401190D01*
X125428095Y-144305952D01*
X125475714Y-144258333D01*
X125570952Y-144210714D01*
X125713809Y-144210714D01*
X125809047Y-144258333D01*
X125856666Y-144305952D01*
X125904285Y-144401190D01*
X125904285Y-144686904D01*
X125856666Y-144782142D01*
X125809047Y-144829761D01*
X125713809Y-144877380D01*
X125570952Y-144877380D01*
X126332857Y-144210714D02*
X126332857Y-144877380D01*
X126332857Y-144305952D02*
X126380476Y-144258333D01*
X126475714Y-144210714D01*
X126618571Y-144210714D01*
X126713809Y-144258333D01*
X126761428Y-144353571D01*
X126761428Y-144877380D01*
X127094761Y-144210714D02*
X127475714Y-144210714D01*
X127237619Y-143877380D02*
X127237619Y-144734523D01*
X127285238Y-144829761D01*
X127380476Y-144877380D01*
X127475714Y-144877380D01*
X127809047Y-144877380D02*
X127809047Y-144210714D01*
X127809047Y-144401190D02*
X127856666Y-144305952D01*
X127904285Y-144258333D01*
X127999523Y-144210714D01*
X128094761Y-144210714D01*
X128570952Y-144877380D02*
X128475714Y-144829761D01*
X128428095Y-144782142D01*
X128380476Y-144686904D01*
X128380476Y-144401190D01*
X128428095Y-144305952D01*
X128475714Y-144258333D01*
X128570952Y-144210714D01*
X128713809Y-144210714D01*
X128809047Y-144258333D01*
X128856666Y-144305952D01*
X128904285Y-144401190D01*
X128904285Y-144686904D01*
X128856666Y-144782142D01*
X128809047Y-144829761D01*
X128713809Y-144877380D01*
X128570952Y-144877380D01*
X129475714Y-144877380D02*
X129380476Y-144829761D01*
X129332857Y-144734523D01*
X129332857Y-143877380D01*
X129999523Y-144877380D02*
X129904285Y-144829761D01*
X129856666Y-144734523D01*
X129856666Y-143877380D01*
X130761428Y-144829761D02*
X130666190Y-144877380D01*
X130475714Y-144877380D01*
X130380476Y-144829761D01*
X130332857Y-144734523D01*
X130332857Y-144353571D01*
X130380476Y-144258333D01*
X130475714Y-144210714D01*
X130666190Y-144210714D01*
X130761428Y-144258333D01*
X130809047Y-144353571D01*
X130809047Y-144448809D01*
X130332857Y-144544047D01*
X131237619Y-144877380D02*
X131237619Y-144210714D01*
X131237619Y-144401190D02*
X131285238Y-144305952D01*
X131332857Y-144258333D01*
X131428095Y-144210714D01*
X131523333Y-144210714D01*
X117237619Y-145835714D02*
X117475714Y-146502380D01*
X117713809Y-145835714D01*
X118618571Y-146502380D02*
X118047142Y-146502380D01*
X118332857Y-146502380D02*
X118332857Y-145502380D01*
X118237619Y-145645238D01*
X118142380Y-145740476D01*
X118047142Y-145788095D01*
X119761428Y-145597619D02*
X119809047Y-145550000D01*
X119904285Y-145502380D01*
X120142380Y-145502380D01*
X120237619Y-145550000D01*
X120285238Y-145597619D01*
X120332857Y-145692857D01*
X120332857Y-145788095D01*
X120285238Y-145930952D01*
X119713809Y-146502380D01*
X120332857Y-146502380D01*
X120951904Y-145502380D02*
X121047142Y-145502380D01*
X121142380Y-145550000D01*
X121190000Y-145597619D01*
X121237619Y-145692857D01*
X121285238Y-145883333D01*
X121285238Y-146121428D01*
X121237619Y-146311904D01*
X121190000Y-146407142D01*
X121142380Y-146454761D01*
X121047142Y-146502380D01*
X120951904Y-146502380D01*
X120856666Y-146454761D01*
X120809047Y-146407142D01*
X120761428Y-146311904D01*
X120713809Y-146121428D01*
X120713809Y-145883333D01*
X120761428Y-145692857D01*
X120809047Y-145597619D01*
X120856666Y-145550000D01*
X120951904Y-145502380D01*
X121666190Y-145597619D02*
X121713809Y-145550000D01*
X121809047Y-145502380D01*
X122047142Y-145502380D01*
X122142380Y-145550000D01*
X122190000Y-145597619D01*
X122237619Y-145692857D01*
X122237619Y-145788095D01*
X122190000Y-145930952D01*
X121618571Y-146502380D01*
X122237619Y-146502380D01*
X122618571Y-145597619D02*
X122666190Y-145550000D01*
X122761428Y-145502380D01*
X122999523Y-145502380D01*
X123094761Y-145550000D01*
X123142380Y-145597619D01*
X123190000Y-145692857D01*
X123190000Y-145788095D01*
X123142380Y-145930952D01*
X122570952Y-146502380D01*
X123190000Y-146502380D01*
X124332857Y-145454761D02*
X123475714Y-146740476D01*
X124856666Y-145502380D02*
X124951904Y-145502380D01*
X125047142Y-145550000D01*
X125094761Y-145597619D01*
X125142380Y-145692857D01*
X125190000Y-145883333D01*
X125190000Y-146121428D01*
X125142380Y-146311904D01*
X125094761Y-146407142D01*
X125047142Y-146454761D01*
X124951904Y-146502380D01*
X124856666Y-146502380D01*
X124761428Y-146454761D01*
X124713809Y-146407142D01*
X124666190Y-146311904D01*
X124618571Y-146121428D01*
X124618571Y-145883333D01*
X124666190Y-145692857D01*
X124713809Y-145597619D01*
X124761428Y-145550000D01*
X124856666Y-145502380D01*
X126142380Y-146502380D02*
X125570952Y-146502380D01*
X125856666Y-146502380D02*
X125856666Y-145502380D01*
X125761428Y-145645238D01*
X125666190Y-145740476D01*
X125570952Y-145788095D01*
X127285238Y-145454761D02*
X126428095Y-146740476D01*
X127570952Y-145597619D02*
X127618571Y-145550000D01*
X127713809Y-145502380D01*
X127951904Y-145502380D01*
X128047142Y-145550000D01*
X128094761Y-145597619D01*
X128142380Y-145692857D01*
X128142380Y-145788095D01*
X128094761Y-145930952D01*
X127523333Y-146502380D01*
X128142380Y-146502380D01*
X129047142Y-145502380D02*
X128570952Y-145502380D01*
X128523333Y-145978571D01*
X128570952Y-145930952D01*
X128666190Y-145883333D01*
X128904285Y-145883333D01*
X128999523Y-145930952D01*
X129047142Y-145978571D01*
X129094761Y-146073809D01*
X129094761Y-146311904D01*
X129047142Y-146407142D01*
X128999523Y-146454761D01*
X128904285Y-146502380D01*
X128666190Y-146502380D01*
X128570952Y-146454761D01*
X128523333Y-146407142D01*
X117499523Y-148079761D02*
X117642380Y-148127380D01*
X117880476Y-148127380D01*
X117975714Y-148079761D01*
X118023333Y-148032142D01*
X118070952Y-147936904D01*
X118070952Y-147841666D01*
X118023333Y-147746428D01*
X117975714Y-147698809D01*
X117880476Y-147651190D01*
X117690000Y-147603571D01*
X117594761Y-147555952D01*
X117547142Y-147508333D01*
X117499523Y-147413095D01*
X117499523Y-147317857D01*
X117547142Y-147222619D01*
X117594761Y-147175000D01*
X117690000Y-147127380D01*
X117928095Y-147127380D01*
X118070952Y-147175000D01*
X118356666Y-147460714D02*
X118737619Y-147460714D01*
X118499523Y-147127380D02*
X118499523Y-147984523D01*
X118547142Y-148079761D01*
X118642380Y-148127380D01*
X118737619Y-148127380D01*
X119451904Y-148079761D02*
X119356666Y-148127380D01*
X119166190Y-148127380D01*
X119070952Y-148079761D01*
X119023333Y-147984523D01*
X119023333Y-147603571D01*
X119070952Y-147508333D01*
X119166190Y-147460714D01*
X119356666Y-147460714D01*
X119451904Y-147508333D01*
X119499523Y-147603571D01*
X119499523Y-147698809D01*
X119023333Y-147794047D01*
X119928095Y-147460714D02*
X119928095Y-148460714D01*
X119928095Y-147508333D02*
X120023333Y-147460714D01*
X120213809Y-147460714D01*
X120309047Y-147508333D01*
X120356666Y-147555952D01*
X120404285Y-147651190D01*
X120404285Y-147936904D01*
X120356666Y-148032142D01*
X120309047Y-148079761D01*
X120213809Y-148127380D01*
X120023333Y-148127380D01*
X119928095Y-148079761D01*
X120832857Y-148127380D02*
X120832857Y-147127380D01*
X121261428Y-148127380D02*
X121261428Y-147603571D01*
X121213809Y-147508333D01*
X121118571Y-147460714D01*
X120975714Y-147460714D01*
X120880476Y-147508333D01*
X120832857Y-147555952D01*
X122118571Y-148079761D02*
X122023333Y-148127380D01*
X121832857Y-148127380D01*
X121737619Y-148079761D01*
X121690000Y-147984523D01*
X121690000Y-147603571D01*
X121737619Y-147508333D01*
X121832857Y-147460714D01*
X122023333Y-147460714D01*
X122118571Y-147508333D01*
X122166190Y-147603571D01*
X122166190Y-147698809D01*
X121690000Y-147794047D01*
X122594761Y-147460714D02*
X122594761Y-148127380D01*
X122594761Y-147555952D02*
X122642380Y-147508333D01*
X122737619Y-147460714D01*
X122880476Y-147460714D01*
X122975714Y-147508333D01*
X123023333Y-147603571D01*
X123023333Y-148127380D01*
X124166190Y-147127380D02*
X124404285Y-148127380D01*
X124594761Y-147413095D01*
X124785238Y-148127380D01*
X125023333Y-147127380D01*
X125832857Y-148127380D02*
X125832857Y-147603571D01*
X125785238Y-147508333D01*
X125690000Y-147460714D01*
X125499523Y-147460714D01*
X125404285Y-147508333D01*
X125832857Y-148079761D02*
X125737619Y-148127380D01*
X125499523Y-148127380D01*
X125404285Y-148079761D01*
X125356666Y-147984523D01*
X125356666Y-147889285D01*
X125404285Y-147794047D01*
X125499523Y-147746428D01*
X125737619Y-147746428D01*
X125832857Y-147698809D01*
X126309047Y-148127380D02*
X126309047Y-147460714D01*
X126309047Y-147651190D02*
X126356666Y-147555952D01*
X126404285Y-147508333D01*
X126499523Y-147460714D01*
X126594761Y-147460714D01*
X126928095Y-148127380D02*
X126928095Y-147460714D01*
X126928095Y-147651190D02*
X126975714Y-147555952D01*
X127023333Y-147508333D01*
X127118571Y-147460714D01*
X127213809Y-147460714D01*
X127928095Y-148079761D02*
X127832857Y-148127380D01*
X127642380Y-148127380D01*
X127547142Y-148079761D01*
X127499523Y-147984523D01*
X127499523Y-147603571D01*
X127547142Y-147508333D01*
X127642380Y-147460714D01*
X127832857Y-147460714D01*
X127928095Y-147508333D01*
X127975714Y-147603571D01*
X127975714Y-147698809D01*
X127499523Y-147794047D01*
X128404285Y-147460714D02*
X128404285Y-148127380D01*
X128404285Y-147555952D02*
X128451904Y-147508333D01*
X128547142Y-147460714D01*
X128690000Y-147460714D01*
X128785238Y-147508333D01*
X128832857Y-147603571D01*
X128832857Y-148127380D01*
D12*
X106930000Y-95250000D02*
G75*
G03X106930000Y-95250000I-250000J0D01*
G01*
X106990000Y-108010000D02*
G75*
G03X106990000Y-108010000I-250000J0D01*
G01*
D10*
X169505714Y-137608571D02*
X170172380Y-139108571D01*
X170172380Y-137608571D02*
X169505714Y-139108571D01*
X171315238Y-139108571D02*
X171315238Y-137608571D01*
X171648571Y-138680000D01*
X171981904Y-137608571D01*
X171981904Y-139108571D01*
X172648571Y-137608571D02*
X172839047Y-137608571D01*
X172934285Y-137680000D01*
X173029523Y-137822857D01*
X173077142Y-138108571D01*
X173077142Y-138608571D01*
X173029523Y-138894285D01*
X172934285Y-139037142D01*
X172839047Y-139108571D01*
X172648571Y-139108571D01*
X172553333Y-139037142D01*
X172458095Y-138894285D01*
X172410476Y-138608571D01*
X172410476Y-138108571D01*
X172458095Y-137822857D01*
X172553333Y-137680000D01*
X172648571Y-137608571D01*
X173362857Y-137608571D02*
X173934285Y-137608571D01*
X173648571Y-139108571D02*
X173648571Y-137608571D01*
X174458095Y-137608571D02*
X174648571Y-137608571D01*
X174743809Y-137680000D01*
X174839047Y-137822857D01*
X174886666Y-138108571D01*
X174886666Y-138608571D01*
X174839047Y-138894285D01*
X174743809Y-139037142D01*
X174648571Y-139108571D01*
X174458095Y-139108571D01*
X174362857Y-139037142D01*
X174267619Y-138894285D01*
X174220000Y-138608571D01*
X174220000Y-138108571D01*
X174267619Y-137822857D01*
X174362857Y-137680000D01*
X174458095Y-137608571D01*
X175886666Y-139108571D02*
X175553333Y-138394285D01*
X175315238Y-139108571D02*
X175315238Y-137608571D01*
X175696190Y-137608571D01*
X175791428Y-137680000D01*
X175839047Y-137751428D01*
X175886666Y-137894285D01*
X175886666Y-138108571D01*
X175839047Y-138251428D01*
X175791428Y-138322857D01*
X175696190Y-138394285D01*
X175315238Y-138394285D01*
X155869047Y-138394285D02*
X155869047Y-139108571D01*
X155535714Y-137608571D02*
X155869047Y-138394285D01*
X156202380Y-137608571D01*
X157297619Y-139108571D02*
X157297619Y-137608571D01*
X157630952Y-138680000D01*
X157964285Y-137608571D01*
X157964285Y-139108571D01*
X158630952Y-137608571D02*
X158821428Y-137608571D01*
X158916666Y-137680000D01*
X159011904Y-137822857D01*
X159059523Y-138108571D01*
X159059523Y-138608571D01*
X159011904Y-138894285D01*
X158916666Y-139037142D01*
X158821428Y-139108571D01*
X158630952Y-139108571D01*
X158535714Y-139037142D01*
X158440476Y-138894285D01*
X158392857Y-138608571D01*
X158392857Y-138108571D01*
X158440476Y-137822857D01*
X158535714Y-137680000D01*
X158630952Y-137608571D01*
X159345238Y-137608571D02*
X159916666Y-137608571D01*
X159630952Y-139108571D02*
X159630952Y-137608571D01*
X160440476Y-137608571D02*
X160630952Y-137608571D01*
X160726190Y-137680000D01*
X160821428Y-137822857D01*
X160869047Y-138108571D01*
X160869047Y-138608571D01*
X160821428Y-138894285D01*
X160726190Y-139037142D01*
X160630952Y-139108571D01*
X160440476Y-139108571D01*
X160345238Y-139037142D01*
X160250000Y-138894285D01*
X160202380Y-138608571D01*
X160202380Y-138108571D01*
X160250000Y-137822857D01*
X160345238Y-137680000D01*
X160440476Y-137608571D01*
X161869047Y-139108571D02*
X161535714Y-138394285D01*
X161297619Y-139108571D02*
X161297619Y-137608571D01*
X161678571Y-137608571D01*
X161773809Y-137680000D01*
X161821428Y-137751428D01*
X161869047Y-137894285D01*
X161869047Y-138108571D01*
X161821428Y-138251428D01*
X161773809Y-138322857D01*
X161678571Y-138394285D01*
X161297619Y-138394285D01*
X141565714Y-137608571D02*
X142232380Y-137608571D01*
X141565714Y-139108571D01*
X142232380Y-139108571D01*
X143375238Y-139108571D02*
X143375238Y-137608571D01*
X143708571Y-138680000D01*
X144041904Y-137608571D01*
X144041904Y-139108571D01*
X144708571Y-137608571D02*
X144899047Y-137608571D01*
X144994285Y-137680000D01*
X145089523Y-137822857D01*
X145137142Y-138108571D01*
X145137142Y-138608571D01*
X145089523Y-138894285D01*
X144994285Y-139037142D01*
X144899047Y-139108571D01*
X144708571Y-139108571D01*
X144613333Y-139037142D01*
X144518095Y-138894285D01*
X144470476Y-138608571D01*
X144470476Y-138108571D01*
X144518095Y-137822857D01*
X144613333Y-137680000D01*
X144708571Y-137608571D01*
X145422857Y-137608571D02*
X145994285Y-137608571D01*
X145708571Y-139108571D02*
X145708571Y-137608571D01*
X146518095Y-137608571D02*
X146708571Y-137608571D01*
X146803809Y-137680000D01*
X146899047Y-137822857D01*
X146946666Y-138108571D01*
X146946666Y-138608571D01*
X146899047Y-138894285D01*
X146803809Y-139037142D01*
X146708571Y-139108571D01*
X146518095Y-139108571D01*
X146422857Y-139037142D01*
X146327619Y-138894285D01*
X146280000Y-138608571D01*
X146280000Y-138108571D01*
X146327619Y-137822857D01*
X146422857Y-137680000D01*
X146518095Y-137608571D01*
X147946666Y-139108571D02*
X147613333Y-138394285D01*
X147375238Y-139108571D02*
X147375238Y-137608571D01*
X147756190Y-137608571D01*
X147851428Y-137680000D01*
X147899047Y-137751428D01*
X147946666Y-137894285D01*
X147946666Y-138108571D01*
X147899047Y-138251428D01*
X147851428Y-138322857D01*
X147756190Y-138394285D01*
X147375238Y-138394285D01*
X102048571Y-134643571D02*
X103548571Y-133976904D01*
X102048571Y-133976904D02*
X103548571Y-134643571D01*
X103548571Y-132357857D02*
X103548571Y-132834047D01*
X102048571Y-132834047D01*
X103548571Y-132024523D02*
X102048571Y-132024523D01*
X103548571Y-131548333D02*
X102048571Y-131548333D01*
X103120000Y-131215000D01*
X102048571Y-130881666D01*
X103548571Y-130881666D01*
X102834285Y-124095238D02*
X103548571Y-124095238D01*
X102048571Y-124428571D02*
X102834285Y-124095238D01*
X102048571Y-123761904D01*
X103548571Y-122190476D02*
X103548571Y-122666666D01*
X102048571Y-122666666D01*
X103548571Y-121857142D02*
X102048571Y-121857142D01*
X103548571Y-121380952D02*
X102048571Y-121380952D01*
X103120000Y-121047619D01*
X102048571Y-120714285D01*
X103548571Y-120714285D01*
X102048571Y-114323571D02*
X102048571Y-113656904D01*
X103548571Y-114323571D01*
X103548571Y-113656904D01*
X103548571Y-112037857D02*
X103548571Y-112514047D01*
X102048571Y-112514047D01*
X103548571Y-111704523D02*
X102048571Y-111704523D01*
X103548571Y-111228333D02*
X102048571Y-111228333D01*
X103120000Y-110895000D01*
X102048571Y-110561666D01*
X103548571Y-110561666D01*
X101417380Y-96019523D02*
X100417380Y-96019523D01*
X100417380Y-95638571D01*
X100465000Y-95543333D01*
X100512619Y-95495714D01*
X100607857Y-95448095D01*
X100750714Y-95448095D01*
X100845952Y-95495714D01*
X100893571Y-95543333D01*
X100941190Y-95638571D01*
X100941190Y-96019523D01*
X100417380Y-95114761D02*
X101417380Y-94876666D01*
X100703095Y-94686190D01*
X101417380Y-94495714D01*
X100417380Y-94257619D01*
X101417380Y-93876666D02*
X100417380Y-93876666D01*
X101131666Y-93543333D01*
X100417380Y-93210000D01*
X101417380Y-93210000D01*
X100465000Y-91448095D02*
X100417380Y-91543333D01*
X100417380Y-91686190D01*
X100465000Y-91829047D01*
X100560238Y-91924285D01*
X100655476Y-91971904D01*
X100845952Y-92019523D01*
X100988809Y-92019523D01*
X101179285Y-91971904D01*
X101274523Y-91924285D01*
X101369761Y-91829047D01*
X101417380Y-91686190D01*
X101417380Y-91590952D01*
X101369761Y-91448095D01*
X101322142Y-91400476D01*
X100988809Y-91400476D01*
X100988809Y-91590952D01*
X101417380Y-90971904D02*
X100417380Y-90971904D01*
X101417380Y-90400476D01*
X100417380Y-90400476D01*
X101417380Y-89924285D02*
X100417380Y-89924285D01*
X100417380Y-89686190D01*
X100465000Y-89543333D01*
X100560238Y-89448095D01*
X100655476Y-89400476D01*
X100845952Y-89352857D01*
X100988809Y-89352857D01*
X101179285Y-89400476D01*
X101274523Y-89448095D01*
X101369761Y-89543333D01*
X101417380Y-89686190D01*
X101417380Y-89924285D01*
X100417380Y-108274761D02*
X100417380Y-108750952D01*
X100893571Y-108798571D01*
X100845952Y-108750952D01*
X100798333Y-108655714D01*
X100798333Y-108417619D01*
X100845952Y-108322380D01*
X100893571Y-108274761D01*
X100988809Y-108227142D01*
X101226904Y-108227142D01*
X101322142Y-108274761D01*
X101369761Y-108322380D01*
X101417380Y-108417619D01*
X101417380Y-108655714D01*
X101369761Y-108750952D01*
X101322142Y-108798571D01*
X100417380Y-107941428D02*
X101417380Y-107608095D01*
X100417380Y-107274761D01*
X100417380Y-106274761D02*
X100417380Y-105655714D01*
X100798333Y-105989047D01*
X100798333Y-105846190D01*
X100845952Y-105750952D01*
X100893571Y-105703333D01*
X100988809Y-105655714D01*
X101226904Y-105655714D01*
X101322142Y-105703333D01*
X101369761Y-105750952D01*
X101417380Y-105846190D01*
X101417380Y-106131904D01*
X101369761Y-106227142D01*
X101322142Y-106274761D01*
X100417380Y-105370000D02*
X101417380Y-105036666D01*
X100417380Y-104703333D01*
X100417380Y-104465238D02*
X100417380Y-103846190D01*
X100798333Y-104179523D01*
X100798333Y-104036666D01*
X100845952Y-103941428D01*
X100893571Y-103893809D01*
X100988809Y-103846190D01*
X101226904Y-103846190D01*
X101322142Y-103893809D01*
X101369761Y-103941428D01*
X101417380Y-104036666D01*
X101417380Y-104322380D01*
X101369761Y-104417619D01*
X101322142Y-104465238D01*
X101131666Y-102703333D02*
X101131666Y-102227142D01*
X101417380Y-102798571D02*
X100417380Y-102465238D01*
X101417380Y-102131904D01*
X101417380Y-101798571D02*
X100417380Y-101798571D01*
X101417380Y-100750952D02*
X100941190Y-101084285D01*
X101417380Y-101322380D02*
X100417380Y-101322380D01*
X100417380Y-100941428D01*
X100465000Y-100846190D01*
X100512619Y-100798571D01*
X100607857Y-100750952D01*
X100750714Y-100750952D01*
X100845952Y-100798571D01*
X100893571Y-100846190D01*
X100941190Y-100941428D01*
X100941190Y-101322380D01*
X100465000Y-99036666D02*
X100417380Y-99131904D01*
X100417380Y-99274761D01*
X100465000Y-99417619D01*
X100560238Y-99512857D01*
X100655476Y-99560476D01*
X100845952Y-99608095D01*
X100988809Y-99608095D01*
X101179285Y-99560476D01*
X101274523Y-99512857D01*
X101369761Y-99417619D01*
X101417380Y-99274761D01*
X101417380Y-99179523D01*
X101369761Y-99036666D01*
X101322142Y-98989047D01*
X100988809Y-98989047D01*
X100988809Y-99179523D01*
X101417380Y-98560476D02*
X100417380Y-98560476D01*
X101417380Y-97989047D01*
X100417380Y-97989047D01*
X101417380Y-97512857D02*
X100417380Y-97512857D01*
X100417380Y-97274761D01*
X100465000Y-97131904D01*
X100560238Y-97036666D01*
X100655476Y-96989047D01*
X100845952Y-96941428D01*
X100988809Y-96941428D01*
X101179285Y-96989047D01*
X101274523Y-97036666D01*
X101369761Y-97131904D01*
X101417380Y-97274761D01*
X101417380Y-97512857D01*
X100417380Y-119085714D02*
X101417380Y-118752380D01*
X100417380Y-118419047D01*
X100512619Y-118133333D02*
X100465000Y-118085714D01*
X100417380Y-117990476D01*
X100417380Y-117752380D01*
X100465000Y-117657142D01*
X100512619Y-117609523D01*
X100607857Y-117561904D01*
X100703095Y-117561904D01*
X100845952Y-117609523D01*
X101417380Y-118180952D01*
X101417380Y-117561904D01*
X100750714Y-116704761D02*
X101417380Y-116704761D01*
X100369761Y-116942857D02*
X101084047Y-117180952D01*
X101084047Y-116561904D01*
X101417380Y-114942857D02*
X101417380Y-115419047D01*
X100417380Y-115419047D01*
X101417380Y-114609523D02*
X100417380Y-114609523D01*
X101417380Y-114133333D02*
X100417380Y-114133333D01*
X101131666Y-113800000D01*
X100417380Y-113466666D01*
X101417380Y-113466666D01*
X100465000Y-111704761D02*
X100417380Y-111800000D01*
X100417380Y-111942857D01*
X100465000Y-112085714D01*
X100560238Y-112180952D01*
X100655476Y-112228571D01*
X100845952Y-112276190D01*
X100988809Y-112276190D01*
X101179285Y-112228571D01*
X101274523Y-112180952D01*
X101369761Y-112085714D01*
X101417380Y-111942857D01*
X101417380Y-111847619D01*
X101369761Y-111704761D01*
X101322142Y-111657142D01*
X100988809Y-111657142D01*
X100988809Y-111847619D01*
X101417380Y-111228571D02*
X100417380Y-111228571D01*
X101417380Y-110657142D01*
X100417380Y-110657142D01*
X101417380Y-110180952D02*
X100417380Y-110180952D01*
X100417380Y-109942857D01*
X100465000Y-109800000D01*
X100560238Y-109704761D01*
X100655476Y-109657142D01*
X100845952Y-109609523D01*
X100988809Y-109609523D01*
X101179285Y-109657142D01*
X101274523Y-109704761D01*
X101369761Y-109800000D01*
X101417380Y-109942857D01*
X101417380Y-110180952D01*
X100417380Y-139405714D02*
X101417380Y-139072380D01*
X100417380Y-138739047D01*
X100512619Y-138453333D02*
X100465000Y-138405714D01*
X100417380Y-138310476D01*
X100417380Y-138072380D01*
X100465000Y-137977142D01*
X100512619Y-137929523D01*
X100607857Y-137881904D01*
X100703095Y-137881904D01*
X100845952Y-137929523D01*
X101417380Y-138500952D01*
X101417380Y-137881904D01*
X100750714Y-137024761D02*
X101417380Y-137024761D01*
X100369761Y-137262857D02*
X101084047Y-137500952D01*
X101084047Y-136881904D01*
X101417380Y-135262857D02*
X101417380Y-135739047D01*
X100417380Y-135739047D01*
X101417380Y-134929523D02*
X100417380Y-134929523D01*
X101417380Y-134453333D02*
X100417380Y-134453333D01*
X101131666Y-134120000D01*
X100417380Y-133786666D01*
X101417380Y-133786666D01*
X100465000Y-132024761D02*
X100417380Y-132120000D01*
X100417380Y-132262857D01*
X100465000Y-132405714D01*
X100560238Y-132500952D01*
X100655476Y-132548571D01*
X100845952Y-132596190D01*
X100988809Y-132596190D01*
X101179285Y-132548571D01*
X101274523Y-132500952D01*
X101369761Y-132405714D01*
X101417380Y-132262857D01*
X101417380Y-132167619D01*
X101369761Y-132024761D01*
X101322142Y-131977142D01*
X100988809Y-131977142D01*
X100988809Y-132167619D01*
X101417380Y-131548571D02*
X100417380Y-131548571D01*
X101417380Y-130977142D01*
X100417380Y-130977142D01*
X101417380Y-130500952D02*
X100417380Y-130500952D01*
X100417380Y-130262857D01*
X100465000Y-130120000D01*
X100560238Y-130024761D01*
X100655476Y-129977142D01*
X100845952Y-129929523D01*
X100988809Y-129929523D01*
X101179285Y-129977142D01*
X101274523Y-130024761D01*
X101369761Y-130120000D01*
X101417380Y-130262857D01*
X101417380Y-130500952D01*
D12*
X106990000Y-118170000D02*
G75*
G03X106990000Y-118170000I-250000J0D01*
G01*
X106930000Y-128270000D02*
G75*
G03X106930000Y-128270000I-250000J0D01*
G01*
X106930000Y-138430000D02*
G75*
G03X106930000Y-138430000I-250000J0D01*
G01*
D10*
X100417380Y-129245714D02*
X101417380Y-128912380D01*
X100417380Y-128579047D01*
X100512619Y-128293333D02*
X100465000Y-128245714D01*
X100417380Y-128150476D01*
X100417380Y-127912380D01*
X100465000Y-127817142D01*
X100512619Y-127769523D01*
X100607857Y-127721904D01*
X100703095Y-127721904D01*
X100845952Y-127769523D01*
X101417380Y-128340952D01*
X101417380Y-127721904D01*
X100750714Y-126864761D02*
X101417380Y-126864761D01*
X100369761Y-127102857D02*
X101084047Y-127340952D01*
X101084047Y-126721904D01*
X101417380Y-125102857D02*
X101417380Y-125579047D01*
X100417380Y-125579047D01*
X101417380Y-124769523D02*
X100417380Y-124769523D01*
X101417380Y-124293333D02*
X100417380Y-124293333D01*
X101131666Y-123960000D01*
X100417380Y-123626666D01*
X101417380Y-123626666D01*
X100465000Y-121864761D02*
X100417380Y-121960000D01*
X100417380Y-122102857D01*
X100465000Y-122245714D01*
X100560238Y-122340952D01*
X100655476Y-122388571D01*
X100845952Y-122436190D01*
X100988809Y-122436190D01*
X101179285Y-122388571D01*
X101274523Y-122340952D01*
X101369761Y-122245714D01*
X101417380Y-122102857D01*
X101417380Y-122007619D01*
X101369761Y-121864761D01*
X101322142Y-121817142D01*
X100988809Y-121817142D01*
X100988809Y-122007619D01*
X101417380Y-121388571D02*
X100417380Y-121388571D01*
X101417380Y-120817142D01*
X100417380Y-120817142D01*
X101417380Y-120340952D02*
X100417380Y-120340952D01*
X100417380Y-120102857D01*
X100465000Y-119960000D01*
X100560238Y-119864761D01*
X100655476Y-119817142D01*
X100845952Y-119769523D01*
X100988809Y-119769523D01*
X101179285Y-119817142D01*
X101274523Y-119864761D01*
X101369761Y-119960000D01*
X101417380Y-120102857D01*
X101417380Y-120340952D01*
X168196190Y-146899761D02*
X168339047Y-146947380D01*
X168577142Y-146947380D01*
X168672380Y-146899761D01*
X168720000Y-146852142D01*
X168767619Y-146756904D01*
X168767619Y-146661666D01*
X168720000Y-146566428D01*
X168672380Y-146518809D01*
X168577142Y-146471190D01*
X168386666Y-146423571D01*
X168291428Y-146375952D01*
X168243809Y-146328333D01*
X168196190Y-146233095D01*
X168196190Y-146137857D01*
X168243809Y-146042619D01*
X168291428Y-145995000D01*
X168386666Y-145947380D01*
X168624761Y-145947380D01*
X168767619Y-145995000D01*
X169053333Y-145947380D02*
X169624761Y-145947380D01*
X169339047Y-146947380D02*
X169339047Y-145947380D01*
X169958095Y-146947380D02*
X169958095Y-145947380D01*
X170339047Y-145947380D01*
X170434285Y-145995000D01*
X170481904Y-146042619D01*
X170529523Y-146137857D01*
X170529523Y-146280714D01*
X170481904Y-146375952D01*
X170434285Y-146423571D01*
X170339047Y-146471190D01*
X169958095Y-146471190D01*
X171720000Y-146947380D02*
X171720000Y-145947380D01*
X171958095Y-145947380D01*
X172100952Y-145995000D01*
X172196190Y-146090238D01*
X172243809Y-146185476D01*
X172291428Y-146375952D01*
X172291428Y-146518809D01*
X172243809Y-146709285D01*
X172196190Y-146804523D01*
X172100952Y-146899761D01*
X171958095Y-146947380D01*
X171720000Y-146947380D01*
X172720000Y-146947380D02*
X172720000Y-145947380D01*
X173767619Y-146947380D02*
X173434285Y-146471190D01*
X173196190Y-146947380D02*
X173196190Y-145947380D01*
X173577142Y-145947380D01*
X173672380Y-145995000D01*
X173720000Y-146042619D01*
X173767619Y-146137857D01*
X173767619Y-146280714D01*
X173720000Y-146375952D01*
X173672380Y-146423571D01*
X173577142Y-146471190D01*
X173196190Y-146471190D01*
X175720000Y-146423571D02*
X176053333Y-146423571D01*
X176196190Y-146947380D02*
X175720000Y-146947380D01*
X175720000Y-145947380D01*
X176196190Y-145947380D01*
X176624761Y-146947380D02*
X176624761Y-145947380D01*
X177196190Y-146947380D01*
X177196190Y-145947380D01*
X168148571Y-147645000D02*
X168053333Y-147597380D01*
X167910476Y-147597380D01*
X167767619Y-147645000D01*
X167672380Y-147740238D01*
X167624761Y-147835476D01*
X167577142Y-148025952D01*
X167577142Y-148168809D01*
X167624761Y-148359285D01*
X167672380Y-148454523D01*
X167767619Y-148549761D01*
X167910476Y-148597380D01*
X168005714Y-148597380D01*
X168148571Y-148549761D01*
X168196190Y-148502142D01*
X168196190Y-148168809D01*
X168005714Y-148168809D01*
X168624761Y-148597380D02*
X168624761Y-147597380D01*
X169196190Y-148597380D01*
X169196190Y-147597380D01*
X169672380Y-148597380D02*
X169672380Y-147597380D01*
X169910476Y-147597380D01*
X170053333Y-147645000D01*
X170148571Y-147740238D01*
X170196190Y-147835476D01*
X170243809Y-148025952D01*
X170243809Y-148168809D01*
X170196190Y-148359285D01*
X170148571Y-148454523D01*
X170053333Y-148549761D01*
X169910476Y-148597380D01*
X169672380Y-148597380D01*
X171958095Y-147645000D02*
X171862857Y-147597380D01*
X171720000Y-147597380D01*
X171577142Y-147645000D01*
X171481904Y-147740238D01*
X171434285Y-147835476D01*
X171386666Y-148025952D01*
X171386666Y-148168809D01*
X171434285Y-148359285D01*
X171481904Y-148454523D01*
X171577142Y-148549761D01*
X171720000Y-148597380D01*
X171815238Y-148597380D01*
X171958095Y-148549761D01*
X172005714Y-148502142D01*
X172005714Y-148168809D01*
X171815238Y-148168809D01*
X172434285Y-148597380D02*
X172434285Y-147597380D01*
X173005714Y-148597380D01*
X173005714Y-147597380D01*
X173481904Y-148597380D02*
X173481904Y-147597380D01*
X173720000Y-147597380D01*
X173862857Y-147645000D01*
X173958095Y-147740238D01*
X174005714Y-147835476D01*
X174053333Y-148025952D01*
X174053333Y-148168809D01*
X174005714Y-148359285D01*
X173958095Y-148454523D01*
X173862857Y-148549761D01*
X173720000Y-148597380D01*
X173481904Y-148597380D01*
X175767619Y-147645000D02*
X175672380Y-147597380D01*
X175529523Y-147597380D01*
X175386666Y-147645000D01*
X175291428Y-147740238D01*
X175243809Y-147835476D01*
X175196190Y-148025952D01*
X175196190Y-148168809D01*
X175243809Y-148359285D01*
X175291428Y-148454523D01*
X175386666Y-148549761D01*
X175529523Y-148597380D01*
X175624761Y-148597380D01*
X175767619Y-148549761D01*
X175815238Y-148502142D01*
X175815238Y-148168809D01*
X175624761Y-148168809D01*
X176243809Y-148597380D02*
X176243809Y-147597380D01*
X176815238Y-148597380D01*
X176815238Y-147597380D01*
X177291428Y-148597380D02*
X177291428Y-147597380D01*
X177529523Y-147597380D01*
X177672380Y-147645000D01*
X177767619Y-147740238D01*
X177815238Y-147835476D01*
X177862857Y-148025952D01*
X177862857Y-148168809D01*
X177815238Y-148359285D01*
X177767619Y-148454523D01*
X177672380Y-148549761D01*
X177529523Y-148597380D01*
X177291428Y-148597380D01*
D12*
X169160000Y-145000000D02*
G75*
G03X169160000Y-145000000I-250000J0D01*
G01*
X155130000Y-144840000D02*
G75*
G03X155130000Y-144840000I-250000J0D01*
G01*
X141220000Y-145000000D02*
G75*
G03X141220000Y-145000000I-250000J0D01*
G01*
D13*
X148650000Y-144840000D02*
X148650000Y-139640000D01*
X143510000Y-144840000D02*
X148650000Y-144840000D01*
X140910000Y-139640000D02*
X148650000Y-139640000D01*
X143510000Y-144840000D02*
X143510000Y-142240000D01*
X143510000Y-142240000D02*
X140910000Y-142240000D01*
X140910000Y-142240000D02*
X140910000Y-139640000D01*
X142240000Y-144840000D02*
X140910000Y-144840000D01*
X140910000Y-144840000D02*
X140910000Y-143510000D01*
X162620000Y-144840000D02*
X162620000Y-139640000D01*
X157480000Y-144840000D02*
X162620000Y-144840000D01*
X154880000Y-139640000D02*
X162620000Y-139640000D01*
X157480000Y-144840000D02*
X157480000Y-142240000D01*
X157480000Y-142240000D02*
X154880000Y-142240000D01*
X154880000Y-142240000D02*
X154880000Y-139640000D01*
X156210000Y-144840000D02*
X154880000Y-144840000D01*
X154880000Y-144840000D02*
X154880000Y-143510000D01*
X176590000Y-144840000D02*
X176590000Y-139640000D01*
X171450000Y-144840000D02*
X176590000Y-144840000D01*
X168850000Y-139640000D02*
X176590000Y-139640000D01*
X171450000Y-144840000D02*
X171450000Y-142240000D01*
X171450000Y-142240000D02*
X168850000Y-142240000D01*
X168850000Y-142240000D02*
X168850000Y-139640000D01*
X170180000Y-144840000D02*
X168850000Y-144840000D01*
X168850000Y-144840000D02*
X168850000Y-143510000D01*
X106740000Y-90110000D02*
X104080000Y-90110000D01*
X106740000Y-92710000D02*
X106740000Y-90110000D01*
X104080000Y-92710000D02*
X104080000Y-90110000D01*
X106740000Y-92710000D02*
X104080000Y-92710000D01*
X106740000Y-93980000D02*
X106740000Y-95310000D01*
X106740000Y-95310000D02*
X105410000Y-95310000D01*
X106740000Y-110430000D02*
X104080000Y-110430000D01*
X106740000Y-115570000D02*
X106740000Y-110430000D01*
X104080000Y-115570000D02*
X104080000Y-110430000D01*
X106740000Y-115570000D02*
X104080000Y-115570000D01*
X106740000Y-116840000D02*
X106740000Y-118170000D01*
X106740000Y-118170000D02*
X105410000Y-118170000D01*
X106740000Y-120590000D02*
X104080000Y-120590000D01*
X106740000Y-125730000D02*
X106740000Y-120590000D01*
X104080000Y-125730000D02*
X104080000Y-120590000D01*
X106740000Y-125730000D02*
X104080000Y-125730000D01*
X106740000Y-127000000D02*
X106740000Y-128330000D01*
X106740000Y-128330000D02*
X105410000Y-128330000D01*
X106740000Y-130750000D02*
X104080000Y-130750000D01*
X106740000Y-135890000D02*
X106740000Y-130750000D01*
X104080000Y-135890000D02*
X104080000Y-130750000D01*
X106740000Y-135890000D02*
X104080000Y-135890000D01*
X106740000Y-137160000D02*
X106740000Y-138490000D01*
X106740000Y-138490000D02*
X105410000Y-138490000D01*
X106740000Y-97730000D02*
X104080000Y-97730000D01*
X106740000Y-105410000D02*
X106740000Y-97730000D01*
X104080000Y-105410000D02*
X104080000Y-97730000D01*
X106740000Y-105410000D02*
X104080000Y-105410000D01*
X106740000Y-106680000D02*
X106740000Y-108010000D01*
X106740000Y-108010000D02*
X105410000Y-108010000D01*
X189290000Y-101660000D02*
X189290000Y-99000000D01*
X143510000Y-101660000D02*
X189290000Y-101660000D01*
X143510000Y-99000000D02*
X189290000Y-99000000D01*
X143510000Y-101660000D02*
X143510000Y-99000000D01*
X142240000Y-101660000D02*
X140910000Y-101660000D01*
X140910000Y-101660000D02*
X140910000Y-100330000D01*
X189290000Y-135950000D02*
X189290000Y-133290000D01*
X143510000Y-135950000D02*
X189290000Y-135950000D01*
X143510000Y-133290000D02*
X189290000Y-133290000D01*
X143510000Y-135950000D02*
X143510000Y-133290000D01*
X142240000Y-135950000D02*
X140910000Y-135950000D01*
X140910000Y-135950000D02*
X140910000Y-134620000D01*
X110400000Y-78700000D02*
X110400000Y-69900000D01*
X110400000Y-69900000D02*
X119600000Y-69900000D01*
X113100000Y-84600000D02*
X110400000Y-84600000D01*
X110400000Y-84600000D02*
X110400000Y-82700000D01*
X119600000Y-69900000D02*
X119600000Y-84600000D01*
X119600000Y-84600000D02*
X117000000Y-84600000D01*
X130400000Y-78700000D02*
X130400000Y-69900000D01*
X130400000Y-69900000D02*
X139600000Y-69900000D01*
X133100000Y-84600000D02*
X130400000Y-84600000D01*
X130400000Y-84600000D02*
X130400000Y-82700000D01*
X139600000Y-69900000D02*
X139600000Y-84600000D01*
X139600000Y-84600000D02*
X137000000Y-84600000D01*
X150400000Y-78700000D02*
X150400000Y-69900000D01*
X150400000Y-69900000D02*
X159600000Y-69900000D01*
X153100000Y-84600000D02*
X150400000Y-84600000D01*
X150400000Y-84600000D02*
X150400000Y-82700000D01*
X159600000Y-69900000D02*
X159600000Y-84600000D01*
X159600000Y-84600000D02*
X157000000Y-84600000D01*
X170400000Y-78700000D02*
X170400000Y-69900000D01*
X170400000Y-69900000D02*
X179600000Y-69900000D01*
X173100000Y-84600000D02*
X170400000Y-84600000D01*
X170400000Y-84600000D02*
X170400000Y-82700000D01*
X179600000Y-69900000D02*
X179600000Y-84600000D01*
X179600000Y-84600000D02*
X177000000Y-84600000D01*
X189062720Y-131671320D02*
X189062720Y-103271321D01*
X189062720Y-103271321D02*
X141142720Y-103271320D01*
X141142720Y-103271320D02*
X141142720Y-131671319D01*
X141142720Y-131671319D02*
X189062720Y-131671320D01*
X141122400Y-126441200D02*
X135229600Y-126441200D01*
X135229600Y-126441200D02*
X135229600Y-108458000D01*
X135229600Y-108458000D02*
X141122400Y-108458000D01*
X110560000Y-100220000D02*
X110560000Y-99740000D01*
X110560000Y-99740000D02*
X120580000Y-99740000D01*
X120580000Y-99740000D02*
X120580000Y-100220000D01*
X110560000Y-102980000D02*
X110560000Y-103460000D01*
X110560000Y-103460000D02*
X120580000Y-103460000D01*
X120580000Y-103460000D02*
X120580000Y-102980000D01*
X110560000Y-92600000D02*
X110560000Y-92120000D01*
X110560000Y-92120000D02*
X120580000Y-92120000D01*
X120580000Y-92120000D02*
X120580000Y-92600000D01*
X110560000Y-95360000D02*
X110560000Y-95840000D01*
X110560000Y-95840000D02*
X120580000Y-95840000D01*
X120580000Y-95840000D02*
X120580000Y-95360000D01*
X148520000Y-95360000D02*
X148520000Y-95840000D01*
X148520000Y-95840000D02*
X138500000Y-95840000D01*
X138500000Y-95840000D02*
X138500000Y-95360000D01*
X148520000Y-92600000D02*
X148520000Y-92120000D01*
X148520000Y-92120000D02*
X138500000Y-92120000D01*
X138500000Y-92120000D02*
X138500000Y-92600000D01*
X119531827Y-111068929D02*
G75*
G02X124540000Y-107295000I5008173J-1436071D01*
G01*
X128530617Y-115854947D02*
G75*
G02X119463000Y-113676000I-3990617J3349947D01*
G01*
X129573072Y-111156133D02*
G75*
G02X129655000Y-113499000I-5033072J-1348867D01*
G01*
X124449343Y-107295743D02*
G75*
G02X128412000Y-109019000I90657J-5209257D01*
G01*
X126040000Y-112505000D02*
G75*
G03X126040000Y-112505000I-1500000J0D01*
G01*
X114190000Y-119310000D02*
X113710000Y-119310000D01*
X113710000Y-119310000D02*
X113710000Y-109290000D01*
X113710000Y-109290000D02*
X114190000Y-109290000D01*
X116950000Y-119310000D02*
X117430000Y-119310000D01*
X117430000Y-119310000D02*
X117430000Y-109290000D01*
X117430000Y-109290000D02*
X116950000Y-109290000D01*
X119531827Y-123133929D02*
G75*
G02X124540000Y-119360000I5008173J-1436071D01*
G01*
X128530617Y-127919947D02*
G75*
G02X119463000Y-125741000I-3990617J3349947D01*
G01*
X129573072Y-123221133D02*
G75*
G02X129655000Y-125564000I-5033072J-1348867D01*
G01*
X124449343Y-119360743D02*
G75*
G02X128412000Y-121084000I90657J-5209257D01*
G01*
X126040000Y-124570000D02*
G75*
G03X126040000Y-124570000I-1500000J0D01*
G01*
X109745000Y-129660000D02*
X109265000Y-129660000D01*
X109265000Y-129660000D02*
X109265000Y-119640000D01*
X109265000Y-119640000D02*
X109745000Y-119640000D01*
X112505000Y-129660000D02*
X112985000Y-129660000D01*
X112985000Y-129660000D02*
X112985000Y-119640000D01*
X112985000Y-119640000D02*
X112505000Y-119640000D01*
X119531827Y-135198929D02*
G75*
G02X124540000Y-131425000I5008173J-1436071D01*
G01*
X128530617Y-139984947D02*
G75*
G02X119463000Y-137806000I-3990617J3349947D01*
G01*
X129573072Y-135286133D02*
G75*
G02X129655000Y-137629000I-5033072J-1348867D01*
G01*
X124449343Y-131425743D02*
G75*
G02X128412000Y-133149000I90657J-5209257D01*
G01*
X126040000Y-136635000D02*
G75*
G03X126040000Y-136635000I-1500000J0D01*
G01*
X114190000Y-139630000D02*
X113710000Y-139630000D01*
X113710000Y-139630000D02*
X113710000Y-129610000D01*
X113710000Y-129610000D02*
X114190000Y-129610000D01*
X116950000Y-139630000D02*
X117430000Y-139630000D01*
X117430000Y-139630000D02*
X117430000Y-129610000D01*
X117430000Y-129610000D02*
X116950000Y-129610000D01*
X135200000Y-95780000D02*
X135200000Y-92180000D01*
X135188478Y-95818478D02*
G75*
G02X130750000Y-93980000I-1838478J1838478D01*
G01*
X135188478Y-92141522D02*
G75*
G03X130750000Y-93980000I-1838478J-1838478D01*
G01*
X124010000Y-101599538D02*
G75*
G03X129560000Y-103144830I2990000J-462D01*
G01*
X124010000Y-101600462D02*
G75*
G02X129560000Y-100055170I2990000J462D01*
G01*
X129500000Y-101600000D02*
G75*
G03X129500000Y-101600000I-2500000J0D01*
G01*
X129560000Y-103145000D02*
X129560000Y-100055000D01*
X124010000Y-93979538D02*
G75*
G03X129560000Y-95524830I2990000J-462D01*
G01*
X124010000Y-93980462D02*
G75*
G02X129560000Y-92435170I2990000J462D01*
G01*
X129500000Y-93980000D02*
G75*
G03X129500000Y-93980000I-2500000J0D01*
G01*
X129560000Y-95525000D02*
X129560000Y-92435000D01*
D10*
X139088571Y-142573333D02*
X140160000Y-142573333D01*
X140374285Y-142620952D01*
X140517142Y-142716190D01*
X140588571Y-142859047D01*
X140588571Y-142954285D01*
X139088571Y-142192380D02*
X139088571Y-141525714D01*
X140588571Y-141954285D01*
X153058571Y-142573333D02*
X154130000Y-142573333D01*
X154344285Y-142620952D01*
X154487142Y-142716190D01*
X154558571Y-142859047D01*
X154558571Y-142954285D01*
X153058571Y-141668571D02*
X153058571Y-141859047D01*
X153130000Y-141954285D01*
X153201428Y-142001904D01*
X153415714Y-142097142D01*
X153701428Y-142144761D01*
X154272857Y-142144761D01*
X154415714Y-142097142D01*
X154487142Y-142049523D01*
X154558571Y-141954285D01*
X154558571Y-141763809D01*
X154487142Y-141668571D01*
X154415714Y-141620952D01*
X154272857Y-141573333D01*
X153915714Y-141573333D01*
X153772857Y-141620952D01*
X153701428Y-141668571D01*
X153630000Y-141763809D01*
X153630000Y-141954285D01*
X153701428Y-142049523D01*
X153772857Y-142097142D01*
X153915714Y-142144761D01*
X167028571Y-142573333D02*
X168100000Y-142573333D01*
X168314285Y-142620952D01*
X168457142Y-142716190D01*
X168528571Y-142859047D01*
X168528571Y-142954285D01*
X167028571Y-141620952D02*
X167028571Y-142097142D01*
X167742857Y-142144761D01*
X167671428Y-142097142D01*
X167600000Y-142001904D01*
X167600000Y-141763809D01*
X167671428Y-141668571D01*
X167742857Y-141620952D01*
X167885714Y-141573333D01*
X168242857Y-141573333D01*
X168385714Y-141620952D01*
X168457142Y-141668571D01*
X168528571Y-141763809D01*
X168528571Y-142001904D01*
X168457142Y-142097142D01*
X168385714Y-142144761D01*
X102048571Y-94789523D02*
X103120000Y-94789523D01*
X103334285Y-94837142D01*
X103477142Y-94932380D01*
X103548571Y-95075238D01*
X103548571Y-95170476D01*
X103548571Y-93789523D02*
X103548571Y-94360952D01*
X103548571Y-94075238D02*
X102048571Y-94075238D01*
X102262857Y-94170476D01*
X102405714Y-94265714D01*
X102477142Y-94360952D01*
X103548571Y-92837142D02*
X103548571Y-93408571D01*
X103548571Y-93122857D02*
X102048571Y-93122857D01*
X102262857Y-93218095D01*
X102405714Y-93313333D01*
X102477142Y-93408571D01*
X102048571Y-117649523D02*
X103120000Y-117649523D01*
X103334285Y-117697142D01*
X103477142Y-117792380D01*
X103548571Y-117935238D01*
X103548571Y-118030476D01*
X103548571Y-116649523D02*
X103548571Y-117220952D01*
X103548571Y-116935238D02*
X102048571Y-116935238D01*
X102262857Y-117030476D01*
X102405714Y-117125714D01*
X102477142Y-117220952D01*
X102048571Y-116030476D02*
X102048571Y-115935238D01*
X102120000Y-115840000D01*
X102191428Y-115792380D01*
X102334285Y-115744761D01*
X102620000Y-115697142D01*
X102977142Y-115697142D01*
X103262857Y-115744761D01*
X103405714Y-115792380D01*
X103477142Y-115840000D01*
X103548571Y-115935238D01*
X103548571Y-116030476D01*
X103477142Y-116125714D01*
X103405714Y-116173333D01*
X103262857Y-116220952D01*
X102977142Y-116268571D01*
X102620000Y-116268571D01*
X102334285Y-116220952D01*
X102191428Y-116173333D01*
X102120000Y-116125714D01*
X102048571Y-116030476D01*
X102048571Y-127968333D02*
X103120000Y-127968333D01*
X103334285Y-128015952D01*
X103477142Y-128111190D01*
X103548571Y-128254047D01*
X103548571Y-128349285D01*
X103548571Y-127444523D02*
X103548571Y-127254047D01*
X103477142Y-127158809D01*
X103405714Y-127111190D01*
X103191428Y-127015952D01*
X102905714Y-126968333D01*
X102334285Y-126968333D01*
X102191428Y-127015952D01*
X102120000Y-127063571D01*
X102048571Y-127158809D01*
X102048571Y-127349285D01*
X102120000Y-127444523D01*
X102191428Y-127492142D01*
X102334285Y-127539761D01*
X102691428Y-127539761D01*
X102834285Y-127492142D01*
X102905714Y-127444523D01*
X102977142Y-127349285D01*
X102977142Y-127158809D01*
X102905714Y-127063571D01*
X102834285Y-127015952D01*
X102691428Y-126968333D01*
X102048571Y-138128333D02*
X103120000Y-138128333D01*
X103334285Y-138175952D01*
X103477142Y-138271190D01*
X103548571Y-138414047D01*
X103548571Y-138509285D01*
X102691428Y-137509285D02*
X102620000Y-137604523D01*
X102548571Y-137652142D01*
X102405714Y-137699761D01*
X102334285Y-137699761D01*
X102191428Y-137652142D01*
X102120000Y-137604523D01*
X102048571Y-137509285D01*
X102048571Y-137318809D01*
X102120000Y-137223571D01*
X102191428Y-137175952D01*
X102334285Y-137128333D01*
X102405714Y-137128333D01*
X102548571Y-137175952D01*
X102620000Y-137223571D01*
X102691428Y-137318809D01*
X102691428Y-137509285D01*
X102762857Y-137604523D01*
X102834285Y-137652142D01*
X102977142Y-137699761D01*
X103262857Y-137699761D01*
X103405714Y-137652142D01*
X103477142Y-137604523D01*
X103548571Y-137509285D01*
X103548571Y-137318809D01*
X103477142Y-137223571D01*
X103405714Y-137175952D01*
X103262857Y-137128333D01*
X102977142Y-137128333D01*
X102834285Y-137175952D01*
X102762857Y-137223571D01*
X102691428Y-137318809D01*
X102048571Y-107489523D02*
X103120000Y-107489523D01*
X103334285Y-107537142D01*
X103477142Y-107632380D01*
X103548571Y-107775238D01*
X103548571Y-107870476D01*
X103548571Y-106489523D02*
X103548571Y-107060952D01*
X103548571Y-106775238D02*
X102048571Y-106775238D01*
X102262857Y-106870476D01*
X102405714Y-106965714D01*
X102477142Y-107060952D01*
X102191428Y-106108571D02*
X102120000Y-106060952D01*
X102048571Y-105965714D01*
X102048571Y-105727619D01*
X102120000Y-105632380D01*
X102191428Y-105584761D01*
X102334285Y-105537142D01*
X102477142Y-105537142D01*
X102691428Y-105584761D01*
X103548571Y-106156190D01*
X103548571Y-105537142D01*
X139362380Y-101139523D02*
X140076666Y-101139523D01*
X140219523Y-101187142D01*
X140314761Y-101282380D01*
X140362380Y-101425238D01*
X140362380Y-101520476D01*
X140362380Y-100139523D02*
X140362380Y-100710952D01*
X140362380Y-100425238D02*
X139362380Y-100425238D01*
X139505238Y-100520476D01*
X139600476Y-100615714D01*
X139648095Y-100710952D01*
X139695714Y-99282380D02*
X140362380Y-99282380D01*
X139314761Y-99520476D02*
X140029047Y-99758571D01*
X140029047Y-99139523D01*
X139362380Y-135429523D02*
X140076666Y-135429523D01*
X140219523Y-135477142D01*
X140314761Y-135572380D01*
X140362380Y-135715238D01*
X140362380Y-135810476D01*
X140362380Y-134429523D02*
X140362380Y-135000952D01*
X140362380Y-134715238D02*
X139362380Y-134715238D01*
X139505238Y-134810476D01*
X139600476Y-134905714D01*
X139648095Y-135000952D01*
X139362380Y-134096190D02*
X139362380Y-133477142D01*
X139743333Y-133810476D01*
X139743333Y-133667619D01*
X139790952Y-133572380D01*
X139838571Y-133524761D01*
X139933809Y-133477142D01*
X140171904Y-133477142D01*
X140267142Y-133524761D01*
X140314761Y-133572380D01*
X140362380Y-133667619D01*
X140362380Y-133953333D01*
X140314761Y-134048571D01*
X140267142Y-134096190D01*
X118666666Y-85152380D02*
X118666666Y-85866666D01*
X118619047Y-86009523D01*
X118523809Y-86104761D01*
X118380952Y-86152380D01*
X118285714Y-86152380D01*
X119571428Y-85485714D02*
X119571428Y-86152380D01*
X119333333Y-85104761D02*
X119095238Y-85819047D01*
X119714285Y-85819047D01*
X138666666Y-85152380D02*
X138666666Y-85866666D01*
X138619047Y-86009523D01*
X138523809Y-86104761D01*
X138380952Y-86152380D01*
X138285714Y-86152380D01*
X139047619Y-85152380D02*
X139666666Y-85152380D01*
X139333333Y-85533333D01*
X139476190Y-85533333D01*
X139571428Y-85580952D01*
X139619047Y-85628571D01*
X139666666Y-85723809D01*
X139666666Y-85961904D01*
X139619047Y-86057142D01*
X139571428Y-86104761D01*
X139476190Y-86152380D01*
X139190476Y-86152380D01*
X139095238Y-86104761D01*
X139047619Y-86057142D01*
X158666666Y-85152380D02*
X158666666Y-85866666D01*
X158619047Y-86009523D01*
X158523809Y-86104761D01*
X158380952Y-86152380D01*
X158285714Y-86152380D01*
X159095238Y-85247619D02*
X159142857Y-85200000D01*
X159238095Y-85152380D01*
X159476190Y-85152380D01*
X159571428Y-85200000D01*
X159619047Y-85247619D01*
X159666666Y-85342857D01*
X159666666Y-85438095D01*
X159619047Y-85580952D01*
X159047619Y-86152380D01*
X159666666Y-86152380D01*
X178666666Y-85452380D02*
X178666666Y-86166666D01*
X178619047Y-86309523D01*
X178523809Y-86404761D01*
X178380952Y-86452380D01*
X178285714Y-86452380D01*
X179666666Y-86452380D02*
X179095238Y-86452380D01*
X179380952Y-86452380D02*
X179380952Y-85452380D01*
X179285714Y-85595238D01*
X179190476Y-85690476D01*
X179095238Y-85738095D01*
X139595100Y-118233224D02*
X140404624Y-118233224D01*
X140499862Y-118185605D01*
X140547481Y-118137986D01*
X140595100Y-118042748D01*
X140595100Y-117852272D01*
X140547481Y-117757034D01*
X140499862Y-117709415D01*
X140404624Y-117661796D01*
X139595100Y-117661796D01*
X140595100Y-116661796D02*
X140595100Y-117233224D01*
X140595100Y-116947510D02*
X139595100Y-116947510D01*
X139737958Y-117042748D01*
X139833196Y-117137986D01*
X139880815Y-117233224D01*
X160777481Y-117399891D02*
X161110815Y-117399891D01*
X161253672Y-117923700D02*
X160777481Y-117923700D01*
X160777481Y-116923700D01*
X161253672Y-116923700D01*
X161634624Y-117876081D02*
X161777481Y-117923700D01*
X162015577Y-117923700D01*
X162110815Y-117876081D01*
X162158434Y-117828462D01*
X162206053Y-117733224D01*
X162206053Y-117637986D01*
X162158434Y-117542748D01*
X162110815Y-117495129D01*
X162015577Y-117447510D01*
X161825100Y-117399891D01*
X161729862Y-117352272D01*
X161682243Y-117304653D01*
X161634624Y-117209415D01*
X161634624Y-117114177D01*
X161682243Y-117018939D01*
X161729862Y-116971320D01*
X161825100Y-116923700D01*
X162063196Y-116923700D01*
X162206053Y-116971320D01*
X162634624Y-117923700D02*
X162634624Y-116923700D01*
X163015577Y-116923700D01*
X163110815Y-116971320D01*
X163158434Y-117018939D01*
X163206053Y-117114177D01*
X163206053Y-117257034D01*
X163158434Y-117352272D01*
X163110815Y-117399891D01*
X163015577Y-117447510D01*
X162634624Y-117447510D01*
X163539386Y-116923700D02*
X164158434Y-116923700D01*
X163825100Y-117304653D01*
X163967958Y-117304653D01*
X164063196Y-117352272D01*
X164110815Y-117399891D01*
X164158434Y-117495129D01*
X164158434Y-117733224D01*
X164110815Y-117828462D01*
X164063196Y-117876081D01*
X163967958Y-117923700D01*
X163682243Y-117923700D01*
X163587005Y-117876081D01*
X163539386Y-117828462D01*
X164539386Y-117018939D02*
X164587005Y-116971320D01*
X164682243Y-116923700D01*
X164920339Y-116923700D01*
X165015577Y-116971320D01*
X165063196Y-117018939D01*
X165110815Y-117114177D01*
X165110815Y-117209415D01*
X165063196Y-117352272D01*
X164491767Y-117923700D01*
X165110815Y-117923700D01*
X165539386Y-117542748D02*
X166301291Y-117542748D01*
X166777481Y-117923700D02*
X166777481Y-116923700D01*
X167015577Y-116923700D01*
X167158434Y-116971320D01*
X167253672Y-117066558D01*
X167301291Y-117161796D01*
X167348910Y-117352272D01*
X167348910Y-117495129D01*
X167301291Y-117685605D01*
X167253672Y-117780843D01*
X167158434Y-117876081D01*
X167015577Y-117923700D01*
X166777481Y-117923700D01*
X168158434Y-117876081D02*
X168063196Y-117923700D01*
X167872720Y-117923700D01*
X167777481Y-117876081D01*
X167729862Y-117780843D01*
X167729862Y-117399891D01*
X167777481Y-117304653D01*
X167872720Y-117257034D01*
X168063196Y-117257034D01*
X168158434Y-117304653D01*
X168206053Y-117399891D01*
X168206053Y-117495129D01*
X167729862Y-117590367D01*
X168539386Y-117257034D02*
X168777481Y-117923700D01*
X169015577Y-117257034D01*
X169396529Y-117923700D02*
X169396529Y-116923700D01*
X169967958Y-117923700D02*
X169539386Y-117352272D01*
X169967958Y-116923700D02*
X169396529Y-117495129D01*
X170396529Y-117923700D02*
X170396529Y-117257034D01*
X170396529Y-116923700D02*
X170348910Y-116971320D01*
X170396529Y-117018939D01*
X170444148Y-116971320D01*
X170396529Y-116923700D01*
X170396529Y-117018939D01*
X170729862Y-117257034D02*
X171110815Y-117257034D01*
X170872720Y-116923700D02*
X170872720Y-117780843D01*
X170920339Y-117876081D01*
X171015577Y-117923700D01*
X171110815Y-117923700D01*
X172015577Y-117828462D02*
X171967958Y-117876081D01*
X171825100Y-117923700D01*
X171729862Y-117923700D01*
X171587005Y-117876081D01*
X171491767Y-117780843D01*
X171444148Y-117685605D01*
X171396529Y-117495129D01*
X171396529Y-117352272D01*
X171444148Y-117161796D01*
X171491767Y-117066558D01*
X171587005Y-116971320D01*
X171729862Y-116923700D01*
X171825100Y-116923700D01*
X171967958Y-116971320D01*
X172015577Y-117018939D01*
X141742720Y-108424534D02*
X141695100Y-108519772D01*
X141695100Y-108662629D01*
X141742720Y-108805486D01*
X141837958Y-108900724D01*
X141933196Y-108948343D01*
X142123672Y-108995962D01*
X142266529Y-108995962D01*
X142457005Y-108948343D01*
X142552243Y-108900724D01*
X142647481Y-108805486D01*
X142695100Y-108662629D01*
X142695100Y-108567391D01*
X142647481Y-108424534D01*
X142599862Y-108376915D01*
X142266529Y-108376915D01*
X142266529Y-108567391D01*
X142695100Y-107948343D02*
X141695100Y-107948343D01*
X142695100Y-107376915D01*
X141695100Y-107376915D01*
X142695100Y-106900724D02*
X141695100Y-106900724D01*
X141695100Y-106662629D01*
X141742720Y-106519772D01*
X141837958Y-106424534D01*
X141933196Y-106376915D01*
X142123672Y-106329296D01*
X142266529Y-106329296D01*
X142457005Y-106376915D01*
X142552243Y-106424534D01*
X142647481Y-106519772D01*
X142695100Y-106662629D01*
X142695100Y-106900724D01*
X144432720Y-109405486D02*
X144399386Y-109472153D01*
X144399386Y-109572153D01*
X144432720Y-109672153D01*
X144499386Y-109738820D01*
X144566053Y-109772153D01*
X144699386Y-109805486D01*
X144799386Y-109805486D01*
X144932720Y-109772153D01*
X144999386Y-109738820D01*
X145066053Y-109672153D01*
X145099386Y-109572153D01*
X145099386Y-109505486D01*
X145066053Y-109405486D01*
X145032720Y-109372153D01*
X144799386Y-109372153D01*
X144799386Y-109505486D01*
X145099386Y-109072153D02*
X144399386Y-109072153D01*
X144399386Y-108805486D01*
X144432720Y-108738820D01*
X144466053Y-108705486D01*
X144532720Y-108672153D01*
X144632720Y-108672153D01*
X144699386Y-108705486D01*
X144732720Y-108738820D01*
X144766053Y-108805486D01*
X144766053Y-109072153D01*
X145099386Y-108372153D02*
X144399386Y-108372153D01*
X144399386Y-107905486D02*
X144399386Y-107772153D01*
X144432720Y-107705486D01*
X144499386Y-107638820D01*
X144632720Y-107605486D01*
X144866053Y-107605486D01*
X144999386Y-107638820D01*
X145066053Y-107705486D01*
X145099386Y-107772153D01*
X145099386Y-107905486D01*
X145066053Y-107972153D01*
X144999386Y-108038820D01*
X144866053Y-108072153D01*
X144632720Y-108072153D01*
X144499386Y-108038820D01*
X144432720Y-107972153D01*
X144399386Y-107905486D01*
X144466053Y-107338820D02*
X144432720Y-107305486D01*
X144399386Y-107238820D01*
X144399386Y-107072153D01*
X144432720Y-107005486D01*
X144466053Y-106972153D01*
X144532720Y-106938820D01*
X144599386Y-106938820D01*
X144699386Y-106972153D01*
X145099386Y-107372153D01*
X145099386Y-106938820D01*
X144399386Y-106705486D02*
X144399386Y-106272153D01*
X144666053Y-106505486D01*
X144666053Y-106405486D01*
X144699386Y-106338820D01*
X144732720Y-106305486D01*
X144799386Y-106272153D01*
X144966053Y-106272153D01*
X145032720Y-106305486D01*
X145066053Y-106338820D01*
X145099386Y-106405486D01*
X145099386Y-106605486D01*
X145066053Y-106672153D01*
X145032720Y-106705486D01*
X164752720Y-108738820D02*
X164719386Y-108805486D01*
X164719386Y-108905486D01*
X164752720Y-109005486D01*
X164819386Y-109072153D01*
X164886053Y-109105486D01*
X165019386Y-109138820D01*
X165119386Y-109138820D01*
X165252720Y-109105486D01*
X165319386Y-109072153D01*
X165386053Y-109005486D01*
X165419386Y-108905486D01*
X165419386Y-108838820D01*
X165386053Y-108738820D01*
X165352720Y-108705486D01*
X165119386Y-108705486D01*
X165119386Y-108838820D01*
X165419386Y-108405486D02*
X164719386Y-108405486D01*
X164719386Y-108138820D01*
X164752720Y-108072153D01*
X164786053Y-108038820D01*
X164852720Y-108005486D01*
X164952720Y-108005486D01*
X165019386Y-108038820D01*
X165052720Y-108072153D01*
X165086053Y-108138820D01*
X165086053Y-108405486D01*
X165419386Y-107705486D02*
X164719386Y-107705486D01*
X164719386Y-107238820D02*
X164719386Y-107105486D01*
X164752720Y-107038820D01*
X164819386Y-106972153D01*
X164952720Y-106938820D01*
X165186053Y-106938820D01*
X165319386Y-106972153D01*
X165386053Y-107038820D01*
X165419386Y-107105486D01*
X165419386Y-107238820D01*
X165386053Y-107305486D01*
X165319386Y-107372153D01*
X165186053Y-107405486D01*
X164952720Y-107405486D01*
X164819386Y-107372153D01*
X164752720Y-107305486D01*
X164719386Y-107238820D01*
X164719386Y-106305486D02*
X164719386Y-106638820D01*
X165052720Y-106672153D01*
X165019386Y-106638820D01*
X164986053Y-106572153D01*
X164986053Y-106405486D01*
X165019386Y-106338820D01*
X165052720Y-106305486D01*
X165119386Y-106272153D01*
X165286053Y-106272153D01*
X165352720Y-106305486D01*
X165386053Y-106338820D01*
X165419386Y-106405486D01*
X165419386Y-106572153D01*
X165386053Y-106638820D01*
X165352720Y-106672153D01*
X185739386Y-107338820D02*
X185039386Y-107338820D01*
X185039386Y-107172153D01*
X185072720Y-107072153D01*
X185139386Y-107005486D01*
X185206053Y-106972153D01*
X185339386Y-106938820D01*
X185439386Y-106938820D01*
X185572720Y-106972153D01*
X185639386Y-107005486D01*
X185706053Y-107072153D01*
X185739386Y-107172153D01*
X185739386Y-107338820D01*
X185039386Y-106505486D02*
X185039386Y-106438820D01*
X185072720Y-106372153D01*
X185106053Y-106338820D01*
X185172720Y-106305486D01*
X185306053Y-106272153D01*
X185472720Y-106272153D01*
X185606053Y-106305486D01*
X185672720Y-106338820D01*
X185706053Y-106372153D01*
X185739386Y-106438820D01*
X185739386Y-106505486D01*
X185706053Y-106572153D01*
X185672720Y-106605486D01*
X185606053Y-106638820D01*
X185472720Y-106672153D01*
X185306053Y-106672153D01*
X185172720Y-106638820D01*
X185106053Y-106605486D01*
X185072720Y-106572153D01*
X185039386Y-106505486D01*
X187666380Y-128093214D02*
X187666380Y-128569404D01*
X188142571Y-128617023D01*
X188094952Y-128569404D01*
X188047333Y-128474166D01*
X188047333Y-128236071D01*
X188094952Y-128140833D01*
X188142571Y-128093214D01*
X188237809Y-128045595D01*
X188475904Y-128045595D01*
X188571142Y-128093214D01*
X188618761Y-128140833D01*
X188666380Y-128236071D01*
X188666380Y-128474166D01*
X188618761Y-128569404D01*
X188571142Y-128617023D01*
X187666380Y-127759880D02*
X188666380Y-127426547D01*
X187666380Y-127093214D01*
X154592720Y-109405486D02*
X154559386Y-109472153D01*
X154559386Y-109572153D01*
X154592720Y-109672153D01*
X154659386Y-109738820D01*
X154726053Y-109772153D01*
X154859386Y-109805486D01*
X154959386Y-109805486D01*
X155092720Y-109772153D01*
X155159386Y-109738820D01*
X155226053Y-109672153D01*
X155259386Y-109572153D01*
X155259386Y-109505486D01*
X155226053Y-109405486D01*
X155192720Y-109372153D01*
X154959386Y-109372153D01*
X154959386Y-109505486D01*
X155259386Y-109072153D02*
X154559386Y-109072153D01*
X154559386Y-108805486D01*
X154592720Y-108738820D01*
X154626053Y-108705486D01*
X154692720Y-108672153D01*
X154792720Y-108672153D01*
X154859386Y-108705486D01*
X154892720Y-108738820D01*
X154926053Y-108805486D01*
X154926053Y-109072153D01*
X155259386Y-108372153D02*
X154559386Y-108372153D01*
X154559386Y-107905486D02*
X154559386Y-107772153D01*
X154592720Y-107705486D01*
X154659386Y-107638820D01*
X154792720Y-107605486D01*
X155026053Y-107605486D01*
X155159386Y-107638820D01*
X155226053Y-107705486D01*
X155259386Y-107772153D01*
X155259386Y-107905486D01*
X155226053Y-107972153D01*
X155159386Y-108038820D01*
X155026053Y-108072153D01*
X154792720Y-108072153D01*
X154659386Y-108038820D01*
X154592720Y-107972153D01*
X154559386Y-107905486D01*
X154626053Y-107338820D02*
X154592720Y-107305486D01*
X154559386Y-107238820D01*
X154559386Y-107072153D01*
X154592720Y-107005486D01*
X154626053Y-106972153D01*
X154692720Y-106938820D01*
X154759386Y-106938820D01*
X154859386Y-106972153D01*
X155259386Y-107372153D01*
X155259386Y-106938820D01*
X155259386Y-106272153D02*
X155259386Y-106672153D01*
X155259386Y-106472153D02*
X154559386Y-106472153D01*
X154659386Y-106538820D01*
X154726053Y-106605486D01*
X154759386Y-106672153D01*
X183199386Y-107338820D02*
X182499386Y-107338820D01*
X182499386Y-107172153D01*
X182532720Y-107072153D01*
X182599386Y-107005486D01*
X182666053Y-106972153D01*
X182799386Y-106938820D01*
X182899386Y-106938820D01*
X183032720Y-106972153D01*
X183099386Y-107005486D01*
X183166053Y-107072153D01*
X183199386Y-107172153D01*
X183199386Y-107338820D01*
X183199386Y-106272153D02*
X183199386Y-106672153D01*
X183199386Y-106472153D02*
X182499386Y-106472153D01*
X182599386Y-106538820D01*
X182666053Y-106605486D01*
X182699386Y-106672153D01*
X172372720Y-128270486D02*
X172339386Y-128337153D01*
X172339386Y-128437153D01*
X172372720Y-128537153D01*
X172439386Y-128603820D01*
X172506053Y-128637153D01*
X172639386Y-128670486D01*
X172739386Y-128670486D01*
X172872720Y-128637153D01*
X172939386Y-128603820D01*
X173006053Y-128537153D01*
X173039386Y-128437153D01*
X173039386Y-128370486D01*
X173006053Y-128270486D01*
X172972720Y-128237153D01*
X172739386Y-128237153D01*
X172739386Y-128370486D01*
X173039386Y-127937153D02*
X172339386Y-127937153D01*
X172339386Y-127670486D01*
X172372720Y-127603820D01*
X172406053Y-127570486D01*
X172472720Y-127537153D01*
X172572720Y-127537153D01*
X172639386Y-127570486D01*
X172672720Y-127603820D01*
X172706053Y-127670486D01*
X172706053Y-127937153D01*
X173039386Y-127237153D02*
X172339386Y-127237153D01*
X172339386Y-126770486D02*
X172339386Y-126637153D01*
X172372720Y-126570486D01*
X172439386Y-126503820D01*
X172572720Y-126470486D01*
X172806053Y-126470486D01*
X172939386Y-126503820D01*
X173006053Y-126570486D01*
X173039386Y-126637153D01*
X173039386Y-126770486D01*
X173006053Y-126837153D01*
X172939386Y-126903820D01*
X172806053Y-126937153D01*
X172572720Y-126937153D01*
X172439386Y-126903820D01*
X172372720Y-126837153D01*
X172339386Y-126770486D01*
X173039386Y-125803820D02*
X173039386Y-126203820D01*
X173039386Y-126003820D02*
X172339386Y-126003820D01*
X172439386Y-126070486D01*
X172506053Y-126137153D01*
X172539386Y-126203820D01*
X172406053Y-125537153D02*
X172372720Y-125503820D01*
X172339386Y-125437153D01*
X172339386Y-125270486D01*
X172372720Y-125203820D01*
X172406053Y-125170486D01*
X172472720Y-125137153D01*
X172539386Y-125137153D01*
X172639386Y-125170486D01*
X173039386Y-125570486D01*
X173039386Y-125137153D01*
X172306053Y-124337153D02*
X173206053Y-124937153D01*
X173039386Y-124103820D02*
X172339386Y-124103820D01*
X172839386Y-123870486D01*
X172339386Y-123637153D01*
X173039386Y-123637153D01*
X172339386Y-123403820D02*
X172339386Y-123003820D01*
X173039386Y-123203820D02*
X172339386Y-123203820D01*
X173039386Y-122770486D02*
X172339386Y-122770486D01*
X172339386Y-122603820D01*
X172372720Y-122503820D01*
X172439386Y-122437153D01*
X172506053Y-122403820D01*
X172639386Y-122370486D01*
X172739386Y-122370486D01*
X172872720Y-122403820D01*
X172939386Y-122437153D01*
X173006053Y-122503820D01*
X173039386Y-122603820D01*
X173039386Y-122770486D01*
X173039386Y-122070486D02*
X172339386Y-122070486D01*
X146939386Y-128737153D02*
X147639386Y-128503820D01*
X146939386Y-128270486D01*
X147639386Y-128037153D02*
X146939386Y-128037153D01*
X146939386Y-127770486D01*
X146972720Y-127703820D01*
X147006053Y-127670486D01*
X147072720Y-127637153D01*
X147172720Y-127637153D01*
X147239386Y-127670486D01*
X147272720Y-127703820D01*
X147306053Y-127770486D01*
X147306053Y-128037153D01*
X146906053Y-126837153D02*
X147806053Y-127437153D01*
X146972720Y-126237153D02*
X146939386Y-126303820D01*
X146939386Y-126403820D01*
X146972720Y-126503820D01*
X147039386Y-126570486D01*
X147106053Y-126603820D01*
X147239386Y-126637153D01*
X147339386Y-126637153D01*
X147472720Y-126603820D01*
X147539386Y-126570486D01*
X147606053Y-126503820D01*
X147639386Y-126403820D01*
X147639386Y-126337153D01*
X147606053Y-126237153D01*
X147572720Y-126203820D01*
X147339386Y-126203820D01*
X147339386Y-126337153D01*
X147639386Y-125903820D02*
X146939386Y-125903820D01*
X146939386Y-125637153D01*
X146972720Y-125570486D01*
X147006053Y-125537153D01*
X147072720Y-125503820D01*
X147172720Y-125503820D01*
X147239386Y-125537153D01*
X147272720Y-125570486D01*
X147306053Y-125637153D01*
X147306053Y-125903820D01*
X147639386Y-125203820D02*
X146939386Y-125203820D01*
X146939386Y-124737153D02*
X146939386Y-124603820D01*
X146972720Y-124537153D01*
X147039386Y-124470486D01*
X147172720Y-124437153D01*
X147406053Y-124437153D01*
X147539386Y-124470486D01*
X147606053Y-124537153D01*
X147639386Y-124603820D01*
X147639386Y-124737153D01*
X147606053Y-124803820D01*
X147539386Y-124870486D01*
X147406053Y-124903820D01*
X147172720Y-124903820D01*
X147039386Y-124870486D01*
X146972720Y-124803820D01*
X146939386Y-124737153D01*
X146939386Y-124203820D02*
X146939386Y-123770486D01*
X147206053Y-124003820D01*
X147206053Y-123903820D01*
X147239386Y-123837153D01*
X147272720Y-123803820D01*
X147339386Y-123770486D01*
X147506053Y-123770486D01*
X147572720Y-123803820D01*
X147606053Y-123837153D01*
X147639386Y-123903820D01*
X147639386Y-124103820D01*
X147606053Y-124170486D01*
X147572720Y-124203820D01*
X146939386Y-123170486D02*
X146939386Y-123303820D01*
X146972720Y-123370486D01*
X147006053Y-123403820D01*
X147106053Y-123470486D01*
X147239386Y-123503820D01*
X147506053Y-123503820D01*
X147572720Y-123470486D01*
X147606053Y-123437153D01*
X147639386Y-123370486D01*
X147639386Y-123237153D01*
X147606053Y-123170486D01*
X147572720Y-123137153D01*
X147506053Y-123103820D01*
X147339386Y-123103820D01*
X147272720Y-123137153D01*
X147239386Y-123170486D01*
X147206053Y-123237153D01*
X147206053Y-123370486D01*
X147239386Y-123437153D01*
X147272720Y-123470486D01*
X147339386Y-123503820D01*
X180659386Y-128637153D02*
X179959386Y-128637153D01*
X179959386Y-128470486D01*
X179992720Y-128370486D01*
X180059386Y-128303820D01*
X180126053Y-128270486D01*
X180259386Y-128237153D01*
X180359386Y-128237153D01*
X180492720Y-128270486D01*
X180559386Y-128303820D01*
X180626053Y-128370486D01*
X180659386Y-128470486D01*
X180659386Y-128637153D01*
X180026053Y-127970486D02*
X179992720Y-127937153D01*
X179959386Y-127870486D01*
X179959386Y-127703820D01*
X179992720Y-127637153D01*
X180026053Y-127603820D01*
X180092720Y-127570486D01*
X180159386Y-127570486D01*
X180259386Y-127603820D01*
X180659386Y-128003820D01*
X180659386Y-127570486D01*
X167292720Y-128270486D02*
X167259386Y-128337153D01*
X167259386Y-128437153D01*
X167292720Y-128537153D01*
X167359386Y-128603820D01*
X167426053Y-128637153D01*
X167559386Y-128670486D01*
X167659386Y-128670486D01*
X167792720Y-128637153D01*
X167859386Y-128603820D01*
X167926053Y-128537153D01*
X167959386Y-128437153D01*
X167959386Y-128370486D01*
X167926053Y-128270486D01*
X167892720Y-128237153D01*
X167659386Y-128237153D01*
X167659386Y-128370486D01*
X167959386Y-127937153D02*
X167259386Y-127937153D01*
X167259386Y-127670486D01*
X167292720Y-127603820D01*
X167326053Y-127570486D01*
X167392720Y-127537153D01*
X167492720Y-127537153D01*
X167559386Y-127570486D01*
X167592720Y-127603820D01*
X167626053Y-127670486D01*
X167626053Y-127937153D01*
X167959386Y-127237153D02*
X167259386Y-127237153D01*
X167259386Y-126770486D02*
X167259386Y-126637153D01*
X167292720Y-126570486D01*
X167359386Y-126503820D01*
X167492720Y-126470486D01*
X167726053Y-126470486D01*
X167859386Y-126503820D01*
X167926053Y-126570486D01*
X167959386Y-126637153D01*
X167959386Y-126770486D01*
X167926053Y-126837153D01*
X167859386Y-126903820D01*
X167726053Y-126937153D01*
X167492720Y-126937153D01*
X167359386Y-126903820D01*
X167292720Y-126837153D01*
X167259386Y-126770486D01*
X167326053Y-126203820D02*
X167292720Y-126170486D01*
X167259386Y-126103820D01*
X167259386Y-125937153D01*
X167292720Y-125870486D01*
X167326053Y-125837153D01*
X167392720Y-125803820D01*
X167459386Y-125803820D01*
X167559386Y-125837153D01*
X167959386Y-126237153D01*
X167959386Y-125803820D01*
X167259386Y-125570486D02*
X167259386Y-125103820D01*
X167959386Y-125403820D01*
X159672720Y-128270486D02*
X159639386Y-128337153D01*
X159639386Y-128437153D01*
X159672720Y-128537153D01*
X159739386Y-128603820D01*
X159806053Y-128637153D01*
X159939386Y-128670486D01*
X160039386Y-128670486D01*
X160172720Y-128637153D01*
X160239386Y-128603820D01*
X160306053Y-128537153D01*
X160339386Y-128437153D01*
X160339386Y-128370486D01*
X160306053Y-128270486D01*
X160272720Y-128237153D01*
X160039386Y-128237153D01*
X160039386Y-128370486D01*
X160339386Y-127937153D02*
X159639386Y-127937153D01*
X159639386Y-127670486D01*
X159672720Y-127603820D01*
X159706053Y-127570486D01*
X159772720Y-127537153D01*
X159872720Y-127537153D01*
X159939386Y-127570486D01*
X159972720Y-127603820D01*
X160006053Y-127670486D01*
X160006053Y-127937153D01*
X160339386Y-127237153D02*
X159639386Y-127237153D01*
X159639386Y-126770486D02*
X159639386Y-126637153D01*
X159672720Y-126570486D01*
X159739386Y-126503820D01*
X159872720Y-126470486D01*
X160106053Y-126470486D01*
X160239386Y-126503820D01*
X160306053Y-126570486D01*
X160339386Y-126637153D01*
X160339386Y-126770486D01*
X160306053Y-126837153D01*
X160239386Y-126903820D01*
X160106053Y-126937153D01*
X159872720Y-126937153D01*
X159739386Y-126903820D01*
X159672720Y-126837153D01*
X159639386Y-126770486D01*
X159639386Y-126237153D02*
X159639386Y-125803820D01*
X159906053Y-126037153D01*
X159906053Y-125937153D01*
X159939386Y-125870486D01*
X159972720Y-125837153D01*
X160039386Y-125803820D01*
X160206053Y-125803820D01*
X160272720Y-125837153D01*
X160306053Y-125870486D01*
X160339386Y-125937153D01*
X160339386Y-126137153D01*
X160306053Y-126203820D01*
X160272720Y-126237153D01*
X159639386Y-125570486D02*
X159639386Y-125137153D01*
X159906053Y-125370486D01*
X159906053Y-125270486D01*
X159939386Y-125203820D01*
X159972720Y-125170486D01*
X160039386Y-125137153D01*
X160206053Y-125137153D01*
X160272720Y-125170486D01*
X160306053Y-125203820D01*
X160339386Y-125270486D01*
X160339386Y-125470486D01*
X160306053Y-125537153D01*
X160272720Y-125570486D01*
X159672720Y-109405486D02*
X159639386Y-109472153D01*
X159639386Y-109572153D01*
X159672720Y-109672153D01*
X159739386Y-109738820D01*
X159806053Y-109772153D01*
X159939386Y-109805486D01*
X160039386Y-109805486D01*
X160172720Y-109772153D01*
X160239386Y-109738820D01*
X160306053Y-109672153D01*
X160339386Y-109572153D01*
X160339386Y-109505486D01*
X160306053Y-109405486D01*
X160272720Y-109372153D01*
X160039386Y-109372153D01*
X160039386Y-109505486D01*
X160339386Y-109072153D02*
X159639386Y-109072153D01*
X159639386Y-108805486D01*
X159672720Y-108738820D01*
X159706053Y-108705486D01*
X159772720Y-108672153D01*
X159872720Y-108672153D01*
X159939386Y-108705486D01*
X159972720Y-108738820D01*
X160006053Y-108805486D01*
X160006053Y-109072153D01*
X160339386Y-108372153D02*
X159639386Y-108372153D01*
X159639386Y-107905486D02*
X159639386Y-107772153D01*
X159672720Y-107705486D01*
X159739386Y-107638820D01*
X159872720Y-107605486D01*
X160106053Y-107605486D01*
X160239386Y-107638820D01*
X160306053Y-107705486D01*
X160339386Y-107772153D01*
X160339386Y-107905486D01*
X160306053Y-107972153D01*
X160239386Y-108038820D01*
X160106053Y-108072153D01*
X159872720Y-108072153D01*
X159739386Y-108038820D01*
X159672720Y-107972153D01*
X159639386Y-107905486D01*
X160339386Y-106938820D02*
X160339386Y-107338820D01*
X160339386Y-107138820D02*
X159639386Y-107138820D01*
X159739386Y-107205486D01*
X159806053Y-107272153D01*
X159839386Y-107338820D01*
X160339386Y-106605486D02*
X160339386Y-106472153D01*
X160306053Y-106405486D01*
X160272720Y-106372153D01*
X160172720Y-106305486D01*
X160039386Y-106272153D01*
X159772720Y-106272153D01*
X159706053Y-106305486D01*
X159672720Y-106338820D01*
X159639386Y-106405486D01*
X159639386Y-106538820D01*
X159672720Y-106605486D01*
X159706053Y-106638820D01*
X159772720Y-106672153D01*
X159939386Y-106672153D01*
X160006053Y-106638820D01*
X160039386Y-106605486D01*
X160072720Y-106538820D01*
X160072720Y-106405486D01*
X160039386Y-106338820D01*
X160006053Y-106305486D01*
X159939386Y-106272153D01*
X149479386Y-128737153D02*
X150179386Y-128503820D01*
X149479386Y-128270486D01*
X150179386Y-128037153D02*
X149479386Y-128037153D01*
X150179386Y-127637153D01*
X149479386Y-127637153D01*
X149446053Y-126803820D02*
X150346053Y-127403820D01*
X149512720Y-126203820D02*
X149479386Y-126270486D01*
X149479386Y-126370486D01*
X149512720Y-126470486D01*
X149579386Y-126537153D01*
X149646053Y-126570486D01*
X149779386Y-126603820D01*
X149879386Y-126603820D01*
X150012720Y-126570486D01*
X150079386Y-126537153D01*
X150146053Y-126470486D01*
X150179386Y-126370486D01*
X150179386Y-126303820D01*
X150146053Y-126203820D01*
X150112720Y-126170486D01*
X149879386Y-126170486D01*
X149879386Y-126303820D01*
X150179386Y-125870486D02*
X149479386Y-125870486D01*
X149479386Y-125603820D01*
X149512720Y-125537153D01*
X149546053Y-125503820D01*
X149612720Y-125470486D01*
X149712720Y-125470486D01*
X149779386Y-125503820D01*
X149812720Y-125537153D01*
X149846053Y-125603820D01*
X149846053Y-125870486D01*
X150179386Y-125170486D02*
X149479386Y-125170486D01*
X149479386Y-124703820D02*
X149479386Y-124570486D01*
X149512720Y-124503820D01*
X149579386Y-124437153D01*
X149712720Y-124403820D01*
X149946053Y-124403820D01*
X150079386Y-124437153D01*
X150146053Y-124503820D01*
X150179386Y-124570486D01*
X150179386Y-124703820D01*
X150146053Y-124770486D01*
X150079386Y-124837153D01*
X149946053Y-124870486D01*
X149712720Y-124870486D01*
X149579386Y-124837153D01*
X149512720Y-124770486D01*
X149479386Y-124703820D01*
X149479386Y-124170486D02*
X149479386Y-123737153D01*
X149746053Y-123970486D01*
X149746053Y-123870486D01*
X149779386Y-123803820D01*
X149812720Y-123770486D01*
X149879386Y-123737153D01*
X150046053Y-123737153D01*
X150112720Y-123770486D01*
X150146053Y-123803820D01*
X150179386Y-123870486D01*
X150179386Y-124070486D01*
X150146053Y-124137153D01*
X150112720Y-124170486D01*
X150179386Y-123403820D02*
X150179386Y-123270486D01*
X150146053Y-123203820D01*
X150112720Y-123170486D01*
X150012720Y-123103820D01*
X149879386Y-123070486D01*
X149612720Y-123070486D01*
X149546053Y-123103820D01*
X149512720Y-123137153D01*
X149479386Y-123203820D01*
X149479386Y-123337153D01*
X149512720Y-123403820D01*
X149546053Y-123437153D01*
X149612720Y-123470486D01*
X149779386Y-123470486D01*
X149846053Y-123437153D01*
X149879386Y-123403820D01*
X149912720Y-123337153D01*
X149912720Y-123203820D01*
X149879386Y-123137153D01*
X149846053Y-123103820D01*
X149779386Y-123070486D01*
X177452720Y-128270486D02*
X177419386Y-128337153D01*
X177419386Y-128437153D01*
X177452720Y-128537153D01*
X177519386Y-128603820D01*
X177586053Y-128637153D01*
X177719386Y-128670486D01*
X177819386Y-128670486D01*
X177952720Y-128637153D01*
X178019386Y-128603820D01*
X178086053Y-128537153D01*
X178119386Y-128437153D01*
X178119386Y-128370486D01*
X178086053Y-128270486D01*
X178052720Y-128237153D01*
X177819386Y-128237153D01*
X177819386Y-128370486D01*
X178119386Y-127937153D02*
X177419386Y-127937153D01*
X177419386Y-127670486D01*
X177452720Y-127603820D01*
X177486053Y-127570486D01*
X177552720Y-127537153D01*
X177652720Y-127537153D01*
X177719386Y-127570486D01*
X177752720Y-127603820D01*
X177786053Y-127670486D01*
X177786053Y-127937153D01*
X178119386Y-127237153D02*
X177419386Y-127237153D01*
X177419386Y-126770486D02*
X177419386Y-126637153D01*
X177452720Y-126570486D01*
X177519386Y-126503820D01*
X177652720Y-126470486D01*
X177886053Y-126470486D01*
X178019386Y-126503820D01*
X178086053Y-126570486D01*
X178119386Y-126637153D01*
X178119386Y-126770486D01*
X178086053Y-126837153D01*
X178019386Y-126903820D01*
X177886053Y-126937153D01*
X177652720Y-126937153D01*
X177519386Y-126903820D01*
X177452720Y-126837153D01*
X177419386Y-126770486D01*
X178119386Y-125803820D02*
X178119386Y-126203820D01*
X178119386Y-126003820D02*
X177419386Y-126003820D01*
X177519386Y-126070486D01*
X177586053Y-126137153D01*
X177619386Y-126203820D01*
X177419386Y-125570486D02*
X177419386Y-125137153D01*
X177686053Y-125370486D01*
X177686053Y-125270486D01*
X177719386Y-125203820D01*
X177752720Y-125170486D01*
X177819386Y-125137153D01*
X177986053Y-125137153D01*
X178052720Y-125170486D01*
X178086053Y-125203820D01*
X178119386Y-125270486D01*
X178119386Y-125470486D01*
X178086053Y-125537153D01*
X178052720Y-125570486D01*
X177386053Y-124337153D02*
X178286053Y-124937153D01*
X178119386Y-124103820D02*
X177419386Y-124103820D01*
X177919386Y-123870486D01*
X177419386Y-123637153D01*
X178119386Y-123637153D01*
X177419386Y-123403820D02*
X177419386Y-123003820D01*
X178119386Y-123203820D02*
X177419386Y-123203820D01*
X178052720Y-122370486D02*
X178086053Y-122403820D01*
X178119386Y-122503820D01*
X178119386Y-122570486D01*
X178086053Y-122670486D01*
X178019386Y-122737153D01*
X177952720Y-122770486D01*
X177819386Y-122803820D01*
X177719386Y-122803820D01*
X177586053Y-122770486D01*
X177519386Y-122737153D01*
X177452720Y-122670486D01*
X177419386Y-122570486D01*
X177419386Y-122503820D01*
X177452720Y-122403820D01*
X177486053Y-122370486D01*
X178119386Y-122070486D02*
X177419386Y-122070486D01*
X178119386Y-121670486D02*
X177719386Y-121970486D01*
X177419386Y-121670486D02*
X177819386Y-122070486D01*
X177452720Y-108738820D02*
X177419386Y-108805486D01*
X177419386Y-108905486D01*
X177452720Y-109005486D01*
X177519386Y-109072153D01*
X177586053Y-109105486D01*
X177719386Y-109138820D01*
X177819386Y-109138820D01*
X177952720Y-109105486D01*
X178019386Y-109072153D01*
X178086053Y-109005486D01*
X178119386Y-108905486D01*
X178119386Y-108838820D01*
X178086053Y-108738820D01*
X178052720Y-108705486D01*
X177819386Y-108705486D01*
X177819386Y-108838820D01*
X178119386Y-108405486D02*
X177419386Y-108405486D01*
X177419386Y-108138820D01*
X177452720Y-108072153D01*
X177486053Y-108038820D01*
X177552720Y-108005486D01*
X177652720Y-108005486D01*
X177719386Y-108038820D01*
X177752720Y-108072153D01*
X177786053Y-108138820D01*
X177786053Y-108405486D01*
X178119386Y-107705486D02*
X177419386Y-107705486D01*
X177419386Y-107238820D02*
X177419386Y-107105486D01*
X177452720Y-107038820D01*
X177519386Y-106972153D01*
X177652720Y-106938820D01*
X177886053Y-106938820D01*
X178019386Y-106972153D01*
X178086053Y-107038820D01*
X178119386Y-107105486D01*
X178119386Y-107238820D01*
X178086053Y-107305486D01*
X178019386Y-107372153D01*
X177886053Y-107405486D01*
X177652720Y-107405486D01*
X177519386Y-107372153D01*
X177452720Y-107305486D01*
X177419386Y-107238820D01*
X177486053Y-106672153D02*
X177452720Y-106638820D01*
X177419386Y-106572153D01*
X177419386Y-106405486D01*
X177452720Y-106338820D01*
X177486053Y-106305486D01*
X177552720Y-106272153D01*
X177619386Y-106272153D01*
X177719386Y-106305486D01*
X178119386Y-106705486D01*
X178119386Y-106272153D01*
X164752720Y-128270486D02*
X164719386Y-128337153D01*
X164719386Y-128437153D01*
X164752720Y-128537153D01*
X164819386Y-128603820D01*
X164886053Y-128637153D01*
X165019386Y-128670486D01*
X165119386Y-128670486D01*
X165252720Y-128637153D01*
X165319386Y-128603820D01*
X165386053Y-128537153D01*
X165419386Y-128437153D01*
X165419386Y-128370486D01*
X165386053Y-128270486D01*
X165352720Y-128237153D01*
X165119386Y-128237153D01*
X165119386Y-128370486D01*
X165419386Y-127937153D02*
X164719386Y-127937153D01*
X164719386Y-127670486D01*
X164752720Y-127603820D01*
X164786053Y-127570486D01*
X164852720Y-127537153D01*
X164952720Y-127537153D01*
X165019386Y-127570486D01*
X165052720Y-127603820D01*
X165086053Y-127670486D01*
X165086053Y-127937153D01*
X165419386Y-127237153D02*
X164719386Y-127237153D01*
X164719386Y-126770486D02*
X164719386Y-126637153D01*
X164752720Y-126570486D01*
X164819386Y-126503820D01*
X164952720Y-126470486D01*
X165186053Y-126470486D01*
X165319386Y-126503820D01*
X165386053Y-126570486D01*
X165419386Y-126637153D01*
X165419386Y-126770486D01*
X165386053Y-126837153D01*
X165319386Y-126903820D01*
X165186053Y-126937153D01*
X164952720Y-126937153D01*
X164819386Y-126903820D01*
X164752720Y-126837153D01*
X164719386Y-126770486D01*
X164786053Y-126203820D02*
X164752720Y-126170486D01*
X164719386Y-126103820D01*
X164719386Y-125937153D01*
X164752720Y-125870486D01*
X164786053Y-125837153D01*
X164852720Y-125803820D01*
X164919386Y-125803820D01*
X165019386Y-125837153D01*
X165419386Y-126237153D01*
X165419386Y-125803820D01*
X164719386Y-125203820D02*
X164719386Y-125337153D01*
X164752720Y-125403820D01*
X164786053Y-125437153D01*
X164886053Y-125503820D01*
X165019386Y-125537153D01*
X165286053Y-125537153D01*
X165352720Y-125503820D01*
X165386053Y-125470486D01*
X165419386Y-125403820D01*
X165419386Y-125270486D01*
X165386053Y-125203820D01*
X165352720Y-125170486D01*
X165286053Y-125137153D01*
X165119386Y-125137153D01*
X165052720Y-125170486D01*
X165019386Y-125203820D01*
X164986053Y-125270486D01*
X164986053Y-125403820D01*
X165019386Y-125470486D01*
X165052720Y-125503820D01*
X165119386Y-125537153D01*
X152052720Y-112938820D02*
X152019386Y-113005486D01*
X152019386Y-113105486D01*
X152052720Y-113205486D01*
X152119386Y-113272153D01*
X152186053Y-113305486D01*
X152319386Y-113338820D01*
X152419386Y-113338820D01*
X152552720Y-113305486D01*
X152619386Y-113272153D01*
X152686053Y-113205486D01*
X152719386Y-113105486D01*
X152719386Y-113038820D01*
X152686053Y-112938820D01*
X152652720Y-112905486D01*
X152419386Y-112905486D01*
X152419386Y-113038820D01*
X152719386Y-112605486D02*
X152019386Y-112605486D01*
X152019386Y-112338820D01*
X152052720Y-112272153D01*
X152086053Y-112238820D01*
X152152720Y-112205486D01*
X152252720Y-112205486D01*
X152319386Y-112238820D01*
X152352720Y-112272153D01*
X152386053Y-112338820D01*
X152386053Y-112605486D01*
X152719386Y-111905486D02*
X152019386Y-111905486D01*
X152019386Y-111438820D02*
X152019386Y-111305486D01*
X152052720Y-111238820D01*
X152119386Y-111172153D01*
X152252720Y-111138820D01*
X152486053Y-111138820D01*
X152619386Y-111172153D01*
X152686053Y-111238820D01*
X152719386Y-111305486D01*
X152719386Y-111438820D01*
X152686053Y-111505486D01*
X152619386Y-111572153D01*
X152486053Y-111605486D01*
X152252720Y-111605486D01*
X152119386Y-111572153D01*
X152052720Y-111505486D01*
X152019386Y-111438820D01*
X152019386Y-110905486D02*
X152019386Y-110472153D01*
X152286053Y-110705486D01*
X152286053Y-110605486D01*
X152319386Y-110538820D01*
X152352720Y-110505486D01*
X152419386Y-110472153D01*
X152586053Y-110472153D01*
X152652720Y-110505486D01*
X152686053Y-110538820D01*
X152719386Y-110605486D01*
X152719386Y-110805486D01*
X152686053Y-110872153D01*
X152652720Y-110905486D01*
X151986053Y-109672153D02*
X152886053Y-110272153D01*
X152019386Y-109438820D02*
X152586053Y-109438820D01*
X152652720Y-109405486D01*
X152686053Y-109372153D01*
X152719386Y-109305486D01*
X152719386Y-109172153D01*
X152686053Y-109105486D01*
X152652720Y-109072153D01*
X152586053Y-109038820D01*
X152019386Y-109038820D01*
X152019386Y-108572153D02*
X152019386Y-108505486D01*
X152052720Y-108438820D01*
X152086053Y-108405486D01*
X152152720Y-108372153D01*
X152286053Y-108338820D01*
X152452720Y-108338820D01*
X152586053Y-108372153D01*
X152652720Y-108405486D01*
X152686053Y-108438820D01*
X152719386Y-108505486D01*
X152719386Y-108572153D01*
X152686053Y-108638820D01*
X152652720Y-108672153D01*
X152586053Y-108705486D01*
X152452720Y-108738820D01*
X152286053Y-108738820D01*
X152152720Y-108705486D01*
X152086053Y-108672153D01*
X152052720Y-108638820D01*
X152019386Y-108572153D01*
X152719386Y-107638820D02*
X152386053Y-107872153D01*
X152719386Y-108038820D02*
X152019386Y-108038820D01*
X152019386Y-107772153D01*
X152052720Y-107705486D01*
X152086053Y-107672153D01*
X152152720Y-107638820D01*
X152252720Y-107638820D01*
X152319386Y-107672153D01*
X152352720Y-107705486D01*
X152386053Y-107772153D01*
X152386053Y-108038820D01*
X152019386Y-107405486D02*
X152719386Y-106938820D01*
X152019386Y-106938820D02*
X152719386Y-107405486D01*
X152719386Y-106672153D02*
X152019386Y-106672153D01*
X152019386Y-106505486D01*
X152052720Y-106405486D01*
X152119386Y-106338820D01*
X152186053Y-106305486D01*
X152319386Y-106272153D01*
X152419386Y-106272153D01*
X152552720Y-106305486D01*
X152619386Y-106338820D01*
X152686053Y-106405486D01*
X152719386Y-106505486D01*
X152719386Y-106672153D01*
X141695100Y-128660962D02*
X141695100Y-128041915D01*
X142076053Y-128375248D01*
X142076053Y-128232391D01*
X142123672Y-128137153D01*
X142171291Y-128089534D01*
X142266529Y-128041915D01*
X142504624Y-128041915D01*
X142599862Y-128089534D01*
X142647481Y-128137153D01*
X142695100Y-128232391D01*
X142695100Y-128518105D01*
X142647481Y-128613343D01*
X142599862Y-128660962D01*
X141695100Y-127756200D02*
X142695100Y-127422867D01*
X141695100Y-127089534D01*
X141695100Y-126851439D02*
X141695100Y-126232391D01*
X142076053Y-126565724D01*
X142076053Y-126422867D01*
X142123672Y-126327629D01*
X142171291Y-126280010D01*
X142266529Y-126232391D01*
X142504624Y-126232391D01*
X142599862Y-126280010D01*
X142647481Y-126327629D01*
X142695100Y-126422867D01*
X142695100Y-126708581D01*
X142647481Y-126803820D01*
X142599862Y-126851439D01*
X169832720Y-109405486D02*
X169799386Y-109472153D01*
X169799386Y-109572153D01*
X169832720Y-109672153D01*
X169899386Y-109738820D01*
X169966053Y-109772153D01*
X170099386Y-109805486D01*
X170199386Y-109805486D01*
X170332720Y-109772153D01*
X170399386Y-109738820D01*
X170466053Y-109672153D01*
X170499386Y-109572153D01*
X170499386Y-109505486D01*
X170466053Y-109405486D01*
X170432720Y-109372153D01*
X170199386Y-109372153D01*
X170199386Y-109505486D01*
X170499386Y-109072153D02*
X169799386Y-109072153D01*
X169799386Y-108805486D01*
X169832720Y-108738820D01*
X169866053Y-108705486D01*
X169932720Y-108672153D01*
X170032720Y-108672153D01*
X170099386Y-108705486D01*
X170132720Y-108738820D01*
X170166053Y-108805486D01*
X170166053Y-109072153D01*
X170499386Y-108372153D02*
X169799386Y-108372153D01*
X169799386Y-107905486D02*
X169799386Y-107772153D01*
X169832720Y-107705486D01*
X169899386Y-107638820D01*
X170032720Y-107605486D01*
X170266053Y-107605486D01*
X170399386Y-107638820D01*
X170466053Y-107705486D01*
X170499386Y-107772153D01*
X170499386Y-107905486D01*
X170466053Y-107972153D01*
X170399386Y-108038820D01*
X170266053Y-108072153D01*
X170032720Y-108072153D01*
X169899386Y-108038820D01*
X169832720Y-107972153D01*
X169799386Y-107905486D01*
X170499386Y-106938820D02*
X170499386Y-107338820D01*
X170499386Y-107138820D02*
X169799386Y-107138820D01*
X169899386Y-107205486D01*
X169966053Y-107272153D01*
X169999386Y-107338820D01*
X169799386Y-106338820D02*
X169799386Y-106472153D01*
X169832720Y-106538820D01*
X169866053Y-106572153D01*
X169966053Y-106638820D01*
X170099386Y-106672153D01*
X170366053Y-106672153D01*
X170432720Y-106638820D01*
X170466053Y-106605486D01*
X170499386Y-106538820D01*
X170499386Y-106405486D01*
X170466053Y-106338820D01*
X170432720Y-106305486D01*
X170366053Y-106272153D01*
X170199386Y-106272153D01*
X170132720Y-106305486D01*
X170099386Y-106338820D01*
X170066053Y-106405486D01*
X170066053Y-106538820D01*
X170099386Y-106605486D01*
X170132720Y-106638820D01*
X170199386Y-106672153D01*
X157132720Y-128270486D02*
X157099386Y-128337153D01*
X157099386Y-128437153D01*
X157132720Y-128537153D01*
X157199386Y-128603820D01*
X157266053Y-128637153D01*
X157399386Y-128670486D01*
X157499386Y-128670486D01*
X157632720Y-128637153D01*
X157699386Y-128603820D01*
X157766053Y-128537153D01*
X157799386Y-128437153D01*
X157799386Y-128370486D01*
X157766053Y-128270486D01*
X157732720Y-128237153D01*
X157499386Y-128237153D01*
X157499386Y-128370486D01*
X157799386Y-127937153D02*
X157099386Y-127937153D01*
X157099386Y-127670486D01*
X157132720Y-127603820D01*
X157166053Y-127570486D01*
X157232720Y-127537153D01*
X157332720Y-127537153D01*
X157399386Y-127570486D01*
X157432720Y-127603820D01*
X157466053Y-127670486D01*
X157466053Y-127937153D01*
X157799386Y-127237153D02*
X157099386Y-127237153D01*
X157099386Y-126770486D02*
X157099386Y-126637153D01*
X157132720Y-126570486D01*
X157199386Y-126503820D01*
X157332720Y-126470486D01*
X157566053Y-126470486D01*
X157699386Y-126503820D01*
X157766053Y-126570486D01*
X157799386Y-126637153D01*
X157799386Y-126770486D01*
X157766053Y-126837153D01*
X157699386Y-126903820D01*
X157566053Y-126937153D01*
X157332720Y-126937153D01*
X157199386Y-126903820D01*
X157132720Y-126837153D01*
X157099386Y-126770486D01*
X157099386Y-126237153D02*
X157099386Y-125803820D01*
X157366053Y-126037153D01*
X157366053Y-125937153D01*
X157399386Y-125870486D01*
X157432720Y-125837153D01*
X157499386Y-125803820D01*
X157666053Y-125803820D01*
X157732720Y-125837153D01*
X157766053Y-125870486D01*
X157799386Y-125937153D01*
X157799386Y-126137153D01*
X157766053Y-126203820D01*
X157732720Y-126237153D01*
X157166053Y-125537153D02*
X157132720Y-125503820D01*
X157099386Y-125437153D01*
X157099386Y-125270486D01*
X157132720Y-125203820D01*
X157166053Y-125170486D01*
X157232720Y-125137153D01*
X157299386Y-125137153D01*
X157399386Y-125170486D01*
X157799386Y-125570486D01*
X157799386Y-125137153D01*
X174912720Y-108738820D02*
X174879386Y-108805486D01*
X174879386Y-108905486D01*
X174912720Y-109005486D01*
X174979386Y-109072153D01*
X175046053Y-109105486D01*
X175179386Y-109138820D01*
X175279386Y-109138820D01*
X175412720Y-109105486D01*
X175479386Y-109072153D01*
X175546053Y-109005486D01*
X175579386Y-108905486D01*
X175579386Y-108838820D01*
X175546053Y-108738820D01*
X175512720Y-108705486D01*
X175279386Y-108705486D01*
X175279386Y-108838820D01*
X175579386Y-108405486D02*
X174879386Y-108405486D01*
X174879386Y-108138820D01*
X174912720Y-108072153D01*
X174946053Y-108038820D01*
X175012720Y-108005486D01*
X175112720Y-108005486D01*
X175179386Y-108038820D01*
X175212720Y-108072153D01*
X175246053Y-108138820D01*
X175246053Y-108405486D01*
X175579386Y-107705486D02*
X174879386Y-107705486D01*
X174879386Y-107238820D02*
X174879386Y-107105486D01*
X174912720Y-107038820D01*
X174979386Y-106972153D01*
X175112720Y-106938820D01*
X175346053Y-106938820D01*
X175479386Y-106972153D01*
X175546053Y-107038820D01*
X175579386Y-107105486D01*
X175579386Y-107238820D01*
X175546053Y-107305486D01*
X175479386Y-107372153D01*
X175346053Y-107405486D01*
X175112720Y-107405486D01*
X174979386Y-107372153D01*
X174912720Y-107305486D01*
X174879386Y-107238820D01*
X174879386Y-106505486D02*
X174879386Y-106438820D01*
X174912720Y-106372153D01*
X174946053Y-106338820D01*
X175012720Y-106305486D01*
X175146053Y-106272153D01*
X175312720Y-106272153D01*
X175446053Y-106305486D01*
X175512720Y-106338820D01*
X175546053Y-106372153D01*
X175579386Y-106438820D01*
X175579386Y-106505486D01*
X175546053Y-106572153D01*
X175512720Y-106605486D01*
X175446053Y-106638820D01*
X175312720Y-106672153D01*
X175146053Y-106672153D01*
X175012720Y-106638820D01*
X174946053Y-106605486D01*
X174912720Y-106572153D01*
X174879386Y-106505486D01*
X174762720Y-128041915D02*
X174715100Y-128137153D01*
X174715100Y-128280010D01*
X174762720Y-128422867D01*
X174857958Y-128518105D01*
X174953196Y-128565724D01*
X175143672Y-128613343D01*
X175286529Y-128613343D01*
X175477005Y-128565724D01*
X175572243Y-128518105D01*
X175667481Y-128422867D01*
X175715100Y-128280010D01*
X175715100Y-128184772D01*
X175667481Y-128041915D01*
X175619862Y-127994296D01*
X175286529Y-127994296D01*
X175286529Y-128184772D01*
X175715100Y-127565724D02*
X174715100Y-127565724D01*
X175715100Y-126994296D01*
X174715100Y-126994296D01*
X175715100Y-126518105D02*
X174715100Y-126518105D01*
X174715100Y-126280010D01*
X174762720Y-126137153D01*
X174857958Y-126041915D01*
X174953196Y-125994296D01*
X175143672Y-125946677D01*
X175286529Y-125946677D01*
X175477005Y-125994296D01*
X175572243Y-126041915D01*
X175667481Y-126137153D01*
X175715100Y-126280010D01*
X175715100Y-126518105D01*
X188212720Y-107538820D02*
X188246053Y-107572153D01*
X188279386Y-107672153D01*
X188279386Y-107738820D01*
X188246053Y-107838820D01*
X188179386Y-107905486D01*
X188112720Y-107938820D01*
X187979386Y-107972153D01*
X187879386Y-107972153D01*
X187746053Y-107938820D01*
X187679386Y-107905486D01*
X187612720Y-107838820D01*
X187579386Y-107738820D01*
X187579386Y-107672153D01*
X187612720Y-107572153D01*
X187646053Y-107538820D01*
X188279386Y-106905486D02*
X188279386Y-107238820D01*
X187579386Y-107238820D01*
X188279386Y-106672153D02*
X187579386Y-106672153D01*
X188279386Y-106272153D02*
X187879386Y-106572153D01*
X187579386Y-106272153D02*
X187979386Y-106672153D01*
X144708571Y-128668214D02*
X144708571Y-128334880D01*
X145232380Y-128192023D02*
X145232380Y-128668214D01*
X144232380Y-128668214D01*
X144232380Y-128192023D01*
X145232380Y-127763452D02*
X144232380Y-127763452D01*
X145232380Y-127192023D01*
X144232380Y-127192023D01*
X144184761Y-126001547D02*
X145470476Y-126858690D01*
X145232380Y-125096785D02*
X144756190Y-125430119D01*
X145232380Y-125668214D02*
X144232380Y-125668214D01*
X144232380Y-125287261D01*
X144280000Y-125192023D01*
X144327619Y-125144404D01*
X144422857Y-125096785D01*
X144565714Y-125096785D01*
X144660952Y-125144404D01*
X144708571Y-125192023D01*
X144756190Y-125287261D01*
X144756190Y-125668214D01*
X144708571Y-124668214D02*
X144708571Y-124334880D01*
X145232380Y-124192023D02*
X145232380Y-124668214D01*
X144232380Y-124668214D01*
X144232380Y-124192023D01*
X145184761Y-123811071D02*
X145232380Y-123668214D01*
X145232380Y-123430119D01*
X145184761Y-123334880D01*
X145137142Y-123287261D01*
X145041904Y-123239642D01*
X144946666Y-123239642D01*
X144851428Y-123287261D01*
X144803809Y-123334880D01*
X144756190Y-123430119D01*
X144708571Y-123620595D01*
X144660952Y-123715833D01*
X144613333Y-123763452D01*
X144518095Y-123811071D01*
X144422857Y-123811071D01*
X144327619Y-123763452D01*
X144280000Y-123715833D01*
X144232380Y-123620595D01*
X144232380Y-123382500D01*
X144280000Y-123239642D01*
X144708571Y-122811071D02*
X144708571Y-122477738D01*
X145232380Y-122334880D02*
X145232380Y-122811071D01*
X144232380Y-122811071D01*
X144232380Y-122334880D01*
X144232380Y-122049166D02*
X144232380Y-121477738D01*
X145232380Y-121763452D02*
X144232380Y-121763452D01*
X172372720Y-108738820D02*
X172339386Y-108805486D01*
X172339386Y-108905486D01*
X172372720Y-109005486D01*
X172439386Y-109072153D01*
X172506053Y-109105486D01*
X172639386Y-109138820D01*
X172739386Y-109138820D01*
X172872720Y-109105486D01*
X172939386Y-109072153D01*
X173006053Y-109005486D01*
X173039386Y-108905486D01*
X173039386Y-108838820D01*
X173006053Y-108738820D01*
X172972720Y-108705486D01*
X172739386Y-108705486D01*
X172739386Y-108838820D01*
X173039386Y-108405486D02*
X172339386Y-108405486D01*
X172339386Y-108138820D01*
X172372720Y-108072153D01*
X172406053Y-108038820D01*
X172472720Y-108005486D01*
X172572720Y-108005486D01*
X172639386Y-108038820D01*
X172672720Y-108072153D01*
X172706053Y-108138820D01*
X172706053Y-108405486D01*
X173039386Y-107705486D02*
X172339386Y-107705486D01*
X172339386Y-107238820D02*
X172339386Y-107105486D01*
X172372720Y-107038820D01*
X172439386Y-106972153D01*
X172572720Y-106938820D01*
X172806053Y-106938820D01*
X172939386Y-106972153D01*
X173006053Y-107038820D01*
X173039386Y-107105486D01*
X173039386Y-107238820D01*
X173006053Y-107305486D01*
X172939386Y-107372153D01*
X172806053Y-107405486D01*
X172572720Y-107405486D01*
X172439386Y-107372153D01*
X172372720Y-107305486D01*
X172339386Y-107238820D01*
X172572720Y-106338820D02*
X173039386Y-106338820D01*
X172306053Y-106505486D02*
X172806053Y-106672153D01*
X172806053Y-106238820D01*
X154592720Y-128270486D02*
X154559386Y-128337153D01*
X154559386Y-128437153D01*
X154592720Y-128537153D01*
X154659386Y-128603820D01*
X154726053Y-128637153D01*
X154859386Y-128670486D01*
X154959386Y-128670486D01*
X155092720Y-128637153D01*
X155159386Y-128603820D01*
X155226053Y-128537153D01*
X155259386Y-128437153D01*
X155259386Y-128370486D01*
X155226053Y-128270486D01*
X155192720Y-128237153D01*
X154959386Y-128237153D01*
X154959386Y-128370486D01*
X155259386Y-127937153D02*
X154559386Y-127937153D01*
X154559386Y-127670486D01*
X154592720Y-127603820D01*
X154626053Y-127570486D01*
X154692720Y-127537153D01*
X154792720Y-127537153D01*
X154859386Y-127570486D01*
X154892720Y-127603820D01*
X154926053Y-127670486D01*
X154926053Y-127937153D01*
X155259386Y-127237153D02*
X154559386Y-127237153D01*
X154559386Y-126770486D02*
X154559386Y-126637153D01*
X154592720Y-126570486D01*
X154659386Y-126503820D01*
X154792720Y-126470486D01*
X155026053Y-126470486D01*
X155159386Y-126503820D01*
X155226053Y-126570486D01*
X155259386Y-126637153D01*
X155259386Y-126770486D01*
X155226053Y-126837153D01*
X155159386Y-126903820D01*
X155026053Y-126937153D01*
X154792720Y-126937153D01*
X154659386Y-126903820D01*
X154592720Y-126837153D01*
X154559386Y-126770486D01*
X154559386Y-126237153D02*
X154559386Y-125803820D01*
X154826053Y-126037153D01*
X154826053Y-125937153D01*
X154859386Y-125870486D01*
X154892720Y-125837153D01*
X154959386Y-125803820D01*
X155126053Y-125803820D01*
X155192720Y-125837153D01*
X155226053Y-125870486D01*
X155259386Y-125937153D01*
X155259386Y-126137153D01*
X155226053Y-126203820D01*
X155192720Y-126237153D01*
X154559386Y-125170486D02*
X154559386Y-125503820D01*
X154892720Y-125537153D01*
X154859386Y-125503820D01*
X154826053Y-125437153D01*
X154826053Y-125270486D01*
X154859386Y-125203820D01*
X154892720Y-125170486D01*
X154959386Y-125137153D01*
X155126053Y-125137153D01*
X155192720Y-125170486D01*
X155226053Y-125203820D01*
X155259386Y-125270486D01*
X155259386Y-125437153D01*
X155226053Y-125503820D01*
X155192720Y-125537153D01*
X169832720Y-128270486D02*
X169799386Y-128337153D01*
X169799386Y-128437153D01*
X169832720Y-128537153D01*
X169899386Y-128603820D01*
X169966053Y-128637153D01*
X170099386Y-128670486D01*
X170199386Y-128670486D01*
X170332720Y-128637153D01*
X170399386Y-128603820D01*
X170466053Y-128537153D01*
X170499386Y-128437153D01*
X170499386Y-128370486D01*
X170466053Y-128270486D01*
X170432720Y-128237153D01*
X170199386Y-128237153D01*
X170199386Y-128370486D01*
X170499386Y-127937153D02*
X169799386Y-127937153D01*
X169799386Y-127670486D01*
X169832720Y-127603820D01*
X169866053Y-127570486D01*
X169932720Y-127537153D01*
X170032720Y-127537153D01*
X170099386Y-127570486D01*
X170132720Y-127603820D01*
X170166053Y-127670486D01*
X170166053Y-127937153D01*
X170499386Y-127237153D02*
X169799386Y-127237153D01*
X169799386Y-126770486D02*
X169799386Y-126637153D01*
X169832720Y-126570486D01*
X169899386Y-126503820D01*
X170032720Y-126470486D01*
X170266053Y-126470486D01*
X170399386Y-126503820D01*
X170466053Y-126570486D01*
X170499386Y-126637153D01*
X170499386Y-126770486D01*
X170466053Y-126837153D01*
X170399386Y-126903820D01*
X170266053Y-126937153D01*
X170032720Y-126937153D01*
X169899386Y-126903820D01*
X169832720Y-126837153D01*
X169799386Y-126770486D01*
X170499386Y-125803820D02*
X170499386Y-126203820D01*
X170499386Y-126003820D02*
X169799386Y-126003820D01*
X169899386Y-126070486D01*
X169966053Y-126137153D01*
X169999386Y-126203820D01*
X170032720Y-125203820D02*
X170499386Y-125203820D01*
X169766053Y-125370486D02*
X170266053Y-125537153D01*
X170266053Y-125103820D01*
X169766053Y-124337153D02*
X170666053Y-124937153D01*
X170499386Y-124103820D02*
X169799386Y-124103820D01*
X170299386Y-123870486D01*
X169799386Y-123637153D01*
X170499386Y-123637153D01*
X169799386Y-123403820D02*
X169799386Y-123003820D01*
X170499386Y-123203820D02*
X169799386Y-123203820D01*
X170499386Y-122770486D02*
X169799386Y-122770486D01*
X170299386Y-122537153D01*
X169799386Y-122303820D01*
X170499386Y-122303820D01*
X170466053Y-122003820D02*
X170499386Y-121903820D01*
X170499386Y-121737153D01*
X170466053Y-121670486D01*
X170432720Y-121637153D01*
X170366053Y-121603820D01*
X170299386Y-121603820D01*
X170232720Y-121637153D01*
X170199386Y-121670486D01*
X170166053Y-121737153D01*
X170132720Y-121870486D01*
X170099386Y-121937153D01*
X170066053Y-121970486D01*
X169999386Y-122003820D01*
X169932720Y-122003820D01*
X169866053Y-121970486D01*
X169832720Y-121937153D01*
X169799386Y-121870486D01*
X169799386Y-121703820D01*
X169832720Y-121603820D01*
X152052720Y-128270486D02*
X152019386Y-128337153D01*
X152019386Y-128437153D01*
X152052720Y-128537153D01*
X152119386Y-128603820D01*
X152186053Y-128637153D01*
X152319386Y-128670486D01*
X152419386Y-128670486D01*
X152552720Y-128637153D01*
X152619386Y-128603820D01*
X152686053Y-128537153D01*
X152719386Y-128437153D01*
X152719386Y-128370486D01*
X152686053Y-128270486D01*
X152652720Y-128237153D01*
X152419386Y-128237153D01*
X152419386Y-128370486D01*
X152719386Y-127937153D02*
X152019386Y-127937153D01*
X152019386Y-127670486D01*
X152052720Y-127603820D01*
X152086053Y-127570486D01*
X152152720Y-127537153D01*
X152252720Y-127537153D01*
X152319386Y-127570486D01*
X152352720Y-127603820D01*
X152386053Y-127670486D01*
X152386053Y-127937153D01*
X152719386Y-127237153D02*
X152019386Y-127237153D01*
X152019386Y-126770486D02*
X152019386Y-126637153D01*
X152052720Y-126570486D01*
X152119386Y-126503820D01*
X152252720Y-126470486D01*
X152486053Y-126470486D01*
X152619386Y-126503820D01*
X152686053Y-126570486D01*
X152719386Y-126637153D01*
X152719386Y-126770486D01*
X152686053Y-126837153D01*
X152619386Y-126903820D01*
X152486053Y-126937153D01*
X152252720Y-126937153D01*
X152119386Y-126903820D01*
X152052720Y-126837153D01*
X152019386Y-126770486D01*
X152019386Y-126237153D02*
X152019386Y-125803820D01*
X152286053Y-126037153D01*
X152286053Y-125937153D01*
X152319386Y-125870486D01*
X152352720Y-125837153D01*
X152419386Y-125803820D01*
X152586053Y-125803820D01*
X152652720Y-125837153D01*
X152686053Y-125870486D01*
X152719386Y-125937153D01*
X152719386Y-126137153D01*
X152686053Y-126203820D01*
X152652720Y-126237153D01*
X152252720Y-125203820D02*
X152719386Y-125203820D01*
X151986053Y-125370486D02*
X152486053Y-125537153D01*
X152486053Y-125103820D01*
X183199386Y-128637153D02*
X182499386Y-128637153D01*
X182499386Y-128470486D01*
X182532720Y-128370486D01*
X182599386Y-128303820D01*
X182666053Y-128270486D01*
X182799386Y-128237153D01*
X182899386Y-128237153D01*
X183032720Y-128270486D01*
X183099386Y-128303820D01*
X183166053Y-128370486D01*
X183199386Y-128470486D01*
X183199386Y-128637153D01*
X182499386Y-128003820D02*
X182499386Y-127570486D01*
X182766053Y-127803820D01*
X182766053Y-127703820D01*
X182799386Y-127637153D01*
X182832720Y-127603820D01*
X182899386Y-127570486D01*
X183066053Y-127570486D01*
X183132720Y-127603820D01*
X183166053Y-127637153D01*
X183199386Y-127703820D01*
X183199386Y-127903820D01*
X183166053Y-127970486D01*
X183132720Y-128003820D01*
X162212720Y-109405486D02*
X162179386Y-109472153D01*
X162179386Y-109572153D01*
X162212720Y-109672153D01*
X162279386Y-109738820D01*
X162346053Y-109772153D01*
X162479386Y-109805486D01*
X162579386Y-109805486D01*
X162712720Y-109772153D01*
X162779386Y-109738820D01*
X162846053Y-109672153D01*
X162879386Y-109572153D01*
X162879386Y-109505486D01*
X162846053Y-109405486D01*
X162812720Y-109372153D01*
X162579386Y-109372153D01*
X162579386Y-109505486D01*
X162879386Y-109072153D02*
X162179386Y-109072153D01*
X162179386Y-108805486D01*
X162212720Y-108738820D01*
X162246053Y-108705486D01*
X162312720Y-108672153D01*
X162412720Y-108672153D01*
X162479386Y-108705486D01*
X162512720Y-108738820D01*
X162546053Y-108805486D01*
X162546053Y-109072153D01*
X162879386Y-108372153D02*
X162179386Y-108372153D01*
X162179386Y-107905486D02*
X162179386Y-107772153D01*
X162212720Y-107705486D01*
X162279386Y-107638820D01*
X162412720Y-107605486D01*
X162646053Y-107605486D01*
X162779386Y-107638820D01*
X162846053Y-107705486D01*
X162879386Y-107772153D01*
X162879386Y-107905486D01*
X162846053Y-107972153D01*
X162779386Y-108038820D01*
X162646053Y-108072153D01*
X162412720Y-108072153D01*
X162279386Y-108038820D01*
X162212720Y-107972153D01*
X162179386Y-107905486D01*
X162879386Y-106938820D02*
X162879386Y-107338820D01*
X162879386Y-107138820D02*
X162179386Y-107138820D01*
X162279386Y-107205486D01*
X162346053Y-107272153D01*
X162379386Y-107338820D01*
X162479386Y-106538820D02*
X162446053Y-106605486D01*
X162412720Y-106638820D01*
X162346053Y-106672153D01*
X162312720Y-106672153D01*
X162246053Y-106638820D01*
X162212720Y-106605486D01*
X162179386Y-106538820D01*
X162179386Y-106405486D01*
X162212720Y-106338820D01*
X162246053Y-106305486D01*
X162312720Y-106272153D01*
X162346053Y-106272153D01*
X162412720Y-106305486D01*
X162446053Y-106338820D01*
X162479386Y-106405486D01*
X162479386Y-106538820D01*
X162512720Y-106605486D01*
X162546053Y-106638820D01*
X162612720Y-106672153D01*
X162746053Y-106672153D01*
X162812720Y-106638820D01*
X162846053Y-106605486D01*
X162879386Y-106538820D01*
X162879386Y-106405486D01*
X162846053Y-106338820D01*
X162812720Y-106305486D01*
X162746053Y-106272153D01*
X162612720Y-106272153D01*
X162546053Y-106305486D01*
X162512720Y-106338820D01*
X162479386Y-106405486D01*
X185672720Y-128237153D02*
X185706053Y-128270486D01*
X185739386Y-128370486D01*
X185739386Y-128437153D01*
X185706053Y-128537153D01*
X185639386Y-128603820D01*
X185572720Y-128637153D01*
X185439386Y-128670486D01*
X185339386Y-128670486D01*
X185206053Y-128637153D01*
X185139386Y-128603820D01*
X185072720Y-128537153D01*
X185039386Y-128437153D01*
X185039386Y-128370486D01*
X185072720Y-128270486D01*
X185106053Y-128237153D01*
X185739386Y-127937153D02*
X185039386Y-127937153D01*
X185539386Y-127703820D01*
X185039386Y-127470486D01*
X185739386Y-127470486D01*
X185739386Y-127137153D02*
X185039386Y-127137153D01*
X185039386Y-126970486D01*
X185072720Y-126870486D01*
X185139386Y-126803820D01*
X185206053Y-126770486D01*
X185339386Y-126737153D01*
X185439386Y-126737153D01*
X185572720Y-126770486D01*
X185639386Y-126803820D01*
X185706053Y-126870486D01*
X185739386Y-126970486D01*
X185739386Y-127137153D01*
X146972720Y-109405486D02*
X146939386Y-109472153D01*
X146939386Y-109572153D01*
X146972720Y-109672153D01*
X147039386Y-109738820D01*
X147106053Y-109772153D01*
X147239386Y-109805486D01*
X147339386Y-109805486D01*
X147472720Y-109772153D01*
X147539386Y-109738820D01*
X147606053Y-109672153D01*
X147639386Y-109572153D01*
X147639386Y-109505486D01*
X147606053Y-109405486D01*
X147572720Y-109372153D01*
X147339386Y-109372153D01*
X147339386Y-109505486D01*
X147639386Y-109072153D02*
X146939386Y-109072153D01*
X146939386Y-108805486D01*
X146972720Y-108738820D01*
X147006053Y-108705486D01*
X147072720Y-108672153D01*
X147172720Y-108672153D01*
X147239386Y-108705486D01*
X147272720Y-108738820D01*
X147306053Y-108805486D01*
X147306053Y-109072153D01*
X147639386Y-108372153D02*
X146939386Y-108372153D01*
X146939386Y-107905486D02*
X146939386Y-107772153D01*
X146972720Y-107705486D01*
X147039386Y-107638820D01*
X147172720Y-107605486D01*
X147406053Y-107605486D01*
X147539386Y-107638820D01*
X147606053Y-107705486D01*
X147639386Y-107772153D01*
X147639386Y-107905486D01*
X147606053Y-107972153D01*
X147539386Y-108038820D01*
X147406053Y-108072153D01*
X147172720Y-108072153D01*
X147039386Y-108038820D01*
X146972720Y-107972153D01*
X146939386Y-107905486D01*
X147006053Y-107338820D02*
X146972720Y-107305486D01*
X146939386Y-107238820D01*
X146939386Y-107072153D01*
X146972720Y-107005486D01*
X147006053Y-106972153D01*
X147072720Y-106938820D01*
X147139386Y-106938820D01*
X147239386Y-106972153D01*
X147639386Y-107372153D01*
X147639386Y-106938820D01*
X147006053Y-106672153D02*
X146972720Y-106638820D01*
X146939386Y-106572153D01*
X146939386Y-106405486D01*
X146972720Y-106338820D01*
X147006053Y-106305486D01*
X147072720Y-106272153D01*
X147139386Y-106272153D01*
X147239386Y-106305486D01*
X147639386Y-106705486D01*
X147639386Y-106272153D01*
X156982720Y-108424534D02*
X156935100Y-108519772D01*
X156935100Y-108662629D01*
X156982720Y-108805486D01*
X157077958Y-108900724D01*
X157173196Y-108948343D01*
X157363672Y-108995962D01*
X157506529Y-108995962D01*
X157697005Y-108948343D01*
X157792243Y-108900724D01*
X157887481Y-108805486D01*
X157935100Y-108662629D01*
X157935100Y-108567391D01*
X157887481Y-108424534D01*
X157839862Y-108376915D01*
X157506529Y-108376915D01*
X157506529Y-108567391D01*
X157935100Y-107948343D02*
X156935100Y-107948343D01*
X157935100Y-107376915D01*
X156935100Y-107376915D01*
X157935100Y-106900724D02*
X156935100Y-106900724D01*
X156935100Y-106662629D01*
X156982720Y-106519772D01*
X157077958Y-106424534D01*
X157173196Y-106376915D01*
X157363672Y-106329296D01*
X157506529Y-106329296D01*
X157697005Y-106376915D01*
X157792243Y-106424534D01*
X157887481Y-106519772D01*
X157935100Y-106662629D01*
X157935100Y-106900724D01*
X167292720Y-109405486D02*
X167259386Y-109472153D01*
X167259386Y-109572153D01*
X167292720Y-109672153D01*
X167359386Y-109738820D01*
X167426053Y-109772153D01*
X167559386Y-109805486D01*
X167659386Y-109805486D01*
X167792720Y-109772153D01*
X167859386Y-109738820D01*
X167926053Y-109672153D01*
X167959386Y-109572153D01*
X167959386Y-109505486D01*
X167926053Y-109405486D01*
X167892720Y-109372153D01*
X167659386Y-109372153D01*
X167659386Y-109505486D01*
X167959386Y-109072153D02*
X167259386Y-109072153D01*
X167259386Y-108805486D01*
X167292720Y-108738820D01*
X167326053Y-108705486D01*
X167392720Y-108672153D01*
X167492720Y-108672153D01*
X167559386Y-108705486D01*
X167592720Y-108738820D01*
X167626053Y-108805486D01*
X167626053Y-109072153D01*
X167959386Y-108372153D02*
X167259386Y-108372153D01*
X167259386Y-107905486D02*
X167259386Y-107772153D01*
X167292720Y-107705486D01*
X167359386Y-107638820D01*
X167492720Y-107605486D01*
X167726053Y-107605486D01*
X167859386Y-107638820D01*
X167926053Y-107705486D01*
X167959386Y-107772153D01*
X167959386Y-107905486D01*
X167926053Y-107972153D01*
X167859386Y-108038820D01*
X167726053Y-108072153D01*
X167492720Y-108072153D01*
X167359386Y-108038820D01*
X167292720Y-107972153D01*
X167259386Y-107905486D01*
X167959386Y-106938820D02*
X167959386Y-107338820D01*
X167959386Y-107138820D02*
X167259386Y-107138820D01*
X167359386Y-107205486D01*
X167426053Y-107272153D01*
X167459386Y-107338820D01*
X167259386Y-106705486D02*
X167259386Y-106238820D01*
X167959386Y-106538820D01*
X149512720Y-112772153D02*
X149479386Y-112838820D01*
X149479386Y-112938820D01*
X149512720Y-113038820D01*
X149579386Y-113105486D01*
X149646053Y-113138820D01*
X149779386Y-113172153D01*
X149879386Y-113172153D01*
X150012720Y-113138820D01*
X150079386Y-113105486D01*
X150146053Y-113038820D01*
X150179386Y-112938820D01*
X150179386Y-112872153D01*
X150146053Y-112772153D01*
X150112720Y-112738820D01*
X149879386Y-112738820D01*
X149879386Y-112872153D01*
X150179386Y-112438820D02*
X149479386Y-112438820D01*
X149479386Y-112172153D01*
X149512720Y-112105486D01*
X149546053Y-112072153D01*
X149612720Y-112038820D01*
X149712720Y-112038820D01*
X149779386Y-112072153D01*
X149812720Y-112105486D01*
X149846053Y-112172153D01*
X149846053Y-112438820D01*
X150179386Y-111738820D02*
X149479386Y-111738820D01*
X149479386Y-111272153D02*
X149479386Y-111138820D01*
X149512720Y-111072153D01*
X149579386Y-111005486D01*
X149712720Y-110972153D01*
X149946053Y-110972153D01*
X150079386Y-111005486D01*
X150146053Y-111072153D01*
X150179386Y-111138820D01*
X150179386Y-111272153D01*
X150146053Y-111338820D01*
X150079386Y-111405486D01*
X149946053Y-111438820D01*
X149712720Y-111438820D01*
X149579386Y-111405486D01*
X149512720Y-111338820D01*
X149479386Y-111272153D01*
X150179386Y-110305486D02*
X150179386Y-110705486D01*
X150179386Y-110505486D02*
X149479386Y-110505486D01*
X149579386Y-110572153D01*
X149646053Y-110638820D01*
X149679386Y-110705486D01*
X149446053Y-109505486D02*
X150346053Y-110105486D01*
X149479386Y-109272153D02*
X150046053Y-109272153D01*
X150112720Y-109238820D01*
X150146053Y-109205486D01*
X150179386Y-109138820D01*
X150179386Y-109005486D01*
X150146053Y-108938820D01*
X150112720Y-108905486D01*
X150046053Y-108872153D01*
X149479386Y-108872153D01*
X149479386Y-108405486D02*
X149479386Y-108338820D01*
X149512720Y-108272153D01*
X149546053Y-108238820D01*
X149612720Y-108205486D01*
X149746053Y-108172153D01*
X149912720Y-108172153D01*
X150046053Y-108205486D01*
X150112720Y-108238820D01*
X150146053Y-108272153D01*
X150179386Y-108338820D01*
X150179386Y-108405486D01*
X150146053Y-108472153D01*
X150112720Y-108505486D01*
X150046053Y-108538820D01*
X149912720Y-108572153D01*
X149746053Y-108572153D01*
X149612720Y-108538820D01*
X149546053Y-108505486D01*
X149512720Y-108472153D01*
X149479386Y-108405486D01*
X149479386Y-107972153D02*
X149479386Y-107572153D01*
X150179386Y-107772153D02*
X149479386Y-107772153D01*
X149479386Y-107405486D02*
X150179386Y-106938820D01*
X149479386Y-106938820D02*
X150179386Y-107405486D01*
X150179386Y-106672153D02*
X149479386Y-106672153D01*
X149479386Y-106505486D01*
X149512720Y-106405486D01*
X149579386Y-106338820D01*
X149646053Y-106305486D01*
X149779386Y-106272153D01*
X149879386Y-106272153D01*
X150012720Y-106305486D01*
X150079386Y-106338820D01*
X150146053Y-106405486D01*
X150179386Y-106505486D01*
X150179386Y-106672153D01*
X179992720Y-112905486D02*
X179959386Y-112972153D01*
X179959386Y-113072153D01*
X179992720Y-113172153D01*
X180059386Y-113238820D01*
X180126053Y-113272153D01*
X180259386Y-113305486D01*
X180359386Y-113305486D01*
X180492720Y-113272153D01*
X180559386Y-113238820D01*
X180626053Y-113172153D01*
X180659386Y-113072153D01*
X180659386Y-113005486D01*
X180626053Y-112905486D01*
X180592720Y-112872153D01*
X180359386Y-112872153D01*
X180359386Y-113005486D01*
X180659386Y-112572153D02*
X179959386Y-112572153D01*
X179959386Y-112305486D01*
X179992720Y-112238820D01*
X180026053Y-112205486D01*
X180092720Y-112172153D01*
X180192720Y-112172153D01*
X180259386Y-112205486D01*
X180292720Y-112238820D01*
X180326053Y-112305486D01*
X180326053Y-112572153D01*
X180659386Y-111872153D02*
X179959386Y-111872153D01*
X179959386Y-111405486D02*
X179959386Y-111272153D01*
X179992720Y-111205486D01*
X180059386Y-111138820D01*
X180192720Y-111105486D01*
X180426053Y-111105486D01*
X180559386Y-111138820D01*
X180626053Y-111205486D01*
X180659386Y-111272153D01*
X180659386Y-111405486D01*
X180626053Y-111472153D01*
X180559386Y-111538820D01*
X180426053Y-111572153D01*
X180192720Y-111572153D01*
X180059386Y-111538820D01*
X179992720Y-111472153D01*
X179959386Y-111405486D01*
X180659386Y-110438820D02*
X180659386Y-110838820D01*
X180659386Y-110638820D02*
X179959386Y-110638820D01*
X180059386Y-110705486D01*
X180126053Y-110772153D01*
X180159386Y-110838820D01*
X179959386Y-109805486D02*
X179959386Y-110138820D01*
X180292720Y-110172153D01*
X180259386Y-110138820D01*
X180226053Y-110072153D01*
X180226053Y-109905486D01*
X180259386Y-109838820D01*
X180292720Y-109805486D01*
X180359386Y-109772153D01*
X180526053Y-109772153D01*
X180592720Y-109805486D01*
X180626053Y-109838820D01*
X180659386Y-109905486D01*
X180659386Y-110072153D01*
X180626053Y-110138820D01*
X180592720Y-110172153D01*
X179926053Y-108972153D02*
X180826053Y-109572153D01*
X180659386Y-108738820D02*
X179959386Y-108738820D01*
X180459386Y-108505486D01*
X179959386Y-108272153D01*
X180659386Y-108272153D01*
X179959386Y-108038820D02*
X179959386Y-107638820D01*
X180659386Y-107838820D02*
X179959386Y-107838820D01*
X180659386Y-107405486D02*
X179959386Y-107405486D01*
X179959386Y-107238820D01*
X179992720Y-107138820D01*
X180059386Y-107072153D01*
X180126053Y-107038820D01*
X180259386Y-107005486D01*
X180359386Y-107005486D01*
X180492720Y-107038820D01*
X180559386Y-107072153D01*
X180626053Y-107138820D01*
X180659386Y-107238820D01*
X180659386Y-107405486D01*
X179959386Y-106572153D02*
X179959386Y-106438820D01*
X179992720Y-106372153D01*
X180059386Y-106305486D01*
X180192720Y-106272153D01*
X180426053Y-106272153D01*
X180559386Y-106305486D01*
X180626053Y-106372153D01*
X180659386Y-106438820D01*
X180659386Y-106572153D01*
X180626053Y-106638820D01*
X180559386Y-106705486D01*
X180426053Y-106738820D01*
X180192720Y-106738820D01*
X180059386Y-106705486D01*
X179992720Y-106638820D01*
X179959386Y-106572153D01*
X162212720Y-128270486D02*
X162179386Y-128337153D01*
X162179386Y-128437153D01*
X162212720Y-128537153D01*
X162279386Y-128603820D01*
X162346053Y-128637153D01*
X162479386Y-128670486D01*
X162579386Y-128670486D01*
X162712720Y-128637153D01*
X162779386Y-128603820D01*
X162846053Y-128537153D01*
X162879386Y-128437153D01*
X162879386Y-128370486D01*
X162846053Y-128270486D01*
X162812720Y-128237153D01*
X162579386Y-128237153D01*
X162579386Y-128370486D01*
X162879386Y-127937153D02*
X162179386Y-127937153D01*
X162179386Y-127670486D01*
X162212720Y-127603820D01*
X162246053Y-127570486D01*
X162312720Y-127537153D01*
X162412720Y-127537153D01*
X162479386Y-127570486D01*
X162512720Y-127603820D01*
X162546053Y-127670486D01*
X162546053Y-127937153D01*
X162879386Y-127237153D02*
X162179386Y-127237153D01*
X162179386Y-126770486D02*
X162179386Y-126637153D01*
X162212720Y-126570486D01*
X162279386Y-126503820D01*
X162412720Y-126470486D01*
X162646053Y-126470486D01*
X162779386Y-126503820D01*
X162846053Y-126570486D01*
X162879386Y-126637153D01*
X162879386Y-126770486D01*
X162846053Y-126837153D01*
X162779386Y-126903820D01*
X162646053Y-126937153D01*
X162412720Y-126937153D01*
X162279386Y-126903820D01*
X162212720Y-126837153D01*
X162179386Y-126770486D01*
X162246053Y-126203820D02*
X162212720Y-126170486D01*
X162179386Y-126103820D01*
X162179386Y-125937153D01*
X162212720Y-125870486D01*
X162246053Y-125837153D01*
X162312720Y-125803820D01*
X162379386Y-125803820D01*
X162479386Y-125837153D01*
X162879386Y-126237153D01*
X162879386Y-125803820D01*
X162179386Y-125170486D02*
X162179386Y-125503820D01*
X162512720Y-125537153D01*
X162479386Y-125503820D01*
X162446053Y-125437153D01*
X162446053Y-125270486D01*
X162479386Y-125203820D01*
X162512720Y-125170486D01*
X162579386Y-125137153D01*
X162746053Y-125137153D01*
X162812720Y-125170486D01*
X162846053Y-125203820D01*
X162879386Y-125270486D01*
X162879386Y-125437153D01*
X162846053Y-125503820D01*
X162812720Y-125537153D01*
X112053333Y-99052380D02*
X111720000Y-98576190D01*
X111481904Y-99052380D02*
X111481904Y-98052380D01*
X111862857Y-98052380D01*
X111958095Y-98100000D01*
X112005714Y-98147619D01*
X112053333Y-98242857D01*
X112053333Y-98385714D01*
X112005714Y-98480952D01*
X111958095Y-98528571D01*
X111862857Y-98576190D01*
X111481904Y-98576190D01*
X112529523Y-99052380D02*
X112720000Y-99052380D01*
X112815238Y-99004761D01*
X112862857Y-98957142D01*
X112958095Y-98814285D01*
X113005714Y-98623809D01*
X113005714Y-98242857D01*
X112958095Y-98147619D01*
X112910476Y-98100000D01*
X112815238Y-98052380D01*
X112624761Y-98052380D01*
X112529523Y-98100000D01*
X112481904Y-98147619D01*
X112434285Y-98242857D01*
X112434285Y-98480952D01*
X112481904Y-98576190D01*
X112529523Y-98623809D01*
X112624761Y-98671428D01*
X112815238Y-98671428D01*
X112910476Y-98623809D01*
X112958095Y-98576190D01*
X113005714Y-98480952D01*
X117934285Y-98052380D02*
X118553333Y-98052380D01*
X118220000Y-98433333D01*
X118362857Y-98433333D01*
X118458095Y-98480952D01*
X118505714Y-98528571D01*
X118553333Y-98623809D01*
X118553333Y-98861904D01*
X118505714Y-98957142D01*
X118458095Y-99004761D01*
X118362857Y-99052380D01*
X118077142Y-99052380D01*
X117981904Y-99004761D01*
X117934285Y-98957142D01*
X118886666Y-98052380D02*
X119505714Y-98052380D01*
X119172380Y-98433333D01*
X119315238Y-98433333D01*
X119410476Y-98480952D01*
X119458095Y-98528571D01*
X119505714Y-98623809D01*
X119505714Y-98861904D01*
X119458095Y-98957142D01*
X119410476Y-99004761D01*
X119315238Y-99052380D01*
X119029523Y-99052380D01*
X118934285Y-99004761D01*
X118886666Y-98957142D01*
X120124761Y-98052380D02*
X120220000Y-98052380D01*
X120315238Y-98100000D01*
X120362857Y-98147619D01*
X120410476Y-98242857D01*
X120458095Y-98433333D01*
X120458095Y-98671428D01*
X120410476Y-98861904D01*
X120362857Y-98957142D01*
X120315238Y-99004761D01*
X120220000Y-99052380D01*
X120124761Y-99052380D01*
X120029523Y-99004761D01*
X119981904Y-98957142D01*
X119934285Y-98861904D01*
X119886666Y-98671428D01*
X119886666Y-98433333D01*
X119934285Y-98242857D01*
X119981904Y-98147619D01*
X120029523Y-98100000D01*
X120124761Y-98052380D01*
X112053333Y-91572380D02*
X111720000Y-91096190D01*
X111481904Y-91572380D02*
X111481904Y-90572380D01*
X111862857Y-90572380D01*
X111958095Y-90620000D01*
X112005714Y-90667619D01*
X112053333Y-90762857D01*
X112053333Y-90905714D01*
X112005714Y-91000952D01*
X111958095Y-91048571D01*
X111862857Y-91096190D01*
X111481904Y-91096190D01*
X112624761Y-91000952D02*
X112529523Y-90953333D01*
X112481904Y-90905714D01*
X112434285Y-90810476D01*
X112434285Y-90762857D01*
X112481904Y-90667619D01*
X112529523Y-90620000D01*
X112624761Y-90572380D01*
X112815238Y-90572380D01*
X112910476Y-90620000D01*
X112958095Y-90667619D01*
X113005714Y-90762857D01*
X113005714Y-90810476D01*
X112958095Y-90905714D01*
X112910476Y-90953333D01*
X112815238Y-91000952D01*
X112624761Y-91000952D01*
X112529523Y-91048571D01*
X112481904Y-91096190D01*
X112434285Y-91191428D01*
X112434285Y-91381904D01*
X112481904Y-91477142D01*
X112529523Y-91524761D01*
X112624761Y-91572380D01*
X112815238Y-91572380D01*
X112910476Y-91524761D01*
X112958095Y-91477142D01*
X113005714Y-91381904D01*
X113005714Y-91191428D01*
X112958095Y-91096190D01*
X112910476Y-91048571D01*
X112815238Y-91000952D01*
X117934285Y-90432380D02*
X118553333Y-90432380D01*
X118220000Y-90813333D01*
X118362857Y-90813333D01*
X118458095Y-90860952D01*
X118505714Y-90908571D01*
X118553333Y-91003809D01*
X118553333Y-91241904D01*
X118505714Y-91337142D01*
X118458095Y-91384761D01*
X118362857Y-91432380D01*
X118077142Y-91432380D01*
X117981904Y-91384761D01*
X117934285Y-91337142D01*
X118886666Y-90432380D02*
X119505714Y-90432380D01*
X119172380Y-90813333D01*
X119315238Y-90813333D01*
X119410476Y-90860952D01*
X119458095Y-90908571D01*
X119505714Y-91003809D01*
X119505714Y-91241904D01*
X119458095Y-91337142D01*
X119410476Y-91384761D01*
X119315238Y-91432380D01*
X119029523Y-91432380D01*
X118934285Y-91384761D01*
X118886666Y-91337142D01*
X120124761Y-90432380D02*
X120220000Y-90432380D01*
X120315238Y-90480000D01*
X120362857Y-90527619D01*
X120410476Y-90622857D01*
X120458095Y-90813333D01*
X120458095Y-91051428D01*
X120410476Y-91241904D01*
X120362857Y-91337142D01*
X120315238Y-91384761D01*
X120220000Y-91432380D01*
X120124761Y-91432380D01*
X120029523Y-91384761D01*
X119981904Y-91337142D01*
X119934285Y-91241904D01*
X119886666Y-91051428D01*
X119886666Y-90813333D01*
X119934285Y-90622857D01*
X119981904Y-90527619D01*
X120029523Y-90480000D01*
X120124761Y-90432380D01*
X139993333Y-91432380D02*
X139660000Y-90956190D01*
X139421904Y-91432380D02*
X139421904Y-90432380D01*
X139802857Y-90432380D01*
X139898095Y-90480000D01*
X139945714Y-90527619D01*
X139993333Y-90622857D01*
X139993333Y-90765714D01*
X139945714Y-90860952D01*
X139898095Y-90908571D01*
X139802857Y-90956190D01*
X139421904Y-90956190D01*
X140326666Y-90432380D02*
X140993333Y-90432380D01*
X140564761Y-91432380D01*
X146493333Y-91572380D02*
X145921904Y-91572380D01*
X146207619Y-91572380D02*
X146207619Y-90572380D01*
X146112380Y-90715238D01*
X146017142Y-90810476D01*
X145921904Y-90858095D01*
X147398095Y-90572380D02*
X146921904Y-90572380D01*
X146874285Y-91048571D01*
X146921904Y-91000952D01*
X147017142Y-90953333D01*
X147255238Y-90953333D01*
X147350476Y-91000952D01*
X147398095Y-91048571D01*
X147445714Y-91143809D01*
X147445714Y-91381904D01*
X147398095Y-91477142D01*
X147350476Y-91524761D01*
X147255238Y-91572380D01*
X147017142Y-91572380D01*
X146921904Y-91524761D01*
X146874285Y-91477142D01*
X148064761Y-90572380D02*
X148160000Y-90572380D01*
X148255238Y-90620000D01*
X148302857Y-90667619D01*
X148350476Y-90762857D01*
X148398095Y-90953333D01*
X148398095Y-91191428D01*
X148350476Y-91381904D01*
X148302857Y-91477142D01*
X148255238Y-91524761D01*
X148160000Y-91572380D01*
X148064761Y-91572380D01*
X147969523Y-91524761D01*
X147921904Y-91477142D01*
X147874285Y-91381904D01*
X147826666Y-91191428D01*
X147826666Y-90953333D01*
X147874285Y-90762857D01*
X147921904Y-90667619D01*
X147969523Y-90620000D01*
X148064761Y-90572380D01*
X132492380Y-116021666D02*
X132016190Y-116355000D01*
X132492380Y-116593095D02*
X131492380Y-116593095D01*
X131492380Y-116212142D01*
X131540000Y-116116904D01*
X131587619Y-116069285D01*
X131682857Y-116021666D01*
X131825714Y-116021666D01*
X131920952Y-116069285D01*
X131968571Y-116116904D01*
X132016190Y-116212142D01*
X132016190Y-116593095D01*
X131492380Y-115164523D02*
X131492380Y-115355000D01*
X131540000Y-115450238D01*
X131587619Y-115497857D01*
X131730476Y-115593095D01*
X131920952Y-115640714D01*
X132301904Y-115640714D01*
X132397142Y-115593095D01*
X132444761Y-115545476D01*
X132492380Y-115450238D01*
X132492380Y-115259761D01*
X132444761Y-115164523D01*
X132397142Y-115116904D01*
X132301904Y-115069285D01*
X132063809Y-115069285D01*
X131968571Y-115116904D01*
X131920952Y-115164523D01*
X131873333Y-115259761D01*
X131873333Y-115450238D01*
X131920952Y-115545476D01*
X131968571Y-115593095D01*
X132063809Y-115640714D01*
X132492380Y-110545476D02*
X132492380Y-111116904D01*
X132492380Y-110831190D02*
X131492380Y-110831190D01*
X131635238Y-110926428D01*
X131730476Y-111021666D01*
X131778095Y-111116904D01*
X131492380Y-109926428D02*
X131492380Y-109831190D01*
X131540000Y-109735952D01*
X131587619Y-109688333D01*
X131682857Y-109640714D01*
X131873333Y-109593095D01*
X132111428Y-109593095D01*
X132301904Y-109640714D01*
X132397142Y-109688333D01*
X132444761Y-109735952D01*
X132492380Y-109831190D01*
X132492380Y-109926428D01*
X132444761Y-110021666D01*
X132397142Y-110069285D01*
X132301904Y-110116904D01*
X132111428Y-110164523D01*
X131873333Y-110164523D01*
X131682857Y-110116904D01*
X131587619Y-110069285D01*
X131540000Y-110021666D01*
X131492380Y-109926428D01*
X132492380Y-109164523D02*
X131492380Y-109164523D01*
X132492380Y-108593095D02*
X131920952Y-109021666D01*
X131492380Y-108593095D02*
X132063809Y-109164523D01*
X113482380Y-114905357D02*
X113006190Y-115238690D01*
X113482380Y-115476785D02*
X112482380Y-115476785D01*
X112482380Y-115095833D01*
X112530000Y-115000595D01*
X112577619Y-114952976D01*
X112672857Y-114905357D01*
X112815714Y-114905357D01*
X112910952Y-114952976D01*
X112958571Y-115000595D01*
X113006190Y-115095833D01*
X113006190Y-115476785D01*
X112482380Y-114000595D02*
X112482380Y-114476785D01*
X112958571Y-114524404D01*
X112910952Y-114476785D01*
X112863333Y-114381547D01*
X112863333Y-114143452D01*
X112910952Y-114048214D01*
X112958571Y-114000595D01*
X113053809Y-113952976D01*
X113291904Y-113952976D01*
X113387142Y-114000595D01*
X113434761Y-114048214D01*
X113482380Y-114143452D01*
X113482380Y-114381547D01*
X113434761Y-114476785D01*
X113387142Y-114524404D01*
X112482380Y-112079404D02*
X112482380Y-111460357D01*
X112863333Y-111793690D01*
X112863333Y-111650833D01*
X112910952Y-111555595D01*
X112958571Y-111507976D01*
X113053809Y-111460357D01*
X113291904Y-111460357D01*
X113387142Y-111507976D01*
X113434761Y-111555595D01*
X113482380Y-111650833D01*
X113482380Y-111936547D01*
X113434761Y-112031785D01*
X113387142Y-112079404D01*
X112482380Y-111127023D02*
X112482380Y-110507976D01*
X112863333Y-110841309D01*
X112863333Y-110698452D01*
X112910952Y-110603214D01*
X112958571Y-110555595D01*
X113053809Y-110507976D01*
X113291904Y-110507976D01*
X113387142Y-110555595D01*
X113434761Y-110603214D01*
X113482380Y-110698452D01*
X113482380Y-110984166D01*
X113434761Y-111079404D01*
X113387142Y-111127023D01*
X113482380Y-110079404D02*
X112482380Y-110079404D01*
X113482380Y-109507976D02*
X112910952Y-109936547D01*
X112482380Y-109507976D02*
X113053809Y-110079404D01*
X132492380Y-128086666D02*
X132016190Y-128420000D01*
X132492380Y-128658095D02*
X131492380Y-128658095D01*
X131492380Y-128277142D01*
X131540000Y-128181904D01*
X131587619Y-128134285D01*
X131682857Y-128086666D01*
X131825714Y-128086666D01*
X131920952Y-128134285D01*
X131968571Y-128181904D01*
X132016190Y-128277142D01*
X132016190Y-128658095D01*
X131825714Y-127229523D02*
X132492380Y-127229523D01*
X131444761Y-127467619D02*
X132159047Y-127705714D01*
X132159047Y-127086666D01*
X132492380Y-122610476D02*
X132492380Y-123181904D01*
X132492380Y-122896190D02*
X131492380Y-122896190D01*
X131635238Y-122991428D01*
X131730476Y-123086666D01*
X131778095Y-123181904D01*
X131492380Y-121991428D02*
X131492380Y-121896190D01*
X131540000Y-121800952D01*
X131587619Y-121753333D01*
X131682857Y-121705714D01*
X131873333Y-121658095D01*
X132111428Y-121658095D01*
X132301904Y-121705714D01*
X132397142Y-121753333D01*
X132444761Y-121800952D01*
X132492380Y-121896190D01*
X132492380Y-121991428D01*
X132444761Y-122086666D01*
X132397142Y-122134285D01*
X132301904Y-122181904D01*
X132111428Y-122229523D01*
X131873333Y-122229523D01*
X131682857Y-122181904D01*
X131587619Y-122134285D01*
X131540000Y-122086666D01*
X131492380Y-121991428D01*
X132492380Y-121229523D02*
X131492380Y-121229523D01*
X132492380Y-120658095D02*
X131920952Y-121086666D01*
X131492380Y-120658095D02*
X132063809Y-121229523D01*
X109037380Y-128632976D02*
X108561190Y-128966309D01*
X109037380Y-129204404D02*
X108037380Y-129204404D01*
X108037380Y-128823452D01*
X108085000Y-128728214D01*
X108132619Y-128680595D01*
X108227857Y-128632976D01*
X108370714Y-128632976D01*
X108465952Y-128680595D01*
X108513571Y-128728214D01*
X108561190Y-128823452D01*
X108561190Y-129204404D01*
X108037380Y-128299642D02*
X108037380Y-127680595D01*
X108418333Y-128013928D01*
X108418333Y-127871071D01*
X108465952Y-127775833D01*
X108513571Y-127728214D01*
X108608809Y-127680595D01*
X108846904Y-127680595D01*
X108942142Y-127728214D01*
X108989761Y-127775833D01*
X109037380Y-127871071D01*
X109037380Y-128156785D01*
X108989761Y-128252023D01*
X108942142Y-128299642D01*
X108037380Y-126124642D02*
X108037380Y-125505595D01*
X108418333Y-125838928D01*
X108418333Y-125696071D01*
X108465952Y-125600833D01*
X108513571Y-125553214D01*
X108608809Y-125505595D01*
X108846904Y-125505595D01*
X108942142Y-125553214D01*
X108989761Y-125600833D01*
X109037380Y-125696071D01*
X109037380Y-125981785D01*
X108989761Y-126077023D01*
X108942142Y-126124642D01*
X108037380Y-125172261D02*
X108037380Y-124553214D01*
X108418333Y-124886547D01*
X108418333Y-124743690D01*
X108465952Y-124648452D01*
X108513571Y-124600833D01*
X108608809Y-124553214D01*
X108846904Y-124553214D01*
X108942142Y-124600833D01*
X108989761Y-124648452D01*
X109037380Y-124743690D01*
X109037380Y-125029404D01*
X108989761Y-125124642D01*
X108942142Y-125172261D01*
X109037380Y-124124642D02*
X108037380Y-124124642D01*
X109037380Y-123553214D02*
X108465952Y-123981785D01*
X108037380Y-123553214D02*
X108608809Y-124124642D01*
X132492380Y-140151666D02*
X132016190Y-140485000D01*
X132492380Y-140723095D02*
X131492380Y-140723095D01*
X131492380Y-140342142D01*
X131540000Y-140246904D01*
X131587619Y-140199285D01*
X131682857Y-140151666D01*
X131825714Y-140151666D01*
X131920952Y-140199285D01*
X131968571Y-140246904D01*
X132016190Y-140342142D01*
X132016190Y-140723095D01*
X131587619Y-139770714D02*
X131540000Y-139723095D01*
X131492380Y-139627857D01*
X131492380Y-139389761D01*
X131540000Y-139294523D01*
X131587619Y-139246904D01*
X131682857Y-139199285D01*
X131778095Y-139199285D01*
X131920952Y-139246904D01*
X132492380Y-139818333D01*
X132492380Y-139199285D01*
X132492380Y-134675476D02*
X132492380Y-135246904D01*
X132492380Y-134961190D02*
X131492380Y-134961190D01*
X131635238Y-135056428D01*
X131730476Y-135151666D01*
X131778095Y-135246904D01*
X131492380Y-134056428D02*
X131492380Y-133961190D01*
X131540000Y-133865952D01*
X131587619Y-133818333D01*
X131682857Y-133770714D01*
X131873333Y-133723095D01*
X132111428Y-133723095D01*
X132301904Y-133770714D01*
X132397142Y-133818333D01*
X132444761Y-133865952D01*
X132492380Y-133961190D01*
X132492380Y-134056428D01*
X132444761Y-134151666D01*
X132397142Y-134199285D01*
X132301904Y-134246904D01*
X132111428Y-134294523D01*
X131873333Y-134294523D01*
X131682857Y-134246904D01*
X131587619Y-134199285D01*
X131540000Y-134151666D01*
X131492380Y-134056428D01*
X132492380Y-133294523D02*
X131492380Y-133294523D01*
X132492380Y-132723095D02*
X131920952Y-133151666D01*
X131492380Y-132723095D02*
X132063809Y-133294523D01*
X113482380Y-138792976D02*
X113006190Y-139126309D01*
X113482380Y-139364404D02*
X112482380Y-139364404D01*
X112482380Y-138983452D01*
X112530000Y-138888214D01*
X112577619Y-138840595D01*
X112672857Y-138792976D01*
X112815714Y-138792976D01*
X112910952Y-138840595D01*
X112958571Y-138888214D01*
X113006190Y-138983452D01*
X113006190Y-139364404D01*
X113482380Y-137840595D02*
X113482380Y-138412023D01*
X113482380Y-138126309D02*
X112482380Y-138126309D01*
X112625238Y-138221547D01*
X112720476Y-138316785D01*
X112768095Y-138412023D01*
X112482380Y-136284642D02*
X112482380Y-135665595D01*
X112863333Y-135998928D01*
X112863333Y-135856071D01*
X112910952Y-135760833D01*
X112958571Y-135713214D01*
X113053809Y-135665595D01*
X113291904Y-135665595D01*
X113387142Y-135713214D01*
X113434761Y-135760833D01*
X113482380Y-135856071D01*
X113482380Y-136141785D01*
X113434761Y-136237023D01*
X113387142Y-136284642D01*
X112482380Y-135332261D02*
X112482380Y-134713214D01*
X112863333Y-135046547D01*
X112863333Y-134903690D01*
X112910952Y-134808452D01*
X112958571Y-134760833D01*
X113053809Y-134713214D01*
X113291904Y-134713214D01*
X113387142Y-134760833D01*
X113434761Y-134808452D01*
X113482380Y-134903690D01*
X113482380Y-135189404D01*
X113434761Y-135284642D01*
X113387142Y-135332261D01*
X113482380Y-134284642D02*
X112482380Y-134284642D01*
X113482380Y-133713214D02*
X112910952Y-134141785D01*
X112482380Y-133713214D02*
X113053809Y-134284642D01*
X133254761Y-91027619D02*
X133159523Y-90980000D01*
X133064285Y-90884761D01*
X132921428Y-90741904D01*
X132826190Y-90694285D01*
X132730952Y-90694285D01*
X132778571Y-90932380D02*
X132683333Y-90884761D01*
X132588095Y-90789523D01*
X132540476Y-90599047D01*
X132540476Y-90265714D01*
X132588095Y-90075238D01*
X132683333Y-89980000D01*
X132778571Y-89932380D01*
X132969047Y-89932380D01*
X133064285Y-89980000D01*
X133159523Y-90075238D01*
X133207142Y-90265714D01*
X133207142Y-90599047D01*
X133159523Y-90789523D01*
X133064285Y-90884761D01*
X132969047Y-90932380D01*
X132778571Y-90932380D01*
X134159523Y-90932380D02*
X133588095Y-90932380D01*
X133873809Y-90932380D02*
X133873809Y-89932380D01*
X133778571Y-90075238D01*
X133683333Y-90170476D01*
X133588095Y-90218095D01*
X123721904Y-98877380D02*
X123721904Y-97877380D01*
X123960000Y-97877380D01*
X124102857Y-97925000D01*
X124198095Y-98020238D01*
X124245714Y-98115476D01*
X124293333Y-98305952D01*
X124293333Y-98448809D01*
X124245714Y-98639285D01*
X124198095Y-98734523D01*
X124102857Y-98829761D01*
X123960000Y-98877380D01*
X123721904Y-98877380D01*
X124674285Y-97972619D02*
X124721904Y-97925000D01*
X124817142Y-97877380D01*
X125055238Y-97877380D01*
X125150476Y-97925000D01*
X125198095Y-97972619D01*
X125245714Y-98067857D01*
X125245714Y-98163095D01*
X125198095Y-98305952D01*
X124626666Y-98877380D01*
X125245714Y-98877380D01*
X123721904Y-91257380D02*
X123721904Y-90257380D01*
X123960000Y-90257380D01*
X124102857Y-90305000D01*
X124198095Y-90400238D01*
X124245714Y-90495476D01*
X124293333Y-90685952D01*
X124293333Y-90828809D01*
X124245714Y-91019285D01*
X124198095Y-91114523D01*
X124102857Y-91209761D01*
X123960000Y-91257380D01*
X123721904Y-91257380D01*
X125245714Y-91257380D02*
X124674285Y-91257380D01*
X124960000Y-91257380D02*
X124960000Y-90257380D01*
X124864761Y-90400238D01*
X124769523Y-90495476D01*
X124674285Y-90543095D01*
M02*
