M48
; DRILL file {KiCad 5.1.5+dfsg1-2build2} date Tue 25 Jan 2022 11:11:33 PM MST
; FORMAT={3:3/ absolute / metric / suppress leading zeros}
; #@! TF.CreationDate,2022-01-25T23:11:33-07:00
; #@! TF.GenerationSoftware,Kicad,Pcbnew,5.1.5+dfsg1-2build2
FMAT,2
METRIC,TZ
T1C0.400
T2C0.600
T3C0.800
T4C0.900
T5C1.000
T6C1.200
T7C1.300
T8C3.200
%
G90
G05
T1
X139065Y-119380
X143510Y-117475
T2
X133350Y-92710
X133350Y-93980
X133350Y-95250
T3
X142243Y-104771
X142243Y-130171
X144783Y-104771
X144783Y-130171
X147323Y-104771
X147323Y-130171
X149863Y-104771
X149863Y-130171
X152403Y-104771
X152403Y-130171
X154943Y-104771
X154943Y-130171
X157483Y-104771
X157483Y-130171
X160023Y-104771
X160023Y-130171
X162563Y-104771
X162563Y-130171
X165103Y-104771
X165103Y-130171
X167643Y-104771
X167643Y-130171
X170183Y-104771
X170183Y-130171
X172723Y-104771
X172723Y-130171
X175263Y-104771
X175263Y-130171
X177803Y-104771
X177803Y-130171
X180343Y-104771
X180343Y-130171
X182883Y-104771
X182883Y-130171
X185420Y-104775
X185423Y-130171
X187960Y-104775
X187963Y-130171
T4
X125730Y-101600
X128270Y-101600
X125730Y-93980
X128270Y-93980
T5
X105410Y-111760
X105410Y-114300
X105410Y-116840
X156210Y-140970
X156210Y-143510
X158750Y-140970
X158750Y-143510
X161290Y-140970
X161290Y-143510
X142240Y-100330
X144780Y-100330
X147320Y-100330
X149860Y-100330
X152400Y-100330
X154940Y-100330
X157480Y-100330
X160020Y-100330
X162560Y-100330
X165100Y-100330
X167640Y-100330
X170180Y-100330
X172720Y-100330
X175260Y-100330
X177800Y-100330
X180340Y-100330
X182880Y-100330
X185420Y-100330
X187960Y-100330
X105410Y-99060
X105410Y-101600
X105410Y-104140
X105410Y-106680
X142240Y-134620
X144780Y-134620
X147320Y-134620
X149860Y-134620
X152400Y-134620
X154940Y-134620
X157480Y-134620
X160020Y-134620
X162560Y-134620
X165100Y-134620
X167640Y-134620
X170180Y-134620
X172720Y-134620
X175260Y-134620
X177800Y-134620
X180340Y-134620
X182880Y-134620
X185420Y-134620
X187960Y-134620
X105410Y-121920
X105410Y-124460
X105410Y-127000
X142240Y-140970
X142240Y-143510
X144780Y-140970
X144780Y-143510
X147320Y-140970
X147320Y-143510
X105410Y-132080
X105410Y-134620
X105410Y-137160
X105410Y-91440
X105410Y-93980
X170180Y-140970
X170180Y-143510
X172720Y-140970
X172720Y-143510
X175260Y-140970
X175260Y-143510
T6
X115570Y-128270
X115570Y-140970
X137160Y-93980
X149860Y-93980
X111125Y-118300
X111125Y-131000
X109220Y-93980
X121920Y-93980
X115570Y-107950
X115570Y-120650
X109220Y-101600
X121920Y-101600
T7
X119540Y-124420
X129540Y-121920
X129540Y-126920
X119540Y-136485
X129540Y-133985
X129540Y-138985
X119540Y-112355
X129540Y-109855
X129540Y-114855
T8
X105000Y-145000
X185000Y-75000
X105000Y-75000
X185000Y-145000
T5
G00X150300Y-79700
M15
G01X150300Y-81700
M16
G05
G00X156000Y-77700
M15
G01X154000Y-77700
M16
G05
G00X156000Y-83700
M15
G01X154000Y-83700
M16
G05
G00X130300Y-79700
M15
G01X130300Y-81700
M16
G05
G00X136000Y-77700
M15
G01X134000Y-77700
M16
G05
G00X136000Y-83700
M15
G01X134000Y-83700
M16
G05
G00X170300Y-79700
M15
G01X170300Y-81700
M16
G05
G00X176000Y-77700
M15
G01X174000Y-77700
M16
G05
G00X176000Y-83700
M15
G01X174000Y-83700
M16
G05
G00X110300Y-79700
M15
G01X110300Y-81700
M16
G05
G00X116000Y-77700
M15
G01X114000Y-77700
M16
G05
G00X116000Y-83700
M15
G01X114000Y-83700
M16
G05
T0
M30
