G04 #@! TF.GenerationSoftware,KiCad,Pcbnew,5.1.5+dfsg1-2build2*
G04 #@! TF.CreationDate,2022-01-25T23:10:58-07:00*
G04 #@! TF.ProjectId,fcch-laser-controller,66636368-2d6c-4617-9365-722d636f6e74,rev?*
G04 #@! TF.SameCoordinates,Original*
G04 #@! TF.FileFunction,Copper,L1,Top*
G04 #@! TF.FilePolarity,Positive*
%FSLAX46Y46*%
G04 Gerber Fmt 4.6, Leading zero omitted, Abs format (unit mm)*
G04 Created by KiCad (PCBNEW 5.1.5+dfsg1-2build2) date 2022-01-25 23:10:58*
%MOMM*%
%LPD*%
G04 APERTURE LIST*
%ADD10R,1.700000X1.700000*%
%ADD11O,1.700000X1.700000*%
%ADD12R,3.500000X3.500000*%
%ADD13C,0.100000*%
%ADD14O,1.200000X2.000000*%
%ADD15C,2.400000*%
%ADD16O,2.400000X2.400000*%
%ADD17C,2.340000*%
%ADD18O,1.500000X0.900000*%
%ADD19R,1.500000X0.900000*%
%ADD20R,1.800000X1.800000*%
%ADD21C,1.800000*%
%ADD22C,0.800000*%
%ADD23C,0.250000*%
%ADD24C,0.500000*%
%ADD25C,0.254000*%
G04 APERTURE END LIST*
D10*
X142240000Y-143510000D03*
D11*
X142240000Y-140970000D03*
X144780000Y-143510000D03*
X144780000Y-140970000D03*
X147320000Y-143510000D03*
X147320000Y-140970000D03*
D10*
X156210000Y-143510000D03*
D11*
X156210000Y-140970000D03*
X158750000Y-143510000D03*
X158750000Y-140970000D03*
X161290000Y-143510000D03*
X161290000Y-140970000D03*
D10*
X170180000Y-143510000D03*
D11*
X170180000Y-140970000D03*
X172720000Y-143510000D03*
X172720000Y-140970000D03*
X175260000Y-143510000D03*
X175260000Y-140970000D03*
D10*
X105410000Y-93980000D03*
D11*
X105410000Y-91440000D03*
D10*
X105410000Y-116840000D03*
D11*
X105410000Y-114300000D03*
X105410000Y-111760000D03*
D10*
X105410000Y-127000000D03*
D11*
X105410000Y-124460000D03*
X105410000Y-121920000D03*
D10*
X105410000Y-137160000D03*
D11*
X105410000Y-134620000D03*
X105410000Y-132080000D03*
D10*
X105410000Y-106680000D03*
D11*
X105410000Y-104140000D03*
X105410000Y-101600000D03*
X105410000Y-99060000D03*
D10*
X142240000Y-100330000D03*
D11*
X144780000Y-100330000D03*
X147320000Y-100330000D03*
X149860000Y-100330000D03*
X152400000Y-100330000D03*
X154940000Y-100330000D03*
X157480000Y-100330000D03*
X160020000Y-100330000D03*
X162560000Y-100330000D03*
X165100000Y-100330000D03*
X167640000Y-100330000D03*
X170180000Y-100330000D03*
X172720000Y-100330000D03*
X175260000Y-100330000D03*
X177800000Y-100330000D03*
X180340000Y-100330000D03*
X182880000Y-100330000D03*
X185420000Y-100330000D03*
X187960000Y-100330000D03*
D10*
X142240000Y-134620000D03*
D11*
X144780000Y-134620000D03*
X147320000Y-134620000D03*
X149860000Y-134620000D03*
X152400000Y-134620000D03*
X154940000Y-134620000D03*
X157480000Y-134620000D03*
X160020000Y-134620000D03*
X162560000Y-134620000D03*
X165100000Y-134620000D03*
X167640000Y-134620000D03*
X170180000Y-134620000D03*
X172720000Y-134620000D03*
X175260000Y-134620000D03*
X177800000Y-134620000D03*
X180340000Y-134620000D03*
X182880000Y-134620000D03*
X185420000Y-134620000D03*
X187960000Y-134620000D03*
D12*
X115000000Y-83700000D03*
X115000000Y-77700000D03*
X110300000Y-80700000D03*
X135000000Y-83700000D03*
X135000000Y-77700000D03*
X130300000Y-80700000D03*
X155000000Y-83700000D03*
X155000000Y-77700000D03*
X150300000Y-80700000D03*
X175000000Y-83700000D03*
X175000000Y-77700000D03*
X170300000Y-80700000D03*
G04 #@! TA.AperFunction,ComponentPad*
D13*
G36*
X142572125Y-103772765D02*
G01*
X142601247Y-103777084D01*
X142629805Y-103784238D01*
X142657525Y-103794156D01*
X142684139Y-103806744D01*
X142709391Y-103821879D01*
X142733038Y-103839417D01*
X142754852Y-103859188D01*
X142774623Y-103881002D01*
X142792161Y-103904649D01*
X142807296Y-103929901D01*
X142819884Y-103956515D01*
X142829802Y-103984235D01*
X142836956Y-104012793D01*
X142841275Y-104041915D01*
X142842720Y-104071320D01*
X142842720Y-105471320D01*
X142841275Y-105500725D01*
X142836956Y-105529847D01*
X142829802Y-105558405D01*
X142819884Y-105586125D01*
X142807296Y-105612739D01*
X142792161Y-105637991D01*
X142774623Y-105661638D01*
X142754852Y-105683452D01*
X142733038Y-105703223D01*
X142709391Y-105720761D01*
X142684139Y-105735896D01*
X142657525Y-105748484D01*
X142629805Y-105758402D01*
X142601247Y-105765556D01*
X142572125Y-105769875D01*
X142542720Y-105771320D01*
X141942720Y-105771320D01*
X141913315Y-105769875D01*
X141884193Y-105765556D01*
X141855635Y-105758402D01*
X141827915Y-105748484D01*
X141801301Y-105735896D01*
X141776049Y-105720761D01*
X141752402Y-105703223D01*
X141730588Y-105683452D01*
X141710817Y-105661638D01*
X141693279Y-105637991D01*
X141678144Y-105612739D01*
X141665556Y-105586125D01*
X141655638Y-105558405D01*
X141648484Y-105529847D01*
X141644165Y-105500725D01*
X141642720Y-105471320D01*
X141642720Y-104071320D01*
X141644165Y-104041915D01*
X141648484Y-104012793D01*
X141655638Y-103984235D01*
X141665556Y-103956515D01*
X141678144Y-103929901D01*
X141693279Y-103904649D01*
X141710817Y-103881002D01*
X141730588Y-103859188D01*
X141752402Y-103839417D01*
X141776049Y-103821879D01*
X141801301Y-103806744D01*
X141827915Y-103794156D01*
X141855635Y-103784238D01*
X141884193Y-103777084D01*
X141913315Y-103772765D01*
X141942720Y-103771320D01*
X142542720Y-103771320D01*
X142572125Y-103772765D01*
G37*
G04 #@! TD.AperFunction*
D14*
X144782720Y-104771320D03*
X147322720Y-104771320D03*
X149862720Y-104771320D03*
X152402720Y-104771320D03*
X154942720Y-104771320D03*
X157482720Y-104771320D03*
X160022720Y-104771320D03*
X162562720Y-104771320D03*
X165102720Y-104771320D03*
X167642720Y-104771320D03*
X170182720Y-104771320D03*
X172722720Y-104771320D03*
X175262720Y-104771320D03*
X177802720Y-104771320D03*
X180342720Y-104771320D03*
X182882720Y-104771320D03*
X185420000Y-104775000D03*
X187960000Y-104775000D03*
X187962720Y-130171320D03*
X185422720Y-130171320D03*
X182882720Y-130171320D03*
X180342720Y-130171320D03*
X177802720Y-130171320D03*
G04 #@! TA.AperFunction,ComponentPad*
D13*
G36*
X175592125Y-129172765D02*
G01*
X175621247Y-129177084D01*
X175649805Y-129184238D01*
X175677525Y-129194156D01*
X175704139Y-129206744D01*
X175729391Y-129221879D01*
X175753038Y-129239417D01*
X175774852Y-129259188D01*
X175794623Y-129281002D01*
X175812161Y-129304649D01*
X175827296Y-129329901D01*
X175839884Y-129356515D01*
X175849802Y-129384235D01*
X175856956Y-129412793D01*
X175861275Y-129441915D01*
X175862720Y-129471320D01*
X175862720Y-130871320D01*
X175861275Y-130900725D01*
X175856956Y-130929847D01*
X175849802Y-130958405D01*
X175839884Y-130986125D01*
X175827296Y-131012739D01*
X175812161Y-131037991D01*
X175794623Y-131061638D01*
X175774852Y-131083452D01*
X175753038Y-131103223D01*
X175729391Y-131120761D01*
X175704139Y-131135896D01*
X175677525Y-131148484D01*
X175649805Y-131158402D01*
X175621247Y-131165556D01*
X175592125Y-131169875D01*
X175562720Y-131171320D01*
X174962720Y-131171320D01*
X174933315Y-131169875D01*
X174904193Y-131165556D01*
X174875635Y-131158402D01*
X174847915Y-131148484D01*
X174821301Y-131135896D01*
X174796049Y-131120761D01*
X174772402Y-131103223D01*
X174750588Y-131083452D01*
X174730817Y-131061638D01*
X174713279Y-131037991D01*
X174698144Y-131012739D01*
X174685556Y-130986125D01*
X174675638Y-130958405D01*
X174668484Y-130929847D01*
X174664165Y-130900725D01*
X174662720Y-130871320D01*
X174662720Y-129471320D01*
X174664165Y-129441915D01*
X174668484Y-129412793D01*
X174675638Y-129384235D01*
X174685556Y-129356515D01*
X174698144Y-129329901D01*
X174713279Y-129304649D01*
X174730817Y-129281002D01*
X174750588Y-129259188D01*
X174772402Y-129239417D01*
X174796049Y-129221879D01*
X174821301Y-129206744D01*
X174847915Y-129194156D01*
X174875635Y-129184238D01*
X174904193Y-129177084D01*
X174933315Y-129172765D01*
X174962720Y-129171320D01*
X175562720Y-129171320D01*
X175592125Y-129172765D01*
G37*
G04 #@! TD.AperFunction*
D14*
X172722720Y-130171320D03*
X170182720Y-130171320D03*
X167642720Y-130171320D03*
X165102720Y-130171320D03*
X162562720Y-130171320D03*
X160022720Y-130171320D03*
X157482720Y-130171320D03*
X154942720Y-130171320D03*
X152402720Y-130171320D03*
X149862720Y-130171320D03*
X147322720Y-130171320D03*
X144782720Y-130171320D03*
X142242720Y-130171320D03*
D15*
X109220000Y-101600000D03*
D16*
X121920000Y-101600000D03*
D15*
X109220000Y-93980000D03*
D16*
X121920000Y-93980000D03*
D15*
X149860000Y-93980000D03*
D16*
X137160000Y-93980000D03*
D17*
X129540000Y-114855000D03*
X119540000Y-112355000D03*
X129540000Y-109855000D03*
D15*
X115570000Y-120650000D03*
D16*
X115570000Y-107950000D03*
D17*
X129540000Y-126920000D03*
X119540000Y-124420000D03*
X129540000Y-121920000D03*
D15*
X111125000Y-131000000D03*
D16*
X111125000Y-118300000D03*
D17*
X129540000Y-138985000D03*
X119540000Y-136485000D03*
X129540000Y-133985000D03*
D15*
X115570000Y-140970000D03*
D16*
X115570000Y-128270000D03*
D18*
X133350000Y-93980000D03*
X133350000Y-92710000D03*
D19*
X133350000Y-95250000D03*
D20*
X128270000Y-101600000D03*
D21*
X125730000Y-101600000D03*
D20*
X128270000Y-93980000D03*
D21*
X125730000Y-93980000D03*
D22*
X143510000Y-117475000D03*
X139065000Y-119380000D03*
D23*
X121920000Y-93980000D02*
X125730000Y-93980000D01*
X121920000Y-101600000D02*
X125730000Y-101600000D01*
D24*
X104310000Y-137160000D02*
X102870000Y-135720000D01*
X105410000Y-137160000D02*
X104310000Y-137160000D01*
X105530000Y-83700000D02*
X115000000Y-83700000D01*
X102870000Y-86360000D02*
X105530000Y-83700000D01*
X102870000Y-115650000D02*
X102870000Y-114935000D01*
X104060000Y-116840000D02*
X102870000Y-115650000D01*
X105410000Y-116840000D02*
X104060000Y-116840000D01*
X102870000Y-114935000D02*
X102870000Y-86360000D01*
X102870000Y-125810000D02*
X102870000Y-125095000D01*
X104060000Y-127000000D02*
X102870000Y-125810000D01*
X105410000Y-127000000D02*
X104060000Y-127000000D01*
X102870000Y-125095000D02*
X102870000Y-114935000D01*
X102870000Y-135720000D02*
X102870000Y-125095000D01*
D23*
X170182720Y-134617280D02*
X170180000Y-134620000D01*
X170182720Y-130171320D02*
X170182720Y-134617280D01*
X170180000Y-135822081D02*
X170180000Y-140970000D01*
X170180000Y-134620000D02*
X170180000Y-135822081D01*
X172722720Y-134617280D02*
X172720000Y-134620000D01*
X172722720Y-130171320D02*
X172722720Y-134617280D01*
X172720000Y-134620000D02*
X172720000Y-140970000D01*
X177802720Y-134617280D02*
X177800000Y-134620000D01*
X177802720Y-130171320D02*
X177802720Y-134617280D01*
X175260000Y-137160000D02*
X175260000Y-140970000D01*
X177800000Y-134620000D02*
X175260000Y-137160000D01*
X175260000Y-140970000D02*
X173990000Y-142240000D01*
X162560000Y-142240000D02*
X161290000Y-140970000D01*
X173990000Y-142240000D02*
X162560000Y-142240000D01*
X148590000Y-142240000D02*
X162560000Y-142240000D01*
X147320000Y-140970000D02*
X148590000Y-142240000D01*
X165102720Y-134617280D02*
X165100000Y-134620000D01*
X165102720Y-130171320D02*
X165102720Y-134617280D01*
X158750000Y-138430000D02*
X156210000Y-140970000D01*
X161290000Y-138430000D02*
X158750000Y-138430000D01*
X165100000Y-134620000D02*
X161290000Y-138430000D01*
X167642720Y-134617280D02*
X167640000Y-134620000D01*
X167642720Y-130171320D02*
X167642720Y-134617280D01*
X160655000Y-139065000D02*
X158750000Y-140970000D01*
X163195000Y-139065000D02*
X160655000Y-139065000D01*
X167640000Y-134620000D02*
X163195000Y-139065000D01*
X160022720Y-134617280D02*
X160020000Y-134620000D01*
X160022720Y-130171320D02*
X160022720Y-134617280D01*
X146812000Y-136525000D02*
X142240000Y-140970000D01*
X158115000Y-136525000D02*
X146812000Y-136525000D01*
X160020000Y-134620000D02*
X158115000Y-136525000D01*
X162562720Y-134617280D02*
X162560000Y-134620000D01*
X162562720Y-130171320D02*
X162562720Y-134617280D01*
X148590000Y-137160000D02*
X144780000Y-140970000D01*
X160020000Y-137160000D02*
X148590000Y-137160000D01*
X162560000Y-134620000D02*
X160020000Y-137160000D01*
X109220000Y-134620000D02*
X105410000Y-134620000D01*
X115570000Y-140970000D02*
X109220000Y-134620000D01*
X106282056Y-124460000D02*
X105410000Y-124460000D01*
X111125000Y-129302944D02*
X106282056Y-124460000D01*
X111125000Y-131000000D02*
X111125000Y-129302944D01*
X106612081Y-114300000D02*
X105410000Y-114300000D01*
X110917056Y-114300000D02*
X106612081Y-114300000D01*
X115570000Y-118952944D02*
X110917056Y-114300000D01*
X115570000Y-120650000D02*
X115570000Y-118952944D01*
X105410000Y-95080000D02*
X105410000Y-93980000D01*
X106045000Y-95885000D02*
X105410000Y-95080000D01*
X111125000Y-95885000D02*
X106045000Y-95885000D01*
X114935000Y-92075000D02*
X111125000Y-95885000D01*
X132715000Y-92075000D02*
X114935000Y-92075000D01*
X133350000Y-92710000D02*
X132715000Y-92075000D01*
X160020000Y-104768600D02*
X160022720Y-104771320D01*
X160020000Y-100330000D02*
X160020000Y-104768600D01*
X106612081Y-101600000D02*
X109220000Y-101600000D01*
X105410000Y-101600000D02*
X106612081Y-101600000D01*
X160020000Y-100330000D02*
X160020000Y-99060000D01*
X160020000Y-99060000D02*
X158750000Y-97790000D01*
X113030000Y-97790000D02*
X109220000Y-101600000D01*
X158750000Y-97790000D02*
X113030000Y-97790000D01*
X137160000Y-93980000D02*
X133350000Y-93980000D01*
X154940000Y-104768600D02*
X154942720Y-104771320D01*
X154940000Y-100330000D02*
X154940000Y-104768600D01*
X115570000Y-132515000D02*
X115570000Y-128270000D01*
X119540000Y-136485000D02*
X115570000Y-132515000D01*
X121194629Y-136485000D02*
X121234629Y-136525000D01*
X119540000Y-136485000D02*
X121194629Y-136485000D01*
X121234629Y-136525000D02*
X130175000Y-136525000D01*
X154942720Y-111757280D02*
X154942720Y-104771320D01*
X130175000Y-136525000D02*
X154942720Y-111757280D01*
X147320000Y-104768600D02*
X147322720Y-104771320D01*
X147320000Y-100330000D02*
X147320000Y-104768600D01*
X111125000Y-119997056D02*
X111125000Y-118300000D01*
X114377945Y-123250001D02*
X111125000Y-119997056D01*
X118370001Y-123250001D02*
X114377945Y-123250001D01*
X119540000Y-124420000D02*
X118370001Y-123250001D01*
X147320000Y-107950000D02*
X147322720Y-104771320D01*
X147320000Y-116840000D02*
X147320000Y-107950000D01*
X139740000Y-124420000D02*
X147320000Y-116840000D01*
X119540000Y-124420000D02*
X139740000Y-124420000D01*
X144780000Y-104768600D02*
X144782720Y-104771320D01*
X144780000Y-100330000D02*
X144780000Y-104768600D01*
X115570000Y-108385000D02*
X115570000Y-107950000D01*
X119540000Y-112355000D02*
X115570000Y-108385000D01*
X119540000Y-112355000D02*
X129500000Y-112355000D01*
X138409040Y-112395000D02*
X137160000Y-112395000D01*
X144782720Y-106021320D02*
X138409040Y-112395000D01*
X144782720Y-104771320D02*
X144782720Y-106021320D01*
X137160000Y-112395000D02*
X129540000Y-112395000D01*
X167640000Y-104768600D02*
X167642720Y-104771320D01*
X167640000Y-100330000D02*
X167640000Y-104768600D01*
X149860000Y-93980000D02*
X147320000Y-91440000D01*
X111760000Y-91440000D02*
X109220000Y-93980000D01*
X147320000Y-91440000D02*
X111760000Y-91440000D01*
X167640000Y-100330000D02*
X167640000Y-95250000D01*
X166370000Y-93980000D02*
X149860000Y-93980000D01*
X167640000Y-95250000D02*
X166370000Y-93980000D01*
X142242720Y-134617280D02*
X142240000Y-134620000D01*
D24*
X142242720Y-130171320D02*
X142242720Y-134617280D01*
D23*
X187962720Y-134617280D02*
X187960000Y-134620000D01*
X187962720Y-130171320D02*
X187962720Y-134617280D01*
D24*
X118745000Y-117475000D02*
X105410000Y-104140000D01*
X143510000Y-117475000D02*
X118745000Y-117475000D01*
D23*
X144782720Y-134617280D02*
X144780000Y-134620000D01*
X144782720Y-130171320D02*
X144782720Y-134617280D01*
X147322720Y-134617280D02*
X147320000Y-134620000D01*
X147322720Y-130171320D02*
X147322720Y-134617280D01*
X149862720Y-134617280D02*
X149860000Y-134620000D01*
X149862720Y-130171320D02*
X149862720Y-134617280D01*
X152402720Y-134617280D02*
X152400000Y-134620000D01*
X152402720Y-130171320D02*
X152402720Y-134617280D01*
X154942720Y-134617280D02*
X154940000Y-134620000D01*
X154942720Y-130171320D02*
X154942720Y-134617280D01*
X157482720Y-134617280D02*
X157480000Y-134620000D01*
X157482720Y-130171320D02*
X157482720Y-134617280D01*
X180342720Y-134617280D02*
X180340000Y-134620000D01*
X180342720Y-130171320D02*
X180342720Y-134617280D01*
X182882720Y-134617280D02*
X182880000Y-134620000D01*
X182882720Y-130171320D02*
X182882720Y-134617280D01*
X185422720Y-134617280D02*
X185420000Y-134620000D01*
X185422720Y-130171320D02*
X185422720Y-134617280D01*
X149860000Y-104768600D02*
X149862720Y-104771320D01*
X149860000Y-100330000D02*
X149860000Y-104768600D01*
X152400000Y-104768600D02*
X152402720Y-104771320D01*
X152400000Y-100330000D02*
X152400000Y-104768600D01*
X162560000Y-104768600D02*
X162562720Y-104771320D01*
X162560000Y-100330000D02*
X162560000Y-104768600D01*
X165100000Y-104768600D02*
X165102720Y-104771320D01*
X165100000Y-100330000D02*
X165100000Y-104768600D01*
X170180000Y-104768600D02*
X170182720Y-104771320D01*
X170180000Y-100330000D02*
X170180000Y-104768600D01*
X172720000Y-104768600D02*
X172722720Y-104771320D01*
X172720000Y-100330000D02*
X172720000Y-104768600D01*
X175260000Y-104768600D02*
X175262720Y-104771320D01*
X175260000Y-100330000D02*
X175260000Y-104768600D01*
X177800000Y-104768600D02*
X177802720Y-104771320D01*
X177800000Y-100330000D02*
X177800000Y-104768600D01*
X180340000Y-104768600D02*
X180342720Y-104771320D01*
X180340000Y-100330000D02*
X180340000Y-104768600D01*
X182880000Y-104768600D02*
X182882720Y-104771320D01*
X182880000Y-100330000D02*
X182880000Y-104768600D01*
X185420000Y-100330000D02*
X185420000Y-104775000D01*
X187960000Y-100330000D02*
X187960000Y-104775000D01*
D24*
X139065000Y-119380000D02*
X118110000Y-119380000D01*
X118110000Y-119380000D02*
X105410000Y-106680000D01*
D25*
G36*
X189340000Y-86873000D02*
G01*
X100660000Y-86873000D01*
X100660000Y-85450000D01*
X112611928Y-85450000D01*
X112624188Y-85574482D01*
X112660498Y-85694180D01*
X112719463Y-85804494D01*
X112798815Y-85901185D01*
X112895506Y-85980537D01*
X113005820Y-86039502D01*
X113125518Y-86075812D01*
X113250000Y-86088072D01*
X114468250Y-86085000D01*
X114627000Y-85926250D01*
X114627000Y-84073000D01*
X115373000Y-84073000D01*
X115373000Y-85926250D01*
X115531750Y-86085000D01*
X116750000Y-86088072D01*
X116874482Y-86075812D01*
X116994180Y-86039502D01*
X117104494Y-85980537D01*
X117201185Y-85901185D01*
X117280537Y-85804494D01*
X117339502Y-85694180D01*
X117375812Y-85574482D01*
X117388072Y-85450000D01*
X132611928Y-85450000D01*
X132624188Y-85574482D01*
X132660498Y-85694180D01*
X132719463Y-85804494D01*
X132798815Y-85901185D01*
X132895506Y-85980537D01*
X133005820Y-86039502D01*
X133125518Y-86075812D01*
X133250000Y-86088072D01*
X134468250Y-86085000D01*
X134627000Y-85926250D01*
X134627000Y-84073000D01*
X135373000Y-84073000D01*
X135373000Y-85926250D01*
X135531750Y-86085000D01*
X136750000Y-86088072D01*
X136874482Y-86075812D01*
X136994180Y-86039502D01*
X137104494Y-85980537D01*
X137201185Y-85901185D01*
X137280537Y-85804494D01*
X137339502Y-85694180D01*
X137375812Y-85574482D01*
X137388072Y-85450000D01*
X152611928Y-85450000D01*
X152624188Y-85574482D01*
X152660498Y-85694180D01*
X152719463Y-85804494D01*
X152798815Y-85901185D01*
X152895506Y-85980537D01*
X153005820Y-86039502D01*
X153125518Y-86075812D01*
X153250000Y-86088072D01*
X154468250Y-86085000D01*
X154627000Y-85926250D01*
X154627000Y-84073000D01*
X155373000Y-84073000D01*
X155373000Y-85926250D01*
X155531750Y-86085000D01*
X156750000Y-86088072D01*
X156874482Y-86075812D01*
X156994180Y-86039502D01*
X157104494Y-85980537D01*
X157201185Y-85901185D01*
X157280537Y-85804494D01*
X157339502Y-85694180D01*
X157375812Y-85574482D01*
X157388072Y-85450000D01*
X172611928Y-85450000D01*
X172624188Y-85574482D01*
X172660498Y-85694180D01*
X172719463Y-85804494D01*
X172798815Y-85901185D01*
X172895506Y-85980537D01*
X173005820Y-86039502D01*
X173125518Y-86075812D01*
X173250000Y-86088072D01*
X174468250Y-86085000D01*
X174627000Y-85926250D01*
X174627000Y-84073000D01*
X175373000Y-84073000D01*
X175373000Y-85926250D01*
X175531750Y-86085000D01*
X176750000Y-86088072D01*
X176874482Y-86075812D01*
X176994180Y-86039502D01*
X177104494Y-85980537D01*
X177201185Y-85901185D01*
X177280537Y-85804494D01*
X177339502Y-85694180D01*
X177375812Y-85574482D01*
X177388072Y-85450000D01*
X177385000Y-84231750D01*
X177226250Y-84073000D01*
X175373000Y-84073000D01*
X174627000Y-84073000D01*
X172773750Y-84073000D01*
X172615000Y-84231750D01*
X172611928Y-85450000D01*
X157388072Y-85450000D01*
X157385000Y-84231750D01*
X157226250Y-84073000D01*
X155373000Y-84073000D01*
X154627000Y-84073000D01*
X152773750Y-84073000D01*
X152615000Y-84231750D01*
X152611928Y-85450000D01*
X137388072Y-85450000D01*
X137385000Y-84231750D01*
X137226250Y-84073000D01*
X135373000Y-84073000D01*
X134627000Y-84073000D01*
X132773750Y-84073000D01*
X132615000Y-84231750D01*
X132611928Y-85450000D01*
X117388072Y-85450000D01*
X117385000Y-84231750D01*
X117226250Y-84073000D01*
X115373000Y-84073000D01*
X114627000Y-84073000D01*
X112773750Y-84073000D01*
X112615000Y-84231750D01*
X112611928Y-85450000D01*
X100660000Y-85450000D01*
X100660000Y-78950000D01*
X107911928Y-78950000D01*
X107911928Y-82450000D01*
X107924188Y-82574482D01*
X107960498Y-82694180D01*
X108019463Y-82804494D01*
X108098815Y-82901185D01*
X108195506Y-82980537D01*
X108305820Y-83039502D01*
X108425518Y-83075812D01*
X108550000Y-83088072D01*
X112050000Y-83088072D01*
X112174482Y-83075812D01*
X112294180Y-83039502D01*
X112404494Y-82980537D01*
X112501185Y-82901185D01*
X112580537Y-82804494D01*
X112613925Y-82742030D01*
X112615000Y-83168250D01*
X112773750Y-83327000D01*
X114627000Y-83327000D01*
X114627000Y-81473750D01*
X115373000Y-81473750D01*
X115373000Y-83327000D01*
X117226250Y-83327000D01*
X117385000Y-83168250D01*
X117388072Y-81950000D01*
X117375812Y-81825518D01*
X117339502Y-81705820D01*
X117280537Y-81595506D01*
X117201185Y-81498815D01*
X117104494Y-81419463D01*
X116994180Y-81360498D01*
X116874482Y-81324188D01*
X116750000Y-81311928D01*
X115531750Y-81315000D01*
X115373000Y-81473750D01*
X114627000Y-81473750D01*
X114468250Y-81315000D01*
X113250000Y-81311928D01*
X113125518Y-81324188D01*
X113005820Y-81360498D01*
X112895506Y-81419463D01*
X112798815Y-81498815D01*
X112719463Y-81595506D01*
X112688072Y-81654233D01*
X112688072Y-79745767D01*
X112719463Y-79804494D01*
X112798815Y-79901185D01*
X112895506Y-79980537D01*
X113005820Y-80039502D01*
X113125518Y-80075812D01*
X113250000Y-80088072D01*
X116750000Y-80088072D01*
X116874482Y-80075812D01*
X116994180Y-80039502D01*
X117104494Y-79980537D01*
X117201185Y-79901185D01*
X117280537Y-79804494D01*
X117339502Y-79694180D01*
X117375812Y-79574482D01*
X117388072Y-79450000D01*
X117388072Y-78950000D01*
X127911928Y-78950000D01*
X127911928Y-82450000D01*
X127924188Y-82574482D01*
X127960498Y-82694180D01*
X128019463Y-82804494D01*
X128098815Y-82901185D01*
X128195506Y-82980537D01*
X128305820Y-83039502D01*
X128425518Y-83075812D01*
X128550000Y-83088072D01*
X132050000Y-83088072D01*
X132174482Y-83075812D01*
X132294180Y-83039502D01*
X132404494Y-82980537D01*
X132501185Y-82901185D01*
X132580537Y-82804494D01*
X132613925Y-82742030D01*
X132615000Y-83168250D01*
X132773750Y-83327000D01*
X134627000Y-83327000D01*
X134627000Y-81473750D01*
X135373000Y-81473750D01*
X135373000Y-83327000D01*
X137226250Y-83327000D01*
X137385000Y-83168250D01*
X137388072Y-81950000D01*
X137375812Y-81825518D01*
X137339502Y-81705820D01*
X137280537Y-81595506D01*
X137201185Y-81498815D01*
X137104494Y-81419463D01*
X136994180Y-81360498D01*
X136874482Y-81324188D01*
X136750000Y-81311928D01*
X135531750Y-81315000D01*
X135373000Y-81473750D01*
X134627000Y-81473750D01*
X134468250Y-81315000D01*
X133250000Y-81311928D01*
X133125518Y-81324188D01*
X133005820Y-81360498D01*
X132895506Y-81419463D01*
X132798815Y-81498815D01*
X132719463Y-81595506D01*
X132688072Y-81654233D01*
X132688072Y-79745767D01*
X132719463Y-79804494D01*
X132798815Y-79901185D01*
X132895506Y-79980537D01*
X133005820Y-80039502D01*
X133125518Y-80075812D01*
X133250000Y-80088072D01*
X136750000Y-80088072D01*
X136874482Y-80075812D01*
X136994180Y-80039502D01*
X137104494Y-79980537D01*
X137201185Y-79901185D01*
X137280537Y-79804494D01*
X137339502Y-79694180D01*
X137375812Y-79574482D01*
X137388072Y-79450000D01*
X137388072Y-78950000D01*
X147911928Y-78950000D01*
X147911928Y-82450000D01*
X147924188Y-82574482D01*
X147960498Y-82694180D01*
X148019463Y-82804494D01*
X148098815Y-82901185D01*
X148195506Y-82980537D01*
X148305820Y-83039502D01*
X148425518Y-83075812D01*
X148550000Y-83088072D01*
X152050000Y-83088072D01*
X152174482Y-83075812D01*
X152294180Y-83039502D01*
X152404494Y-82980537D01*
X152501185Y-82901185D01*
X152580537Y-82804494D01*
X152613925Y-82742030D01*
X152615000Y-83168250D01*
X152773750Y-83327000D01*
X154627000Y-83327000D01*
X154627000Y-81473750D01*
X155373000Y-81473750D01*
X155373000Y-83327000D01*
X157226250Y-83327000D01*
X157385000Y-83168250D01*
X157388072Y-81950000D01*
X157375812Y-81825518D01*
X157339502Y-81705820D01*
X157280537Y-81595506D01*
X157201185Y-81498815D01*
X157104494Y-81419463D01*
X156994180Y-81360498D01*
X156874482Y-81324188D01*
X156750000Y-81311928D01*
X155531750Y-81315000D01*
X155373000Y-81473750D01*
X154627000Y-81473750D01*
X154468250Y-81315000D01*
X153250000Y-81311928D01*
X153125518Y-81324188D01*
X153005820Y-81360498D01*
X152895506Y-81419463D01*
X152798815Y-81498815D01*
X152719463Y-81595506D01*
X152688072Y-81654233D01*
X152688072Y-79745767D01*
X152719463Y-79804494D01*
X152798815Y-79901185D01*
X152895506Y-79980537D01*
X153005820Y-80039502D01*
X153125518Y-80075812D01*
X153250000Y-80088072D01*
X156750000Y-80088072D01*
X156874482Y-80075812D01*
X156994180Y-80039502D01*
X157104494Y-79980537D01*
X157201185Y-79901185D01*
X157280537Y-79804494D01*
X157339502Y-79694180D01*
X157375812Y-79574482D01*
X157388072Y-79450000D01*
X157388072Y-78950000D01*
X167911928Y-78950000D01*
X167911928Y-82450000D01*
X167924188Y-82574482D01*
X167960498Y-82694180D01*
X168019463Y-82804494D01*
X168098815Y-82901185D01*
X168195506Y-82980537D01*
X168305820Y-83039502D01*
X168425518Y-83075812D01*
X168550000Y-83088072D01*
X172050000Y-83088072D01*
X172174482Y-83075812D01*
X172294180Y-83039502D01*
X172404494Y-82980537D01*
X172501185Y-82901185D01*
X172580537Y-82804494D01*
X172613925Y-82742030D01*
X172615000Y-83168250D01*
X172773750Y-83327000D01*
X174627000Y-83327000D01*
X174627000Y-81473750D01*
X175373000Y-81473750D01*
X175373000Y-83327000D01*
X177226250Y-83327000D01*
X177385000Y-83168250D01*
X177388072Y-81950000D01*
X177375812Y-81825518D01*
X177339502Y-81705820D01*
X177280537Y-81595506D01*
X177201185Y-81498815D01*
X177104494Y-81419463D01*
X176994180Y-81360498D01*
X176874482Y-81324188D01*
X176750000Y-81311928D01*
X175531750Y-81315000D01*
X175373000Y-81473750D01*
X174627000Y-81473750D01*
X174468250Y-81315000D01*
X173250000Y-81311928D01*
X173125518Y-81324188D01*
X173005820Y-81360498D01*
X172895506Y-81419463D01*
X172798815Y-81498815D01*
X172719463Y-81595506D01*
X172688072Y-81654233D01*
X172688072Y-79745767D01*
X172719463Y-79804494D01*
X172798815Y-79901185D01*
X172895506Y-79980537D01*
X173005820Y-80039502D01*
X173125518Y-80075812D01*
X173250000Y-80088072D01*
X176750000Y-80088072D01*
X176874482Y-80075812D01*
X176994180Y-80039502D01*
X177104494Y-79980537D01*
X177201185Y-79901185D01*
X177280537Y-79804494D01*
X177339502Y-79694180D01*
X177375812Y-79574482D01*
X177388072Y-79450000D01*
X177388072Y-75950000D01*
X177375812Y-75825518D01*
X177339502Y-75705820D01*
X177280537Y-75595506D01*
X177201185Y-75498815D01*
X177104494Y-75419463D01*
X176994180Y-75360498D01*
X176874482Y-75324188D01*
X176750000Y-75311928D01*
X173250000Y-75311928D01*
X173125518Y-75324188D01*
X173005820Y-75360498D01*
X172895506Y-75419463D01*
X172798815Y-75498815D01*
X172719463Y-75595506D01*
X172660498Y-75705820D01*
X172624188Y-75825518D01*
X172611928Y-75950000D01*
X172611928Y-78654233D01*
X172580537Y-78595506D01*
X172501185Y-78498815D01*
X172404494Y-78419463D01*
X172294180Y-78360498D01*
X172174482Y-78324188D01*
X172050000Y-78311928D01*
X168550000Y-78311928D01*
X168425518Y-78324188D01*
X168305820Y-78360498D01*
X168195506Y-78419463D01*
X168098815Y-78498815D01*
X168019463Y-78595506D01*
X167960498Y-78705820D01*
X167924188Y-78825518D01*
X167911928Y-78950000D01*
X157388072Y-78950000D01*
X157388072Y-75950000D01*
X157375812Y-75825518D01*
X157339502Y-75705820D01*
X157280537Y-75595506D01*
X157201185Y-75498815D01*
X157104494Y-75419463D01*
X156994180Y-75360498D01*
X156874482Y-75324188D01*
X156750000Y-75311928D01*
X153250000Y-75311928D01*
X153125518Y-75324188D01*
X153005820Y-75360498D01*
X152895506Y-75419463D01*
X152798815Y-75498815D01*
X152719463Y-75595506D01*
X152660498Y-75705820D01*
X152624188Y-75825518D01*
X152611928Y-75950000D01*
X152611928Y-78654233D01*
X152580537Y-78595506D01*
X152501185Y-78498815D01*
X152404494Y-78419463D01*
X152294180Y-78360498D01*
X152174482Y-78324188D01*
X152050000Y-78311928D01*
X148550000Y-78311928D01*
X148425518Y-78324188D01*
X148305820Y-78360498D01*
X148195506Y-78419463D01*
X148098815Y-78498815D01*
X148019463Y-78595506D01*
X147960498Y-78705820D01*
X147924188Y-78825518D01*
X147911928Y-78950000D01*
X137388072Y-78950000D01*
X137388072Y-75950000D01*
X137375812Y-75825518D01*
X137339502Y-75705820D01*
X137280537Y-75595506D01*
X137201185Y-75498815D01*
X137104494Y-75419463D01*
X136994180Y-75360498D01*
X136874482Y-75324188D01*
X136750000Y-75311928D01*
X133250000Y-75311928D01*
X133125518Y-75324188D01*
X133005820Y-75360498D01*
X132895506Y-75419463D01*
X132798815Y-75498815D01*
X132719463Y-75595506D01*
X132660498Y-75705820D01*
X132624188Y-75825518D01*
X132611928Y-75950000D01*
X132611928Y-78654233D01*
X132580537Y-78595506D01*
X132501185Y-78498815D01*
X132404494Y-78419463D01*
X132294180Y-78360498D01*
X132174482Y-78324188D01*
X132050000Y-78311928D01*
X128550000Y-78311928D01*
X128425518Y-78324188D01*
X128305820Y-78360498D01*
X128195506Y-78419463D01*
X128098815Y-78498815D01*
X128019463Y-78595506D01*
X127960498Y-78705820D01*
X127924188Y-78825518D01*
X127911928Y-78950000D01*
X117388072Y-78950000D01*
X117388072Y-75950000D01*
X117375812Y-75825518D01*
X117339502Y-75705820D01*
X117280537Y-75595506D01*
X117201185Y-75498815D01*
X117104494Y-75419463D01*
X116994180Y-75360498D01*
X116874482Y-75324188D01*
X116750000Y-75311928D01*
X113250000Y-75311928D01*
X113125518Y-75324188D01*
X113005820Y-75360498D01*
X112895506Y-75419463D01*
X112798815Y-75498815D01*
X112719463Y-75595506D01*
X112660498Y-75705820D01*
X112624188Y-75825518D01*
X112611928Y-75950000D01*
X112611928Y-78654233D01*
X112580537Y-78595506D01*
X112501185Y-78498815D01*
X112404494Y-78419463D01*
X112294180Y-78360498D01*
X112174482Y-78324188D01*
X112050000Y-78311928D01*
X108550000Y-78311928D01*
X108425518Y-78324188D01*
X108305820Y-78360498D01*
X108195506Y-78419463D01*
X108098815Y-78498815D01*
X108019463Y-78595506D01*
X107960498Y-78705820D01*
X107924188Y-78825518D01*
X107911928Y-78950000D01*
X100660000Y-78950000D01*
X100660000Y-74779872D01*
X102765000Y-74779872D01*
X102765000Y-75220128D01*
X102850890Y-75651925D01*
X103019369Y-76058669D01*
X103263962Y-76424729D01*
X103575271Y-76736038D01*
X103941331Y-76980631D01*
X104348075Y-77149110D01*
X104779872Y-77235000D01*
X105220128Y-77235000D01*
X105651925Y-77149110D01*
X106058669Y-76980631D01*
X106424729Y-76736038D01*
X106736038Y-76424729D01*
X106980631Y-76058669D01*
X107149110Y-75651925D01*
X107235000Y-75220128D01*
X107235000Y-74779872D01*
X182765000Y-74779872D01*
X182765000Y-75220128D01*
X182850890Y-75651925D01*
X183019369Y-76058669D01*
X183263962Y-76424729D01*
X183575271Y-76736038D01*
X183941331Y-76980631D01*
X184348075Y-77149110D01*
X184779872Y-77235000D01*
X185220128Y-77235000D01*
X185651925Y-77149110D01*
X186058669Y-76980631D01*
X186424729Y-76736038D01*
X186736038Y-76424729D01*
X186980631Y-76058669D01*
X187149110Y-75651925D01*
X187235000Y-75220128D01*
X187235000Y-74779872D01*
X187149110Y-74348075D01*
X186980631Y-73941331D01*
X186736038Y-73575271D01*
X186424729Y-73263962D01*
X186058669Y-73019369D01*
X185651925Y-72850890D01*
X185220128Y-72765000D01*
X184779872Y-72765000D01*
X184348075Y-72850890D01*
X183941331Y-73019369D01*
X183575271Y-73263962D01*
X183263962Y-73575271D01*
X183019369Y-73941331D01*
X182850890Y-74348075D01*
X182765000Y-74779872D01*
X107235000Y-74779872D01*
X107149110Y-74348075D01*
X106980631Y-73941331D01*
X106736038Y-73575271D01*
X106424729Y-73263962D01*
X106058669Y-73019369D01*
X105651925Y-72850890D01*
X105220128Y-72765000D01*
X104779872Y-72765000D01*
X104348075Y-72850890D01*
X103941331Y-73019369D01*
X103575271Y-73263962D01*
X103263962Y-73575271D01*
X103019369Y-73941331D01*
X102850890Y-74348075D01*
X102765000Y-74779872D01*
X100660000Y-74779872D01*
X100660000Y-70660000D01*
X189340000Y-70660000D01*
X189340000Y-86873000D01*
G37*
X189340000Y-86873000D02*
X100660000Y-86873000D01*
X100660000Y-85450000D01*
X112611928Y-85450000D01*
X112624188Y-85574482D01*
X112660498Y-85694180D01*
X112719463Y-85804494D01*
X112798815Y-85901185D01*
X112895506Y-85980537D01*
X113005820Y-86039502D01*
X113125518Y-86075812D01*
X113250000Y-86088072D01*
X114468250Y-86085000D01*
X114627000Y-85926250D01*
X114627000Y-84073000D01*
X115373000Y-84073000D01*
X115373000Y-85926250D01*
X115531750Y-86085000D01*
X116750000Y-86088072D01*
X116874482Y-86075812D01*
X116994180Y-86039502D01*
X117104494Y-85980537D01*
X117201185Y-85901185D01*
X117280537Y-85804494D01*
X117339502Y-85694180D01*
X117375812Y-85574482D01*
X117388072Y-85450000D01*
X132611928Y-85450000D01*
X132624188Y-85574482D01*
X132660498Y-85694180D01*
X132719463Y-85804494D01*
X132798815Y-85901185D01*
X132895506Y-85980537D01*
X133005820Y-86039502D01*
X133125518Y-86075812D01*
X133250000Y-86088072D01*
X134468250Y-86085000D01*
X134627000Y-85926250D01*
X134627000Y-84073000D01*
X135373000Y-84073000D01*
X135373000Y-85926250D01*
X135531750Y-86085000D01*
X136750000Y-86088072D01*
X136874482Y-86075812D01*
X136994180Y-86039502D01*
X137104494Y-85980537D01*
X137201185Y-85901185D01*
X137280537Y-85804494D01*
X137339502Y-85694180D01*
X137375812Y-85574482D01*
X137388072Y-85450000D01*
X152611928Y-85450000D01*
X152624188Y-85574482D01*
X152660498Y-85694180D01*
X152719463Y-85804494D01*
X152798815Y-85901185D01*
X152895506Y-85980537D01*
X153005820Y-86039502D01*
X153125518Y-86075812D01*
X153250000Y-86088072D01*
X154468250Y-86085000D01*
X154627000Y-85926250D01*
X154627000Y-84073000D01*
X155373000Y-84073000D01*
X155373000Y-85926250D01*
X155531750Y-86085000D01*
X156750000Y-86088072D01*
X156874482Y-86075812D01*
X156994180Y-86039502D01*
X157104494Y-85980537D01*
X157201185Y-85901185D01*
X157280537Y-85804494D01*
X157339502Y-85694180D01*
X157375812Y-85574482D01*
X157388072Y-85450000D01*
X172611928Y-85450000D01*
X172624188Y-85574482D01*
X172660498Y-85694180D01*
X172719463Y-85804494D01*
X172798815Y-85901185D01*
X172895506Y-85980537D01*
X173005820Y-86039502D01*
X173125518Y-86075812D01*
X173250000Y-86088072D01*
X174468250Y-86085000D01*
X174627000Y-85926250D01*
X174627000Y-84073000D01*
X175373000Y-84073000D01*
X175373000Y-85926250D01*
X175531750Y-86085000D01*
X176750000Y-86088072D01*
X176874482Y-86075812D01*
X176994180Y-86039502D01*
X177104494Y-85980537D01*
X177201185Y-85901185D01*
X177280537Y-85804494D01*
X177339502Y-85694180D01*
X177375812Y-85574482D01*
X177388072Y-85450000D01*
X177385000Y-84231750D01*
X177226250Y-84073000D01*
X175373000Y-84073000D01*
X174627000Y-84073000D01*
X172773750Y-84073000D01*
X172615000Y-84231750D01*
X172611928Y-85450000D01*
X157388072Y-85450000D01*
X157385000Y-84231750D01*
X157226250Y-84073000D01*
X155373000Y-84073000D01*
X154627000Y-84073000D01*
X152773750Y-84073000D01*
X152615000Y-84231750D01*
X152611928Y-85450000D01*
X137388072Y-85450000D01*
X137385000Y-84231750D01*
X137226250Y-84073000D01*
X135373000Y-84073000D01*
X134627000Y-84073000D01*
X132773750Y-84073000D01*
X132615000Y-84231750D01*
X132611928Y-85450000D01*
X117388072Y-85450000D01*
X117385000Y-84231750D01*
X117226250Y-84073000D01*
X115373000Y-84073000D01*
X114627000Y-84073000D01*
X112773750Y-84073000D01*
X112615000Y-84231750D01*
X112611928Y-85450000D01*
X100660000Y-85450000D01*
X100660000Y-78950000D01*
X107911928Y-78950000D01*
X107911928Y-82450000D01*
X107924188Y-82574482D01*
X107960498Y-82694180D01*
X108019463Y-82804494D01*
X108098815Y-82901185D01*
X108195506Y-82980537D01*
X108305820Y-83039502D01*
X108425518Y-83075812D01*
X108550000Y-83088072D01*
X112050000Y-83088072D01*
X112174482Y-83075812D01*
X112294180Y-83039502D01*
X112404494Y-82980537D01*
X112501185Y-82901185D01*
X112580537Y-82804494D01*
X112613925Y-82742030D01*
X112615000Y-83168250D01*
X112773750Y-83327000D01*
X114627000Y-83327000D01*
X114627000Y-81473750D01*
X115373000Y-81473750D01*
X115373000Y-83327000D01*
X117226250Y-83327000D01*
X117385000Y-83168250D01*
X117388072Y-81950000D01*
X117375812Y-81825518D01*
X117339502Y-81705820D01*
X117280537Y-81595506D01*
X117201185Y-81498815D01*
X117104494Y-81419463D01*
X116994180Y-81360498D01*
X116874482Y-81324188D01*
X116750000Y-81311928D01*
X115531750Y-81315000D01*
X115373000Y-81473750D01*
X114627000Y-81473750D01*
X114468250Y-81315000D01*
X113250000Y-81311928D01*
X113125518Y-81324188D01*
X113005820Y-81360498D01*
X112895506Y-81419463D01*
X112798815Y-81498815D01*
X112719463Y-81595506D01*
X112688072Y-81654233D01*
X112688072Y-79745767D01*
X112719463Y-79804494D01*
X112798815Y-79901185D01*
X112895506Y-79980537D01*
X113005820Y-80039502D01*
X113125518Y-80075812D01*
X113250000Y-80088072D01*
X116750000Y-80088072D01*
X116874482Y-80075812D01*
X116994180Y-80039502D01*
X117104494Y-79980537D01*
X117201185Y-79901185D01*
X117280537Y-79804494D01*
X117339502Y-79694180D01*
X117375812Y-79574482D01*
X117388072Y-79450000D01*
X117388072Y-78950000D01*
X127911928Y-78950000D01*
X127911928Y-82450000D01*
X127924188Y-82574482D01*
X127960498Y-82694180D01*
X128019463Y-82804494D01*
X128098815Y-82901185D01*
X128195506Y-82980537D01*
X128305820Y-83039502D01*
X128425518Y-83075812D01*
X128550000Y-83088072D01*
X132050000Y-83088072D01*
X132174482Y-83075812D01*
X132294180Y-83039502D01*
X132404494Y-82980537D01*
X132501185Y-82901185D01*
X132580537Y-82804494D01*
X132613925Y-82742030D01*
X132615000Y-83168250D01*
X132773750Y-83327000D01*
X134627000Y-83327000D01*
X134627000Y-81473750D01*
X135373000Y-81473750D01*
X135373000Y-83327000D01*
X137226250Y-83327000D01*
X137385000Y-83168250D01*
X137388072Y-81950000D01*
X137375812Y-81825518D01*
X137339502Y-81705820D01*
X137280537Y-81595506D01*
X137201185Y-81498815D01*
X137104494Y-81419463D01*
X136994180Y-81360498D01*
X136874482Y-81324188D01*
X136750000Y-81311928D01*
X135531750Y-81315000D01*
X135373000Y-81473750D01*
X134627000Y-81473750D01*
X134468250Y-81315000D01*
X133250000Y-81311928D01*
X133125518Y-81324188D01*
X133005820Y-81360498D01*
X132895506Y-81419463D01*
X132798815Y-81498815D01*
X132719463Y-81595506D01*
X132688072Y-81654233D01*
X132688072Y-79745767D01*
X132719463Y-79804494D01*
X132798815Y-79901185D01*
X132895506Y-79980537D01*
X133005820Y-80039502D01*
X133125518Y-80075812D01*
X133250000Y-80088072D01*
X136750000Y-80088072D01*
X136874482Y-80075812D01*
X136994180Y-80039502D01*
X137104494Y-79980537D01*
X137201185Y-79901185D01*
X137280537Y-79804494D01*
X137339502Y-79694180D01*
X137375812Y-79574482D01*
X137388072Y-79450000D01*
X137388072Y-78950000D01*
X147911928Y-78950000D01*
X147911928Y-82450000D01*
X147924188Y-82574482D01*
X147960498Y-82694180D01*
X148019463Y-82804494D01*
X148098815Y-82901185D01*
X148195506Y-82980537D01*
X148305820Y-83039502D01*
X148425518Y-83075812D01*
X148550000Y-83088072D01*
X152050000Y-83088072D01*
X152174482Y-83075812D01*
X152294180Y-83039502D01*
X152404494Y-82980537D01*
X152501185Y-82901185D01*
X152580537Y-82804494D01*
X152613925Y-82742030D01*
X152615000Y-83168250D01*
X152773750Y-83327000D01*
X154627000Y-83327000D01*
X154627000Y-81473750D01*
X155373000Y-81473750D01*
X155373000Y-83327000D01*
X157226250Y-83327000D01*
X157385000Y-83168250D01*
X157388072Y-81950000D01*
X157375812Y-81825518D01*
X157339502Y-81705820D01*
X157280537Y-81595506D01*
X157201185Y-81498815D01*
X157104494Y-81419463D01*
X156994180Y-81360498D01*
X156874482Y-81324188D01*
X156750000Y-81311928D01*
X155531750Y-81315000D01*
X155373000Y-81473750D01*
X154627000Y-81473750D01*
X154468250Y-81315000D01*
X153250000Y-81311928D01*
X153125518Y-81324188D01*
X153005820Y-81360498D01*
X152895506Y-81419463D01*
X152798815Y-81498815D01*
X152719463Y-81595506D01*
X152688072Y-81654233D01*
X152688072Y-79745767D01*
X152719463Y-79804494D01*
X152798815Y-79901185D01*
X152895506Y-79980537D01*
X153005820Y-80039502D01*
X153125518Y-80075812D01*
X153250000Y-80088072D01*
X156750000Y-80088072D01*
X156874482Y-80075812D01*
X156994180Y-80039502D01*
X157104494Y-79980537D01*
X157201185Y-79901185D01*
X157280537Y-79804494D01*
X157339502Y-79694180D01*
X157375812Y-79574482D01*
X157388072Y-79450000D01*
X157388072Y-78950000D01*
X167911928Y-78950000D01*
X167911928Y-82450000D01*
X167924188Y-82574482D01*
X167960498Y-82694180D01*
X168019463Y-82804494D01*
X168098815Y-82901185D01*
X168195506Y-82980537D01*
X168305820Y-83039502D01*
X168425518Y-83075812D01*
X168550000Y-83088072D01*
X172050000Y-83088072D01*
X172174482Y-83075812D01*
X172294180Y-83039502D01*
X172404494Y-82980537D01*
X172501185Y-82901185D01*
X172580537Y-82804494D01*
X172613925Y-82742030D01*
X172615000Y-83168250D01*
X172773750Y-83327000D01*
X174627000Y-83327000D01*
X174627000Y-81473750D01*
X175373000Y-81473750D01*
X175373000Y-83327000D01*
X177226250Y-83327000D01*
X177385000Y-83168250D01*
X177388072Y-81950000D01*
X177375812Y-81825518D01*
X177339502Y-81705820D01*
X177280537Y-81595506D01*
X177201185Y-81498815D01*
X177104494Y-81419463D01*
X176994180Y-81360498D01*
X176874482Y-81324188D01*
X176750000Y-81311928D01*
X175531750Y-81315000D01*
X175373000Y-81473750D01*
X174627000Y-81473750D01*
X174468250Y-81315000D01*
X173250000Y-81311928D01*
X173125518Y-81324188D01*
X173005820Y-81360498D01*
X172895506Y-81419463D01*
X172798815Y-81498815D01*
X172719463Y-81595506D01*
X172688072Y-81654233D01*
X172688072Y-79745767D01*
X172719463Y-79804494D01*
X172798815Y-79901185D01*
X172895506Y-79980537D01*
X173005820Y-80039502D01*
X173125518Y-80075812D01*
X173250000Y-80088072D01*
X176750000Y-80088072D01*
X176874482Y-80075812D01*
X176994180Y-80039502D01*
X177104494Y-79980537D01*
X177201185Y-79901185D01*
X177280537Y-79804494D01*
X177339502Y-79694180D01*
X177375812Y-79574482D01*
X177388072Y-79450000D01*
X177388072Y-75950000D01*
X177375812Y-75825518D01*
X177339502Y-75705820D01*
X177280537Y-75595506D01*
X177201185Y-75498815D01*
X177104494Y-75419463D01*
X176994180Y-75360498D01*
X176874482Y-75324188D01*
X176750000Y-75311928D01*
X173250000Y-75311928D01*
X173125518Y-75324188D01*
X173005820Y-75360498D01*
X172895506Y-75419463D01*
X172798815Y-75498815D01*
X172719463Y-75595506D01*
X172660498Y-75705820D01*
X172624188Y-75825518D01*
X172611928Y-75950000D01*
X172611928Y-78654233D01*
X172580537Y-78595506D01*
X172501185Y-78498815D01*
X172404494Y-78419463D01*
X172294180Y-78360498D01*
X172174482Y-78324188D01*
X172050000Y-78311928D01*
X168550000Y-78311928D01*
X168425518Y-78324188D01*
X168305820Y-78360498D01*
X168195506Y-78419463D01*
X168098815Y-78498815D01*
X168019463Y-78595506D01*
X167960498Y-78705820D01*
X167924188Y-78825518D01*
X167911928Y-78950000D01*
X157388072Y-78950000D01*
X157388072Y-75950000D01*
X157375812Y-75825518D01*
X157339502Y-75705820D01*
X157280537Y-75595506D01*
X157201185Y-75498815D01*
X157104494Y-75419463D01*
X156994180Y-75360498D01*
X156874482Y-75324188D01*
X156750000Y-75311928D01*
X153250000Y-75311928D01*
X153125518Y-75324188D01*
X153005820Y-75360498D01*
X152895506Y-75419463D01*
X152798815Y-75498815D01*
X152719463Y-75595506D01*
X152660498Y-75705820D01*
X152624188Y-75825518D01*
X152611928Y-75950000D01*
X152611928Y-78654233D01*
X152580537Y-78595506D01*
X152501185Y-78498815D01*
X152404494Y-78419463D01*
X152294180Y-78360498D01*
X152174482Y-78324188D01*
X152050000Y-78311928D01*
X148550000Y-78311928D01*
X148425518Y-78324188D01*
X148305820Y-78360498D01*
X148195506Y-78419463D01*
X148098815Y-78498815D01*
X148019463Y-78595506D01*
X147960498Y-78705820D01*
X147924188Y-78825518D01*
X147911928Y-78950000D01*
X137388072Y-78950000D01*
X137388072Y-75950000D01*
X137375812Y-75825518D01*
X137339502Y-75705820D01*
X137280537Y-75595506D01*
X137201185Y-75498815D01*
X137104494Y-75419463D01*
X136994180Y-75360498D01*
X136874482Y-75324188D01*
X136750000Y-75311928D01*
X133250000Y-75311928D01*
X133125518Y-75324188D01*
X133005820Y-75360498D01*
X132895506Y-75419463D01*
X132798815Y-75498815D01*
X132719463Y-75595506D01*
X132660498Y-75705820D01*
X132624188Y-75825518D01*
X132611928Y-75950000D01*
X132611928Y-78654233D01*
X132580537Y-78595506D01*
X132501185Y-78498815D01*
X132404494Y-78419463D01*
X132294180Y-78360498D01*
X132174482Y-78324188D01*
X132050000Y-78311928D01*
X128550000Y-78311928D01*
X128425518Y-78324188D01*
X128305820Y-78360498D01*
X128195506Y-78419463D01*
X128098815Y-78498815D01*
X128019463Y-78595506D01*
X127960498Y-78705820D01*
X127924188Y-78825518D01*
X127911928Y-78950000D01*
X117388072Y-78950000D01*
X117388072Y-75950000D01*
X117375812Y-75825518D01*
X117339502Y-75705820D01*
X117280537Y-75595506D01*
X117201185Y-75498815D01*
X117104494Y-75419463D01*
X116994180Y-75360498D01*
X116874482Y-75324188D01*
X116750000Y-75311928D01*
X113250000Y-75311928D01*
X113125518Y-75324188D01*
X113005820Y-75360498D01*
X112895506Y-75419463D01*
X112798815Y-75498815D01*
X112719463Y-75595506D01*
X112660498Y-75705820D01*
X112624188Y-75825518D01*
X112611928Y-75950000D01*
X112611928Y-78654233D01*
X112580537Y-78595506D01*
X112501185Y-78498815D01*
X112404494Y-78419463D01*
X112294180Y-78360498D01*
X112174482Y-78324188D01*
X112050000Y-78311928D01*
X108550000Y-78311928D01*
X108425518Y-78324188D01*
X108305820Y-78360498D01*
X108195506Y-78419463D01*
X108098815Y-78498815D01*
X108019463Y-78595506D01*
X107960498Y-78705820D01*
X107924188Y-78825518D01*
X107911928Y-78950000D01*
X100660000Y-78950000D01*
X100660000Y-74779872D01*
X102765000Y-74779872D01*
X102765000Y-75220128D01*
X102850890Y-75651925D01*
X103019369Y-76058669D01*
X103263962Y-76424729D01*
X103575271Y-76736038D01*
X103941331Y-76980631D01*
X104348075Y-77149110D01*
X104779872Y-77235000D01*
X105220128Y-77235000D01*
X105651925Y-77149110D01*
X106058669Y-76980631D01*
X106424729Y-76736038D01*
X106736038Y-76424729D01*
X106980631Y-76058669D01*
X107149110Y-75651925D01*
X107235000Y-75220128D01*
X107235000Y-74779872D01*
X182765000Y-74779872D01*
X182765000Y-75220128D01*
X182850890Y-75651925D01*
X183019369Y-76058669D01*
X183263962Y-76424729D01*
X183575271Y-76736038D01*
X183941331Y-76980631D01*
X184348075Y-77149110D01*
X184779872Y-77235000D01*
X185220128Y-77235000D01*
X185651925Y-77149110D01*
X186058669Y-76980631D01*
X186424729Y-76736038D01*
X186736038Y-76424729D01*
X186980631Y-76058669D01*
X187149110Y-75651925D01*
X187235000Y-75220128D01*
X187235000Y-74779872D01*
X187149110Y-74348075D01*
X186980631Y-73941331D01*
X186736038Y-73575271D01*
X186424729Y-73263962D01*
X186058669Y-73019369D01*
X185651925Y-72850890D01*
X185220128Y-72765000D01*
X184779872Y-72765000D01*
X184348075Y-72850890D01*
X183941331Y-73019369D01*
X183575271Y-73263962D01*
X183263962Y-73575271D01*
X183019369Y-73941331D01*
X182850890Y-74348075D01*
X182765000Y-74779872D01*
X107235000Y-74779872D01*
X107149110Y-74348075D01*
X106980631Y-73941331D01*
X106736038Y-73575271D01*
X106424729Y-73263962D01*
X106058669Y-73019369D01*
X105651925Y-72850890D01*
X105220128Y-72765000D01*
X104779872Y-72765000D01*
X104348075Y-72850890D01*
X103941331Y-73019369D01*
X103575271Y-73263962D01*
X103263962Y-73575271D01*
X103019369Y-73941331D01*
X102850890Y-74348075D01*
X102765000Y-74779872D01*
X100660000Y-74779872D01*
X100660000Y-70660000D01*
X189340000Y-70660000D01*
X189340000Y-86873000D01*
M02*
