G04 #@! TF.GenerationSoftware,KiCad,Pcbnew,5.1.5+dfsg1-2build2*
G04 #@! TF.CreationDate,2022-01-25T23:10:58-07:00*
G04 #@! TF.ProjectId,fcch-laser-controller,66636368-2d6c-4617-9365-722d636f6e74,rev?*
G04 #@! TF.SameCoordinates,Original*
G04 #@! TF.FileFunction,Soldermask,Bot*
G04 #@! TF.FilePolarity,Negative*
%FSLAX46Y46*%
G04 Gerber Fmt 4.6, Leading zero omitted, Abs format (unit mm)*
G04 Created by KiCad (PCBNEW 5.1.5+dfsg1-2build2) date 2022-01-25 23:10:58*
%MOMM*%
%LPD*%
G04 APERTURE LIST*
%ADD10C,0.100000*%
G04 APERTURE END LIST*
D10*
G36*
X185375256Y-143391298D02*
G01*
X185481579Y-143412447D01*
X185782042Y-143536903D01*
X186052451Y-143717585D01*
X186282415Y-143947549D01*
X186463097Y-144217958D01*
X186587553Y-144518421D01*
X186651000Y-144837391D01*
X186651000Y-145162609D01*
X186587553Y-145481579D01*
X186463097Y-145782042D01*
X186282415Y-146052451D01*
X186052451Y-146282415D01*
X185782042Y-146463097D01*
X185481579Y-146587553D01*
X185375256Y-146608702D01*
X185162611Y-146651000D01*
X184837389Y-146651000D01*
X184624744Y-146608702D01*
X184518421Y-146587553D01*
X184217958Y-146463097D01*
X183947549Y-146282415D01*
X183717585Y-146052451D01*
X183536903Y-145782042D01*
X183412447Y-145481579D01*
X183349000Y-145162609D01*
X183349000Y-144837391D01*
X183412447Y-144518421D01*
X183536903Y-144217958D01*
X183717585Y-143947549D01*
X183947549Y-143717585D01*
X184217958Y-143536903D01*
X184518421Y-143412447D01*
X184624744Y-143391298D01*
X184837389Y-143349000D01*
X185162611Y-143349000D01*
X185375256Y-143391298D01*
G37*
G36*
X105375256Y-143391298D02*
G01*
X105481579Y-143412447D01*
X105782042Y-143536903D01*
X106052451Y-143717585D01*
X106282415Y-143947549D01*
X106463097Y-144217958D01*
X106587553Y-144518421D01*
X106651000Y-144837391D01*
X106651000Y-145162609D01*
X106587553Y-145481579D01*
X106463097Y-145782042D01*
X106282415Y-146052451D01*
X106052451Y-146282415D01*
X105782042Y-146463097D01*
X105481579Y-146587553D01*
X105375256Y-146608702D01*
X105162611Y-146651000D01*
X104837389Y-146651000D01*
X104624744Y-146608702D01*
X104518421Y-146587553D01*
X104217958Y-146463097D01*
X103947549Y-146282415D01*
X103717585Y-146052451D01*
X103536903Y-145782042D01*
X103412447Y-145481579D01*
X103349000Y-145162609D01*
X103349000Y-144837391D01*
X103412447Y-144518421D01*
X103536903Y-144217958D01*
X103717585Y-143947549D01*
X103947549Y-143717585D01*
X104217958Y-143536903D01*
X104518421Y-143412447D01*
X104624744Y-143391298D01*
X104837389Y-143349000D01*
X105162611Y-143349000D01*
X105375256Y-143391298D01*
G37*
G36*
X175373512Y-142613927D02*
G01*
X175522812Y-142643624D01*
X175686784Y-142711544D01*
X175834354Y-142810147D01*
X175959853Y-142935646D01*
X176058456Y-143083216D01*
X176126376Y-143247188D01*
X176161000Y-143421259D01*
X176161000Y-143598741D01*
X176126376Y-143772812D01*
X176058456Y-143936784D01*
X175959853Y-144084354D01*
X175834354Y-144209853D01*
X175686784Y-144308456D01*
X175522812Y-144376376D01*
X175373512Y-144406073D01*
X175348742Y-144411000D01*
X175171258Y-144411000D01*
X175146488Y-144406073D01*
X174997188Y-144376376D01*
X174833216Y-144308456D01*
X174685646Y-144209853D01*
X174560147Y-144084354D01*
X174461544Y-143936784D01*
X174393624Y-143772812D01*
X174359000Y-143598741D01*
X174359000Y-143421259D01*
X174393624Y-143247188D01*
X174461544Y-143083216D01*
X174560147Y-142935646D01*
X174685646Y-142810147D01*
X174833216Y-142711544D01*
X174997188Y-142643624D01*
X175146488Y-142613927D01*
X175171258Y-142609000D01*
X175348742Y-142609000D01*
X175373512Y-142613927D01*
G37*
G36*
X172833512Y-142613927D02*
G01*
X172982812Y-142643624D01*
X173146784Y-142711544D01*
X173294354Y-142810147D01*
X173419853Y-142935646D01*
X173518456Y-143083216D01*
X173586376Y-143247188D01*
X173621000Y-143421259D01*
X173621000Y-143598741D01*
X173586376Y-143772812D01*
X173518456Y-143936784D01*
X173419853Y-144084354D01*
X173294354Y-144209853D01*
X173146784Y-144308456D01*
X172982812Y-144376376D01*
X172833512Y-144406073D01*
X172808742Y-144411000D01*
X172631258Y-144411000D01*
X172606488Y-144406073D01*
X172457188Y-144376376D01*
X172293216Y-144308456D01*
X172145646Y-144209853D01*
X172020147Y-144084354D01*
X171921544Y-143936784D01*
X171853624Y-143772812D01*
X171819000Y-143598741D01*
X171819000Y-143421259D01*
X171853624Y-143247188D01*
X171921544Y-143083216D01*
X172020147Y-142935646D01*
X172145646Y-142810147D01*
X172293216Y-142711544D01*
X172457188Y-142643624D01*
X172606488Y-142613927D01*
X172631258Y-142609000D01*
X172808742Y-142609000D01*
X172833512Y-142613927D01*
G37*
G36*
X161403512Y-142613927D02*
G01*
X161552812Y-142643624D01*
X161716784Y-142711544D01*
X161864354Y-142810147D01*
X161989853Y-142935646D01*
X162088456Y-143083216D01*
X162156376Y-143247188D01*
X162191000Y-143421259D01*
X162191000Y-143598741D01*
X162156376Y-143772812D01*
X162088456Y-143936784D01*
X161989853Y-144084354D01*
X161864354Y-144209853D01*
X161716784Y-144308456D01*
X161552812Y-144376376D01*
X161403512Y-144406073D01*
X161378742Y-144411000D01*
X161201258Y-144411000D01*
X161176488Y-144406073D01*
X161027188Y-144376376D01*
X160863216Y-144308456D01*
X160715646Y-144209853D01*
X160590147Y-144084354D01*
X160491544Y-143936784D01*
X160423624Y-143772812D01*
X160389000Y-143598741D01*
X160389000Y-143421259D01*
X160423624Y-143247188D01*
X160491544Y-143083216D01*
X160590147Y-142935646D01*
X160715646Y-142810147D01*
X160863216Y-142711544D01*
X161027188Y-142643624D01*
X161176488Y-142613927D01*
X161201258Y-142609000D01*
X161378742Y-142609000D01*
X161403512Y-142613927D01*
G37*
G36*
X158863512Y-142613927D02*
G01*
X159012812Y-142643624D01*
X159176784Y-142711544D01*
X159324354Y-142810147D01*
X159449853Y-142935646D01*
X159548456Y-143083216D01*
X159616376Y-143247188D01*
X159651000Y-143421259D01*
X159651000Y-143598741D01*
X159616376Y-143772812D01*
X159548456Y-143936784D01*
X159449853Y-144084354D01*
X159324354Y-144209853D01*
X159176784Y-144308456D01*
X159012812Y-144376376D01*
X158863512Y-144406073D01*
X158838742Y-144411000D01*
X158661258Y-144411000D01*
X158636488Y-144406073D01*
X158487188Y-144376376D01*
X158323216Y-144308456D01*
X158175646Y-144209853D01*
X158050147Y-144084354D01*
X157951544Y-143936784D01*
X157883624Y-143772812D01*
X157849000Y-143598741D01*
X157849000Y-143421259D01*
X157883624Y-143247188D01*
X157951544Y-143083216D01*
X158050147Y-142935646D01*
X158175646Y-142810147D01*
X158323216Y-142711544D01*
X158487188Y-142643624D01*
X158636488Y-142613927D01*
X158661258Y-142609000D01*
X158838742Y-142609000D01*
X158863512Y-142613927D01*
G37*
G36*
X157111000Y-144411000D02*
G01*
X155309000Y-144411000D01*
X155309000Y-142609000D01*
X157111000Y-142609000D01*
X157111000Y-144411000D01*
G37*
G36*
X147433512Y-142613927D02*
G01*
X147582812Y-142643624D01*
X147746784Y-142711544D01*
X147894354Y-142810147D01*
X148019853Y-142935646D01*
X148118456Y-143083216D01*
X148186376Y-143247188D01*
X148221000Y-143421259D01*
X148221000Y-143598741D01*
X148186376Y-143772812D01*
X148118456Y-143936784D01*
X148019853Y-144084354D01*
X147894354Y-144209853D01*
X147746784Y-144308456D01*
X147582812Y-144376376D01*
X147433512Y-144406073D01*
X147408742Y-144411000D01*
X147231258Y-144411000D01*
X147206488Y-144406073D01*
X147057188Y-144376376D01*
X146893216Y-144308456D01*
X146745646Y-144209853D01*
X146620147Y-144084354D01*
X146521544Y-143936784D01*
X146453624Y-143772812D01*
X146419000Y-143598741D01*
X146419000Y-143421259D01*
X146453624Y-143247188D01*
X146521544Y-143083216D01*
X146620147Y-142935646D01*
X146745646Y-142810147D01*
X146893216Y-142711544D01*
X147057188Y-142643624D01*
X147206488Y-142613927D01*
X147231258Y-142609000D01*
X147408742Y-142609000D01*
X147433512Y-142613927D01*
G37*
G36*
X144893512Y-142613927D02*
G01*
X145042812Y-142643624D01*
X145206784Y-142711544D01*
X145354354Y-142810147D01*
X145479853Y-142935646D01*
X145578456Y-143083216D01*
X145646376Y-143247188D01*
X145681000Y-143421259D01*
X145681000Y-143598741D01*
X145646376Y-143772812D01*
X145578456Y-143936784D01*
X145479853Y-144084354D01*
X145354354Y-144209853D01*
X145206784Y-144308456D01*
X145042812Y-144376376D01*
X144893512Y-144406073D01*
X144868742Y-144411000D01*
X144691258Y-144411000D01*
X144666488Y-144406073D01*
X144517188Y-144376376D01*
X144353216Y-144308456D01*
X144205646Y-144209853D01*
X144080147Y-144084354D01*
X143981544Y-143936784D01*
X143913624Y-143772812D01*
X143879000Y-143598741D01*
X143879000Y-143421259D01*
X143913624Y-143247188D01*
X143981544Y-143083216D01*
X144080147Y-142935646D01*
X144205646Y-142810147D01*
X144353216Y-142711544D01*
X144517188Y-142643624D01*
X144666488Y-142613927D01*
X144691258Y-142609000D01*
X144868742Y-142609000D01*
X144893512Y-142613927D01*
G37*
G36*
X143141000Y-144411000D02*
G01*
X141339000Y-144411000D01*
X141339000Y-142609000D01*
X143141000Y-142609000D01*
X143141000Y-144411000D01*
G37*
G36*
X171081000Y-144411000D02*
G01*
X169279000Y-144411000D01*
X169279000Y-142609000D01*
X171081000Y-142609000D01*
X171081000Y-144411000D01*
G37*
G36*
X115916136Y-139763342D02*
G01*
X115934903Y-139767075D01*
X116162571Y-139861378D01*
X116367466Y-139998285D01*
X116541715Y-140172534D01*
X116678622Y-140377429D01*
X116772925Y-140605097D01*
X116821000Y-140846787D01*
X116821000Y-141093213D01*
X116772925Y-141334903D01*
X116678622Y-141562571D01*
X116541715Y-141767466D01*
X116367466Y-141941715D01*
X116162571Y-142078622D01*
X116162570Y-142078623D01*
X116162569Y-142078623D01*
X115934903Y-142172925D01*
X115693214Y-142221000D01*
X115446786Y-142221000D01*
X115205097Y-142172925D01*
X114977431Y-142078623D01*
X114977430Y-142078623D01*
X114977429Y-142078622D01*
X114772534Y-141941715D01*
X114598285Y-141767466D01*
X114461378Y-141562571D01*
X114367075Y-141334903D01*
X114319000Y-141093213D01*
X114319000Y-140846787D01*
X114367075Y-140605097D01*
X114461378Y-140377429D01*
X114598285Y-140172534D01*
X114772534Y-139998285D01*
X114977429Y-139861378D01*
X115205097Y-139767075D01*
X115223864Y-139763342D01*
X115446786Y-139719000D01*
X115693214Y-139719000D01*
X115916136Y-139763342D01*
G37*
G36*
X175373512Y-140073927D02*
G01*
X175522812Y-140103624D01*
X175686784Y-140171544D01*
X175834354Y-140270147D01*
X175959853Y-140395646D01*
X176058456Y-140543216D01*
X176126376Y-140707188D01*
X176161000Y-140881259D01*
X176161000Y-141058741D01*
X176126376Y-141232812D01*
X176058456Y-141396784D01*
X175959853Y-141544354D01*
X175834354Y-141669853D01*
X175686784Y-141768456D01*
X175522812Y-141836376D01*
X175373512Y-141866073D01*
X175348742Y-141871000D01*
X175171258Y-141871000D01*
X175146488Y-141866073D01*
X174997188Y-141836376D01*
X174833216Y-141768456D01*
X174685646Y-141669853D01*
X174560147Y-141544354D01*
X174461544Y-141396784D01*
X174393624Y-141232812D01*
X174359000Y-141058741D01*
X174359000Y-140881259D01*
X174393624Y-140707188D01*
X174461544Y-140543216D01*
X174560147Y-140395646D01*
X174685646Y-140270147D01*
X174833216Y-140171544D01*
X174997188Y-140103624D01*
X175146488Y-140073927D01*
X175171258Y-140069000D01*
X175348742Y-140069000D01*
X175373512Y-140073927D01*
G37*
G36*
X142353512Y-140073927D02*
G01*
X142502812Y-140103624D01*
X142666784Y-140171544D01*
X142814354Y-140270147D01*
X142939853Y-140395646D01*
X143038456Y-140543216D01*
X143106376Y-140707188D01*
X143141000Y-140881259D01*
X143141000Y-141058741D01*
X143106376Y-141232812D01*
X143038456Y-141396784D01*
X142939853Y-141544354D01*
X142814354Y-141669853D01*
X142666784Y-141768456D01*
X142502812Y-141836376D01*
X142353512Y-141866073D01*
X142328742Y-141871000D01*
X142151258Y-141871000D01*
X142126488Y-141866073D01*
X141977188Y-141836376D01*
X141813216Y-141768456D01*
X141665646Y-141669853D01*
X141540147Y-141544354D01*
X141441544Y-141396784D01*
X141373624Y-141232812D01*
X141339000Y-141058741D01*
X141339000Y-140881259D01*
X141373624Y-140707188D01*
X141441544Y-140543216D01*
X141540147Y-140395646D01*
X141665646Y-140270147D01*
X141813216Y-140171544D01*
X141977188Y-140103624D01*
X142126488Y-140073927D01*
X142151258Y-140069000D01*
X142328742Y-140069000D01*
X142353512Y-140073927D01*
G37*
G36*
X144893512Y-140073927D02*
G01*
X145042812Y-140103624D01*
X145206784Y-140171544D01*
X145354354Y-140270147D01*
X145479853Y-140395646D01*
X145578456Y-140543216D01*
X145646376Y-140707188D01*
X145681000Y-140881259D01*
X145681000Y-141058741D01*
X145646376Y-141232812D01*
X145578456Y-141396784D01*
X145479853Y-141544354D01*
X145354354Y-141669853D01*
X145206784Y-141768456D01*
X145042812Y-141836376D01*
X144893512Y-141866073D01*
X144868742Y-141871000D01*
X144691258Y-141871000D01*
X144666488Y-141866073D01*
X144517188Y-141836376D01*
X144353216Y-141768456D01*
X144205646Y-141669853D01*
X144080147Y-141544354D01*
X143981544Y-141396784D01*
X143913624Y-141232812D01*
X143879000Y-141058741D01*
X143879000Y-140881259D01*
X143913624Y-140707188D01*
X143981544Y-140543216D01*
X144080147Y-140395646D01*
X144205646Y-140270147D01*
X144353216Y-140171544D01*
X144517188Y-140103624D01*
X144666488Y-140073927D01*
X144691258Y-140069000D01*
X144868742Y-140069000D01*
X144893512Y-140073927D01*
G37*
G36*
X147433512Y-140073927D02*
G01*
X147582812Y-140103624D01*
X147746784Y-140171544D01*
X147894354Y-140270147D01*
X148019853Y-140395646D01*
X148118456Y-140543216D01*
X148186376Y-140707188D01*
X148221000Y-140881259D01*
X148221000Y-141058741D01*
X148186376Y-141232812D01*
X148118456Y-141396784D01*
X148019853Y-141544354D01*
X147894354Y-141669853D01*
X147746784Y-141768456D01*
X147582812Y-141836376D01*
X147433512Y-141866073D01*
X147408742Y-141871000D01*
X147231258Y-141871000D01*
X147206488Y-141866073D01*
X147057188Y-141836376D01*
X146893216Y-141768456D01*
X146745646Y-141669853D01*
X146620147Y-141544354D01*
X146521544Y-141396784D01*
X146453624Y-141232812D01*
X146419000Y-141058741D01*
X146419000Y-140881259D01*
X146453624Y-140707188D01*
X146521544Y-140543216D01*
X146620147Y-140395646D01*
X146745646Y-140270147D01*
X146893216Y-140171544D01*
X147057188Y-140103624D01*
X147206488Y-140073927D01*
X147231258Y-140069000D01*
X147408742Y-140069000D01*
X147433512Y-140073927D01*
G37*
G36*
X156323512Y-140073927D02*
G01*
X156472812Y-140103624D01*
X156636784Y-140171544D01*
X156784354Y-140270147D01*
X156909853Y-140395646D01*
X157008456Y-140543216D01*
X157076376Y-140707188D01*
X157111000Y-140881259D01*
X157111000Y-141058741D01*
X157076376Y-141232812D01*
X157008456Y-141396784D01*
X156909853Y-141544354D01*
X156784354Y-141669853D01*
X156636784Y-141768456D01*
X156472812Y-141836376D01*
X156323512Y-141866073D01*
X156298742Y-141871000D01*
X156121258Y-141871000D01*
X156096488Y-141866073D01*
X155947188Y-141836376D01*
X155783216Y-141768456D01*
X155635646Y-141669853D01*
X155510147Y-141544354D01*
X155411544Y-141396784D01*
X155343624Y-141232812D01*
X155309000Y-141058741D01*
X155309000Y-140881259D01*
X155343624Y-140707188D01*
X155411544Y-140543216D01*
X155510147Y-140395646D01*
X155635646Y-140270147D01*
X155783216Y-140171544D01*
X155947188Y-140103624D01*
X156096488Y-140073927D01*
X156121258Y-140069000D01*
X156298742Y-140069000D01*
X156323512Y-140073927D01*
G37*
G36*
X172833512Y-140073927D02*
G01*
X172982812Y-140103624D01*
X173146784Y-140171544D01*
X173294354Y-140270147D01*
X173419853Y-140395646D01*
X173518456Y-140543216D01*
X173586376Y-140707188D01*
X173621000Y-140881259D01*
X173621000Y-141058741D01*
X173586376Y-141232812D01*
X173518456Y-141396784D01*
X173419853Y-141544354D01*
X173294354Y-141669853D01*
X173146784Y-141768456D01*
X172982812Y-141836376D01*
X172833512Y-141866073D01*
X172808742Y-141871000D01*
X172631258Y-141871000D01*
X172606488Y-141866073D01*
X172457188Y-141836376D01*
X172293216Y-141768456D01*
X172145646Y-141669853D01*
X172020147Y-141544354D01*
X171921544Y-141396784D01*
X171853624Y-141232812D01*
X171819000Y-141058741D01*
X171819000Y-140881259D01*
X171853624Y-140707188D01*
X171921544Y-140543216D01*
X172020147Y-140395646D01*
X172145646Y-140270147D01*
X172293216Y-140171544D01*
X172457188Y-140103624D01*
X172606488Y-140073927D01*
X172631258Y-140069000D01*
X172808742Y-140069000D01*
X172833512Y-140073927D01*
G37*
G36*
X170293512Y-140073927D02*
G01*
X170442812Y-140103624D01*
X170606784Y-140171544D01*
X170754354Y-140270147D01*
X170879853Y-140395646D01*
X170978456Y-140543216D01*
X171046376Y-140707188D01*
X171081000Y-140881259D01*
X171081000Y-141058741D01*
X171046376Y-141232812D01*
X170978456Y-141396784D01*
X170879853Y-141544354D01*
X170754354Y-141669853D01*
X170606784Y-141768456D01*
X170442812Y-141836376D01*
X170293512Y-141866073D01*
X170268742Y-141871000D01*
X170091258Y-141871000D01*
X170066488Y-141866073D01*
X169917188Y-141836376D01*
X169753216Y-141768456D01*
X169605646Y-141669853D01*
X169480147Y-141544354D01*
X169381544Y-141396784D01*
X169313624Y-141232812D01*
X169279000Y-141058741D01*
X169279000Y-140881259D01*
X169313624Y-140707188D01*
X169381544Y-140543216D01*
X169480147Y-140395646D01*
X169605646Y-140270147D01*
X169753216Y-140171544D01*
X169917188Y-140103624D01*
X170066488Y-140073927D01*
X170091258Y-140069000D01*
X170268742Y-140069000D01*
X170293512Y-140073927D01*
G37*
G36*
X158863512Y-140073927D02*
G01*
X159012812Y-140103624D01*
X159176784Y-140171544D01*
X159324354Y-140270147D01*
X159449853Y-140395646D01*
X159548456Y-140543216D01*
X159616376Y-140707188D01*
X159651000Y-140881259D01*
X159651000Y-141058741D01*
X159616376Y-141232812D01*
X159548456Y-141396784D01*
X159449853Y-141544354D01*
X159324354Y-141669853D01*
X159176784Y-141768456D01*
X159012812Y-141836376D01*
X158863512Y-141866073D01*
X158838742Y-141871000D01*
X158661258Y-141871000D01*
X158636488Y-141866073D01*
X158487188Y-141836376D01*
X158323216Y-141768456D01*
X158175646Y-141669853D01*
X158050147Y-141544354D01*
X157951544Y-141396784D01*
X157883624Y-141232812D01*
X157849000Y-141058741D01*
X157849000Y-140881259D01*
X157883624Y-140707188D01*
X157951544Y-140543216D01*
X158050147Y-140395646D01*
X158175646Y-140270147D01*
X158323216Y-140171544D01*
X158487188Y-140103624D01*
X158636488Y-140073927D01*
X158661258Y-140069000D01*
X158838742Y-140069000D01*
X158863512Y-140073927D01*
G37*
G36*
X161403512Y-140073927D02*
G01*
X161552812Y-140103624D01*
X161716784Y-140171544D01*
X161864354Y-140270147D01*
X161989853Y-140395646D01*
X162088456Y-140543216D01*
X162156376Y-140707188D01*
X162191000Y-140881259D01*
X162191000Y-141058741D01*
X162156376Y-141232812D01*
X162088456Y-141396784D01*
X161989853Y-141544354D01*
X161864354Y-141669853D01*
X161716784Y-141768456D01*
X161552812Y-141836376D01*
X161403512Y-141866073D01*
X161378742Y-141871000D01*
X161201258Y-141871000D01*
X161176488Y-141866073D01*
X161027188Y-141836376D01*
X160863216Y-141768456D01*
X160715646Y-141669853D01*
X160590147Y-141544354D01*
X160491544Y-141396784D01*
X160423624Y-141232812D01*
X160389000Y-141058741D01*
X160389000Y-140881259D01*
X160423624Y-140707188D01*
X160491544Y-140543216D01*
X160590147Y-140395646D01*
X160715646Y-140270147D01*
X160863216Y-140171544D01*
X161027188Y-140103624D01*
X161176488Y-140073927D01*
X161201258Y-140069000D01*
X161378742Y-140069000D01*
X161403512Y-140073927D01*
G37*
G36*
X129778205Y-137787461D02*
G01*
X129896153Y-137810922D01*
X129988194Y-137849047D01*
X130118359Y-137902963D01*
X130318342Y-138036587D01*
X130488413Y-138206658D01*
X130622037Y-138406641D01*
X130714078Y-138628848D01*
X130761000Y-138864741D01*
X130761000Y-139105259D01*
X130714078Y-139341152D01*
X130622037Y-139563359D01*
X130488413Y-139763342D01*
X130318342Y-139933413D01*
X130118359Y-140067037D01*
X129988194Y-140120953D01*
X129896153Y-140159078D01*
X129828504Y-140172534D01*
X129660259Y-140206000D01*
X129419741Y-140206000D01*
X129251496Y-140172534D01*
X129183847Y-140159078D01*
X129091806Y-140120953D01*
X128961641Y-140067037D01*
X128761658Y-139933413D01*
X128591587Y-139763342D01*
X128457963Y-139563359D01*
X128365922Y-139341152D01*
X128319000Y-139105259D01*
X128319000Y-138864741D01*
X128365922Y-138628848D01*
X128457963Y-138406641D01*
X128591587Y-138206658D01*
X128761658Y-138036587D01*
X128961641Y-137902963D01*
X129091806Y-137849047D01*
X129183847Y-137810922D01*
X129301795Y-137787461D01*
X129419741Y-137764000D01*
X129660259Y-137764000D01*
X129778205Y-137787461D01*
G37*
G36*
X106311000Y-138061000D02*
G01*
X104509000Y-138061000D01*
X104509000Y-136259000D01*
X106311000Y-136259000D01*
X106311000Y-138061000D01*
G37*
G36*
X119778205Y-135287461D02*
G01*
X119896153Y-135310922D01*
X119988194Y-135349047D01*
X120118359Y-135402963D01*
X120318342Y-135536587D01*
X120488413Y-135706658D01*
X120622037Y-135906641D01*
X120714078Y-136128848D01*
X120761000Y-136364741D01*
X120761000Y-136605259D01*
X120714078Y-136841152D01*
X120622037Y-137063359D01*
X120488413Y-137263342D01*
X120318342Y-137433413D01*
X120118359Y-137567037D01*
X119988194Y-137620953D01*
X119896153Y-137659078D01*
X119660259Y-137706000D01*
X119419741Y-137706000D01*
X119183847Y-137659078D01*
X119091806Y-137620953D01*
X118961641Y-137567037D01*
X118761658Y-137433413D01*
X118591587Y-137263342D01*
X118457963Y-137063359D01*
X118365922Y-136841152D01*
X118319000Y-136605259D01*
X118319000Y-136364741D01*
X118365922Y-136128848D01*
X118457963Y-135906641D01*
X118591587Y-135706658D01*
X118761658Y-135536587D01*
X118961641Y-135402963D01*
X119091806Y-135349047D01*
X119183847Y-135310922D01*
X119301795Y-135287461D01*
X119419741Y-135264000D01*
X119660259Y-135264000D01*
X119778205Y-135287461D01*
G37*
G36*
X162673512Y-133723927D02*
G01*
X162822812Y-133753624D01*
X162986784Y-133821544D01*
X163134354Y-133920147D01*
X163259853Y-134045646D01*
X163358456Y-134193216D01*
X163426376Y-134357188D01*
X163461000Y-134531259D01*
X163461000Y-134708741D01*
X163426376Y-134882812D01*
X163358456Y-135046784D01*
X163259853Y-135194354D01*
X163134354Y-135319853D01*
X162986784Y-135418456D01*
X162822812Y-135486376D01*
X162673512Y-135516073D01*
X162648742Y-135521000D01*
X162471258Y-135521000D01*
X162446488Y-135516073D01*
X162297188Y-135486376D01*
X162133216Y-135418456D01*
X161985646Y-135319853D01*
X161860147Y-135194354D01*
X161761544Y-135046784D01*
X161693624Y-134882812D01*
X161659000Y-134708741D01*
X161659000Y-134531259D01*
X161693624Y-134357188D01*
X161761544Y-134193216D01*
X161860147Y-134045646D01*
X161985646Y-133920147D01*
X162133216Y-133821544D01*
X162297188Y-133753624D01*
X162446488Y-133723927D01*
X162471258Y-133719000D01*
X162648742Y-133719000D01*
X162673512Y-133723927D01*
G37*
G36*
X160133512Y-133723927D02*
G01*
X160282812Y-133753624D01*
X160446784Y-133821544D01*
X160594354Y-133920147D01*
X160719853Y-134045646D01*
X160818456Y-134193216D01*
X160886376Y-134357188D01*
X160921000Y-134531259D01*
X160921000Y-134708741D01*
X160886376Y-134882812D01*
X160818456Y-135046784D01*
X160719853Y-135194354D01*
X160594354Y-135319853D01*
X160446784Y-135418456D01*
X160282812Y-135486376D01*
X160133512Y-135516073D01*
X160108742Y-135521000D01*
X159931258Y-135521000D01*
X159906488Y-135516073D01*
X159757188Y-135486376D01*
X159593216Y-135418456D01*
X159445646Y-135319853D01*
X159320147Y-135194354D01*
X159221544Y-135046784D01*
X159153624Y-134882812D01*
X159119000Y-134708741D01*
X159119000Y-134531259D01*
X159153624Y-134357188D01*
X159221544Y-134193216D01*
X159320147Y-134045646D01*
X159445646Y-133920147D01*
X159593216Y-133821544D01*
X159757188Y-133753624D01*
X159906488Y-133723927D01*
X159931258Y-133719000D01*
X160108742Y-133719000D01*
X160133512Y-133723927D01*
G37*
G36*
X152513512Y-133723927D02*
G01*
X152662812Y-133753624D01*
X152826784Y-133821544D01*
X152974354Y-133920147D01*
X153099853Y-134045646D01*
X153198456Y-134193216D01*
X153266376Y-134357188D01*
X153301000Y-134531259D01*
X153301000Y-134708741D01*
X153266376Y-134882812D01*
X153198456Y-135046784D01*
X153099853Y-135194354D01*
X152974354Y-135319853D01*
X152826784Y-135418456D01*
X152662812Y-135486376D01*
X152513512Y-135516073D01*
X152488742Y-135521000D01*
X152311258Y-135521000D01*
X152286488Y-135516073D01*
X152137188Y-135486376D01*
X151973216Y-135418456D01*
X151825646Y-135319853D01*
X151700147Y-135194354D01*
X151601544Y-135046784D01*
X151533624Y-134882812D01*
X151499000Y-134708741D01*
X151499000Y-134531259D01*
X151533624Y-134357188D01*
X151601544Y-134193216D01*
X151700147Y-134045646D01*
X151825646Y-133920147D01*
X151973216Y-133821544D01*
X152137188Y-133753624D01*
X152286488Y-133723927D01*
X152311258Y-133719000D01*
X152488742Y-133719000D01*
X152513512Y-133723927D01*
G37*
G36*
X157593512Y-133723927D02*
G01*
X157742812Y-133753624D01*
X157906784Y-133821544D01*
X158054354Y-133920147D01*
X158179853Y-134045646D01*
X158278456Y-134193216D01*
X158346376Y-134357188D01*
X158381000Y-134531259D01*
X158381000Y-134708741D01*
X158346376Y-134882812D01*
X158278456Y-135046784D01*
X158179853Y-135194354D01*
X158054354Y-135319853D01*
X157906784Y-135418456D01*
X157742812Y-135486376D01*
X157593512Y-135516073D01*
X157568742Y-135521000D01*
X157391258Y-135521000D01*
X157366488Y-135516073D01*
X157217188Y-135486376D01*
X157053216Y-135418456D01*
X156905646Y-135319853D01*
X156780147Y-135194354D01*
X156681544Y-135046784D01*
X156613624Y-134882812D01*
X156579000Y-134708741D01*
X156579000Y-134531259D01*
X156613624Y-134357188D01*
X156681544Y-134193216D01*
X156780147Y-134045646D01*
X156905646Y-133920147D01*
X157053216Y-133821544D01*
X157217188Y-133753624D01*
X157366488Y-133723927D01*
X157391258Y-133719000D01*
X157568742Y-133719000D01*
X157593512Y-133723927D01*
G37*
G36*
X105523512Y-133723927D02*
G01*
X105672812Y-133753624D01*
X105836784Y-133821544D01*
X105984354Y-133920147D01*
X106109853Y-134045646D01*
X106208456Y-134193216D01*
X106276376Y-134357188D01*
X106311000Y-134531259D01*
X106311000Y-134708741D01*
X106276376Y-134882812D01*
X106208456Y-135046784D01*
X106109853Y-135194354D01*
X105984354Y-135319853D01*
X105836784Y-135418456D01*
X105672812Y-135486376D01*
X105523512Y-135516073D01*
X105498742Y-135521000D01*
X105321258Y-135521000D01*
X105296488Y-135516073D01*
X105147188Y-135486376D01*
X104983216Y-135418456D01*
X104835646Y-135319853D01*
X104710147Y-135194354D01*
X104611544Y-135046784D01*
X104543624Y-134882812D01*
X104509000Y-134708741D01*
X104509000Y-134531259D01*
X104543624Y-134357188D01*
X104611544Y-134193216D01*
X104710147Y-134045646D01*
X104835646Y-133920147D01*
X104983216Y-133821544D01*
X105147188Y-133753624D01*
X105296488Y-133723927D01*
X105321258Y-133719000D01*
X105498742Y-133719000D01*
X105523512Y-133723927D01*
G37*
G36*
X149973512Y-133723927D02*
G01*
X150122812Y-133753624D01*
X150286784Y-133821544D01*
X150434354Y-133920147D01*
X150559853Y-134045646D01*
X150658456Y-134193216D01*
X150726376Y-134357188D01*
X150761000Y-134531259D01*
X150761000Y-134708741D01*
X150726376Y-134882812D01*
X150658456Y-135046784D01*
X150559853Y-135194354D01*
X150434354Y-135319853D01*
X150286784Y-135418456D01*
X150122812Y-135486376D01*
X149973512Y-135516073D01*
X149948742Y-135521000D01*
X149771258Y-135521000D01*
X149746488Y-135516073D01*
X149597188Y-135486376D01*
X149433216Y-135418456D01*
X149285646Y-135319853D01*
X149160147Y-135194354D01*
X149061544Y-135046784D01*
X148993624Y-134882812D01*
X148959000Y-134708741D01*
X148959000Y-134531259D01*
X148993624Y-134357188D01*
X149061544Y-134193216D01*
X149160147Y-134045646D01*
X149285646Y-133920147D01*
X149433216Y-133821544D01*
X149597188Y-133753624D01*
X149746488Y-133723927D01*
X149771258Y-133719000D01*
X149948742Y-133719000D01*
X149973512Y-133723927D01*
G37*
G36*
X147433512Y-133723927D02*
G01*
X147582812Y-133753624D01*
X147746784Y-133821544D01*
X147894354Y-133920147D01*
X148019853Y-134045646D01*
X148118456Y-134193216D01*
X148186376Y-134357188D01*
X148221000Y-134531259D01*
X148221000Y-134708741D01*
X148186376Y-134882812D01*
X148118456Y-135046784D01*
X148019853Y-135194354D01*
X147894354Y-135319853D01*
X147746784Y-135418456D01*
X147582812Y-135486376D01*
X147433512Y-135516073D01*
X147408742Y-135521000D01*
X147231258Y-135521000D01*
X147206488Y-135516073D01*
X147057188Y-135486376D01*
X146893216Y-135418456D01*
X146745646Y-135319853D01*
X146620147Y-135194354D01*
X146521544Y-135046784D01*
X146453624Y-134882812D01*
X146419000Y-134708741D01*
X146419000Y-134531259D01*
X146453624Y-134357188D01*
X146521544Y-134193216D01*
X146620147Y-134045646D01*
X146745646Y-133920147D01*
X146893216Y-133821544D01*
X147057188Y-133753624D01*
X147206488Y-133723927D01*
X147231258Y-133719000D01*
X147408742Y-133719000D01*
X147433512Y-133723927D01*
G37*
G36*
X144893512Y-133723927D02*
G01*
X145042812Y-133753624D01*
X145206784Y-133821544D01*
X145354354Y-133920147D01*
X145479853Y-134045646D01*
X145578456Y-134193216D01*
X145646376Y-134357188D01*
X145681000Y-134531259D01*
X145681000Y-134708741D01*
X145646376Y-134882812D01*
X145578456Y-135046784D01*
X145479853Y-135194354D01*
X145354354Y-135319853D01*
X145206784Y-135418456D01*
X145042812Y-135486376D01*
X144893512Y-135516073D01*
X144868742Y-135521000D01*
X144691258Y-135521000D01*
X144666488Y-135516073D01*
X144517188Y-135486376D01*
X144353216Y-135418456D01*
X144205646Y-135319853D01*
X144080147Y-135194354D01*
X143981544Y-135046784D01*
X143913624Y-134882812D01*
X143879000Y-134708741D01*
X143879000Y-134531259D01*
X143913624Y-134357188D01*
X143981544Y-134193216D01*
X144080147Y-134045646D01*
X144205646Y-133920147D01*
X144353216Y-133821544D01*
X144517188Y-133753624D01*
X144666488Y-133723927D01*
X144691258Y-133719000D01*
X144868742Y-133719000D01*
X144893512Y-133723927D01*
G37*
G36*
X143141000Y-135521000D02*
G01*
X141339000Y-135521000D01*
X141339000Y-133719000D01*
X143141000Y-133719000D01*
X143141000Y-135521000D01*
G37*
G36*
X155053512Y-133723927D02*
G01*
X155202812Y-133753624D01*
X155366784Y-133821544D01*
X155514354Y-133920147D01*
X155639853Y-134045646D01*
X155738456Y-134193216D01*
X155806376Y-134357188D01*
X155841000Y-134531259D01*
X155841000Y-134708741D01*
X155806376Y-134882812D01*
X155738456Y-135046784D01*
X155639853Y-135194354D01*
X155514354Y-135319853D01*
X155366784Y-135418456D01*
X155202812Y-135486376D01*
X155053512Y-135516073D01*
X155028742Y-135521000D01*
X154851258Y-135521000D01*
X154826488Y-135516073D01*
X154677188Y-135486376D01*
X154513216Y-135418456D01*
X154365646Y-135319853D01*
X154240147Y-135194354D01*
X154141544Y-135046784D01*
X154073624Y-134882812D01*
X154039000Y-134708741D01*
X154039000Y-134531259D01*
X154073624Y-134357188D01*
X154141544Y-134193216D01*
X154240147Y-134045646D01*
X154365646Y-133920147D01*
X154513216Y-133821544D01*
X154677188Y-133753624D01*
X154826488Y-133723927D01*
X154851258Y-133719000D01*
X155028742Y-133719000D01*
X155053512Y-133723927D01*
G37*
G36*
X167753512Y-133723927D02*
G01*
X167902812Y-133753624D01*
X168066784Y-133821544D01*
X168214354Y-133920147D01*
X168339853Y-134045646D01*
X168438456Y-134193216D01*
X168506376Y-134357188D01*
X168541000Y-134531259D01*
X168541000Y-134708741D01*
X168506376Y-134882812D01*
X168438456Y-135046784D01*
X168339853Y-135194354D01*
X168214354Y-135319853D01*
X168066784Y-135418456D01*
X167902812Y-135486376D01*
X167753512Y-135516073D01*
X167728742Y-135521000D01*
X167551258Y-135521000D01*
X167526488Y-135516073D01*
X167377188Y-135486376D01*
X167213216Y-135418456D01*
X167065646Y-135319853D01*
X166940147Y-135194354D01*
X166841544Y-135046784D01*
X166773624Y-134882812D01*
X166739000Y-134708741D01*
X166739000Y-134531259D01*
X166773624Y-134357188D01*
X166841544Y-134193216D01*
X166940147Y-134045646D01*
X167065646Y-133920147D01*
X167213216Y-133821544D01*
X167377188Y-133753624D01*
X167526488Y-133723927D01*
X167551258Y-133719000D01*
X167728742Y-133719000D01*
X167753512Y-133723927D01*
G37*
G36*
X165213512Y-133723927D02*
G01*
X165362812Y-133753624D01*
X165526784Y-133821544D01*
X165674354Y-133920147D01*
X165799853Y-134045646D01*
X165898456Y-134193216D01*
X165966376Y-134357188D01*
X166001000Y-134531259D01*
X166001000Y-134708741D01*
X165966376Y-134882812D01*
X165898456Y-135046784D01*
X165799853Y-135194354D01*
X165674354Y-135319853D01*
X165526784Y-135418456D01*
X165362812Y-135486376D01*
X165213512Y-135516073D01*
X165188742Y-135521000D01*
X165011258Y-135521000D01*
X164986488Y-135516073D01*
X164837188Y-135486376D01*
X164673216Y-135418456D01*
X164525646Y-135319853D01*
X164400147Y-135194354D01*
X164301544Y-135046784D01*
X164233624Y-134882812D01*
X164199000Y-134708741D01*
X164199000Y-134531259D01*
X164233624Y-134357188D01*
X164301544Y-134193216D01*
X164400147Y-134045646D01*
X164525646Y-133920147D01*
X164673216Y-133821544D01*
X164837188Y-133753624D01*
X164986488Y-133723927D01*
X165011258Y-133719000D01*
X165188742Y-133719000D01*
X165213512Y-133723927D01*
G37*
G36*
X170293512Y-133723927D02*
G01*
X170442812Y-133753624D01*
X170606784Y-133821544D01*
X170754354Y-133920147D01*
X170879853Y-134045646D01*
X170978456Y-134193216D01*
X171046376Y-134357188D01*
X171081000Y-134531259D01*
X171081000Y-134708741D01*
X171046376Y-134882812D01*
X170978456Y-135046784D01*
X170879853Y-135194354D01*
X170754354Y-135319853D01*
X170606784Y-135418456D01*
X170442812Y-135486376D01*
X170293512Y-135516073D01*
X170268742Y-135521000D01*
X170091258Y-135521000D01*
X170066488Y-135516073D01*
X169917188Y-135486376D01*
X169753216Y-135418456D01*
X169605646Y-135319853D01*
X169480147Y-135194354D01*
X169381544Y-135046784D01*
X169313624Y-134882812D01*
X169279000Y-134708741D01*
X169279000Y-134531259D01*
X169313624Y-134357188D01*
X169381544Y-134193216D01*
X169480147Y-134045646D01*
X169605646Y-133920147D01*
X169753216Y-133821544D01*
X169917188Y-133753624D01*
X170066488Y-133723927D01*
X170091258Y-133719000D01*
X170268742Y-133719000D01*
X170293512Y-133723927D01*
G37*
G36*
X172833512Y-133723927D02*
G01*
X172982812Y-133753624D01*
X173146784Y-133821544D01*
X173294354Y-133920147D01*
X173419853Y-134045646D01*
X173518456Y-134193216D01*
X173586376Y-134357188D01*
X173621000Y-134531259D01*
X173621000Y-134708741D01*
X173586376Y-134882812D01*
X173518456Y-135046784D01*
X173419853Y-135194354D01*
X173294354Y-135319853D01*
X173146784Y-135418456D01*
X172982812Y-135486376D01*
X172833512Y-135516073D01*
X172808742Y-135521000D01*
X172631258Y-135521000D01*
X172606488Y-135516073D01*
X172457188Y-135486376D01*
X172293216Y-135418456D01*
X172145646Y-135319853D01*
X172020147Y-135194354D01*
X171921544Y-135046784D01*
X171853624Y-134882812D01*
X171819000Y-134708741D01*
X171819000Y-134531259D01*
X171853624Y-134357188D01*
X171921544Y-134193216D01*
X172020147Y-134045646D01*
X172145646Y-133920147D01*
X172293216Y-133821544D01*
X172457188Y-133753624D01*
X172606488Y-133723927D01*
X172631258Y-133719000D01*
X172808742Y-133719000D01*
X172833512Y-133723927D01*
G37*
G36*
X175373512Y-133723927D02*
G01*
X175522812Y-133753624D01*
X175686784Y-133821544D01*
X175834354Y-133920147D01*
X175959853Y-134045646D01*
X176058456Y-134193216D01*
X176126376Y-134357188D01*
X176161000Y-134531259D01*
X176161000Y-134708741D01*
X176126376Y-134882812D01*
X176058456Y-135046784D01*
X175959853Y-135194354D01*
X175834354Y-135319853D01*
X175686784Y-135418456D01*
X175522812Y-135486376D01*
X175373512Y-135516073D01*
X175348742Y-135521000D01*
X175171258Y-135521000D01*
X175146488Y-135516073D01*
X174997188Y-135486376D01*
X174833216Y-135418456D01*
X174685646Y-135319853D01*
X174560147Y-135194354D01*
X174461544Y-135046784D01*
X174393624Y-134882812D01*
X174359000Y-134708741D01*
X174359000Y-134531259D01*
X174393624Y-134357188D01*
X174461544Y-134193216D01*
X174560147Y-134045646D01*
X174685646Y-133920147D01*
X174833216Y-133821544D01*
X174997188Y-133753624D01*
X175146488Y-133723927D01*
X175171258Y-133719000D01*
X175348742Y-133719000D01*
X175373512Y-133723927D01*
G37*
G36*
X177913512Y-133723927D02*
G01*
X178062812Y-133753624D01*
X178226784Y-133821544D01*
X178374354Y-133920147D01*
X178499853Y-134045646D01*
X178598456Y-134193216D01*
X178666376Y-134357188D01*
X178701000Y-134531259D01*
X178701000Y-134708741D01*
X178666376Y-134882812D01*
X178598456Y-135046784D01*
X178499853Y-135194354D01*
X178374354Y-135319853D01*
X178226784Y-135418456D01*
X178062812Y-135486376D01*
X177913512Y-135516073D01*
X177888742Y-135521000D01*
X177711258Y-135521000D01*
X177686488Y-135516073D01*
X177537188Y-135486376D01*
X177373216Y-135418456D01*
X177225646Y-135319853D01*
X177100147Y-135194354D01*
X177001544Y-135046784D01*
X176933624Y-134882812D01*
X176899000Y-134708741D01*
X176899000Y-134531259D01*
X176933624Y-134357188D01*
X177001544Y-134193216D01*
X177100147Y-134045646D01*
X177225646Y-133920147D01*
X177373216Y-133821544D01*
X177537188Y-133753624D01*
X177686488Y-133723927D01*
X177711258Y-133719000D01*
X177888742Y-133719000D01*
X177913512Y-133723927D01*
G37*
G36*
X180453512Y-133723927D02*
G01*
X180602812Y-133753624D01*
X180766784Y-133821544D01*
X180914354Y-133920147D01*
X181039853Y-134045646D01*
X181138456Y-134193216D01*
X181206376Y-134357188D01*
X181241000Y-134531259D01*
X181241000Y-134708741D01*
X181206376Y-134882812D01*
X181138456Y-135046784D01*
X181039853Y-135194354D01*
X180914354Y-135319853D01*
X180766784Y-135418456D01*
X180602812Y-135486376D01*
X180453512Y-135516073D01*
X180428742Y-135521000D01*
X180251258Y-135521000D01*
X180226488Y-135516073D01*
X180077188Y-135486376D01*
X179913216Y-135418456D01*
X179765646Y-135319853D01*
X179640147Y-135194354D01*
X179541544Y-135046784D01*
X179473624Y-134882812D01*
X179439000Y-134708741D01*
X179439000Y-134531259D01*
X179473624Y-134357188D01*
X179541544Y-134193216D01*
X179640147Y-134045646D01*
X179765646Y-133920147D01*
X179913216Y-133821544D01*
X180077188Y-133753624D01*
X180226488Y-133723927D01*
X180251258Y-133719000D01*
X180428742Y-133719000D01*
X180453512Y-133723927D01*
G37*
G36*
X182993512Y-133723927D02*
G01*
X183142812Y-133753624D01*
X183306784Y-133821544D01*
X183454354Y-133920147D01*
X183579853Y-134045646D01*
X183678456Y-134193216D01*
X183746376Y-134357188D01*
X183781000Y-134531259D01*
X183781000Y-134708741D01*
X183746376Y-134882812D01*
X183678456Y-135046784D01*
X183579853Y-135194354D01*
X183454354Y-135319853D01*
X183306784Y-135418456D01*
X183142812Y-135486376D01*
X182993512Y-135516073D01*
X182968742Y-135521000D01*
X182791258Y-135521000D01*
X182766488Y-135516073D01*
X182617188Y-135486376D01*
X182453216Y-135418456D01*
X182305646Y-135319853D01*
X182180147Y-135194354D01*
X182081544Y-135046784D01*
X182013624Y-134882812D01*
X181979000Y-134708741D01*
X181979000Y-134531259D01*
X182013624Y-134357188D01*
X182081544Y-134193216D01*
X182180147Y-134045646D01*
X182305646Y-133920147D01*
X182453216Y-133821544D01*
X182617188Y-133753624D01*
X182766488Y-133723927D01*
X182791258Y-133719000D01*
X182968742Y-133719000D01*
X182993512Y-133723927D01*
G37*
G36*
X185533512Y-133723927D02*
G01*
X185682812Y-133753624D01*
X185846784Y-133821544D01*
X185994354Y-133920147D01*
X186119853Y-134045646D01*
X186218456Y-134193216D01*
X186286376Y-134357188D01*
X186321000Y-134531259D01*
X186321000Y-134708741D01*
X186286376Y-134882812D01*
X186218456Y-135046784D01*
X186119853Y-135194354D01*
X185994354Y-135319853D01*
X185846784Y-135418456D01*
X185682812Y-135486376D01*
X185533512Y-135516073D01*
X185508742Y-135521000D01*
X185331258Y-135521000D01*
X185306488Y-135516073D01*
X185157188Y-135486376D01*
X184993216Y-135418456D01*
X184845646Y-135319853D01*
X184720147Y-135194354D01*
X184621544Y-135046784D01*
X184553624Y-134882812D01*
X184519000Y-134708741D01*
X184519000Y-134531259D01*
X184553624Y-134357188D01*
X184621544Y-134193216D01*
X184720147Y-134045646D01*
X184845646Y-133920147D01*
X184993216Y-133821544D01*
X185157188Y-133753624D01*
X185306488Y-133723927D01*
X185331258Y-133719000D01*
X185508742Y-133719000D01*
X185533512Y-133723927D01*
G37*
G36*
X188073512Y-133723927D02*
G01*
X188222812Y-133753624D01*
X188386784Y-133821544D01*
X188534354Y-133920147D01*
X188659853Y-134045646D01*
X188758456Y-134193216D01*
X188826376Y-134357188D01*
X188861000Y-134531259D01*
X188861000Y-134708741D01*
X188826376Y-134882812D01*
X188758456Y-135046784D01*
X188659853Y-135194354D01*
X188534354Y-135319853D01*
X188386784Y-135418456D01*
X188222812Y-135486376D01*
X188073512Y-135516073D01*
X188048742Y-135521000D01*
X187871258Y-135521000D01*
X187846488Y-135516073D01*
X187697188Y-135486376D01*
X187533216Y-135418456D01*
X187385646Y-135319853D01*
X187260147Y-135194354D01*
X187161544Y-135046784D01*
X187093624Y-134882812D01*
X187059000Y-134708741D01*
X187059000Y-134531259D01*
X187093624Y-134357188D01*
X187161544Y-134193216D01*
X187260147Y-134045646D01*
X187385646Y-133920147D01*
X187533216Y-133821544D01*
X187697188Y-133753624D01*
X187846488Y-133723927D01*
X187871258Y-133719000D01*
X188048742Y-133719000D01*
X188073512Y-133723927D01*
G37*
G36*
X129739952Y-132779852D02*
G01*
X129896153Y-132810922D01*
X129988194Y-132849047D01*
X130118359Y-132902963D01*
X130318342Y-133036587D01*
X130488413Y-133206658D01*
X130622037Y-133406641D01*
X130714078Y-133628848D01*
X130752408Y-133821544D01*
X130761000Y-133864742D01*
X130761000Y-134105258D01*
X130714078Y-134341153D01*
X130675953Y-134433194D01*
X130622037Y-134563359D01*
X130488413Y-134763342D01*
X130318342Y-134933413D01*
X130118359Y-135067037D01*
X129988194Y-135120953D01*
X129896153Y-135159078D01*
X129660259Y-135206000D01*
X129419741Y-135206000D01*
X129183847Y-135159078D01*
X129091806Y-135120953D01*
X128961641Y-135067037D01*
X128761658Y-134933413D01*
X128591587Y-134763342D01*
X128457963Y-134563359D01*
X128404047Y-134433194D01*
X128365922Y-134341153D01*
X128319000Y-134105258D01*
X128319000Y-133864742D01*
X128327593Y-133821544D01*
X128365922Y-133628848D01*
X128457963Y-133406641D01*
X128591587Y-133206658D01*
X128761658Y-133036587D01*
X128961641Y-132902963D01*
X129091806Y-132849047D01*
X129183847Y-132810922D01*
X129340048Y-132779852D01*
X129419741Y-132764000D01*
X129660259Y-132764000D01*
X129739952Y-132779852D01*
G37*
G36*
X105523512Y-131183927D02*
G01*
X105672812Y-131213624D01*
X105836784Y-131281544D01*
X105984354Y-131380147D01*
X106109853Y-131505646D01*
X106208456Y-131653216D01*
X106276376Y-131817188D01*
X106311000Y-131991259D01*
X106311000Y-132168741D01*
X106276376Y-132342812D01*
X106208456Y-132506784D01*
X106109853Y-132654354D01*
X105984354Y-132779853D01*
X105836784Y-132878456D01*
X105672812Y-132946376D01*
X105523512Y-132976073D01*
X105498742Y-132981000D01*
X105321258Y-132981000D01*
X105296488Y-132976073D01*
X105147188Y-132946376D01*
X104983216Y-132878456D01*
X104835646Y-132779853D01*
X104710147Y-132654354D01*
X104611544Y-132506784D01*
X104543624Y-132342812D01*
X104509000Y-132168741D01*
X104509000Y-131991259D01*
X104543624Y-131817188D01*
X104611544Y-131653216D01*
X104710147Y-131505646D01*
X104835646Y-131380147D01*
X104983216Y-131281544D01*
X105147188Y-131213624D01*
X105296488Y-131183927D01*
X105321258Y-131179000D01*
X105498742Y-131179000D01*
X105523512Y-131183927D01*
G37*
G36*
X111489903Y-129797075D02*
G01*
X111717571Y-129891378D01*
X111922466Y-130028285D01*
X112096715Y-130202534D01*
X112096716Y-130202536D01*
X112233623Y-130407431D01*
X112327925Y-130635097D01*
X112376000Y-130876786D01*
X112376000Y-131123214D01*
X112327925Y-131364903D01*
X112269628Y-131505646D01*
X112233622Y-131592571D01*
X112096715Y-131797466D01*
X111922466Y-131971715D01*
X111717571Y-132108622D01*
X111717570Y-132108623D01*
X111717569Y-132108623D01*
X111489903Y-132202925D01*
X111248214Y-132251000D01*
X111001786Y-132251000D01*
X110760097Y-132202925D01*
X110532431Y-132108623D01*
X110532430Y-132108623D01*
X110532429Y-132108622D01*
X110327534Y-131971715D01*
X110153285Y-131797466D01*
X110016378Y-131592571D01*
X109980373Y-131505646D01*
X109922075Y-131364903D01*
X109874000Y-131123214D01*
X109874000Y-130876786D01*
X109922075Y-130635097D01*
X110016377Y-130407431D01*
X110153284Y-130202536D01*
X110153285Y-130202534D01*
X110327534Y-130028285D01*
X110532429Y-129891378D01*
X110760097Y-129797075D01*
X111001786Y-129749000D01*
X111248214Y-129749000D01*
X111489903Y-129797075D01*
G37*
G36*
X142370337Y-129129740D02*
G01*
X142461123Y-129157280D01*
X142493055Y-129166966D01*
X142606144Y-129227414D01*
X142705274Y-129308767D01*
X142786626Y-129407895D01*
X142847074Y-129520984D01*
X142847079Y-129521000D01*
X142884300Y-129643702D01*
X142893720Y-129739347D01*
X142893720Y-130603293D01*
X142884300Y-130698938D01*
X142856760Y-130789724D01*
X142847074Y-130821656D01*
X142786626Y-130934745D01*
X142705274Y-131033874D01*
X142606145Y-131115226D01*
X142493056Y-131175674D01*
X142487056Y-131177494D01*
X142370338Y-131212900D01*
X142242720Y-131225469D01*
X142115103Y-131212900D01*
X141998385Y-131177494D01*
X141992385Y-131175674D01*
X141879296Y-131115226D01*
X141780167Y-131033874D01*
X141698815Y-130934745D01*
X141638367Y-130821656D01*
X141634002Y-130807266D01*
X141601140Y-130698938D01*
X141591720Y-130603293D01*
X141591720Y-129739348D01*
X141601140Y-129643703D01*
X141628680Y-129552917D01*
X141638366Y-129520985D01*
X141698814Y-129407896D01*
X141780167Y-129308766D01*
X141879295Y-129227414D01*
X141992384Y-129166966D01*
X142024316Y-129157280D01*
X142115102Y-129129740D01*
X142242720Y-129117171D01*
X142370337Y-129129740D01*
G37*
G36*
X152530337Y-129129740D02*
G01*
X152621123Y-129157280D01*
X152653055Y-129166966D01*
X152766144Y-129227414D01*
X152865274Y-129308767D01*
X152946626Y-129407895D01*
X153007074Y-129520984D01*
X153007079Y-129521000D01*
X153044300Y-129643702D01*
X153053720Y-129739347D01*
X153053720Y-130603293D01*
X153044300Y-130698938D01*
X153016760Y-130789724D01*
X153007074Y-130821656D01*
X152946626Y-130934745D01*
X152865274Y-131033874D01*
X152766145Y-131115226D01*
X152653056Y-131175674D01*
X152647056Y-131177494D01*
X152530338Y-131212900D01*
X152402720Y-131225469D01*
X152275103Y-131212900D01*
X152158385Y-131177494D01*
X152152385Y-131175674D01*
X152039296Y-131115226D01*
X151940167Y-131033874D01*
X151858815Y-130934745D01*
X151798367Y-130821656D01*
X151794002Y-130807266D01*
X151761140Y-130698938D01*
X151751720Y-130603293D01*
X151751720Y-129739348D01*
X151761140Y-129643703D01*
X151788680Y-129552917D01*
X151798366Y-129520985D01*
X151858814Y-129407896D01*
X151940167Y-129308766D01*
X152039295Y-129227414D01*
X152152384Y-129166966D01*
X152184316Y-129157280D01*
X152275102Y-129129740D01*
X152402720Y-129117171D01*
X152530337Y-129129740D01*
G37*
G36*
X155070337Y-129129740D02*
G01*
X155161123Y-129157280D01*
X155193055Y-129166966D01*
X155306144Y-129227414D01*
X155405274Y-129308767D01*
X155486626Y-129407895D01*
X155547074Y-129520984D01*
X155547079Y-129521000D01*
X155584300Y-129643702D01*
X155593720Y-129739347D01*
X155593720Y-130603293D01*
X155584300Y-130698938D01*
X155556760Y-130789724D01*
X155547074Y-130821656D01*
X155486626Y-130934745D01*
X155405274Y-131033874D01*
X155306145Y-131115226D01*
X155193056Y-131175674D01*
X155187056Y-131177494D01*
X155070338Y-131212900D01*
X154942720Y-131225469D01*
X154815103Y-131212900D01*
X154698385Y-131177494D01*
X154692385Y-131175674D01*
X154579296Y-131115226D01*
X154480167Y-131033874D01*
X154398815Y-130934745D01*
X154338367Y-130821656D01*
X154334002Y-130807266D01*
X154301140Y-130698938D01*
X154291720Y-130603293D01*
X154291720Y-129739348D01*
X154301140Y-129643703D01*
X154328680Y-129552917D01*
X154338366Y-129520985D01*
X154398814Y-129407896D01*
X154480167Y-129308766D01*
X154579295Y-129227414D01*
X154692384Y-129166966D01*
X154724316Y-129157280D01*
X154815102Y-129129740D01*
X154942720Y-129117171D01*
X155070337Y-129129740D01*
G37*
G36*
X157610337Y-129129740D02*
G01*
X157701123Y-129157280D01*
X157733055Y-129166966D01*
X157846144Y-129227414D01*
X157945274Y-129308767D01*
X158026626Y-129407895D01*
X158087074Y-129520984D01*
X158087079Y-129521000D01*
X158124300Y-129643702D01*
X158133720Y-129739347D01*
X158133720Y-130603293D01*
X158124300Y-130698938D01*
X158096760Y-130789724D01*
X158087074Y-130821656D01*
X158026626Y-130934745D01*
X157945274Y-131033874D01*
X157846145Y-131115226D01*
X157733056Y-131175674D01*
X157727056Y-131177494D01*
X157610338Y-131212900D01*
X157482720Y-131225469D01*
X157355103Y-131212900D01*
X157238385Y-131177494D01*
X157232385Y-131175674D01*
X157119296Y-131115226D01*
X157020167Y-131033874D01*
X156938815Y-130934745D01*
X156878367Y-130821656D01*
X156874002Y-130807266D01*
X156841140Y-130698938D01*
X156831720Y-130603293D01*
X156831720Y-129739348D01*
X156841140Y-129643703D01*
X156868680Y-129552917D01*
X156878366Y-129520985D01*
X156938814Y-129407896D01*
X157020167Y-129308766D01*
X157119295Y-129227414D01*
X157232384Y-129166966D01*
X157264316Y-129157280D01*
X157355102Y-129129740D01*
X157482720Y-129117171D01*
X157610337Y-129129740D01*
G37*
G36*
X160150337Y-129129740D02*
G01*
X160241123Y-129157280D01*
X160273055Y-129166966D01*
X160386144Y-129227414D01*
X160485274Y-129308767D01*
X160566626Y-129407895D01*
X160627074Y-129520984D01*
X160627079Y-129521000D01*
X160664300Y-129643702D01*
X160673720Y-129739347D01*
X160673720Y-130603293D01*
X160664300Y-130698938D01*
X160636760Y-130789724D01*
X160627074Y-130821656D01*
X160566626Y-130934745D01*
X160485274Y-131033874D01*
X160386145Y-131115226D01*
X160273056Y-131175674D01*
X160267056Y-131177494D01*
X160150338Y-131212900D01*
X160022720Y-131225469D01*
X159895103Y-131212900D01*
X159778385Y-131177494D01*
X159772385Y-131175674D01*
X159659296Y-131115226D01*
X159560167Y-131033874D01*
X159478815Y-130934745D01*
X159418367Y-130821656D01*
X159414002Y-130807266D01*
X159381140Y-130698938D01*
X159371720Y-130603293D01*
X159371720Y-129739348D01*
X159381140Y-129643703D01*
X159408680Y-129552917D01*
X159418366Y-129520985D01*
X159478814Y-129407896D01*
X159560167Y-129308766D01*
X159659295Y-129227414D01*
X159772384Y-129166966D01*
X159804316Y-129157280D01*
X159895102Y-129129740D01*
X160022720Y-129117171D01*
X160150337Y-129129740D01*
G37*
G36*
X180470337Y-129129740D02*
G01*
X180561123Y-129157280D01*
X180593055Y-129166966D01*
X180706144Y-129227414D01*
X180805274Y-129308767D01*
X180886626Y-129407895D01*
X180947074Y-129520984D01*
X180947079Y-129521000D01*
X180984300Y-129643702D01*
X180993720Y-129739347D01*
X180993720Y-130603293D01*
X180984300Y-130698938D01*
X180956760Y-130789724D01*
X180947074Y-130821656D01*
X180886626Y-130934745D01*
X180805274Y-131033874D01*
X180706145Y-131115226D01*
X180593056Y-131175674D01*
X180587056Y-131177494D01*
X180470338Y-131212900D01*
X180342720Y-131225469D01*
X180215103Y-131212900D01*
X180098385Y-131177494D01*
X180092385Y-131175674D01*
X179979296Y-131115226D01*
X179880167Y-131033874D01*
X179798815Y-130934745D01*
X179738367Y-130821656D01*
X179734002Y-130807266D01*
X179701140Y-130698938D01*
X179691720Y-130603293D01*
X179691720Y-129739348D01*
X179701140Y-129643703D01*
X179728680Y-129552917D01*
X179738366Y-129520985D01*
X179798814Y-129407896D01*
X179880167Y-129308766D01*
X179979295Y-129227414D01*
X180092384Y-129166966D01*
X180124316Y-129157280D01*
X180215102Y-129129740D01*
X180342720Y-129117171D01*
X180470337Y-129129740D01*
G37*
G36*
X162690337Y-129129740D02*
G01*
X162781123Y-129157280D01*
X162813055Y-129166966D01*
X162926144Y-129227414D01*
X163025274Y-129308767D01*
X163106626Y-129407895D01*
X163167074Y-129520984D01*
X163167079Y-129521000D01*
X163204300Y-129643702D01*
X163213720Y-129739347D01*
X163213720Y-130603293D01*
X163204300Y-130698938D01*
X163176760Y-130789724D01*
X163167074Y-130821656D01*
X163106626Y-130934745D01*
X163025274Y-131033874D01*
X162926145Y-131115226D01*
X162813056Y-131175674D01*
X162807056Y-131177494D01*
X162690338Y-131212900D01*
X162562720Y-131225469D01*
X162435103Y-131212900D01*
X162318385Y-131177494D01*
X162312385Y-131175674D01*
X162199296Y-131115226D01*
X162100167Y-131033874D01*
X162018815Y-130934745D01*
X161958367Y-130821656D01*
X161954002Y-130807266D01*
X161921140Y-130698938D01*
X161911720Y-130603293D01*
X161911720Y-129739348D01*
X161921140Y-129643703D01*
X161948680Y-129552917D01*
X161958366Y-129520985D01*
X162018814Y-129407896D01*
X162100167Y-129308766D01*
X162199295Y-129227414D01*
X162312384Y-129166966D01*
X162344316Y-129157280D01*
X162435102Y-129129740D01*
X162562720Y-129117171D01*
X162690337Y-129129740D01*
G37*
G36*
X185550337Y-129129740D02*
G01*
X185641123Y-129157280D01*
X185673055Y-129166966D01*
X185786144Y-129227414D01*
X185885274Y-129308767D01*
X185966626Y-129407895D01*
X186027074Y-129520984D01*
X186027079Y-129521000D01*
X186064300Y-129643702D01*
X186073720Y-129739347D01*
X186073720Y-130603293D01*
X186064300Y-130698938D01*
X186036760Y-130789724D01*
X186027074Y-130821656D01*
X185966626Y-130934745D01*
X185885274Y-131033874D01*
X185786145Y-131115226D01*
X185673056Y-131175674D01*
X185667056Y-131177494D01*
X185550338Y-131212900D01*
X185422720Y-131225469D01*
X185295103Y-131212900D01*
X185178385Y-131177494D01*
X185172385Y-131175674D01*
X185059296Y-131115226D01*
X184960167Y-131033874D01*
X184878815Y-130934745D01*
X184818367Y-130821656D01*
X184814002Y-130807266D01*
X184781140Y-130698938D01*
X184771720Y-130603293D01*
X184771720Y-129739348D01*
X184781140Y-129643703D01*
X184808680Y-129552917D01*
X184818366Y-129520985D01*
X184878814Y-129407896D01*
X184960167Y-129308766D01*
X185059295Y-129227414D01*
X185172384Y-129166966D01*
X185204316Y-129157280D01*
X185295102Y-129129740D01*
X185422720Y-129117171D01*
X185550337Y-129129740D01*
G37*
G36*
X149990337Y-129129740D02*
G01*
X150081123Y-129157280D01*
X150113055Y-129166966D01*
X150226144Y-129227414D01*
X150325274Y-129308767D01*
X150406626Y-129407895D01*
X150467074Y-129520984D01*
X150467079Y-129521000D01*
X150504300Y-129643702D01*
X150513720Y-129739347D01*
X150513720Y-130603293D01*
X150504300Y-130698938D01*
X150476760Y-130789724D01*
X150467074Y-130821656D01*
X150406626Y-130934745D01*
X150325274Y-131033874D01*
X150226145Y-131115226D01*
X150113056Y-131175674D01*
X150107056Y-131177494D01*
X149990338Y-131212900D01*
X149862720Y-131225469D01*
X149735103Y-131212900D01*
X149618385Y-131177494D01*
X149612385Y-131175674D01*
X149499296Y-131115226D01*
X149400167Y-131033874D01*
X149318815Y-130934745D01*
X149258367Y-130821656D01*
X149254002Y-130807266D01*
X149221140Y-130698938D01*
X149211720Y-130603293D01*
X149211720Y-129739348D01*
X149221140Y-129643703D01*
X149248680Y-129552917D01*
X149258366Y-129520985D01*
X149318814Y-129407896D01*
X149400167Y-129308766D01*
X149499295Y-129227414D01*
X149612384Y-129166966D01*
X149644316Y-129157280D01*
X149735102Y-129129740D01*
X149862720Y-129117171D01*
X149990337Y-129129740D01*
G37*
G36*
X147450337Y-129129740D02*
G01*
X147541123Y-129157280D01*
X147573055Y-129166966D01*
X147686144Y-129227414D01*
X147785274Y-129308767D01*
X147866626Y-129407895D01*
X147927074Y-129520984D01*
X147927079Y-129521000D01*
X147964300Y-129643702D01*
X147973720Y-129739347D01*
X147973720Y-130603293D01*
X147964300Y-130698938D01*
X147936760Y-130789724D01*
X147927074Y-130821656D01*
X147866626Y-130934745D01*
X147785274Y-131033874D01*
X147686145Y-131115226D01*
X147573056Y-131175674D01*
X147567056Y-131177494D01*
X147450338Y-131212900D01*
X147322720Y-131225469D01*
X147195103Y-131212900D01*
X147078385Y-131177494D01*
X147072385Y-131175674D01*
X146959296Y-131115226D01*
X146860167Y-131033874D01*
X146778815Y-130934745D01*
X146718367Y-130821656D01*
X146714002Y-130807266D01*
X146681140Y-130698938D01*
X146671720Y-130603293D01*
X146671720Y-129739348D01*
X146681140Y-129643703D01*
X146708680Y-129552917D01*
X146718366Y-129520985D01*
X146778814Y-129407896D01*
X146860167Y-129308766D01*
X146959295Y-129227414D01*
X147072384Y-129166966D01*
X147104316Y-129157280D01*
X147195102Y-129129740D01*
X147322720Y-129117171D01*
X147450337Y-129129740D01*
G37*
G36*
X144910337Y-129129740D02*
G01*
X145001123Y-129157280D01*
X145033055Y-129166966D01*
X145146144Y-129227414D01*
X145245274Y-129308767D01*
X145326626Y-129407895D01*
X145387074Y-129520984D01*
X145387079Y-129521000D01*
X145424300Y-129643702D01*
X145433720Y-129739347D01*
X145433720Y-130603293D01*
X145424300Y-130698938D01*
X145396760Y-130789724D01*
X145387074Y-130821656D01*
X145326626Y-130934745D01*
X145245274Y-131033874D01*
X145146145Y-131115226D01*
X145033056Y-131175674D01*
X145027056Y-131177494D01*
X144910338Y-131212900D01*
X144782720Y-131225469D01*
X144655103Y-131212900D01*
X144538385Y-131177494D01*
X144532385Y-131175674D01*
X144419296Y-131115226D01*
X144320167Y-131033874D01*
X144238815Y-130934745D01*
X144178367Y-130821656D01*
X144174002Y-130807266D01*
X144141140Y-130698938D01*
X144131720Y-130603293D01*
X144131720Y-129739348D01*
X144141140Y-129643703D01*
X144168680Y-129552917D01*
X144178366Y-129520985D01*
X144238814Y-129407896D01*
X144320167Y-129308766D01*
X144419295Y-129227414D01*
X144532384Y-129166966D01*
X144564316Y-129157280D01*
X144655102Y-129129740D01*
X144782720Y-129117171D01*
X144910337Y-129129740D01*
G37*
G36*
X165230337Y-129129740D02*
G01*
X165321123Y-129157280D01*
X165353055Y-129166966D01*
X165466144Y-129227414D01*
X165565274Y-129308767D01*
X165646626Y-129407895D01*
X165707074Y-129520984D01*
X165707079Y-129521000D01*
X165744300Y-129643702D01*
X165753720Y-129739347D01*
X165753720Y-130603293D01*
X165744300Y-130698938D01*
X165716760Y-130789724D01*
X165707074Y-130821656D01*
X165646626Y-130934745D01*
X165565274Y-131033874D01*
X165466145Y-131115226D01*
X165353056Y-131175674D01*
X165347056Y-131177494D01*
X165230338Y-131212900D01*
X165102720Y-131225469D01*
X164975103Y-131212900D01*
X164858385Y-131177494D01*
X164852385Y-131175674D01*
X164739296Y-131115226D01*
X164640167Y-131033874D01*
X164558815Y-130934745D01*
X164498367Y-130821656D01*
X164494002Y-130807266D01*
X164461140Y-130698938D01*
X164451720Y-130603293D01*
X164451720Y-129739348D01*
X164461140Y-129643703D01*
X164488680Y-129552917D01*
X164498366Y-129520985D01*
X164558814Y-129407896D01*
X164640167Y-129308766D01*
X164739295Y-129227414D01*
X164852384Y-129166966D01*
X164884316Y-129157280D01*
X164975102Y-129129740D01*
X165102720Y-129117171D01*
X165230337Y-129129740D01*
G37*
G36*
X167770337Y-129129740D02*
G01*
X167861123Y-129157280D01*
X167893055Y-129166966D01*
X168006144Y-129227414D01*
X168105274Y-129308767D01*
X168186626Y-129407895D01*
X168247074Y-129520984D01*
X168247079Y-129521000D01*
X168284300Y-129643702D01*
X168293720Y-129739347D01*
X168293720Y-130603293D01*
X168284300Y-130698938D01*
X168256760Y-130789724D01*
X168247074Y-130821656D01*
X168186626Y-130934745D01*
X168105274Y-131033874D01*
X168006145Y-131115226D01*
X167893056Y-131175674D01*
X167887056Y-131177494D01*
X167770338Y-131212900D01*
X167642720Y-131225469D01*
X167515103Y-131212900D01*
X167398385Y-131177494D01*
X167392385Y-131175674D01*
X167279296Y-131115226D01*
X167180167Y-131033874D01*
X167098815Y-130934745D01*
X167038367Y-130821656D01*
X167034002Y-130807266D01*
X167001140Y-130698938D01*
X166991720Y-130603293D01*
X166991720Y-129739348D01*
X167001140Y-129643703D01*
X167028680Y-129552917D01*
X167038366Y-129520985D01*
X167098814Y-129407896D01*
X167180167Y-129308766D01*
X167279295Y-129227414D01*
X167392384Y-129166966D01*
X167424316Y-129157280D01*
X167515102Y-129129740D01*
X167642720Y-129117171D01*
X167770337Y-129129740D01*
G37*
G36*
X170310337Y-129129740D02*
G01*
X170401123Y-129157280D01*
X170433055Y-129166966D01*
X170546144Y-129227414D01*
X170645274Y-129308767D01*
X170726626Y-129407895D01*
X170787074Y-129520984D01*
X170787079Y-129521000D01*
X170824300Y-129643702D01*
X170833720Y-129739347D01*
X170833720Y-130603293D01*
X170824300Y-130698938D01*
X170796760Y-130789724D01*
X170787074Y-130821656D01*
X170726626Y-130934745D01*
X170645274Y-131033874D01*
X170546145Y-131115226D01*
X170433056Y-131175674D01*
X170427056Y-131177494D01*
X170310338Y-131212900D01*
X170182720Y-131225469D01*
X170055103Y-131212900D01*
X169938385Y-131177494D01*
X169932385Y-131175674D01*
X169819296Y-131115226D01*
X169720167Y-131033874D01*
X169638815Y-130934745D01*
X169578367Y-130821656D01*
X169574002Y-130807266D01*
X169541140Y-130698938D01*
X169531720Y-130603293D01*
X169531720Y-129739348D01*
X169541140Y-129643703D01*
X169568680Y-129552917D01*
X169578366Y-129520985D01*
X169638814Y-129407896D01*
X169720167Y-129308766D01*
X169819295Y-129227414D01*
X169932384Y-129166966D01*
X169964316Y-129157280D01*
X170055102Y-129129740D01*
X170182720Y-129117171D01*
X170310337Y-129129740D01*
G37*
G36*
X172850337Y-129129740D02*
G01*
X172941123Y-129157280D01*
X172973055Y-129166966D01*
X173086144Y-129227414D01*
X173185274Y-129308767D01*
X173266626Y-129407895D01*
X173327074Y-129520984D01*
X173327079Y-129521000D01*
X173364300Y-129643702D01*
X173373720Y-129739347D01*
X173373720Y-130603293D01*
X173364300Y-130698938D01*
X173336760Y-130789724D01*
X173327074Y-130821656D01*
X173266626Y-130934745D01*
X173185274Y-131033874D01*
X173086145Y-131115226D01*
X172973056Y-131175674D01*
X172967056Y-131177494D01*
X172850338Y-131212900D01*
X172722720Y-131225469D01*
X172595103Y-131212900D01*
X172478385Y-131177494D01*
X172472385Y-131175674D01*
X172359296Y-131115226D01*
X172260167Y-131033874D01*
X172178815Y-130934745D01*
X172118367Y-130821656D01*
X172114002Y-130807266D01*
X172081140Y-130698938D01*
X172071720Y-130603293D01*
X172071720Y-129739348D01*
X172081140Y-129643703D01*
X172108680Y-129552917D01*
X172118366Y-129520985D01*
X172178814Y-129407896D01*
X172260167Y-129308766D01*
X172359295Y-129227414D01*
X172472384Y-129166966D01*
X172504316Y-129157280D01*
X172595102Y-129129740D01*
X172722720Y-129117171D01*
X172850337Y-129129740D01*
G37*
G36*
X177930337Y-129129740D02*
G01*
X178021123Y-129157280D01*
X178053055Y-129166966D01*
X178166144Y-129227414D01*
X178265274Y-129308767D01*
X178346626Y-129407895D01*
X178407074Y-129520984D01*
X178407079Y-129521000D01*
X178444300Y-129643702D01*
X178453720Y-129739347D01*
X178453720Y-130603293D01*
X178444300Y-130698938D01*
X178416760Y-130789724D01*
X178407074Y-130821656D01*
X178346626Y-130934745D01*
X178265274Y-131033874D01*
X178166145Y-131115226D01*
X178053056Y-131175674D01*
X178047056Y-131177494D01*
X177930338Y-131212900D01*
X177802720Y-131225469D01*
X177675103Y-131212900D01*
X177558385Y-131177494D01*
X177552385Y-131175674D01*
X177439296Y-131115226D01*
X177340167Y-131033874D01*
X177258815Y-130934745D01*
X177198367Y-130821656D01*
X177194002Y-130807266D01*
X177161140Y-130698938D01*
X177151720Y-130603293D01*
X177151720Y-129739348D01*
X177161140Y-129643703D01*
X177188680Y-129552917D01*
X177198366Y-129520985D01*
X177258814Y-129407896D01*
X177340167Y-129308766D01*
X177439295Y-129227414D01*
X177552384Y-129166966D01*
X177584316Y-129157280D01*
X177675102Y-129129740D01*
X177802720Y-129117171D01*
X177930337Y-129129740D01*
G37*
G36*
X183010337Y-129129740D02*
G01*
X183101123Y-129157280D01*
X183133055Y-129166966D01*
X183246144Y-129227414D01*
X183345274Y-129308767D01*
X183426626Y-129407895D01*
X183487074Y-129520984D01*
X183487079Y-129521000D01*
X183524300Y-129643702D01*
X183533720Y-129739347D01*
X183533720Y-130603293D01*
X183524300Y-130698938D01*
X183496760Y-130789724D01*
X183487074Y-130821656D01*
X183426626Y-130934745D01*
X183345274Y-131033874D01*
X183246145Y-131115226D01*
X183133056Y-131175674D01*
X183127056Y-131177494D01*
X183010338Y-131212900D01*
X182882720Y-131225469D01*
X182755103Y-131212900D01*
X182638385Y-131177494D01*
X182632385Y-131175674D01*
X182519296Y-131115226D01*
X182420167Y-131033874D01*
X182338815Y-130934745D01*
X182278367Y-130821656D01*
X182274002Y-130807266D01*
X182241140Y-130698938D01*
X182231720Y-130603293D01*
X182231720Y-129739348D01*
X182241140Y-129643703D01*
X182268680Y-129552917D01*
X182278366Y-129520985D01*
X182338814Y-129407896D01*
X182420167Y-129308766D01*
X182519295Y-129227414D01*
X182632384Y-129166966D01*
X182664316Y-129157280D01*
X182755102Y-129129740D01*
X182882720Y-129117171D01*
X183010337Y-129129740D01*
G37*
G36*
X188090337Y-129129740D02*
G01*
X188181123Y-129157280D01*
X188213055Y-129166966D01*
X188326144Y-129227414D01*
X188425274Y-129308767D01*
X188506626Y-129407895D01*
X188567074Y-129520984D01*
X188567079Y-129521000D01*
X188604300Y-129643702D01*
X188613720Y-129739347D01*
X188613720Y-130603293D01*
X188604300Y-130698938D01*
X188576760Y-130789724D01*
X188567074Y-130821656D01*
X188506626Y-130934745D01*
X188425274Y-131033874D01*
X188326145Y-131115226D01*
X188213056Y-131175674D01*
X188207056Y-131177494D01*
X188090338Y-131212900D01*
X187962720Y-131225469D01*
X187835103Y-131212900D01*
X187718385Y-131177494D01*
X187712385Y-131175674D01*
X187599296Y-131115226D01*
X187500167Y-131033874D01*
X187418815Y-130934745D01*
X187358367Y-130821656D01*
X187354002Y-130807266D01*
X187321140Y-130698938D01*
X187311720Y-130603293D01*
X187311720Y-129739348D01*
X187321140Y-129643703D01*
X187348680Y-129552917D01*
X187358366Y-129520985D01*
X187418814Y-129407896D01*
X187500167Y-129308766D01*
X187599295Y-129227414D01*
X187712384Y-129166966D01*
X187744316Y-129157280D01*
X187835102Y-129129740D01*
X187962720Y-129117171D01*
X188090337Y-129129740D01*
G37*
G36*
X175701912Y-129125966D02*
G01*
X175751134Y-129140898D01*
X175796498Y-129165146D01*
X175836262Y-129197778D01*
X175868894Y-129237542D01*
X175893142Y-129282906D01*
X175908074Y-129332128D01*
X175913720Y-129389460D01*
X175913720Y-130953180D01*
X175908074Y-131010512D01*
X175893142Y-131059734D01*
X175868894Y-131105098D01*
X175836262Y-131144862D01*
X175796498Y-131177494D01*
X175751134Y-131201742D01*
X175701912Y-131216674D01*
X175644580Y-131222320D01*
X174880860Y-131222320D01*
X174823528Y-131216674D01*
X174774306Y-131201742D01*
X174728942Y-131177494D01*
X174689178Y-131144862D01*
X174656546Y-131105098D01*
X174632298Y-131059734D01*
X174617366Y-131010512D01*
X174611720Y-130953180D01*
X174611720Y-129389460D01*
X174617366Y-129332128D01*
X174632298Y-129282906D01*
X174656546Y-129237542D01*
X174689178Y-129197778D01*
X174728942Y-129165146D01*
X174774306Y-129140898D01*
X174823528Y-129125966D01*
X174880860Y-129120320D01*
X175644580Y-129120320D01*
X175701912Y-129125966D01*
G37*
G36*
X115934903Y-127067075D02*
G01*
X116162571Y-127161378D01*
X116367466Y-127298285D01*
X116541715Y-127472534D01*
X116558971Y-127498360D01*
X116678623Y-127677431D01*
X116757730Y-127868413D01*
X116772925Y-127905097D01*
X116821000Y-128146787D01*
X116821000Y-128393213D01*
X116772925Y-128634903D01*
X116678622Y-128862571D01*
X116541715Y-129067466D01*
X116367466Y-129241715D01*
X116162571Y-129378622D01*
X116162570Y-129378623D01*
X116162569Y-129378623D01*
X115934903Y-129472925D01*
X115693214Y-129521000D01*
X115446786Y-129521000D01*
X115205097Y-129472925D01*
X114977431Y-129378623D01*
X114977430Y-129378623D01*
X114977429Y-129378622D01*
X114772534Y-129241715D01*
X114598285Y-129067466D01*
X114461378Y-128862571D01*
X114367075Y-128634903D01*
X114319000Y-128393213D01*
X114319000Y-128146787D01*
X114367075Y-127905097D01*
X114382270Y-127868413D01*
X114461377Y-127677431D01*
X114581029Y-127498360D01*
X114598285Y-127472534D01*
X114772534Y-127298285D01*
X114977429Y-127161378D01*
X115205097Y-127067075D01*
X115446786Y-127019000D01*
X115693214Y-127019000D01*
X115934903Y-127067075D01*
G37*
G36*
X129896153Y-125745922D02*
G01*
X129988194Y-125784047D01*
X130118359Y-125837963D01*
X130318342Y-125971587D01*
X130488413Y-126141658D01*
X130622037Y-126341641D01*
X130675953Y-126471806D01*
X130714078Y-126563847D01*
X130761000Y-126799742D01*
X130761000Y-127040258D01*
X130714078Y-127276153D01*
X130675953Y-127368194D01*
X130622037Y-127498359D01*
X130488413Y-127698342D01*
X130318342Y-127868413D01*
X130118359Y-128002037D01*
X129988194Y-128055953D01*
X129896153Y-128094078D01*
X129660259Y-128141000D01*
X129419741Y-128141000D01*
X129183847Y-128094078D01*
X129091806Y-128055953D01*
X128961641Y-128002037D01*
X128761658Y-127868413D01*
X128591587Y-127698342D01*
X128457963Y-127498359D01*
X128404047Y-127368194D01*
X128365922Y-127276153D01*
X128319000Y-127040258D01*
X128319000Y-126799742D01*
X128365922Y-126563847D01*
X128404047Y-126471806D01*
X128457963Y-126341641D01*
X128591587Y-126141658D01*
X128761658Y-125971587D01*
X128961641Y-125837963D01*
X129091806Y-125784047D01*
X129183847Y-125745922D01*
X129419741Y-125699000D01*
X129660259Y-125699000D01*
X129896153Y-125745922D01*
G37*
G36*
X106311000Y-127901000D02*
G01*
X104509000Y-127901000D01*
X104509000Y-126099000D01*
X106311000Y-126099000D01*
X106311000Y-127901000D01*
G37*
G36*
X119778205Y-123222461D02*
G01*
X119896153Y-123245922D01*
X119988194Y-123284047D01*
X120118359Y-123337963D01*
X120318342Y-123471587D01*
X120488413Y-123641658D01*
X120622037Y-123841641D01*
X120714078Y-124063848D01*
X120761000Y-124299741D01*
X120761000Y-124540259D01*
X120714078Y-124776152D01*
X120622037Y-124998359D01*
X120488413Y-125198342D01*
X120318342Y-125368413D01*
X120118359Y-125502037D01*
X119988194Y-125555953D01*
X119896153Y-125594078D01*
X119778205Y-125617539D01*
X119660259Y-125641000D01*
X119419741Y-125641000D01*
X119301795Y-125617539D01*
X119183847Y-125594078D01*
X119091806Y-125555953D01*
X118961641Y-125502037D01*
X118761658Y-125368413D01*
X118591587Y-125198342D01*
X118457963Y-124998359D01*
X118365922Y-124776152D01*
X118319000Y-124540259D01*
X118319000Y-124299741D01*
X118365922Y-124063848D01*
X118457963Y-123841641D01*
X118591587Y-123641658D01*
X118761658Y-123471587D01*
X118961641Y-123337963D01*
X119091806Y-123284047D01*
X119183847Y-123245922D01*
X119301795Y-123222461D01*
X119419741Y-123199000D01*
X119660259Y-123199000D01*
X119778205Y-123222461D01*
G37*
G36*
X105523512Y-123563927D02*
G01*
X105672812Y-123593624D01*
X105836784Y-123661544D01*
X105984354Y-123760147D01*
X106109853Y-123885646D01*
X106208456Y-124033216D01*
X106276376Y-124197188D01*
X106311000Y-124371259D01*
X106311000Y-124548741D01*
X106276376Y-124722812D01*
X106208456Y-124886784D01*
X106109853Y-125034354D01*
X105984354Y-125159853D01*
X105836784Y-125258456D01*
X105672812Y-125326376D01*
X105523512Y-125356073D01*
X105498742Y-125361000D01*
X105321258Y-125361000D01*
X105296488Y-125356073D01*
X105147188Y-125326376D01*
X104983216Y-125258456D01*
X104835646Y-125159853D01*
X104710147Y-125034354D01*
X104611544Y-124886784D01*
X104543624Y-124722812D01*
X104509000Y-124548741D01*
X104509000Y-124371259D01*
X104543624Y-124197188D01*
X104611544Y-124033216D01*
X104710147Y-123885646D01*
X104835646Y-123760147D01*
X104983216Y-123661544D01*
X105147188Y-123593624D01*
X105296488Y-123563927D01*
X105321258Y-123559000D01*
X105498742Y-123559000D01*
X105523512Y-123563927D01*
G37*
G36*
X129778205Y-120722461D02*
G01*
X129896153Y-120745922D01*
X129962041Y-120773214D01*
X130118359Y-120837963D01*
X130318342Y-120971587D01*
X130488413Y-121141658D01*
X130622037Y-121341641D01*
X130623696Y-121345647D01*
X130714078Y-121563847D01*
X130761000Y-121799742D01*
X130761000Y-122040258D01*
X130732645Y-122182812D01*
X130714078Y-122276152D01*
X130622037Y-122498359D01*
X130488413Y-122698342D01*
X130318342Y-122868413D01*
X130118359Y-123002037D01*
X129988194Y-123055953D01*
X129896153Y-123094078D01*
X129660259Y-123141000D01*
X129419741Y-123141000D01*
X129183847Y-123094078D01*
X129091806Y-123055953D01*
X128961641Y-123002037D01*
X128761658Y-122868413D01*
X128591587Y-122698342D01*
X128457963Y-122498359D01*
X128365922Y-122276152D01*
X128347356Y-122182812D01*
X128319000Y-122040258D01*
X128319000Y-121799742D01*
X128365922Y-121563847D01*
X128456304Y-121345647D01*
X128457963Y-121341641D01*
X128591587Y-121141658D01*
X128761658Y-120971587D01*
X128961641Y-120837963D01*
X129117959Y-120773214D01*
X129183847Y-120745922D01*
X129301795Y-120722461D01*
X129419741Y-120699000D01*
X129660259Y-120699000D01*
X129778205Y-120722461D01*
G37*
G36*
X105523512Y-121023927D02*
G01*
X105672812Y-121053624D01*
X105836784Y-121121544D01*
X105984354Y-121220147D01*
X106109853Y-121345646D01*
X106208456Y-121493216D01*
X106276376Y-121657188D01*
X106311000Y-121831259D01*
X106311000Y-122008741D01*
X106276376Y-122182812D01*
X106208456Y-122346784D01*
X106109853Y-122494354D01*
X105984354Y-122619853D01*
X105836784Y-122718456D01*
X105672812Y-122786376D01*
X105523512Y-122816073D01*
X105498742Y-122821000D01*
X105321258Y-122821000D01*
X105296488Y-122816073D01*
X105147188Y-122786376D01*
X104983216Y-122718456D01*
X104835646Y-122619853D01*
X104710147Y-122494354D01*
X104611544Y-122346784D01*
X104543624Y-122182812D01*
X104509000Y-122008741D01*
X104509000Y-121831259D01*
X104543624Y-121657188D01*
X104611544Y-121493216D01*
X104710147Y-121345646D01*
X104835646Y-121220147D01*
X104983216Y-121121544D01*
X105147188Y-121053624D01*
X105296488Y-121023927D01*
X105321258Y-121019000D01*
X105498742Y-121019000D01*
X105523512Y-121023927D01*
G37*
G36*
X115934903Y-119447075D02*
G01*
X116162571Y-119541378D01*
X116367466Y-119678285D01*
X116541715Y-119852534D01*
X116541716Y-119852536D01*
X116678623Y-120057431D01*
X116772925Y-120285097D01*
X116821000Y-120526786D01*
X116821000Y-120773214D01*
X116772925Y-121014903D01*
X116720422Y-121141658D01*
X116678622Y-121242571D01*
X116541715Y-121447466D01*
X116367466Y-121621715D01*
X116162571Y-121758622D01*
X116162570Y-121758623D01*
X116162569Y-121758623D01*
X115934903Y-121852925D01*
X115693214Y-121901000D01*
X115446786Y-121901000D01*
X115205097Y-121852925D01*
X114977431Y-121758623D01*
X114977430Y-121758623D01*
X114977429Y-121758622D01*
X114772534Y-121621715D01*
X114598285Y-121447466D01*
X114461378Y-121242571D01*
X114419579Y-121141658D01*
X114367075Y-121014903D01*
X114319000Y-120773214D01*
X114319000Y-120526786D01*
X114367075Y-120285097D01*
X114461377Y-120057431D01*
X114598284Y-119852536D01*
X114598285Y-119852534D01*
X114772534Y-119678285D01*
X114977429Y-119541378D01*
X115205097Y-119447075D01*
X115446786Y-119399000D01*
X115693214Y-119399000D01*
X115934903Y-119447075D01*
G37*
G36*
X111489903Y-117097075D02*
G01*
X111717571Y-117191378D01*
X111922466Y-117328285D01*
X112096715Y-117502534D01*
X112233622Y-117707429D01*
X112327925Y-117935097D01*
X112376000Y-118176787D01*
X112376000Y-118423213D01*
X112327925Y-118664903D01*
X112233622Y-118892571D01*
X112096715Y-119097466D01*
X111922466Y-119271715D01*
X111717571Y-119408622D01*
X111717570Y-119408623D01*
X111717569Y-119408623D01*
X111489903Y-119502925D01*
X111248214Y-119551000D01*
X111001786Y-119551000D01*
X110760097Y-119502925D01*
X110532431Y-119408623D01*
X110532430Y-119408623D01*
X110532429Y-119408622D01*
X110327534Y-119271715D01*
X110153285Y-119097466D01*
X110016378Y-118892571D01*
X109922075Y-118664903D01*
X109874000Y-118423213D01*
X109874000Y-118176787D01*
X109922075Y-117935097D01*
X110016378Y-117707429D01*
X110153285Y-117502534D01*
X110327534Y-117328285D01*
X110532429Y-117191378D01*
X110760097Y-117097075D01*
X111001786Y-117049000D01*
X111248214Y-117049000D01*
X111489903Y-117097075D01*
G37*
G36*
X106311000Y-117741000D02*
G01*
X104509000Y-117741000D01*
X104509000Y-115939000D01*
X106311000Y-115939000D01*
X106311000Y-117741000D01*
G37*
G36*
X129778205Y-113657461D02*
G01*
X129896153Y-113680922D01*
X129988194Y-113719047D01*
X130118359Y-113772963D01*
X130318342Y-113906587D01*
X130488413Y-114076658D01*
X130622037Y-114276641D01*
X130668470Y-114388741D01*
X130714078Y-114498847D01*
X130761000Y-114734742D01*
X130761000Y-114975258D01*
X130716098Y-115201000D01*
X130714078Y-115211152D01*
X130622037Y-115433359D01*
X130488413Y-115633342D01*
X130318342Y-115803413D01*
X130118359Y-115937037D01*
X129988194Y-115990953D01*
X129896153Y-116029078D01*
X129660259Y-116076000D01*
X129419741Y-116076000D01*
X129183847Y-116029078D01*
X129091806Y-115990953D01*
X128961641Y-115937037D01*
X128761658Y-115803413D01*
X128591587Y-115633342D01*
X128457963Y-115433359D01*
X128365922Y-115211152D01*
X128363903Y-115201000D01*
X128319000Y-114975258D01*
X128319000Y-114734742D01*
X128365922Y-114498847D01*
X128411530Y-114388741D01*
X128457963Y-114276641D01*
X128591587Y-114076658D01*
X128761658Y-113906587D01*
X128961641Y-113772963D01*
X129091806Y-113719047D01*
X129183847Y-113680922D01*
X129301795Y-113657461D01*
X129419741Y-113634000D01*
X129660259Y-113634000D01*
X129778205Y-113657461D01*
G37*
G36*
X105523512Y-113403927D02*
G01*
X105672812Y-113433624D01*
X105836784Y-113501544D01*
X105984354Y-113600147D01*
X106109853Y-113725646D01*
X106208456Y-113873216D01*
X106276376Y-114037188D01*
X106311000Y-114211259D01*
X106311000Y-114388741D01*
X106276376Y-114562812D01*
X106208456Y-114726784D01*
X106109853Y-114874354D01*
X105984354Y-114999853D01*
X105836784Y-115098456D01*
X105672812Y-115166376D01*
X105523512Y-115196073D01*
X105498742Y-115201000D01*
X105321258Y-115201000D01*
X105296488Y-115196073D01*
X105147188Y-115166376D01*
X104983216Y-115098456D01*
X104835646Y-114999853D01*
X104710147Y-114874354D01*
X104611544Y-114726784D01*
X104543624Y-114562812D01*
X104509000Y-114388741D01*
X104509000Y-114211259D01*
X104543624Y-114037188D01*
X104611544Y-113873216D01*
X104710147Y-113725646D01*
X104835646Y-113600147D01*
X104983216Y-113501544D01*
X105147188Y-113433624D01*
X105296488Y-113403927D01*
X105321258Y-113399000D01*
X105498742Y-113399000D01*
X105523512Y-113403927D01*
G37*
G36*
X119778205Y-111157461D02*
G01*
X119896153Y-111180922D01*
X119988194Y-111219047D01*
X120118359Y-111272963D01*
X120318342Y-111406587D01*
X120488413Y-111576658D01*
X120622037Y-111776641D01*
X120714078Y-111998848D01*
X120761000Y-112234741D01*
X120761000Y-112475259D01*
X120714078Y-112711152D01*
X120622037Y-112933359D01*
X120488413Y-113133342D01*
X120318342Y-113303413D01*
X120118359Y-113437037D01*
X119988194Y-113490953D01*
X119896153Y-113529078D01*
X119778205Y-113552539D01*
X119660259Y-113576000D01*
X119419741Y-113576000D01*
X119301795Y-113552539D01*
X119183847Y-113529078D01*
X119091806Y-113490953D01*
X118961641Y-113437037D01*
X118761658Y-113303413D01*
X118591587Y-113133342D01*
X118457963Y-112933359D01*
X118365922Y-112711152D01*
X118319000Y-112475259D01*
X118319000Y-112234741D01*
X118365922Y-111998848D01*
X118457963Y-111776641D01*
X118591587Y-111576658D01*
X118761658Y-111406587D01*
X118961641Y-111272963D01*
X119091806Y-111219047D01*
X119183847Y-111180922D01*
X119301795Y-111157461D01*
X119419741Y-111134000D01*
X119660259Y-111134000D01*
X119778205Y-111157461D01*
G37*
G36*
X105523512Y-110863927D02*
G01*
X105672812Y-110893624D01*
X105836784Y-110961544D01*
X105984354Y-111060147D01*
X106109853Y-111185646D01*
X106208456Y-111333216D01*
X106276376Y-111497188D01*
X106311000Y-111671259D01*
X106311000Y-111848741D01*
X106276376Y-112022812D01*
X106208456Y-112186784D01*
X106109853Y-112334354D01*
X105984354Y-112459853D01*
X105836784Y-112558456D01*
X105672812Y-112626376D01*
X105523512Y-112656073D01*
X105498742Y-112661000D01*
X105321258Y-112661000D01*
X105296488Y-112656073D01*
X105147188Y-112626376D01*
X104983216Y-112558456D01*
X104835646Y-112459853D01*
X104710147Y-112334354D01*
X104611544Y-112186784D01*
X104543624Y-112022812D01*
X104509000Y-111848741D01*
X104509000Y-111671259D01*
X104543624Y-111497188D01*
X104611544Y-111333216D01*
X104710147Y-111185646D01*
X104835646Y-111060147D01*
X104983216Y-110961544D01*
X105147188Y-110893624D01*
X105296488Y-110863927D01*
X105321258Y-110859000D01*
X105498742Y-110859000D01*
X105523512Y-110863927D01*
G37*
G36*
X129896153Y-108680922D02*
G01*
X129988194Y-108719047D01*
X130118359Y-108772963D01*
X130318342Y-108906587D01*
X130488413Y-109076658D01*
X130622037Y-109276641D01*
X130714078Y-109498848D01*
X130761000Y-109734741D01*
X130761000Y-109975259D01*
X130714078Y-110211152D01*
X130622037Y-110433359D01*
X130488413Y-110633342D01*
X130318342Y-110803413D01*
X130118359Y-110937037D01*
X129988194Y-110990953D01*
X129896153Y-111029078D01*
X129778205Y-111052539D01*
X129660259Y-111076000D01*
X129419741Y-111076000D01*
X129301795Y-111052539D01*
X129183847Y-111029078D01*
X129091806Y-110990953D01*
X128961641Y-110937037D01*
X128761658Y-110803413D01*
X128591587Y-110633342D01*
X128457963Y-110433359D01*
X128365922Y-110211152D01*
X128319000Y-109975259D01*
X128319000Y-109734741D01*
X128365922Y-109498848D01*
X128457963Y-109276641D01*
X128591587Y-109076658D01*
X128761658Y-108906587D01*
X128961641Y-108772963D01*
X129091806Y-108719047D01*
X129183847Y-108680922D01*
X129419741Y-108634000D01*
X129660259Y-108634000D01*
X129896153Y-108680922D01*
G37*
G36*
X115934903Y-106747075D02*
G01*
X116162571Y-106841378D01*
X116367466Y-106978285D01*
X116541715Y-107152534D01*
X116678622Y-107357429D01*
X116772925Y-107585097D01*
X116821000Y-107826787D01*
X116821000Y-108073213D01*
X116772925Y-108314903D01*
X116678622Y-108542571D01*
X116541715Y-108747466D01*
X116367466Y-108921715D01*
X116162571Y-109058622D01*
X116162570Y-109058623D01*
X116162569Y-109058623D01*
X115934903Y-109152925D01*
X115693214Y-109201000D01*
X115446786Y-109201000D01*
X115205097Y-109152925D01*
X114977431Y-109058623D01*
X114977430Y-109058623D01*
X114977429Y-109058622D01*
X114772534Y-108921715D01*
X114598285Y-108747466D01*
X114461378Y-108542571D01*
X114367075Y-108314903D01*
X114319000Y-108073213D01*
X114319000Y-107826787D01*
X114367075Y-107585097D01*
X114461378Y-107357429D01*
X114598285Y-107152534D01*
X114772534Y-106978285D01*
X114977429Y-106841378D01*
X115205097Y-106747075D01*
X115446786Y-106699000D01*
X115693214Y-106699000D01*
X115934903Y-106747075D01*
G37*
G36*
X106311000Y-107581000D02*
G01*
X104509000Y-107581000D01*
X104509000Y-105779000D01*
X106311000Y-105779000D01*
X106311000Y-107581000D01*
G37*
G36*
X185547617Y-103733420D02*
G01*
X185638403Y-103760960D01*
X185670335Y-103770646D01*
X185783424Y-103831094D01*
X185882554Y-103912447D01*
X185963906Y-104011575D01*
X186024354Y-104124664D01*
X186034040Y-104156596D01*
X186061580Y-104247382D01*
X186061580Y-104247384D01*
X186070638Y-104339346D01*
X186071000Y-104343027D01*
X186071000Y-105206973D01*
X186061580Y-105302618D01*
X186034040Y-105393404D01*
X186024354Y-105425336D01*
X185963906Y-105538425D01*
X185882554Y-105637554D01*
X185783425Y-105718906D01*
X185670336Y-105779354D01*
X185638404Y-105789040D01*
X185547618Y-105816580D01*
X185420000Y-105829149D01*
X185292383Y-105816580D01*
X185201597Y-105789040D01*
X185169665Y-105779354D01*
X185056576Y-105718906D01*
X184957447Y-105637554D01*
X184876095Y-105538425D01*
X184815647Y-105425336D01*
X184811282Y-105410946D01*
X184778420Y-105302618D01*
X184769000Y-105206973D01*
X184769000Y-104343028D01*
X184769363Y-104339347D01*
X184778420Y-104247385D01*
X184778420Y-104247383D01*
X184815645Y-104124669D01*
X184815646Y-104124665D01*
X184876094Y-104011576D01*
X184957447Y-103912446D01*
X185056575Y-103831094D01*
X185169664Y-103770646D01*
X185201596Y-103760960D01*
X185292382Y-103733420D01*
X185420000Y-103720851D01*
X185547617Y-103733420D01*
G37*
G36*
X188087617Y-103733420D02*
G01*
X188178403Y-103760960D01*
X188210335Y-103770646D01*
X188323424Y-103831094D01*
X188422554Y-103912447D01*
X188503906Y-104011575D01*
X188564354Y-104124664D01*
X188574040Y-104156596D01*
X188601580Y-104247382D01*
X188601580Y-104247384D01*
X188610638Y-104339346D01*
X188611000Y-104343027D01*
X188611000Y-105206973D01*
X188601580Y-105302618D01*
X188574040Y-105393404D01*
X188564354Y-105425336D01*
X188503906Y-105538425D01*
X188422554Y-105637554D01*
X188323425Y-105718906D01*
X188210336Y-105779354D01*
X188178404Y-105789040D01*
X188087618Y-105816580D01*
X187960000Y-105829149D01*
X187832383Y-105816580D01*
X187741597Y-105789040D01*
X187709665Y-105779354D01*
X187596576Y-105718906D01*
X187497447Y-105637554D01*
X187416095Y-105538425D01*
X187355647Y-105425336D01*
X187351282Y-105410946D01*
X187318420Y-105302618D01*
X187309000Y-105206973D01*
X187309000Y-104343028D01*
X187309363Y-104339347D01*
X187318420Y-104247385D01*
X187318420Y-104247383D01*
X187355645Y-104124669D01*
X187355646Y-104124665D01*
X187416094Y-104011576D01*
X187497447Y-103912446D01*
X187596575Y-103831094D01*
X187709664Y-103770646D01*
X187741596Y-103760960D01*
X187832382Y-103733420D01*
X187960000Y-103720851D01*
X188087617Y-103733420D01*
G37*
G36*
X162690337Y-103729740D02*
G01*
X162781123Y-103757280D01*
X162813055Y-103766966D01*
X162926144Y-103827414D01*
X163025274Y-103908767D01*
X163106626Y-104007895D01*
X163167074Y-104120984D01*
X163168192Y-104124669D01*
X163204300Y-104243702D01*
X163204663Y-104247385D01*
X163213720Y-104339346D01*
X163213720Y-105203294D01*
X163210580Y-105235175D01*
X163204300Y-105298938D01*
X163176760Y-105389724D01*
X163167074Y-105421656D01*
X163106626Y-105534745D01*
X163025274Y-105633874D01*
X162926145Y-105715226D01*
X162813056Y-105775674D01*
X162807056Y-105777494D01*
X162690338Y-105812900D01*
X162562720Y-105825469D01*
X162435103Y-105812900D01*
X162318385Y-105777494D01*
X162312385Y-105775674D01*
X162199296Y-105715226D01*
X162100167Y-105633874D01*
X162018815Y-105534745D01*
X161958367Y-105421656D01*
X161954002Y-105407266D01*
X161921140Y-105298938D01*
X161911720Y-105203293D01*
X161911720Y-104339348D01*
X161921140Y-104243703D01*
X161948680Y-104152917D01*
X161958366Y-104120985D01*
X162018814Y-104007896D01*
X162100167Y-103908766D01*
X162199295Y-103827414D01*
X162312384Y-103766966D01*
X162344316Y-103757280D01*
X162435102Y-103729740D01*
X162562720Y-103717171D01*
X162690337Y-103729740D01*
G37*
G36*
X155070337Y-103729740D02*
G01*
X155161123Y-103757280D01*
X155193055Y-103766966D01*
X155306144Y-103827414D01*
X155405274Y-103908767D01*
X155486626Y-104007895D01*
X155547074Y-104120984D01*
X155548192Y-104124669D01*
X155584300Y-104243702D01*
X155584663Y-104247385D01*
X155593720Y-104339346D01*
X155593720Y-105203294D01*
X155590580Y-105235175D01*
X155584300Y-105298938D01*
X155556760Y-105389724D01*
X155547074Y-105421656D01*
X155486626Y-105534745D01*
X155405274Y-105633874D01*
X155306145Y-105715226D01*
X155193056Y-105775674D01*
X155187056Y-105777494D01*
X155070338Y-105812900D01*
X154942720Y-105825469D01*
X154815103Y-105812900D01*
X154698385Y-105777494D01*
X154692385Y-105775674D01*
X154579296Y-105715226D01*
X154480167Y-105633874D01*
X154398815Y-105534745D01*
X154338367Y-105421656D01*
X154334002Y-105407266D01*
X154301140Y-105298938D01*
X154291720Y-105203293D01*
X154291720Y-104339348D01*
X154301140Y-104243703D01*
X154328680Y-104152917D01*
X154338366Y-104120985D01*
X154398814Y-104007896D01*
X154480167Y-103908766D01*
X154579295Y-103827414D01*
X154692384Y-103766966D01*
X154724316Y-103757280D01*
X154815102Y-103729740D01*
X154942720Y-103717171D01*
X155070337Y-103729740D01*
G37*
G36*
X157610337Y-103729740D02*
G01*
X157701123Y-103757280D01*
X157733055Y-103766966D01*
X157846144Y-103827414D01*
X157945274Y-103908767D01*
X158026626Y-104007895D01*
X158087074Y-104120984D01*
X158088192Y-104124669D01*
X158124300Y-104243702D01*
X158124663Y-104247385D01*
X158133720Y-104339346D01*
X158133720Y-105203294D01*
X158130580Y-105235175D01*
X158124300Y-105298938D01*
X158096760Y-105389724D01*
X158087074Y-105421656D01*
X158026626Y-105534745D01*
X157945274Y-105633874D01*
X157846145Y-105715226D01*
X157733056Y-105775674D01*
X157727056Y-105777494D01*
X157610338Y-105812900D01*
X157482720Y-105825469D01*
X157355103Y-105812900D01*
X157238385Y-105777494D01*
X157232385Y-105775674D01*
X157119296Y-105715226D01*
X157020167Y-105633874D01*
X156938815Y-105534745D01*
X156878367Y-105421656D01*
X156874002Y-105407266D01*
X156841140Y-105298938D01*
X156831720Y-105203293D01*
X156831720Y-104339348D01*
X156841140Y-104243703D01*
X156868680Y-104152917D01*
X156878366Y-104120985D01*
X156938814Y-104007896D01*
X157020167Y-103908766D01*
X157119295Y-103827414D01*
X157232384Y-103766966D01*
X157264316Y-103757280D01*
X157355102Y-103729740D01*
X157482720Y-103717171D01*
X157610337Y-103729740D01*
G37*
G36*
X160150337Y-103729740D02*
G01*
X160241123Y-103757280D01*
X160273055Y-103766966D01*
X160386144Y-103827414D01*
X160485274Y-103908767D01*
X160566626Y-104007895D01*
X160627074Y-104120984D01*
X160628192Y-104124669D01*
X160664300Y-104243702D01*
X160664663Y-104247385D01*
X160673720Y-104339346D01*
X160673720Y-105203294D01*
X160670580Y-105235175D01*
X160664300Y-105298938D01*
X160636760Y-105389724D01*
X160627074Y-105421656D01*
X160566626Y-105534745D01*
X160485274Y-105633874D01*
X160386145Y-105715226D01*
X160273056Y-105775674D01*
X160267056Y-105777494D01*
X160150338Y-105812900D01*
X160022720Y-105825469D01*
X159895103Y-105812900D01*
X159778385Y-105777494D01*
X159772385Y-105775674D01*
X159659296Y-105715226D01*
X159560167Y-105633874D01*
X159478815Y-105534745D01*
X159418367Y-105421656D01*
X159414002Y-105407266D01*
X159381140Y-105298938D01*
X159371720Y-105203293D01*
X159371720Y-104339348D01*
X159381140Y-104243703D01*
X159408680Y-104152917D01*
X159418366Y-104120985D01*
X159478814Y-104007896D01*
X159560167Y-103908766D01*
X159659295Y-103827414D01*
X159772384Y-103766966D01*
X159804316Y-103757280D01*
X159895102Y-103729740D01*
X160022720Y-103717171D01*
X160150337Y-103729740D01*
G37*
G36*
X165230337Y-103729740D02*
G01*
X165321123Y-103757280D01*
X165353055Y-103766966D01*
X165466144Y-103827414D01*
X165565274Y-103908767D01*
X165646626Y-104007895D01*
X165707074Y-104120984D01*
X165708192Y-104124669D01*
X165744300Y-104243702D01*
X165744663Y-104247385D01*
X165753720Y-104339346D01*
X165753720Y-105203294D01*
X165750580Y-105235175D01*
X165744300Y-105298938D01*
X165716760Y-105389724D01*
X165707074Y-105421656D01*
X165646626Y-105534745D01*
X165565274Y-105633874D01*
X165466145Y-105715226D01*
X165353056Y-105775674D01*
X165347056Y-105777494D01*
X165230338Y-105812900D01*
X165102720Y-105825469D01*
X164975103Y-105812900D01*
X164858385Y-105777494D01*
X164852385Y-105775674D01*
X164739296Y-105715226D01*
X164640167Y-105633874D01*
X164558815Y-105534745D01*
X164498367Y-105421656D01*
X164494002Y-105407266D01*
X164461140Y-105298938D01*
X164451720Y-105203293D01*
X164451720Y-104339348D01*
X164461140Y-104243703D01*
X164488680Y-104152917D01*
X164498366Y-104120985D01*
X164558814Y-104007896D01*
X164640167Y-103908766D01*
X164739295Y-103827414D01*
X164852384Y-103766966D01*
X164884316Y-103757280D01*
X164975102Y-103729740D01*
X165102720Y-103717171D01*
X165230337Y-103729740D01*
G37*
G36*
X167770337Y-103729740D02*
G01*
X167861123Y-103757280D01*
X167893055Y-103766966D01*
X168006144Y-103827414D01*
X168105274Y-103908767D01*
X168186626Y-104007895D01*
X168247074Y-104120984D01*
X168248192Y-104124669D01*
X168284300Y-104243702D01*
X168284663Y-104247385D01*
X168293720Y-104339346D01*
X168293720Y-105203294D01*
X168290580Y-105235175D01*
X168284300Y-105298938D01*
X168256760Y-105389724D01*
X168247074Y-105421656D01*
X168186626Y-105534745D01*
X168105274Y-105633874D01*
X168006145Y-105715226D01*
X167893056Y-105775674D01*
X167887056Y-105777494D01*
X167770338Y-105812900D01*
X167642720Y-105825469D01*
X167515103Y-105812900D01*
X167398385Y-105777494D01*
X167392385Y-105775674D01*
X167279296Y-105715226D01*
X167180167Y-105633874D01*
X167098815Y-105534745D01*
X167038367Y-105421656D01*
X167034002Y-105407266D01*
X167001140Y-105298938D01*
X166991720Y-105203293D01*
X166991720Y-104339348D01*
X167001140Y-104243703D01*
X167028680Y-104152917D01*
X167038366Y-104120985D01*
X167098814Y-104007896D01*
X167180167Y-103908766D01*
X167279295Y-103827414D01*
X167392384Y-103766966D01*
X167424316Y-103757280D01*
X167515102Y-103729740D01*
X167642720Y-103717171D01*
X167770337Y-103729740D01*
G37*
G36*
X172850337Y-103729740D02*
G01*
X172941123Y-103757280D01*
X172973055Y-103766966D01*
X173086144Y-103827414D01*
X173185274Y-103908767D01*
X173266626Y-104007895D01*
X173327074Y-104120984D01*
X173328192Y-104124669D01*
X173364300Y-104243702D01*
X173364663Y-104247385D01*
X173373720Y-104339346D01*
X173373720Y-105203294D01*
X173370580Y-105235175D01*
X173364300Y-105298938D01*
X173336760Y-105389724D01*
X173327074Y-105421656D01*
X173266626Y-105534745D01*
X173185274Y-105633874D01*
X173086145Y-105715226D01*
X172973056Y-105775674D01*
X172967056Y-105777494D01*
X172850338Y-105812900D01*
X172722720Y-105825469D01*
X172595103Y-105812900D01*
X172478385Y-105777494D01*
X172472385Y-105775674D01*
X172359296Y-105715226D01*
X172260167Y-105633874D01*
X172178815Y-105534745D01*
X172118367Y-105421656D01*
X172114002Y-105407266D01*
X172081140Y-105298938D01*
X172071720Y-105203293D01*
X172071720Y-104339348D01*
X172081140Y-104243703D01*
X172108680Y-104152917D01*
X172118366Y-104120985D01*
X172178814Y-104007896D01*
X172260167Y-103908766D01*
X172359295Y-103827414D01*
X172472384Y-103766966D01*
X172504316Y-103757280D01*
X172595102Y-103729740D01*
X172722720Y-103717171D01*
X172850337Y-103729740D01*
G37*
G36*
X175390337Y-103729740D02*
G01*
X175481123Y-103757280D01*
X175513055Y-103766966D01*
X175626144Y-103827414D01*
X175725274Y-103908767D01*
X175806626Y-104007895D01*
X175867074Y-104120984D01*
X175868192Y-104124669D01*
X175904300Y-104243702D01*
X175904663Y-104247385D01*
X175913720Y-104339346D01*
X175913720Y-105203294D01*
X175910580Y-105235175D01*
X175904300Y-105298938D01*
X175876760Y-105389724D01*
X175867074Y-105421656D01*
X175806626Y-105534745D01*
X175725274Y-105633874D01*
X175626145Y-105715226D01*
X175513056Y-105775674D01*
X175507056Y-105777494D01*
X175390338Y-105812900D01*
X175262720Y-105825469D01*
X175135103Y-105812900D01*
X175018385Y-105777494D01*
X175012385Y-105775674D01*
X174899296Y-105715226D01*
X174800167Y-105633874D01*
X174718815Y-105534745D01*
X174658367Y-105421656D01*
X174654002Y-105407266D01*
X174621140Y-105298938D01*
X174611720Y-105203293D01*
X174611720Y-104339348D01*
X174621140Y-104243703D01*
X174648680Y-104152917D01*
X174658366Y-104120985D01*
X174718814Y-104007896D01*
X174800167Y-103908766D01*
X174899295Y-103827414D01*
X175012384Y-103766966D01*
X175044316Y-103757280D01*
X175135102Y-103729740D01*
X175262720Y-103717171D01*
X175390337Y-103729740D01*
G37*
G36*
X180470337Y-103729740D02*
G01*
X180561123Y-103757280D01*
X180593055Y-103766966D01*
X180706144Y-103827414D01*
X180805274Y-103908767D01*
X180886626Y-104007895D01*
X180947074Y-104120984D01*
X180948192Y-104124669D01*
X180984300Y-104243702D01*
X180984663Y-104247385D01*
X180993720Y-104339346D01*
X180993720Y-105203294D01*
X180990580Y-105235175D01*
X180984300Y-105298938D01*
X180956760Y-105389724D01*
X180947074Y-105421656D01*
X180886626Y-105534745D01*
X180805274Y-105633874D01*
X180706145Y-105715226D01*
X180593056Y-105775674D01*
X180587056Y-105777494D01*
X180470338Y-105812900D01*
X180342720Y-105825469D01*
X180215103Y-105812900D01*
X180098385Y-105777494D01*
X180092385Y-105775674D01*
X179979296Y-105715226D01*
X179880167Y-105633874D01*
X179798815Y-105534745D01*
X179738367Y-105421656D01*
X179734002Y-105407266D01*
X179701140Y-105298938D01*
X179691720Y-105203293D01*
X179691720Y-104339348D01*
X179701140Y-104243703D01*
X179728680Y-104152917D01*
X179738366Y-104120985D01*
X179798814Y-104007896D01*
X179880167Y-103908766D01*
X179979295Y-103827414D01*
X180092384Y-103766966D01*
X180124316Y-103757280D01*
X180215102Y-103729740D01*
X180342720Y-103717171D01*
X180470337Y-103729740D01*
G37*
G36*
X183010337Y-103729740D02*
G01*
X183101123Y-103757280D01*
X183133055Y-103766966D01*
X183246144Y-103827414D01*
X183345274Y-103908767D01*
X183426626Y-104007895D01*
X183487074Y-104120984D01*
X183488192Y-104124669D01*
X183524300Y-104243702D01*
X183524663Y-104247385D01*
X183533720Y-104339346D01*
X183533720Y-105203294D01*
X183530580Y-105235175D01*
X183524300Y-105298938D01*
X183496760Y-105389724D01*
X183487074Y-105421656D01*
X183426626Y-105534745D01*
X183345274Y-105633874D01*
X183246145Y-105715226D01*
X183133056Y-105775674D01*
X183127056Y-105777494D01*
X183010338Y-105812900D01*
X182882720Y-105825469D01*
X182755103Y-105812900D01*
X182638385Y-105777494D01*
X182632385Y-105775674D01*
X182519296Y-105715226D01*
X182420167Y-105633874D01*
X182338815Y-105534745D01*
X182278367Y-105421656D01*
X182274002Y-105407266D01*
X182241140Y-105298938D01*
X182231720Y-105203293D01*
X182231720Y-104339348D01*
X182241140Y-104243703D01*
X182268680Y-104152917D01*
X182278366Y-104120985D01*
X182338814Y-104007896D01*
X182420167Y-103908766D01*
X182519295Y-103827414D01*
X182632384Y-103766966D01*
X182664316Y-103757280D01*
X182755102Y-103729740D01*
X182882720Y-103717171D01*
X183010337Y-103729740D01*
G37*
G36*
X144910337Y-103729740D02*
G01*
X145001123Y-103757280D01*
X145033055Y-103766966D01*
X145146144Y-103827414D01*
X145245274Y-103908767D01*
X145326626Y-104007895D01*
X145387074Y-104120984D01*
X145388192Y-104124669D01*
X145424300Y-104243702D01*
X145424663Y-104247385D01*
X145433720Y-104339346D01*
X145433720Y-105203294D01*
X145430580Y-105235175D01*
X145424300Y-105298938D01*
X145396760Y-105389724D01*
X145387074Y-105421656D01*
X145326626Y-105534745D01*
X145245274Y-105633874D01*
X145146145Y-105715226D01*
X145033056Y-105775674D01*
X145027056Y-105777494D01*
X144910338Y-105812900D01*
X144782720Y-105825469D01*
X144655103Y-105812900D01*
X144538385Y-105777494D01*
X144532385Y-105775674D01*
X144419296Y-105715226D01*
X144320167Y-105633874D01*
X144238815Y-105534745D01*
X144178367Y-105421656D01*
X144174002Y-105407266D01*
X144141140Y-105298938D01*
X144131720Y-105203293D01*
X144131720Y-104339348D01*
X144141140Y-104243703D01*
X144168680Y-104152917D01*
X144178366Y-104120985D01*
X144238814Y-104007896D01*
X144320167Y-103908766D01*
X144419295Y-103827414D01*
X144532384Y-103766966D01*
X144564316Y-103757280D01*
X144655102Y-103729740D01*
X144782720Y-103717171D01*
X144910337Y-103729740D01*
G37*
G36*
X152530337Y-103729740D02*
G01*
X152621123Y-103757280D01*
X152653055Y-103766966D01*
X152766144Y-103827414D01*
X152865274Y-103908767D01*
X152946626Y-104007895D01*
X153007074Y-104120984D01*
X153008192Y-104124669D01*
X153044300Y-104243702D01*
X153044663Y-104247385D01*
X153053720Y-104339346D01*
X153053720Y-105203294D01*
X153050580Y-105235175D01*
X153044300Y-105298938D01*
X153016760Y-105389724D01*
X153007074Y-105421656D01*
X152946626Y-105534745D01*
X152865274Y-105633874D01*
X152766145Y-105715226D01*
X152653056Y-105775674D01*
X152647056Y-105777494D01*
X152530338Y-105812900D01*
X152402720Y-105825469D01*
X152275103Y-105812900D01*
X152158385Y-105777494D01*
X152152385Y-105775674D01*
X152039296Y-105715226D01*
X151940167Y-105633874D01*
X151858815Y-105534745D01*
X151798367Y-105421656D01*
X151794002Y-105407266D01*
X151761140Y-105298938D01*
X151751720Y-105203293D01*
X151751720Y-104339348D01*
X151761140Y-104243703D01*
X151788680Y-104152917D01*
X151798366Y-104120985D01*
X151858814Y-104007896D01*
X151940167Y-103908766D01*
X152039295Y-103827414D01*
X152152384Y-103766966D01*
X152184316Y-103757280D01*
X152275102Y-103729740D01*
X152402720Y-103717171D01*
X152530337Y-103729740D01*
G37*
G36*
X147450337Y-103729740D02*
G01*
X147541123Y-103757280D01*
X147573055Y-103766966D01*
X147686144Y-103827414D01*
X147785274Y-103908767D01*
X147866626Y-104007895D01*
X147927074Y-104120984D01*
X147928192Y-104124669D01*
X147964300Y-104243702D01*
X147964663Y-104247385D01*
X147973720Y-104339346D01*
X147973720Y-105203294D01*
X147970580Y-105235175D01*
X147964300Y-105298938D01*
X147936760Y-105389724D01*
X147927074Y-105421656D01*
X147866626Y-105534745D01*
X147785274Y-105633874D01*
X147686145Y-105715226D01*
X147573056Y-105775674D01*
X147567056Y-105777494D01*
X147450338Y-105812900D01*
X147322720Y-105825469D01*
X147195103Y-105812900D01*
X147078385Y-105777494D01*
X147072385Y-105775674D01*
X146959296Y-105715226D01*
X146860167Y-105633874D01*
X146778815Y-105534745D01*
X146718367Y-105421656D01*
X146714002Y-105407266D01*
X146681140Y-105298938D01*
X146671720Y-105203293D01*
X146671720Y-104339348D01*
X146681140Y-104243703D01*
X146708680Y-104152917D01*
X146718366Y-104120985D01*
X146778814Y-104007896D01*
X146860167Y-103908766D01*
X146959295Y-103827414D01*
X147072384Y-103766966D01*
X147104316Y-103757280D01*
X147195102Y-103729740D01*
X147322720Y-103717171D01*
X147450337Y-103729740D01*
G37*
G36*
X149990337Y-103729740D02*
G01*
X150081123Y-103757280D01*
X150113055Y-103766966D01*
X150226144Y-103827414D01*
X150325274Y-103908767D01*
X150406626Y-104007895D01*
X150467074Y-104120984D01*
X150468192Y-104124669D01*
X150504300Y-104243702D01*
X150504663Y-104247385D01*
X150513720Y-104339346D01*
X150513720Y-105203294D01*
X150510580Y-105235175D01*
X150504300Y-105298938D01*
X150476760Y-105389724D01*
X150467074Y-105421656D01*
X150406626Y-105534745D01*
X150325274Y-105633874D01*
X150226145Y-105715226D01*
X150113056Y-105775674D01*
X150107056Y-105777494D01*
X149990338Y-105812900D01*
X149862720Y-105825469D01*
X149735103Y-105812900D01*
X149618385Y-105777494D01*
X149612385Y-105775674D01*
X149499296Y-105715226D01*
X149400167Y-105633874D01*
X149318815Y-105534745D01*
X149258367Y-105421656D01*
X149254002Y-105407266D01*
X149221140Y-105298938D01*
X149211720Y-105203293D01*
X149211720Y-104339348D01*
X149221140Y-104243703D01*
X149248680Y-104152917D01*
X149258366Y-104120985D01*
X149318814Y-104007896D01*
X149400167Y-103908766D01*
X149499295Y-103827414D01*
X149612384Y-103766966D01*
X149644316Y-103757280D01*
X149735102Y-103729740D01*
X149862720Y-103717171D01*
X149990337Y-103729740D01*
G37*
G36*
X170310337Y-103729740D02*
G01*
X170401123Y-103757280D01*
X170433055Y-103766966D01*
X170546144Y-103827414D01*
X170645274Y-103908767D01*
X170726626Y-104007895D01*
X170787074Y-104120984D01*
X170788192Y-104124669D01*
X170824300Y-104243702D01*
X170824663Y-104247385D01*
X170833720Y-104339346D01*
X170833720Y-105203294D01*
X170830580Y-105235175D01*
X170824300Y-105298938D01*
X170796760Y-105389724D01*
X170787074Y-105421656D01*
X170726626Y-105534745D01*
X170645274Y-105633874D01*
X170546145Y-105715226D01*
X170433056Y-105775674D01*
X170427056Y-105777494D01*
X170310338Y-105812900D01*
X170182720Y-105825469D01*
X170055103Y-105812900D01*
X169938385Y-105777494D01*
X169932385Y-105775674D01*
X169819296Y-105715226D01*
X169720167Y-105633874D01*
X169638815Y-105534745D01*
X169578367Y-105421656D01*
X169574002Y-105407266D01*
X169541140Y-105298938D01*
X169531720Y-105203293D01*
X169531720Y-104339348D01*
X169541140Y-104243703D01*
X169568680Y-104152917D01*
X169578366Y-104120985D01*
X169638814Y-104007896D01*
X169720167Y-103908766D01*
X169819295Y-103827414D01*
X169932384Y-103766966D01*
X169964316Y-103757280D01*
X170055102Y-103729740D01*
X170182720Y-103717171D01*
X170310337Y-103729740D01*
G37*
G36*
X177930337Y-103729740D02*
G01*
X178021123Y-103757280D01*
X178053055Y-103766966D01*
X178166144Y-103827414D01*
X178265274Y-103908767D01*
X178346626Y-104007895D01*
X178407074Y-104120984D01*
X178408192Y-104124669D01*
X178444300Y-104243702D01*
X178444663Y-104247385D01*
X178453720Y-104339346D01*
X178453720Y-105203294D01*
X178450580Y-105235175D01*
X178444300Y-105298938D01*
X178416760Y-105389724D01*
X178407074Y-105421656D01*
X178346626Y-105534745D01*
X178265274Y-105633874D01*
X178166145Y-105715226D01*
X178053056Y-105775674D01*
X178047056Y-105777494D01*
X177930338Y-105812900D01*
X177802720Y-105825469D01*
X177675103Y-105812900D01*
X177558385Y-105777494D01*
X177552385Y-105775674D01*
X177439296Y-105715226D01*
X177340167Y-105633874D01*
X177258815Y-105534745D01*
X177198367Y-105421656D01*
X177194002Y-105407266D01*
X177161140Y-105298938D01*
X177151720Y-105203293D01*
X177151720Y-104339348D01*
X177161140Y-104243703D01*
X177188680Y-104152917D01*
X177198366Y-104120985D01*
X177258814Y-104007896D01*
X177340167Y-103908766D01*
X177439295Y-103827414D01*
X177552384Y-103766966D01*
X177584316Y-103757280D01*
X177675102Y-103729740D01*
X177802720Y-103717171D01*
X177930337Y-103729740D01*
G37*
G36*
X142681912Y-103725966D02*
G01*
X142731134Y-103740898D01*
X142776498Y-103765146D01*
X142816262Y-103797778D01*
X142848894Y-103837542D01*
X142873142Y-103882906D01*
X142888074Y-103932128D01*
X142893720Y-103989460D01*
X142893720Y-105553180D01*
X142888074Y-105610512D01*
X142873142Y-105659734D01*
X142848894Y-105705098D01*
X142816262Y-105744862D01*
X142776498Y-105777494D01*
X142731134Y-105801742D01*
X142681912Y-105816674D01*
X142624580Y-105822320D01*
X141860860Y-105822320D01*
X141803528Y-105816674D01*
X141754306Y-105801742D01*
X141708942Y-105777494D01*
X141669178Y-105744862D01*
X141636546Y-105705098D01*
X141612298Y-105659734D01*
X141597366Y-105610512D01*
X141591720Y-105553180D01*
X141591720Y-103989460D01*
X141597366Y-103932128D01*
X141612298Y-103882906D01*
X141636546Y-103837542D01*
X141669178Y-103797778D01*
X141708942Y-103765146D01*
X141754306Y-103740898D01*
X141803528Y-103725966D01*
X141860860Y-103720320D01*
X142624580Y-103720320D01*
X142681912Y-103725966D01*
G37*
G36*
X105523512Y-103243927D02*
G01*
X105672812Y-103273624D01*
X105836784Y-103341544D01*
X105984354Y-103440147D01*
X106109853Y-103565646D01*
X106208456Y-103713216D01*
X106276376Y-103877188D01*
X106311000Y-104051259D01*
X106311000Y-104228741D01*
X106276376Y-104402812D01*
X106208456Y-104566784D01*
X106109853Y-104714354D01*
X105984354Y-104839853D01*
X105836784Y-104938456D01*
X105672812Y-105006376D01*
X105523512Y-105036073D01*
X105498742Y-105041000D01*
X105321258Y-105041000D01*
X105296488Y-105036073D01*
X105147188Y-105006376D01*
X104983216Y-104938456D01*
X104835646Y-104839853D01*
X104710147Y-104714354D01*
X104611544Y-104566784D01*
X104543624Y-104402812D01*
X104509000Y-104228741D01*
X104509000Y-104051259D01*
X104543624Y-103877188D01*
X104611544Y-103713216D01*
X104710147Y-103565646D01*
X104835646Y-103440147D01*
X104983216Y-103341544D01*
X105147188Y-103273624D01*
X105296488Y-103243927D01*
X105321258Y-103239000D01*
X105498742Y-103239000D01*
X105523512Y-103243927D01*
G37*
G36*
X122284903Y-100397075D02*
G01*
X122337210Y-100418741D01*
X122512571Y-100491378D01*
X122717466Y-100628285D01*
X122891715Y-100802534D01*
X123028622Y-101007429D01*
X123122925Y-101235097D01*
X123171000Y-101476787D01*
X123171000Y-101723213D01*
X123122925Y-101964903D01*
X123028622Y-102192571D01*
X122891715Y-102397466D01*
X122717466Y-102571715D01*
X122512571Y-102708622D01*
X122512570Y-102708623D01*
X122512569Y-102708623D01*
X122284903Y-102802925D01*
X122043214Y-102851000D01*
X121796786Y-102851000D01*
X121555097Y-102802925D01*
X121327431Y-102708623D01*
X121327430Y-102708623D01*
X121327429Y-102708622D01*
X121122534Y-102571715D01*
X120948285Y-102397466D01*
X120811378Y-102192571D01*
X120717075Y-101964903D01*
X120669000Y-101723213D01*
X120669000Y-101476787D01*
X120717075Y-101235097D01*
X120811378Y-101007429D01*
X120948285Y-100802534D01*
X121122534Y-100628285D01*
X121327429Y-100491378D01*
X121502791Y-100418741D01*
X121555097Y-100397075D01*
X121796786Y-100349000D01*
X122043214Y-100349000D01*
X122284903Y-100397075D01*
G37*
G36*
X109584903Y-100397075D02*
G01*
X109637210Y-100418741D01*
X109812571Y-100491378D01*
X110017466Y-100628285D01*
X110191715Y-100802534D01*
X110328622Y-101007429D01*
X110422925Y-101235097D01*
X110471000Y-101476787D01*
X110471000Y-101723213D01*
X110422925Y-101964903D01*
X110328622Y-102192571D01*
X110191715Y-102397466D01*
X110017466Y-102571715D01*
X109812571Y-102708622D01*
X109812570Y-102708623D01*
X109812569Y-102708623D01*
X109584903Y-102802925D01*
X109343214Y-102851000D01*
X109096786Y-102851000D01*
X108855097Y-102802925D01*
X108627431Y-102708623D01*
X108627430Y-102708623D01*
X108627429Y-102708622D01*
X108422534Y-102571715D01*
X108248285Y-102397466D01*
X108111378Y-102192571D01*
X108017075Y-101964903D01*
X107969000Y-101723213D01*
X107969000Y-101476787D01*
X108017075Y-101235097D01*
X108111378Y-101007429D01*
X108248285Y-100802534D01*
X108422534Y-100628285D01*
X108627429Y-100491378D01*
X108802791Y-100418741D01*
X108855097Y-100397075D01*
X109096786Y-100349000D01*
X109343214Y-100349000D01*
X109584903Y-100397075D01*
G37*
G36*
X126007395Y-100685546D02*
G01*
X126180466Y-100757234D01*
X126180467Y-100757235D01*
X126336227Y-100861310D01*
X126468690Y-100993773D01*
X126477816Y-101007431D01*
X126572766Y-101149534D01*
X126644454Y-101322605D01*
X126681000Y-101506333D01*
X126681000Y-101693667D01*
X126644454Y-101877395D01*
X126572766Y-102050466D01*
X126572765Y-102050467D01*
X126468690Y-102206227D01*
X126336227Y-102338690D01*
X126257818Y-102391081D01*
X126180466Y-102442766D01*
X126007395Y-102514454D01*
X125823667Y-102551000D01*
X125636333Y-102551000D01*
X125452605Y-102514454D01*
X125279534Y-102442766D01*
X125202182Y-102391081D01*
X125123773Y-102338690D01*
X124991310Y-102206227D01*
X124887235Y-102050467D01*
X124887234Y-102050466D01*
X124815546Y-101877395D01*
X124779000Y-101693667D01*
X124779000Y-101506333D01*
X124815546Y-101322605D01*
X124887234Y-101149534D01*
X124982184Y-101007431D01*
X124991310Y-100993773D01*
X125123773Y-100861310D01*
X125279533Y-100757235D01*
X125279534Y-100757234D01*
X125452605Y-100685546D01*
X125636333Y-100649000D01*
X125823667Y-100649000D01*
X126007395Y-100685546D01*
G37*
G36*
X129221000Y-102551000D02*
G01*
X127319000Y-102551000D01*
X127319000Y-100649000D01*
X129221000Y-100649000D01*
X129221000Y-102551000D01*
G37*
G36*
X105523512Y-100703927D02*
G01*
X105672812Y-100733624D01*
X105836784Y-100801544D01*
X105984354Y-100900147D01*
X106109853Y-101025646D01*
X106208456Y-101173216D01*
X106276376Y-101337188D01*
X106311000Y-101511259D01*
X106311000Y-101688741D01*
X106276376Y-101862812D01*
X106208456Y-102026784D01*
X106109853Y-102174354D01*
X105984354Y-102299853D01*
X105836784Y-102398456D01*
X105672812Y-102466376D01*
X105523512Y-102496073D01*
X105498742Y-102501000D01*
X105321258Y-102501000D01*
X105296488Y-102496073D01*
X105147188Y-102466376D01*
X104983216Y-102398456D01*
X104835646Y-102299853D01*
X104710147Y-102174354D01*
X104611544Y-102026784D01*
X104543624Y-101862812D01*
X104509000Y-101688741D01*
X104509000Y-101511259D01*
X104543624Y-101337188D01*
X104611544Y-101173216D01*
X104710147Y-101025646D01*
X104835646Y-100900147D01*
X104983216Y-100801544D01*
X105147188Y-100733624D01*
X105296488Y-100703927D01*
X105321258Y-100699000D01*
X105498742Y-100699000D01*
X105523512Y-100703927D01*
G37*
G36*
X188073512Y-99433927D02*
G01*
X188222812Y-99463624D01*
X188386784Y-99531544D01*
X188534354Y-99630147D01*
X188659853Y-99755646D01*
X188758456Y-99903216D01*
X188826376Y-100067188D01*
X188861000Y-100241259D01*
X188861000Y-100418741D01*
X188826376Y-100592812D01*
X188758456Y-100756784D01*
X188659853Y-100904354D01*
X188534354Y-101029853D01*
X188386784Y-101128456D01*
X188222812Y-101196376D01*
X188073512Y-101226073D01*
X188048742Y-101231000D01*
X187871258Y-101231000D01*
X187846488Y-101226073D01*
X187697188Y-101196376D01*
X187533216Y-101128456D01*
X187385646Y-101029853D01*
X187260147Y-100904354D01*
X187161544Y-100756784D01*
X187093624Y-100592812D01*
X187059000Y-100418741D01*
X187059000Y-100241259D01*
X187093624Y-100067188D01*
X187161544Y-99903216D01*
X187260147Y-99755646D01*
X187385646Y-99630147D01*
X187533216Y-99531544D01*
X187697188Y-99463624D01*
X187846488Y-99433927D01*
X187871258Y-99429000D01*
X188048742Y-99429000D01*
X188073512Y-99433927D01*
G37*
G36*
X172833512Y-99433927D02*
G01*
X172982812Y-99463624D01*
X173146784Y-99531544D01*
X173294354Y-99630147D01*
X173419853Y-99755646D01*
X173518456Y-99903216D01*
X173586376Y-100067188D01*
X173621000Y-100241259D01*
X173621000Y-100418741D01*
X173586376Y-100592812D01*
X173518456Y-100756784D01*
X173419853Y-100904354D01*
X173294354Y-101029853D01*
X173146784Y-101128456D01*
X172982812Y-101196376D01*
X172833512Y-101226073D01*
X172808742Y-101231000D01*
X172631258Y-101231000D01*
X172606488Y-101226073D01*
X172457188Y-101196376D01*
X172293216Y-101128456D01*
X172145646Y-101029853D01*
X172020147Y-100904354D01*
X171921544Y-100756784D01*
X171853624Y-100592812D01*
X171819000Y-100418741D01*
X171819000Y-100241259D01*
X171853624Y-100067188D01*
X171921544Y-99903216D01*
X172020147Y-99755646D01*
X172145646Y-99630147D01*
X172293216Y-99531544D01*
X172457188Y-99463624D01*
X172606488Y-99433927D01*
X172631258Y-99429000D01*
X172808742Y-99429000D01*
X172833512Y-99433927D01*
G37*
G36*
X177913512Y-99433927D02*
G01*
X178062812Y-99463624D01*
X178226784Y-99531544D01*
X178374354Y-99630147D01*
X178499853Y-99755646D01*
X178598456Y-99903216D01*
X178666376Y-100067188D01*
X178701000Y-100241259D01*
X178701000Y-100418741D01*
X178666376Y-100592812D01*
X178598456Y-100756784D01*
X178499853Y-100904354D01*
X178374354Y-101029853D01*
X178226784Y-101128456D01*
X178062812Y-101196376D01*
X177913512Y-101226073D01*
X177888742Y-101231000D01*
X177711258Y-101231000D01*
X177686488Y-101226073D01*
X177537188Y-101196376D01*
X177373216Y-101128456D01*
X177225646Y-101029853D01*
X177100147Y-100904354D01*
X177001544Y-100756784D01*
X176933624Y-100592812D01*
X176899000Y-100418741D01*
X176899000Y-100241259D01*
X176933624Y-100067188D01*
X177001544Y-99903216D01*
X177100147Y-99755646D01*
X177225646Y-99630147D01*
X177373216Y-99531544D01*
X177537188Y-99463624D01*
X177686488Y-99433927D01*
X177711258Y-99429000D01*
X177888742Y-99429000D01*
X177913512Y-99433927D01*
G37*
G36*
X180453512Y-99433927D02*
G01*
X180602812Y-99463624D01*
X180766784Y-99531544D01*
X180914354Y-99630147D01*
X181039853Y-99755646D01*
X181138456Y-99903216D01*
X181206376Y-100067188D01*
X181241000Y-100241259D01*
X181241000Y-100418741D01*
X181206376Y-100592812D01*
X181138456Y-100756784D01*
X181039853Y-100904354D01*
X180914354Y-101029853D01*
X180766784Y-101128456D01*
X180602812Y-101196376D01*
X180453512Y-101226073D01*
X180428742Y-101231000D01*
X180251258Y-101231000D01*
X180226488Y-101226073D01*
X180077188Y-101196376D01*
X179913216Y-101128456D01*
X179765646Y-101029853D01*
X179640147Y-100904354D01*
X179541544Y-100756784D01*
X179473624Y-100592812D01*
X179439000Y-100418741D01*
X179439000Y-100241259D01*
X179473624Y-100067188D01*
X179541544Y-99903216D01*
X179640147Y-99755646D01*
X179765646Y-99630147D01*
X179913216Y-99531544D01*
X180077188Y-99463624D01*
X180226488Y-99433927D01*
X180251258Y-99429000D01*
X180428742Y-99429000D01*
X180453512Y-99433927D01*
G37*
G36*
X182993512Y-99433927D02*
G01*
X183142812Y-99463624D01*
X183306784Y-99531544D01*
X183454354Y-99630147D01*
X183579853Y-99755646D01*
X183678456Y-99903216D01*
X183746376Y-100067188D01*
X183781000Y-100241259D01*
X183781000Y-100418741D01*
X183746376Y-100592812D01*
X183678456Y-100756784D01*
X183579853Y-100904354D01*
X183454354Y-101029853D01*
X183306784Y-101128456D01*
X183142812Y-101196376D01*
X182993512Y-101226073D01*
X182968742Y-101231000D01*
X182791258Y-101231000D01*
X182766488Y-101226073D01*
X182617188Y-101196376D01*
X182453216Y-101128456D01*
X182305646Y-101029853D01*
X182180147Y-100904354D01*
X182081544Y-100756784D01*
X182013624Y-100592812D01*
X181979000Y-100418741D01*
X181979000Y-100241259D01*
X182013624Y-100067188D01*
X182081544Y-99903216D01*
X182180147Y-99755646D01*
X182305646Y-99630147D01*
X182453216Y-99531544D01*
X182617188Y-99463624D01*
X182766488Y-99433927D01*
X182791258Y-99429000D01*
X182968742Y-99429000D01*
X182993512Y-99433927D01*
G37*
G36*
X175373512Y-99433927D02*
G01*
X175522812Y-99463624D01*
X175686784Y-99531544D01*
X175834354Y-99630147D01*
X175959853Y-99755646D01*
X176058456Y-99903216D01*
X176126376Y-100067188D01*
X176161000Y-100241259D01*
X176161000Y-100418741D01*
X176126376Y-100592812D01*
X176058456Y-100756784D01*
X175959853Y-100904354D01*
X175834354Y-101029853D01*
X175686784Y-101128456D01*
X175522812Y-101196376D01*
X175373512Y-101226073D01*
X175348742Y-101231000D01*
X175171258Y-101231000D01*
X175146488Y-101226073D01*
X174997188Y-101196376D01*
X174833216Y-101128456D01*
X174685646Y-101029853D01*
X174560147Y-100904354D01*
X174461544Y-100756784D01*
X174393624Y-100592812D01*
X174359000Y-100418741D01*
X174359000Y-100241259D01*
X174393624Y-100067188D01*
X174461544Y-99903216D01*
X174560147Y-99755646D01*
X174685646Y-99630147D01*
X174833216Y-99531544D01*
X174997188Y-99463624D01*
X175146488Y-99433927D01*
X175171258Y-99429000D01*
X175348742Y-99429000D01*
X175373512Y-99433927D01*
G37*
G36*
X162673512Y-99433927D02*
G01*
X162822812Y-99463624D01*
X162986784Y-99531544D01*
X163134354Y-99630147D01*
X163259853Y-99755646D01*
X163358456Y-99903216D01*
X163426376Y-100067188D01*
X163461000Y-100241259D01*
X163461000Y-100418741D01*
X163426376Y-100592812D01*
X163358456Y-100756784D01*
X163259853Y-100904354D01*
X163134354Y-101029853D01*
X162986784Y-101128456D01*
X162822812Y-101196376D01*
X162673512Y-101226073D01*
X162648742Y-101231000D01*
X162471258Y-101231000D01*
X162446488Y-101226073D01*
X162297188Y-101196376D01*
X162133216Y-101128456D01*
X161985646Y-101029853D01*
X161860147Y-100904354D01*
X161761544Y-100756784D01*
X161693624Y-100592812D01*
X161659000Y-100418741D01*
X161659000Y-100241259D01*
X161693624Y-100067188D01*
X161761544Y-99903216D01*
X161860147Y-99755646D01*
X161985646Y-99630147D01*
X162133216Y-99531544D01*
X162297188Y-99463624D01*
X162446488Y-99433927D01*
X162471258Y-99429000D01*
X162648742Y-99429000D01*
X162673512Y-99433927D01*
G37*
G36*
X149973512Y-99433927D02*
G01*
X150122812Y-99463624D01*
X150286784Y-99531544D01*
X150434354Y-99630147D01*
X150559853Y-99755646D01*
X150658456Y-99903216D01*
X150726376Y-100067188D01*
X150761000Y-100241259D01*
X150761000Y-100418741D01*
X150726376Y-100592812D01*
X150658456Y-100756784D01*
X150559853Y-100904354D01*
X150434354Y-101029853D01*
X150286784Y-101128456D01*
X150122812Y-101196376D01*
X149973512Y-101226073D01*
X149948742Y-101231000D01*
X149771258Y-101231000D01*
X149746488Y-101226073D01*
X149597188Y-101196376D01*
X149433216Y-101128456D01*
X149285646Y-101029853D01*
X149160147Y-100904354D01*
X149061544Y-100756784D01*
X148993624Y-100592812D01*
X148959000Y-100418741D01*
X148959000Y-100241259D01*
X148993624Y-100067188D01*
X149061544Y-99903216D01*
X149160147Y-99755646D01*
X149285646Y-99630147D01*
X149433216Y-99531544D01*
X149597188Y-99463624D01*
X149746488Y-99433927D01*
X149771258Y-99429000D01*
X149948742Y-99429000D01*
X149973512Y-99433927D01*
G37*
G36*
X185533512Y-99433927D02*
G01*
X185682812Y-99463624D01*
X185846784Y-99531544D01*
X185994354Y-99630147D01*
X186119853Y-99755646D01*
X186218456Y-99903216D01*
X186286376Y-100067188D01*
X186321000Y-100241259D01*
X186321000Y-100418741D01*
X186286376Y-100592812D01*
X186218456Y-100756784D01*
X186119853Y-100904354D01*
X185994354Y-101029853D01*
X185846784Y-101128456D01*
X185682812Y-101196376D01*
X185533512Y-101226073D01*
X185508742Y-101231000D01*
X185331258Y-101231000D01*
X185306488Y-101226073D01*
X185157188Y-101196376D01*
X184993216Y-101128456D01*
X184845646Y-101029853D01*
X184720147Y-100904354D01*
X184621544Y-100756784D01*
X184553624Y-100592812D01*
X184519000Y-100418741D01*
X184519000Y-100241259D01*
X184553624Y-100067188D01*
X184621544Y-99903216D01*
X184720147Y-99755646D01*
X184845646Y-99630147D01*
X184993216Y-99531544D01*
X185157188Y-99463624D01*
X185306488Y-99433927D01*
X185331258Y-99429000D01*
X185508742Y-99429000D01*
X185533512Y-99433927D01*
G37*
G36*
X143141000Y-101231000D02*
G01*
X141339000Y-101231000D01*
X141339000Y-99429000D01*
X143141000Y-99429000D01*
X143141000Y-101231000D01*
G37*
G36*
X147433512Y-99433927D02*
G01*
X147582812Y-99463624D01*
X147746784Y-99531544D01*
X147894354Y-99630147D01*
X148019853Y-99755646D01*
X148118456Y-99903216D01*
X148186376Y-100067188D01*
X148221000Y-100241259D01*
X148221000Y-100418741D01*
X148186376Y-100592812D01*
X148118456Y-100756784D01*
X148019853Y-100904354D01*
X147894354Y-101029853D01*
X147746784Y-101128456D01*
X147582812Y-101196376D01*
X147433512Y-101226073D01*
X147408742Y-101231000D01*
X147231258Y-101231000D01*
X147206488Y-101226073D01*
X147057188Y-101196376D01*
X146893216Y-101128456D01*
X146745646Y-101029853D01*
X146620147Y-100904354D01*
X146521544Y-100756784D01*
X146453624Y-100592812D01*
X146419000Y-100418741D01*
X146419000Y-100241259D01*
X146453624Y-100067188D01*
X146521544Y-99903216D01*
X146620147Y-99755646D01*
X146745646Y-99630147D01*
X146893216Y-99531544D01*
X147057188Y-99463624D01*
X147206488Y-99433927D01*
X147231258Y-99429000D01*
X147408742Y-99429000D01*
X147433512Y-99433927D01*
G37*
G36*
X144893512Y-99433927D02*
G01*
X145042812Y-99463624D01*
X145206784Y-99531544D01*
X145354354Y-99630147D01*
X145479853Y-99755646D01*
X145578456Y-99903216D01*
X145646376Y-100067188D01*
X145681000Y-100241259D01*
X145681000Y-100418741D01*
X145646376Y-100592812D01*
X145578456Y-100756784D01*
X145479853Y-100904354D01*
X145354354Y-101029853D01*
X145206784Y-101128456D01*
X145042812Y-101196376D01*
X144893512Y-101226073D01*
X144868742Y-101231000D01*
X144691258Y-101231000D01*
X144666488Y-101226073D01*
X144517188Y-101196376D01*
X144353216Y-101128456D01*
X144205646Y-101029853D01*
X144080147Y-100904354D01*
X143981544Y-100756784D01*
X143913624Y-100592812D01*
X143879000Y-100418741D01*
X143879000Y-100241259D01*
X143913624Y-100067188D01*
X143981544Y-99903216D01*
X144080147Y-99755646D01*
X144205646Y-99630147D01*
X144353216Y-99531544D01*
X144517188Y-99463624D01*
X144666488Y-99433927D01*
X144691258Y-99429000D01*
X144868742Y-99429000D01*
X144893512Y-99433927D01*
G37*
G36*
X152513512Y-99433927D02*
G01*
X152662812Y-99463624D01*
X152826784Y-99531544D01*
X152974354Y-99630147D01*
X153099853Y-99755646D01*
X153198456Y-99903216D01*
X153266376Y-100067188D01*
X153301000Y-100241259D01*
X153301000Y-100418741D01*
X153266376Y-100592812D01*
X153198456Y-100756784D01*
X153099853Y-100904354D01*
X152974354Y-101029853D01*
X152826784Y-101128456D01*
X152662812Y-101196376D01*
X152513512Y-101226073D01*
X152488742Y-101231000D01*
X152311258Y-101231000D01*
X152286488Y-101226073D01*
X152137188Y-101196376D01*
X151973216Y-101128456D01*
X151825646Y-101029853D01*
X151700147Y-100904354D01*
X151601544Y-100756784D01*
X151533624Y-100592812D01*
X151499000Y-100418741D01*
X151499000Y-100241259D01*
X151533624Y-100067188D01*
X151601544Y-99903216D01*
X151700147Y-99755646D01*
X151825646Y-99630147D01*
X151973216Y-99531544D01*
X152137188Y-99463624D01*
X152286488Y-99433927D01*
X152311258Y-99429000D01*
X152488742Y-99429000D01*
X152513512Y-99433927D01*
G37*
G36*
X165213512Y-99433927D02*
G01*
X165362812Y-99463624D01*
X165526784Y-99531544D01*
X165674354Y-99630147D01*
X165799853Y-99755646D01*
X165898456Y-99903216D01*
X165966376Y-100067188D01*
X166001000Y-100241259D01*
X166001000Y-100418741D01*
X165966376Y-100592812D01*
X165898456Y-100756784D01*
X165799853Y-100904354D01*
X165674354Y-101029853D01*
X165526784Y-101128456D01*
X165362812Y-101196376D01*
X165213512Y-101226073D01*
X165188742Y-101231000D01*
X165011258Y-101231000D01*
X164986488Y-101226073D01*
X164837188Y-101196376D01*
X164673216Y-101128456D01*
X164525646Y-101029853D01*
X164400147Y-100904354D01*
X164301544Y-100756784D01*
X164233624Y-100592812D01*
X164199000Y-100418741D01*
X164199000Y-100241259D01*
X164233624Y-100067188D01*
X164301544Y-99903216D01*
X164400147Y-99755646D01*
X164525646Y-99630147D01*
X164673216Y-99531544D01*
X164837188Y-99463624D01*
X164986488Y-99433927D01*
X165011258Y-99429000D01*
X165188742Y-99429000D01*
X165213512Y-99433927D01*
G37*
G36*
X170293512Y-99433927D02*
G01*
X170442812Y-99463624D01*
X170606784Y-99531544D01*
X170754354Y-99630147D01*
X170879853Y-99755646D01*
X170978456Y-99903216D01*
X171046376Y-100067188D01*
X171081000Y-100241259D01*
X171081000Y-100418741D01*
X171046376Y-100592812D01*
X170978456Y-100756784D01*
X170879853Y-100904354D01*
X170754354Y-101029853D01*
X170606784Y-101128456D01*
X170442812Y-101196376D01*
X170293512Y-101226073D01*
X170268742Y-101231000D01*
X170091258Y-101231000D01*
X170066488Y-101226073D01*
X169917188Y-101196376D01*
X169753216Y-101128456D01*
X169605646Y-101029853D01*
X169480147Y-100904354D01*
X169381544Y-100756784D01*
X169313624Y-100592812D01*
X169279000Y-100418741D01*
X169279000Y-100241259D01*
X169313624Y-100067188D01*
X169381544Y-99903216D01*
X169480147Y-99755646D01*
X169605646Y-99630147D01*
X169753216Y-99531544D01*
X169917188Y-99463624D01*
X170066488Y-99433927D01*
X170091258Y-99429000D01*
X170268742Y-99429000D01*
X170293512Y-99433927D01*
G37*
G36*
X167753512Y-99433927D02*
G01*
X167902812Y-99463624D01*
X168066784Y-99531544D01*
X168214354Y-99630147D01*
X168339853Y-99755646D01*
X168438456Y-99903216D01*
X168506376Y-100067188D01*
X168541000Y-100241259D01*
X168541000Y-100418741D01*
X168506376Y-100592812D01*
X168438456Y-100756784D01*
X168339853Y-100904354D01*
X168214354Y-101029853D01*
X168066784Y-101128456D01*
X167902812Y-101196376D01*
X167753512Y-101226073D01*
X167728742Y-101231000D01*
X167551258Y-101231000D01*
X167526488Y-101226073D01*
X167377188Y-101196376D01*
X167213216Y-101128456D01*
X167065646Y-101029853D01*
X166940147Y-100904354D01*
X166841544Y-100756784D01*
X166773624Y-100592812D01*
X166739000Y-100418741D01*
X166739000Y-100241259D01*
X166773624Y-100067188D01*
X166841544Y-99903216D01*
X166940147Y-99755646D01*
X167065646Y-99630147D01*
X167213216Y-99531544D01*
X167377188Y-99463624D01*
X167526488Y-99433927D01*
X167551258Y-99429000D01*
X167728742Y-99429000D01*
X167753512Y-99433927D01*
G37*
G36*
X160133512Y-99433927D02*
G01*
X160282812Y-99463624D01*
X160446784Y-99531544D01*
X160594354Y-99630147D01*
X160719853Y-99755646D01*
X160818456Y-99903216D01*
X160886376Y-100067188D01*
X160921000Y-100241259D01*
X160921000Y-100418741D01*
X160886376Y-100592812D01*
X160818456Y-100756784D01*
X160719853Y-100904354D01*
X160594354Y-101029853D01*
X160446784Y-101128456D01*
X160282812Y-101196376D01*
X160133512Y-101226073D01*
X160108742Y-101231000D01*
X159931258Y-101231000D01*
X159906488Y-101226073D01*
X159757188Y-101196376D01*
X159593216Y-101128456D01*
X159445646Y-101029853D01*
X159320147Y-100904354D01*
X159221544Y-100756784D01*
X159153624Y-100592812D01*
X159119000Y-100418741D01*
X159119000Y-100241259D01*
X159153624Y-100067188D01*
X159221544Y-99903216D01*
X159320147Y-99755646D01*
X159445646Y-99630147D01*
X159593216Y-99531544D01*
X159757188Y-99463624D01*
X159906488Y-99433927D01*
X159931258Y-99429000D01*
X160108742Y-99429000D01*
X160133512Y-99433927D01*
G37*
G36*
X157593512Y-99433927D02*
G01*
X157742812Y-99463624D01*
X157906784Y-99531544D01*
X158054354Y-99630147D01*
X158179853Y-99755646D01*
X158278456Y-99903216D01*
X158346376Y-100067188D01*
X158381000Y-100241259D01*
X158381000Y-100418741D01*
X158346376Y-100592812D01*
X158278456Y-100756784D01*
X158179853Y-100904354D01*
X158054354Y-101029853D01*
X157906784Y-101128456D01*
X157742812Y-101196376D01*
X157593512Y-101226073D01*
X157568742Y-101231000D01*
X157391258Y-101231000D01*
X157366488Y-101226073D01*
X157217188Y-101196376D01*
X157053216Y-101128456D01*
X156905646Y-101029853D01*
X156780147Y-100904354D01*
X156681544Y-100756784D01*
X156613624Y-100592812D01*
X156579000Y-100418741D01*
X156579000Y-100241259D01*
X156613624Y-100067188D01*
X156681544Y-99903216D01*
X156780147Y-99755646D01*
X156905646Y-99630147D01*
X157053216Y-99531544D01*
X157217188Y-99463624D01*
X157366488Y-99433927D01*
X157391258Y-99429000D01*
X157568742Y-99429000D01*
X157593512Y-99433927D01*
G37*
G36*
X155053512Y-99433927D02*
G01*
X155202812Y-99463624D01*
X155366784Y-99531544D01*
X155514354Y-99630147D01*
X155639853Y-99755646D01*
X155738456Y-99903216D01*
X155806376Y-100067188D01*
X155841000Y-100241259D01*
X155841000Y-100418741D01*
X155806376Y-100592812D01*
X155738456Y-100756784D01*
X155639853Y-100904354D01*
X155514354Y-101029853D01*
X155366784Y-101128456D01*
X155202812Y-101196376D01*
X155053512Y-101226073D01*
X155028742Y-101231000D01*
X154851258Y-101231000D01*
X154826488Y-101226073D01*
X154677188Y-101196376D01*
X154513216Y-101128456D01*
X154365646Y-101029853D01*
X154240147Y-100904354D01*
X154141544Y-100756784D01*
X154073624Y-100592812D01*
X154039000Y-100418741D01*
X154039000Y-100241259D01*
X154073624Y-100067188D01*
X154141544Y-99903216D01*
X154240147Y-99755646D01*
X154365646Y-99630147D01*
X154513216Y-99531544D01*
X154677188Y-99463624D01*
X154826488Y-99433927D01*
X154851258Y-99429000D01*
X155028742Y-99429000D01*
X155053512Y-99433927D01*
G37*
G36*
X105523512Y-98163927D02*
G01*
X105672812Y-98193624D01*
X105836784Y-98261544D01*
X105984354Y-98360147D01*
X106109853Y-98485646D01*
X106208456Y-98633216D01*
X106276376Y-98797188D01*
X106311000Y-98971259D01*
X106311000Y-99148741D01*
X106276376Y-99322812D01*
X106208456Y-99486784D01*
X106109853Y-99634354D01*
X105984354Y-99759853D01*
X105836784Y-99858456D01*
X105672812Y-99926376D01*
X105523512Y-99956073D01*
X105498742Y-99961000D01*
X105321258Y-99961000D01*
X105296488Y-99956073D01*
X105147188Y-99926376D01*
X104983216Y-99858456D01*
X104835646Y-99759853D01*
X104710147Y-99634354D01*
X104611544Y-99486784D01*
X104543624Y-99322812D01*
X104509000Y-99148741D01*
X104509000Y-98971259D01*
X104543624Y-98797188D01*
X104611544Y-98633216D01*
X104710147Y-98485646D01*
X104835646Y-98360147D01*
X104983216Y-98261544D01*
X105147188Y-98193624D01*
X105296488Y-98163927D01*
X105321258Y-98159000D01*
X105498742Y-98159000D01*
X105523512Y-98163927D01*
G37*
G36*
X134151000Y-95751000D02*
G01*
X132549000Y-95751000D01*
X132549000Y-94749000D01*
X134151000Y-94749000D01*
X134151000Y-95751000D01*
G37*
G36*
X122284903Y-92777075D02*
G01*
X122512571Y-92871378D01*
X122717466Y-93008285D01*
X122891715Y-93182534D01*
X123028622Y-93387429D01*
X123028623Y-93387431D01*
X123122925Y-93615097D01*
X123171000Y-93856786D01*
X123171000Y-94103214D01*
X123122925Y-94344903D01*
X123100691Y-94398582D01*
X123028622Y-94572571D01*
X122891715Y-94777466D01*
X122717466Y-94951715D01*
X122512571Y-95088622D01*
X122512570Y-95088623D01*
X122512569Y-95088623D01*
X122284903Y-95182925D01*
X122043214Y-95231000D01*
X121796786Y-95231000D01*
X121555097Y-95182925D01*
X121327431Y-95088623D01*
X121327430Y-95088623D01*
X121327429Y-95088622D01*
X121122534Y-94951715D01*
X120948285Y-94777466D01*
X120811378Y-94572571D01*
X120739310Y-94398582D01*
X120717075Y-94344903D01*
X120669000Y-94103214D01*
X120669000Y-93856786D01*
X120717075Y-93615097D01*
X120811377Y-93387431D01*
X120811378Y-93387429D01*
X120948285Y-93182534D01*
X121122534Y-93008285D01*
X121327429Y-92871378D01*
X121555097Y-92777075D01*
X121796786Y-92729000D01*
X122043214Y-92729000D01*
X122284903Y-92777075D01*
G37*
G36*
X109584903Y-92777075D02*
G01*
X109812571Y-92871378D01*
X110017466Y-93008285D01*
X110191715Y-93182534D01*
X110328622Y-93387429D01*
X110328623Y-93387431D01*
X110422925Y-93615097D01*
X110471000Y-93856786D01*
X110471000Y-94103214D01*
X110422925Y-94344903D01*
X110400691Y-94398582D01*
X110328622Y-94572571D01*
X110191715Y-94777466D01*
X110017466Y-94951715D01*
X109812571Y-95088622D01*
X109812570Y-95088623D01*
X109812569Y-95088623D01*
X109584903Y-95182925D01*
X109343214Y-95231000D01*
X109096786Y-95231000D01*
X108855097Y-95182925D01*
X108627431Y-95088623D01*
X108627430Y-95088623D01*
X108627429Y-95088622D01*
X108422534Y-94951715D01*
X108248285Y-94777466D01*
X108111378Y-94572571D01*
X108039310Y-94398582D01*
X108017075Y-94344903D01*
X107969000Y-94103214D01*
X107969000Y-93856786D01*
X108017075Y-93615097D01*
X108111377Y-93387431D01*
X108111378Y-93387429D01*
X108248285Y-93182534D01*
X108422534Y-93008285D01*
X108627429Y-92871378D01*
X108855097Y-92777075D01*
X109096786Y-92729000D01*
X109343214Y-92729000D01*
X109584903Y-92777075D01*
G37*
G36*
X137524903Y-92777075D02*
G01*
X137752571Y-92871378D01*
X137957466Y-93008285D01*
X138131715Y-93182534D01*
X138268622Y-93387429D01*
X138268623Y-93387431D01*
X138362925Y-93615097D01*
X138411000Y-93856786D01*
X138411000Y-94103214D01*
X138362925Y-94344903D01*
X138340691Y-94398582D01*
X138268622Y-94572571D01*
X138131715Y-94777466D01*
X137957466Y-94951715D01*
X137752571Y-95088622D01*
X137752570Y-95088623D01*
X137752569Y-95088623D01*
X137524903Y-95182925D01*
X137283214Y-95231000D01*
X137036786Y-95231000D01*
X136795097Y-95182925D01*
X136567431Y-95088623D01*
X136567430Y-95088623D01*
X136567429Y-95088622D01*
X136362534Y-94951715D01*
X136188285Y-94777466D01*
X136051378Y-94572571D01*
X135979310Y-94398582D01*
X135957075Y-94344903D01*
X135909000Y-94103214D01*
X135909000Y-93856786D01*
X135957075Y-93615097D01*
X136051377Y-93387431D01*
X136051378Y-93387429D01*
X136188285Y-93182534D01*
X136362534Y-93008285D01*
X136567429Y-92871378D01*
X136795097Y-92777075D01*
X137036786Y-92729000D01*
X137283214Y-92729000D01*
X137524903Y-92777075D01*
G37*
G36*
X150224903Y-92777075D02*
G01*
X150452571Y-92871378D01*
X150657466Y-93008285D01*
X150831715Y-93182534D01*
X150968622Y-93387429D01*
X150968623Y-93387431D01*
X151062925Y-93615097D01*
X151111000Y-93856786D01*
X151111000Y-94103214D01*
X151062925Y-94344903D01*
X151040691Y-94398582D01*
X150968622Y-94572571D01*
X150831715Y-94777466D01*
X150657466Y-94951715D01*
X150452571Y-95088622D01*
X150452570Y-95088623D01*
X150452569Y-95088623D01*
X150224903Y-95182925D01*
X149983214Y-95231000D01*
X149736786Y-95231000D01*
X149495097Y-95182925D01*
X149267431Y-95088623D01*
X149267430Y-95088623D01*
X149267429Y-95088622D01*
X149062534Y-94951715D01*
X148888285Y-94777466D01*
X148751378Y-94572571D01*
X148679310Y-94398582D01*
X148657075Y-94344903D01*
X148609000Y-94103214D01*
X148609000Y-93856786D01*
X148657075Y-93615097D01*
X148751377Y-93387431D01*
X148751378Y-93387429D01*
X148888285Y-93182534D01*
X149062534Y-93008285D01*
X149267429Y-92871378D01*
X149495097Y-92777075D01*
X149736786Y-92729000D01*
X149983214Y-92729000D01*
X150224903Y-92777075D01*
G37*
G36*
X126007395Y-93065546D02*
G01*
X126180466Y-93137234D01*
X126180467Y-93137235D01*
X126336227Y-93241310D01*
X126468690Y-93373773D01*
X126477816Y-93387431D01*
X126572766Y-93529534D01*
X126644454Y-93702605D01*
X126681000Y-93886333D01*
X126681000Y-94073667D01*
X126644454Y-94257395D01*
X126572766Y-94430466D01*
X126543844Y-94473751D01*
X126468690Y-94586227D01*
X126336227Y-94718690D01*
X126257818Y-94771081D01*
X126180466Y-94822766D01*
X126007395Y-94894454D01*
X125823667Y-94931000D01*
X125636333Y-94931000D01*
X125452605Y-94894454D01*
X125279534Y-94822766D01*
X125202182Y-94771081D01*
X125123773Y-94718690D01*
X124991310Y-94586227D01*
X124916156Y-94473751D01*
X124887234Y-94430466D01*
X124815546Y-94257395D01*
X124779000Y-94073667D01*
X124779000Y-93886333D01*
X124815546Y-93702605D01*
X124887234Y-93529534D01*
X124982184Y-93387431D01*
X124991310Y-93373773D01*
X125123773Y-93241310D01*
X125279533Y-93137235D01*
X125279534Y-93137234D01*
X125452605Y-93065546D01*
X125636333Y-93029000D01*
X125823667Y-93029000D01*
X126007395Y-93065546D01*
G37*
G36*
X129221000Y-94931000D02*
G01*
X127319000Y-94931000D01*
X127319000Y-93029000D01*
X129221000Y-93029000D01*
X129221000Y-94931000D01*
G37*
G36*
X106311000Y-94881000D02*
G01*
X104509000Y-94881000D01*
X104509000Y-93079000D01*
X106311000Y-93079000D01*
X106311000Y-94881000D01*
G37*
G36*
X133748213Y-93486249D02*
G01*
X133842652Y-93514897D01*
X133929687Y-93561418D01*
X134005975Y-93624025D01*
X134068582Y-93700313D01*
X134115103Y-93787348D01*
X134143751Y-93881787D01*
X134153424Y-93980000D01*
X134143751Y-94078213D01*
X134115103Y-94172652D01*
X134068582Y-94259687D01*
X134005975Y-94335975D01*
X133929687Y-94398582D01*
X133842652Y-94445103D01*
X133748213Y-94473751D01*
X133674612Y-94481000D01*
X133025388Y-94481000D01*
X132951787Y-94473751D01*
X132857348Y-94445103D01*
X132770313Y-94398582D01*
X132694025Y-94335975D01*
X132631418Y-94259687D01*
X132584897Y-94172652D01*
X132556249Y-94078213D01*
X132546576Y-93980000D01*
X132556249Y-93881787D01*
X132584897Y-93787348D01*
X132631418Y-93700313D01*
X132694025Y-93624025D01*
X132770313Y-93561418D01*
X132857348Y-93514897D01*
X132951787Y-93486249D01*
X133025388Y-93479000D01*
X133674612Y-93479000D01*
X133748213Y-93486249D01*
G37*
G36*
X133748213Y-92216249D02*
G01*
X133842652Y-92244897D01*
X133929687Y-92291418D01*
X134005975Y-92354025D01*
X134068582Y-92430313D01*
X134115103Y-92517348D01*
X134143751Y-92611787D01*
X134153424Y-92710000D01*
X134143751Y-92808213D01*
X134115103Y-92902652D01*
X134068582Y-92989687D01*
X134005975Y-93065975D01*
X133929687Y-93128582D01*
X133842652Y-93175103D01*
X133748213Y-93203751D01*
X133674612Y-93211000D01*
X133025388Y-93211000D01*
X132951787Y-93203751D01*
X132857348Y-93175103D01*
X132770313Y-93128582D01*
X132694025Y-93065975D01*
X132631418Y-92989687D01*
X132584897Y-92902652D01*
X132556249Y-92808213D01*
X132546576Y-92710000D01*
X132556249Y-92611787D01*
X132584897Y-92517348D01*
X132631418Y-92430313D01*
X132694025Y-92354025D01*
X132770313Y-92291418D01*
X132857348Y-92244897D01*
X132951787Y-92216249D01*
X133025388Y-92209000D01*
X133674612Y-92209000D01*
X133748213Y-92216249D01*
G37*
G36*
X105523512Y-90543927D02*
G01*
X105672812Y-90573624D01*
X105836784Y-90641544D01*
X105984354Y-90740147D01*
X106109853Y-90865646D01*
X106208456Y-91013216D01*
X106276376Y-91177188D01*
X106311000Y-91351259D01*
X106311000Y-91528741D01*
X106276376Y-91702812D01*
X106208456Y-91866784D01*
X106109853Y-92014354D01*
X105984354Y-92139853D01*
X105836784Y-92238456D01*
X105672812Y-92306376D01*
X105523512Y-92336073D01*
X105498742Y-92341000D01*
X105321258Y-92341000D01*
X105296488Y-92336073D01*
X105147188Y-92306376D01*
X104983216Y-92238456D01*
X104835646Y-92139853D01*
X104710147Y-92014354D01*
X104611544Y-91866784D01*
X104543624Y-91702812D01*
X104509000Y-91528741D01*
X104509000Y-91351259D01*
X104543624Y-91177188D01*
X104611544Y-91013216D01*
X104710147Y-90865646D01*
X104835646Y-90740147D01*
X104983216Y-90641544D01*
X105147188Y-90573624D01*
X105296488Y-90543927D01*
X105321258Y-90539000D01*
X105498742Y-90539000D01*
X105523512Y-90543927D01*
G37*
G36*
X116801000Y-85501000D02*
G01*
X113199000Y-85501000D01*
X113199000Y-81899000D01*
X116801000Y-81899000D01*
X116801000Y-85501000D01*
G37*
G36*
X136801000Y-85501000D02*
G01*
X133199000Y-85501000D01*
X133199000Y-81899000D01*
X136801000Y-81899000D01*
X136801000Y-85501000D01*
G37*
G36*
X156801000Y-85501000D02*
G01*
X153199000Y-85501000D01*
X153199000Y-81899000D01*
X156801000Y-81899000D01*
X156801000Y-85501000D01*
G37*
G36*
X176801000Y-85501000D02*
G01*
X173199000Y-85501000D01*
X173199000Y-81899000D01*
X176801000Y-81899000D01*
X176801000Y-85501000D01*
G37*
G36*
X112101000Y-82501000D02*
G01*
X108499000Y-82501000D01*
X108499000Y-78899000D01*
X112101000Y-78899000D01*
X112101000Y-82501000D01*
G37*
G36*
X172101000Y-82501000D02*
G01*
X168499000Y-82501000D01*
X168499000Y-78899000D01*
X172101000Y-78899000D01*
X172101000Y-82501000D01*
G37*
G36*
X132101000Y-82501000D02*
G01*
X128499000Y-82501000D01*
X128499000Y-78899000D01*
X132101000Y-78899000D01*
X132101000Y-82501000D01*
G37*
G36*
X152101000Y-82501000D02*
G01*
X148499000Y-82501000D01*
X148499000Y-78899000D01*
X152101000Y-78899000D01*
X152101000Y-82501000D01*
G37*
G36*
X176801000Y-79501000D02*
G01*
X173199000Y-79501000D01*
X173199000Y-75899000D01*
X176801000Y-75899000D01*
X176801000Y-79501000D01*
G37*
G36*
X156801000Y-79501000D02*
G01*
X153199000Y-79501000D01*
X153199000Y-75899000D01*
X156801000Y-75899000D01*
X156801000Y-79501000D01*
G37*
G36*
X136801000Y-79501000D02*
G01*
X133199000Y-79501000D01*
X133199000Y-75899000D01*
X136801000Y-75899000D01*
X136801000Y-79501000D01*
G37*
G36*
X116801000Y-79501000D02*
G01*
X113199000Y-79501000D01*
X113199000Y-75899000D01*
X116801000Y-75899000D01*
X116801000Y-79501000D01*
G37*
G36*
X105375256Y-73391298D02*
G01*
X105481579Y-73412447D01*
X105782042Y-73536903D01*
X106052451Y-73717585D01*
X106282415Y-73947549D01*
X106463097Y-74217958D01*
X106587553Y-74518421D01*
X106651000Y-74837391D01*
X106651000Y-75162609D01*
X106587553Y-75481579D01*
X106463097Y-75782042D01*
X106282415Y-76052451D01*
X106052451Y-76282415D01*
X105782042Y-76463097D01*
X105481579Y-76587553D01*
X105375256Y-76608702D01*
X105162611Y-76651000D01*
X104837389Y-76651000D01*
X104624744Y-76608702D01*
X104518421Y-76587553D01*
X104217958Y-76463097D01*
X103947549Y-76282415D01*
X103717585Y-76052451D01*
X103536903Y-75782042D01*
X103412447Y-75481579D01*
X103349000Y-75162609D01*
X103349000Y-74837391D01*
X103412447Y-74518421D01*
X103536903Y-74217958D01*
X103717585Y-73947549D01*
X103947549Y-73717585D01*
X104217958Y-73536903D01*
X104518421Y-73412447D01*
X104624744Y-73391298D01*
X104837389Y-73349000D01*
X105162611Y-73349000D01*
X105375256Y-73391298D01*
G37*
G36*
X185375256Y-73391298D02*
G01*
X185481579Y-73412447D01*
X185782042Y-73536903D01*
X186052451Y-73717585D01*
X186282415Y-73947549D01*
X186463097Y-74217958D01*
X186587553Y-74518421D01*
X186651000Y-74837391D01*
X186651000Y-75162609D01*
X186587553Y-75481579D01*
X186463097Y-75782042D01*
X186282415Y-76052451D01*
X186052451Y-76282415D01*
X185782042Y-76463097D01*
X185481579Y-76587553D01*
X185375256Y-76608702D01*
X185162611Y-76651000D01*
X184837389Y-76651000D01*
X184624744Y-76608702D01*
X184518421Y-76587553D01*
X184217958Y-76463097D01*
X183947549Y-76282415D01*
X183717585Y-76052451D01*
X183536903Y-75782042D01*
X183412447Y-75481579D01*
X183349000Y-75162609D01*
X183349000Y-74837391D01*
X183412447Y-74518421D01*
X183536903Y-74217958D01*
X183717585Y-73947549D01*
X183947549Y-73717585D01*
X184217958Y-73536903D01*
X184518421Y-73412447D01*
X184624744Y-73391298D01*
X184837389Y-73349000D01*
X185162611Y-73349000D01*
X185375256Y-73391298D01*
G37*
M02*
